<?xml version="1.0" encoding="utf-8" standalone="no"?>
<!DOCTYPE svg PUBLIC "-//W3C//DTD SVG 1.1//EN"
  "http://www.w3.org/Graphics/SVG/1.1/DTD/svg11.dtd">
<svg xmlns:xlink="http://www.w3.org/1999/xlink" width="620.751563pt" height="390.92pt" viewBox="0 0 620.751563 390.92" xmlns="http://www.w3.org/2000/svg" version="1.1">
 <metadata>
  <rdf:RDF xmlns:dc="http://purl.org/dc/elements/1.1/" xmlns:cc="http://creativecommons.org/ns#" xmlns:rdf="http://www.w3.org/1999/02/22-rdf-syntax-ns#">
   <cc:Work>
    <dc:type rdf:resource="http://purl.org/dc/dcmitype/StillImage"/>
    <dc:date>2023-03-20T17:05:43.894307</dc:date>
    <dc:format>image/svg+xml</dc:format>
    <dc:creator>
     <cc:Agent>
      <dc:title>Matplotlib v3.5.3, https://matplotlib.org/</dc:title>
     </cc:Agent>
    </dc:creator>
   </cc:Work>
  </rdf:RDF>
 </metadata>
 <defs>
  <style type="text/css">*{stroke-linejoin: round; stroke-linecap: butt}</style>
 </defs>
 <g id="figure_1">
  <g id="patch_1">
   <path d="M 0 390.92 
L 620.751563 390.92 
L 620.751563 0 
L 0 0 
z
" style="fill: #ffffff"/>
  </g>
  <g id="axes_1">
   <g id="patch_2">
    <path d="M 55.551563 354.429375 
L 613.551563 354.429375 
L 613.551563 21.789375 
L 55.551563 21.789375 
z
" style="fill: #eaeaf2"/>
   </g>
   <g id="matplotlib.axis_1">
    <g id="xtick_1">
     <g id="text_1">
      <!-- 3 -->
      <g style="fill: #262626" transform="translate(72.699665 368.587188)scale(0.1 -0.1)">
       <defs>
        <path id="ArialMT-33" d="M 269 1209 
L 831 1284 
Q 928 806 1161 595 
Q 1394 384 1728 384 
Q 2125 384 2398 659 
Q 2672 934 2672 1341 
Q 2672 1728 2419 1979 
Q 2166 2231 1775 2231 
Q 1616 2231 1378 2169 
L 1441 2663 
Q 1497 2656 1531 2656 
Q 1891 2656 2178 2843 
Q 2466 3031 2466 3422 
Q 2466 3731 2256 3934 
Q 2047 4138 1716 4138 
Q 1388 4138 1169 3931 
Q 950 3725 888 3313 
L 325 3413 
Q 428 3978 793 4289 
Q 1159 4600 1703 4600 
Q 2078 4600 2393 4439 
Q 2709 4278 2876 4000 
Q 3044 3722 3044 3409 
Q 3044 3113 2884 2869 
Q 2725 2625 2413 2481 
Q 2819 2388 3044 2092 
Q 3269 1797 3269 1353 
Q 3269 753 2831 336 
Q 2394 -81 1725 -81 
Q 1122 -81 723 278 
Q 325 638 269 1209 
z
" transform="scale(0.015625)"/>
       </defs>
       <use xlink:href="#ArialMT-33"/>
      </g>
     </g>
    </g>
    <g id="xtick_2">
     <g id="text_2">
      <!-- 6 -->
      <g style="fill: #262626" transform="translate(112.556808 368.587188)scale(0.1 -0.1)">
       <defs>
        <path id="ArialMT-36" d="M 3184 3459 
L 2625 3416 
Q 2550 3747 2413 3897 
Q 2184 4138 1850 4138 
Q 1581 4138 1378 3988 
Q 1113 3794 959 3422 
Q 806 3050 800 2363 
Q 1003 2672 1297 2822 
Q 1591 2972 1913 2972 
Q 2475 2972 2870 2558 
Q 3266 2144 3266 1488 
Q 3266 1056 3080 686 
Q 2894 316 2569 119 
Q 2244 -78 1831 -78 
Q 1128 -78 684 439 
Q 241 956 241 2144 
Q 241 3472 731 4075 
Q 1159 4600 1884 4600 
Q 2425 4600 2770 4297 
Q 3116 3994 3184 3459 
z
M 888 1484 
Q 888 1194 1011 928 
Q 1134 663 1356 523 
Q 1578 384 1822 384 
Q 2178 384 2434 671 
Q 2691 959 2691 1453 
Q 2691 1928 2437 2201 
Q 2184 2475 1800 2475 
Q 1419 2475 1153 2201 
Q 888 1928 888 1484 
z
" transform="scale(0.015625)"/>
       </defs>
       <use xlink:href="#ArialMT-36"/>
      </g>
     </g>
    </g>
    <g id="xtick_3">
     <g id="text_3">
      <!-- 9 -->
      <g style="fill: #262626" transform="translate(152.413951 368.587188)scale(0.1 -0.1)">
       <defs>
        <path id="ArialMT-39" d="M 350 1059 
L 891 1109 
Q 959 728 1153 556 
Q 1347 384 1650 384 
Q 1909 384 2104 503 
Q 2300 622 2425 820 
Q 2550 1019 2634 1356 
Q 2719 1694 2719 2044 
Q 2719 2081 2716 2156 
Q 2547 1888 2255 1720 
Q 1963 1553 1622 1553 
Q 1053 1553 659 1965 
Q 266 2378 266 3053 
Q 266 3750 677 4175 
Q 1088 4600 1706 4600 
Q 2153 4600 2523 4359 
Q 2894 4119 3086 3673 
Q 3278 3228 3278 2384 
Q 3278 1506 3087 986 
Q 2897 466 2520 194 
Q 2144 -78 1638 -78 
Q 1100 -78 759 220 
Q 419 519 350 1059 
z
M 2653 3081 
Q 2653 3566 2395 3850 
Q 2138 4134 1775 4134 
Q 1400 4134 1122 3828 
Q 844 3522 844 3034 
Q 844 2597 1108 2323 
Q 1372 2050 1759 2050 
Q 2150 2050 2401 2323 
Q 2653 2597 2653 3081 
z
" transform="scale(0.015625)"/>
       </defs>
       <use xlink:href="#ArialMT-39"/>
      </g>
     </g>
    </g>
    <g id="xtick_4">
     <g id="text_4">
      <!-- 12 -->
      <g style="fill: #262626" transform="translate(189.490625 368.587188)scale(0.1 -0.1)">
       <defs>
        <path id="ArialMT-31" d="M 2384 0 
L 1822 0 
L 1822 3584 
Q 1619 3391 1289 3197 
Q 959 3003 697 2906 
L 697 3450 
Q 1169 3672 1522 3987 
Q 1875 4303 2022 4600 
L 2384 4600 
L 2384 0 
z
" transform="scale(0.015625)"/>
        <path id="ArialMT-32" d="M 3222 541 
L 3222 0 
L 194 0 
Q 188 203 259 391 
Q 375 700 629 1000 
Q 884 1300 1366 1694 
Q 2113 2306 2375 2664 
Q 2638 3022 2638 3341 
Q 2638 3675 2398 3904 
Q 2159 4134 1775 4134 
Q 1369 4134 1125 3890 
Q 881 3647 878 3216 
L 300 3275 
Q 359 3922 746 4261 
Q 1134 4600 1788 4600 
Q 2447 4600 2831 4234 
Q 3216 3869 3216 3328 
Q 3216 3053 3103 2787 
Q 2991 2522 2730 2228 
Q 2469 1934 1863 1422 
Q 1356 997 1212 845 
Q 1069 694 975 541 
L 3222 541 
z
" transform="scale(0.015625)"/>
       </defs>
       <use xlink:href="#ArialMT-31"/>
       <use xlink:href="#ArialMT-32" x="55.615234"/>
      </g>
     </g>
    </g>
    <g id="xtick_5">
     <g id="text_5">
      <!-- 15 -->
      <g style="fill: #262626" transform="translate(229.347768 368.587188)scale(0.1 -0.1)">
       <defs>
        <path id="ArialMT-35" d="M 266 1200 
L 856 1250 
Q 922 819 1161 601 
Q 1400 384 1738 384 
Q 2144 384 2425 690 
Q 2706 997 2706 1503 
Q 2706 1984 2436 2262 
Q 2166 2541 1728 2541 
Q 1456 2541 1237 2417 
Q 1019 2294 894 2097 
L 366 2166 
L 809 4519 
L 3088 4519 
L 3088 3981 
L 1259 3981 
L 1013 2750 
Q 1425 3038 1878 3038 
Q 2478 3038 2890 2622 
Q 3303 2206 3303 1553 
Q 3303 931 2941 478 
Q 2500 -78 1738 -78 
Q 1113 -78 717 272 
Q 322 622 266 1200 
z
" transform="scale(0.015625)"/>
       </defs>
       <use xlink:href="#ArialMT-31"/>
       <use xlink:href="#ArialMT-35" x="55.615234"/>
      </g>
     </g>
    </g>
    <g id="xtick_6">
     <g id="text_6">
      <!-- 18 -->
      <g style="fill: #262626" transform="translate(269.204911 368.587188)scale(0.1 -0.1)">
       <defs>
        <path id="ArialMT-38" d="M 1131 2484 
Q 781 2613 612 2850 
Q 444 3088 444 3419 
Q 444 3919 803 4259 
Q 1163 4600 1759 4600 
Q 2359 4600 2725 4251 
Q 3091 3903 3091 3403 
Q 3091 3084 2923 2848 
Q 2756 2613 2416 2484 
Q 2838 2347 3058 2040 
Q 3278 1734 3278 1309 
Q 3278 722 2862 322 
Q 2447 -78 1769 -78 
Q 1091 -78 675 323 
Q 259 725 259 1325 
Q 259 1772 486 2073 
Q 713 2375 1131 2484 
z
M 1019 3438 
Q 1019 3113 1228 2906 
Q 1438 2700 1772 2700 
Q 2097 2700 2305 2904 
Q 2513 3109 2513 3406 
Q 2513 3716 2298 3927 
Q 2084 4138 1766 4138 
Q 1444 4138 1231 3931 
Q 1019 3725 1019 3438 
z
M 838 1322 
Q 838 1081 952 856 
Q 1066 631 1291 507 
Q 1516 384 1775 384 
Q 2178 384 2440 643 
Q 2703 903 2703 1303 
Q 2703 1709 2433 1975 
Q 2163 2241 1756 2241 
Q 1359 2241 1098 1978 
Q 838 1716 838 1322 
z
" transform="scale(0.015625)"/>
       </defs>
       <use xlink:href="#ArialMT-31"/>
       <use xlink:href="#ArialMT-38" x="55.615234"/>
      </g>
     </g>
    </g>
    <g id="xtick_7">
     <g id="text_7">
      <!-- 24 -->
      <g style="fill: #262626" transform="translate(309.062054 368.587188)scale(0.1 -0.1)">
       <defs>
        <path id="ArialMT-34" d="M 2069 0 
L 2069 1097 
L 81 1097 
L 81 1613 
L 2172 4581 
L 2631 4581 
L 2631 1613 
L 3250 1613 
L 3250 1097 
L 2631 1097 
L 2631 0 
L 2069 0 
z
M 2069 1613 
L 2069 3678 
L 634 1613 
L 2069 1613 
z
" transform="scale(0.015625)"/>
       </defs>
       <use xlink:href="#ArialMT-32"/>
       <use xlink:href="#ArialMT-34" x="55.615234"/>
      </g>
     </g>
    </g>
    <g id="xtick_8">
     <g id="text_8">
      <!-- 36 -->
      <g style="fill: #262626" transform="translate(348.919196 368.587188)scale(0.1 -0.1)">
       <use xlink:href="#ArialMT-33"/>
       <use xlink:href="#ArialMT-36" x="55.615234"/>
      </g>
     </g>
    </g>
    <g id="xtick_9">
     <g id="text_9">
      <!-- 48 -->
      <g style="fill: #262626" transform="translate(388.776339 368.587188)scale(0.1 -0.1)">
       <use xlink:href="#ArialMT-34"/>
       <use xlink:href="#ArialMT-38" x="55.615234"/>
      </g>
     </g>
    </g>
    <g id="xtick_10">
     <g id="text_10">
      <!-- 60 -->
      <g style="fill: #262626" transform="translate(428.633482 368.587188)scale(0.1 -0.1)">
       <defs>
        <path id="ArialMT-30" d="M 266 2259 
Q 266 3072 433 3567 
Q 600 4063 929 4331 
Q 1259 4600 1759 4600 
Q 2128 4600 2406 4451 
Q 2684 4303 2865 4023 
Q 3047 3744 3150 3342 
Q 3253 2941 3253 2259 
Q 3253 1453 3087 958 
Q 2922 463 2592 192 
Q 2263 -78 1759 -78 
Q 1097 -78 719 397 
Q 266 969 266 2259 
z
M 844 2259 
Q 844 1131 1108 757 
Q 1372 384 1759 384 
Q 2147 384 2411 759 
Q 2675 1134 2675 2259 
Q 2675 3391 2411 3762 
Q 2147 4134 1753 4134 
Q 1366 4134 1134 3806 
Q 844 3388 844 2259 
z
" transform="scale(0.015625)"/>
       </defs>
       <use xlink:href="#ArialMT-36"/>
       <use xlink:href="#ArialMT-30" x="55.615234"/>
      </g>
     </g>
    </g>
    <g id="xtick_11">
     <g id="text_11">
      <!-- 84 -->
      <g style="fill: #262626" transform="translate(468.490625 368.587188)scale(0.1 -0.1)">
       <use xlink:href="#ArialMT-38"/>
       <use xlink:href="#ArialMT-34" x="55.615234"/>
      </g>
     </g>
    </g>
    <g id="xtick_12">
     <g id="text_12">
      <!-- 120 -->
      <g style="fill: #262626" transform="translate(505.567299 368.587188)scale(0.1 -0.1)">
       <use xlink:href="#ArialMT-31"/>
       <use xlink:href="#ArialMT-32" x="55.615234"/>
       <use xlink:href="#ArialMT-30" x="111.230469"/>
      </g>
     </g>
    </g>
    <g id="xtick_13">
     <g id="text_13">
      <!-- 180 -->
      <g style="fill: #262626" transform="translate(545.424442 368.587188)scale(0.1 -0.1)">
       <use xlink:href="#ArialMT-31"/>
       <use xlink:href="#ArialMT-38" x="55.615234"/>
       <use xlink:href="#ArialMT-30" x="111.230469"/>
      </g>
     </g>
    </g>
    <g id="xtick_14">
     <g id="text_14">
      <!-- 360 -->
      <g style="fill: #262626" transform="translate(585.281585 368.587188)scale(0.1 -0.1)">
       <use xlink:href="#ArialMT-33"/>
       <use xlink:href="#ArialMT-36" x="55.615234"/>
       <use xlink:href="#ArialMT-30" x="111.230469"/>
      </g>
     </g>
    </g>
    <g id="text_15">
     <!-- tenor -->
     <g style="fill: #262626" transform="translate(323.15625 381.7325)scale(0.1 -0.1)">
      <defs>
       <path id="ArialMT-74" d="M 1650 503 
L 1731 6 
Q 1494 -44 1306 -44 
Q 1000 -44 831 53 
Q 663 150 594 308 
Q 525 466 525 972 
L 525 2881 
L 113 2881 
L 113 3319 
L 525 3319 
L 525 4141 
L 1084 4478 
L 1084 3319 
L 1650 3319 
L 1650 2881 
L 1084 2881 
L 1084 941 
Q 1084 700 1114 631 
Q 1144 563 1211 522 
Q 1278 481 1403 481 
Q 1497 481 1650 503 
z
" transform="scale(0.015625)"/>
       <path id="ArialMT-65" d="M 2694 1069 
L 3275 997 
Q 3138 488 2766 206 
Q 2394 -75 1816 -75 
Q 1088 -75 661 373 
Q 234 822 234 1631 
Q 234 2469 665 2931 
Q 1097 3394 1784 3394 
Q 2450 3394 2872 2941 
Q 3294 2488 3294 1666 
Q 3294 1616 3291 1516 
L 816 1516 
Q 847 969 1125 678 
Q 1403 388 1819 388 
Q 2128 388 2347 550 
Q 2566 713 2694 1069 
z
M 847 1978 
L 2700 1978 
Q 2663 2397 2488 2606 
Q 2219 2931 1791 2931 
Q 1403 2931 1139 2672 
Q 875 2413 847 1978 
z
" transform="scale(0.015625)"/>
       <path id="ArialMT-6e" d="M 422 0 
L 422 3319 
L 928 3319 
L 928 2847 
Q 1294 3394 1984 3394 
Q 2284 3394 2536 3286 
Q 2788 3178 2913 3003 
Q 3038 2828 3088 2588 
Q 3119 2431 3119 2041 
L 3119 0 
L 2556 0 
L 2556 2019 
Q 2556 2363 2490 2533 
Q 2425 2703 2258 2804 
Q 2091 2906 1866 2906 
Q 1506 2906 1245 2678 
Q 984 2450 984 1813 
L 984 0 
L 422 0 
z
" transform="scale(0.015625)"/>
       <path id="ArialMT-6f" d="M 213 1659 
Q 213 2581 725 3025 
Q 1153 3394 1769 3394 
Q 2453 3394 2887 2945 
Q 3322 2497 3322 1706 
Q 3322 1066 3130 698 
Q 2938 331 2570 128 
Q 2203 -75 1769 -75 
Q 1072 -75 642 372 
Q 213 819 213 1659 
z
M 791 1659 
Q 791 1022 1069 705 
Q 1347 388 1769 388 
Q 2188 388 2466 706 
Q 2744 1025 2744 1678 
Q 2744 2294 2464 2611 
Q 2184 2928 1769 2928 
Q 1347 2928 1069 2612 
Q 791 2297 791 1659 
z
" transform="scale(0.015625)"/>
       <path id="ArialMT-72" d="M 416 0 
L 416 3319 
L 922 3319 
L 922 2816 
Q 1116 3169 1280 3281 
Q 1444 3394 1641 3394 
Q 1925 3394 2219 3213 
L 2025 2691 
Q 1819 2813 1613 2813 
Q 1428 2813 1281 2702 
Q 1134 2591 1072 2394 
Q 978 2094 978 1738 
L 978 0 
L 416 0 
z
" transform="scale(0.015625)"/>
      </defs>
      <use xlink:href="#ArialMT-74"/>
      <use xlink:href="#ArialMT-65" x="27.783203"/>
      <use xlink:href="#ArialMT-6e" x="83.398438"/>
      <use xlink:href="#ArialMT-6f" x="139.013672"/>
      <use xlink:href="#ArialMT-72" x="194.628906"/>
     </g>
    </g>
   </g>
   <g id="matplotlib.axis_2">
    <g id="ytick_1">
     <g id="text_16">
      <!-- −1500 -->
      <g style="fill: #262626" transform="translate(20.467188 349.7745)scale(0.1 -0.1)">
       <defs>
        <path id="ArialMT-2212" d="M 3381 1997 
L 356 1997 
L 356 2522 
L 3381 2522 
L 3381 1997 
z
" transform="scale(0.015625)"/>
       </defs>
       <use xlink:href="#ArialMT-2212"/>
       <use xlink:href="#ArialMT-31" x="58.398438"/>
       <use xlink:href="#ArialMT-35" x="114.013672"/>
       <use xlink:href="#ArialMT-30" x="169.628906"/>
       <use xlink:href="#ArialMT-30" x="225.244141"/>
      </g>
     </g>
    </g>
    <g id="ytick_2">
     <g id="text_17">
      <!-- −1000 -->
      <g style="fill: #262626" transform="translate(20.467188 290.410543)scale(0.1 -0.1)">
       <use xlink:href="#ArialMT-2212"/>
       <use xlink:href="#ArialMT-31" x="58.398438"/>
       <use xlink:href="#ArialMT-30" x="114.013672"/>
       <use xlink:href="#ArialMT-30" x="169.628906"/>
       <use xlink:href="#ArialMT-30" x="225.244141"/>
      </g>
     </g>
    </g>
    <g id="ytick_3">
     <g id="text_18">
      <!-- −500 -->
      <g style="fill: #262626" transform="translate(26.028125 231.046585)scale(0.1 -0.1)">
       <use xlink:href="#ArialMT-2212"/>
       <use xlink:href="#ArialMT-35" x="58.398438"/>
       <use xlink:href="#ArialMT-30" x="114.013672"/>
       <use xlink:href="#ArialMT-30" x="169.628906"/>
      </g>
     </g>
    </g>
    <g id="ytick_4">
     <g id="text_19">
      <!-- 0 -->
      <g style="fill: #262626" transform="translate(42.990625 171.682628)scale(0.1 -0.1)">
       <use xlink:href="#ArialMT-30"/>
      </g>
     </g>
    </g>
    <g id="ytick_5">
     <g id="text_20">
      <!-- 500 -->
      <g style="fill: #262626" transform="translate(31.86875 112.31867)scale(0.1 -0.1)">
       <use xlink:href="#ArialMT-35"/>
       <use xlink:href="#ArialMT-30" x="55.615234"/>
       <use xlink:href="#ArialMT-30" x="111.230469"/>
      </g>
     </g>
    </g>
    <g id="ytick_6">
     <g id="text_21">
      <!-- 1000 -->
      <g style="fill: #262626" transform="translate(26.307813 52.954712)scale(0.1 -0.1)">
       <use xlink:href="#ArialMT-31"/>
       <use xlink:href="#ArialMT-30" x="55.615234"/>
       <use xlink:href="#ArialMT-30" x="111.230469"/>
       <use xlink:href="#ArialMT-30" x="166.845703"/>
      </g>
     </g>
    </g>
    <g id="text_22">
     <!-- BPV profile -->
     <g style="fill: #262626" transform="translate(14.479688 213.121094)rotate(-90)scale(0.1 -0.1)">
      <defs>
       <path id="ArialMT-42" d="M 469 0 
L 469 4581 
L 2188 4581 
Q 2713 4581 3030 4442 
Q 3347 4303 3526 4014 
Q 3706 3725 3706 3409 
Q 3706 3116 3547 2856 
Q 3388 2597 3066 2438 
Q 3481 2316 3704 2022 
Q 3928 1728 3928 1328 
Q 3928 1006 3792 729 
Q 3656 453 3456 303 
Q 3256 153 2954 76 
Q 2653 0 2216 0 
L 469 0 
z
M 1075 2656 
L 2066 2656 
Q 2469 2656 2644 2709 
Q 2875 2778 2992 2937 
Q 3109 3097 3109 3338 
Q 3109 3566 3000 3739 
Q 2891 3913 2687 3977 
Q 2484 4041 1991 4041 
L 1075 4041 
L 1075 2656 
z
M 1075 541 
L 2216 541 
Q 2509 541 2628 563 
Q 2838 600 2978 687 
Q 3119 775 3209 942 
Q 3300 1109 3300 1328 
Q 3300 1584 3169 1773 
Q 3038 1963 2805 2039 
Q 2572 2116 2134 2116 
L 1075 2116 
L 1075 541 
z
" transform="scale(0.015625)"/>
       <path id="ArialMT-50" d="M 494 0 
L 494 4581 
L 2222 4581 
Q 2678 4581 2919 4538 
Q 3256 4481 3484 4323 
Q 3713 4166 3852 3881 
Q 3991 3597 3991 3256 
Q 3991 2672 3619 2267 
Q 3247 1863 2275 1863 
L 1100 1863 
L 1100 0 
L 494 0 
z
M 1100 2403 
L 2284 2403 
Q 2872 2403 3119 2622 
Q 3366 2841 3366 3238 
Q 3366 3525 3220 3729 
Q 3075 3934 2838 4000 
Q 2684 4041 2272 4041 
L 1100 4041 
L 1100 2403 
z
" transform="scale(0.015625)"/>
       <path id="ArialMT-56" d="M 1803 0 
L 28 4581 
L 684 4581 
L 1875 1253 
Q 2019 853 2116 503 
Q 2222 878 2363 1253 
L 3600 4581 
L 4219 4581 
L 2425 0 
L 1803 0 
z
" transform="scale(0.015625)"/>
       <path id="ArialMT-20" transform="scale(0.015625)"/>
       <path id="ArialMT-70" d="M 422 -1272 
L 422 3319 
L 934 3319 
L 934 2888 
Q 1116 3141 1344 3267 
Q 1572 3394 1897 3394 
Q 2322 3394 2647 3175 
Q 2972 2956 3137 2557 
Q 3303 2159 3303 1684 
Q 3303 1175 3120 767 
Q 2938 359 2589 142 
Q 2241 -75 1856 -75 
Q 1575 -75 1351 44 
Q 1128 163 984 344 
L 984 -1272 
L 422 -1272 
z
M 931 1641 
Q 931 1000 1190 694 
Q 1450 388 1819 388 
Q 2194 388 2461 705 
Q 2728 1022 2728 1688 
Q 2728 2322 2467 2637 
Q 2206 2953 1844 2953 
Q 1484 2953 1207 2617 
Q 931 2281 931 1641 
z
" transform="scale(0.015625)"/>
       <path id="ArialMT-66" d="M 556 0 
L 556 2881 
L 59 2881 
L 59 3319 
L 556 3319 
L 556 3672 
Q 556 4006 616 4169 
Q 697 4388 901 4523 
Q 1106 4659 1475 4659 
Q 1713 4659 2000 4603 
L 1916 4113 
Q 1741 4144 1584 4144 
Q 1328 4144 1222 4034 
Q 1116 3925 1116 3625 
L 1116 3319 
L 1763 3319 
L 1763 2881 
L 1116 2881 
L 1116 0 
L 556 0 
z
" transform="scale(0.015625)"/>
       <path id="ArialMT-69" d="M 425 3934 
L 425 4581 
L 988 4581 
L 988 3934 
L 425 3934 
z
M 425 0 
L 425 3319 
L 988 3319 
L 988 0 
L 425 0 
z
" transform="scale(0.015625)"/>
       <path id="ArialMT-6c" d="M 409 0 
L 409 4581 
L 972 4581 
L 972 0 
L 409 0 
z
" transform="scale(0.015625)"/>
      </defs>
      <use xlink:href="#ArialMT-42"/>
      <use xlink:href="#ArialMT-50" x="66.699219"/>
      <use xlink:href="#ArialMT-56" x="133.398438"/>
      <use xlink:href="#ArialMT-20" x="200.097656"/>
      <use xlink:href="#ArialMT-70" x="227.880859"/>
      <use xlink:href="#ArialMT-72" x="283.496094"/>
      <use xlink:href="#ArialMT-6f" x="316.796875"/>
      <use xlink:href="#ArialMT-66" x="372.412109"/>
      <use xlink:href="#ArialMT-69" x="400.195312"/>
      <use xlink:href="#ArialMT-6c" x="422.412109"/>
      <use xlink:href="#ArialMT-65" x="444.628906"/>
     </g>
    </g>
   </g>
   <g id="patch_3">
    <path d="M 59.537277 168.103721 
L 91.422991 168.103721 
L 91.422991 168.697361 
L 59.537277 168.697361 
z
" clip-path="url(#p974e2e05c4)" style="fill: #ea96a3; stroke: #ffffff; stroke-linejoin: miter"/>
   </g>
   <g id="patch_4">
    <path d="M 99.39442 168.103721 
L 131.280134 168.103721 
L 131.280134 138.54047 
L 99.39442 138.54047 
z
" clip-path="url(#p974e2e05c4)" style="fill: #e4946a; stroke: #ffffff; stroke-linejoin: miter"/>
   </g>
   <g id="patch_5">
    <path d="M 139.251563 168.103721 
L 171.137277 168.103721 
L 171.137277 170.122096 
L 139.251563 170.122096 
z
" clip-path="url(#p974e2e05c4)" style="fill: #c29a4b; stroke: #ffffff; stroke-linejoin: miter"/>
   </g>
   <g id="patch_6">
    <path d="M 179.108705 168.103721 
L 210.99442 168.103721 
L 210.99442 174.158845 
L 179.108705 174.158845 
z
" clip-path="url(#p974e2e05c4)" style="fill: #a69f46; stroke: #ffffff; stroke-linejoin: miter"/>
   </g>
   <g id="patch_7">
    <path d="M 218.965848 168.103721 
L 250.851562 168.103721 
L 250.851562 170.47828 
L 218.965848 170.47828 
z
" clip-path="url(#p974e2e05c4)" style="fill: #88a746; stroke: #ffffff; stroke-linejoin: miter"/>
   </g>
   <g id="patch_8">
    <path d="M 258.822991 168.103721 
L 290.708705 168.103721 
L 290.708705 171.428103 
L 258.822991 171.428103 
z
" clip-path="url(#p974e2e05c4)" style="fill: #48b05e; stroke: #ffffff; stroke-linejoin: miter"/>
   </g>
   <g id="patch_9">
    <path d="M 298.680134 168.103721 
L 330.565848 168.103721 
L 330.565848 180.095241 
L 298.680134 180.095241 
z
" clip-path="url(#p974e2e05c4)" style="fill: #4aad8f; stroke: #ffffff; stroke-linejoin: miter"/>
   </g>
   <g id="patch_10">
    <path d="M 338.537277 168.103721 
L 370.422991 168.103721 
L 370.422991 188.881106 
L 338.537277 188.881106 
z
" clip-path="url(#p974e2e05c4)" style="fill: #4baba4; stroke: #ffffff; stroke-linejoin: miter"/>
   </g>
   <g id="patch_11">
    <path d="M 378.39442 168.103721 
L 410.280134 168.103721 
L 410.280134 189.712202 
L 378.39442 189.712202 
z
" clip-path="url(#p974e2e05c4)" style="fill: #4eabb8; stroke: #ffffff; stroke-linejoin: miter"/>
   </g>
   <g id="patch_12">
    <path d="M 418.251562 168.103721 
L 450.137277 168.103721 
L 450.137277 36.909375 
L 418.251562 36.909375 
z
" clip-path="url(#p974e2e05c4)" style="fill: #55acd7; stroke: #ffffff; stroke-linejoin: miter"/>
   </g>
   <g id="patch_13">
    <path d="M 458.108705 168.103721 
L 489.99442 168.103721 
L 489.99442 233.522803 
L 458.108705 233.522803 
z
" clip-path="url(#p974e2e05c4)" style="fill: #a0adea; stroke: #ffffff; stroke-linejoin: miter"/>
   </g>
   <g id="patch_14">
    <path d="M 497.965848 168.103721 
L 529.851562 168.103721 
L 529.851562 200.991354 
L 497.965848 200.991354 
z
" clip-path="url(#p974e2e05c4)" style="fill: #c79fe9; stroke: #ffffff; stroke-linejoin: miter"/>
   </g>
   <g id="patch_15">
    <path d="M 537.822991 168.103721 
L 569.708705 168.103721 
L 569.708705 295.380046 
L 537.822991 295.380046 
z
" clip-path="url(#p974e2e05c4)" style="fill: #e78ae0; stroke: #ffffff; stroke-linejoin: miter"/>
   </g>
   <g id="patch_16">
    <path d="M 577.680134 168.103721 
L 609.565848 168.103721 
L 609.565848 339.309375 
L 577.680134 339.309375 
z
" clip-path="url(#p974e2e05c4)" style="fill: #e891c1; stroke: #ffffff; stroke-linejoin: miter"/>
   </g>
   <g id="patch_17">
    <path d="M 55.551563 168.103721 
L 95.408705 168.103721 
L 95.408705 108.739764 
L 55.551563 108.739764 
z
" clip-path="url(#p974e2e05c4)" style="fill: #5481a6; opacity: 0.2"/>
   </g>
   <g id="patch_18">
    <path d="M 95.408705 168.103721 
L 135.265848 168.103721 
L 135.265848 108.739764 
L 95.408705 108.739764 
z
" clip-path="url(#p974e2e05c4)" style="fill: #5481a6; opacity: 0.2"/>
   </g>
   <g id="patch_19">
    <path d="M 135.265848 168.103721 
L 175.122991 168.103721 
L 175.122991 108.739764 
L 135.265848 108.739764 
z
" clip-path="url(#p974e2e05c4)" style="fill: #5481a6; opacity: 0.2"/>
   </g>
   <g id="patch_20">
    <path d="M 175.122991 168.103721 
L 214.980134 168.103721 
L 214.980134 73.121389 
L 175.122991 73.121389 
z
" clip-path="url(#p974e2e05c4)" style="fill: #5481a6; opacity: 0.2"/>
   </g>
   <g id="patch_21">
    <path d="M 214.980134 168.103721 
L 254.837277 168.103721 
L 254.837277 73.121389 
L 214.980134 73.121389 
z
" clip-path="url(#p974e2e05c4)" style="fill: #5481a6; opacity: 0.2"/>
   </g>
   <g id="patch_22">
    <path d="M 254.837277 168.103721 
L 294.69442 168.103721 
L 294.69442 73.121389 
L 254.837277 73.121389 
z
" clip-path="url(#p974e2e05c4)" style="fill: #5481a6; opacity: 0.2"/>
   </g>
   <g id="patch_23">
    <path d="M 294.69442 168.103721 
L 334.551562 168.103721 
L 334.551562 73.121389 
L 294.69442 73.121389 
z
" clip-path="url(#p974e2e05c4)" style="fill: #5481a6; opacity: 0.2"/>
   </g>
   <g id="patch_24">
    <path d="M 334.551562 168.103721 
L 374.408705 168.103721 
L 374.408705 73.121389 
L 334.551562 73.121389 
z
" clip-path="url(#p974e2e05c4)" style="fill: #5481a6; opacity: 0.2"/>
   </g>
   <g id="patch_25">
    <path d="M 374.408705 168.103721 
L 414.265848 168.103721 
L 414.265848 73.121389 
L 374.408705 73.121389 
z
" clip-path="url(#p974e2e05c4)" style="fill: #5481a6; opacity: 0.2"/>
   </g>
   <g id="patch_26">
    <path d="M 414.265848 168.103721 
L 454.122991 168.103721 
L 454.122991 73.121389 
L 414.265848 73.121389 
z
" clip-path="url(#p974e2e05c4)" style="fill: #5481a6; opacity: 0.2"/>
   </g>
   <g id="patch_27">
    <path d="M 454.122991 168.103721 
L 493.980134 168.103721 
L 493.980134 126.548951 
L 454.122991 126.548951 
z
" clip-path="url(#p974e2e05c4)" style="fill: #5481a6; opacity: 0.2"/>
   </g>
   <g id="patch_28">
    <path d="M 493.980134 168.103721 
L 533.837277 168.103721 
L 533.837277 126.548951 
L 493.980134 126.548951 
z
" clip-path="url(#p974e2e05c4)" style="fill: #5481a6; opacity: 0.2"/>
   </g>
   <g id="patch_29">
    <path d="M 533.837277 168.103721 
L 573.69442 168.103721 
L 573.69442 147.326336 
L 533.837277 147.326336 
z
" clip-path="url(#p974e2e05c4)" style="fill: #5481a6; opacity: 0.2"/>
   </g>
   <g id="patch_30">
    <path d="M 573.69442 168.103721 
L 613.551563 168.103721 
L 613.551563 147.326336 
L 573.69442 147.326336 
z
" clip-path="url(#p974e2e05c4)" style="fill: #5481a6; opacity: 0.2"/>
   </g>
   <g id="patch_31">
    <path d="M 55.551563 168.103721 
L 95.408705 168.103721 
L 95.408705 203.722096 
L 55.551563 203.722096 
z
" clip-path="url(#p974e2e05c4)" style="fill: #5481a6; opacity: 0.2"/>
   </g>
   <g id="patch_32">
    <path d="M 95.408705 168.103721 
L 135.265848 168.103721 
L 135.265848 203.722096 
L 95.408705 203.722096 
z
" clip-path="url(#p974e2e05c4)" style="fill: #5481a6; opacity: 0.2"/>
   </g>
   <g id="patch_33">
    <path d="M 135.265848 168.103721 
L 175.122991 168.103721 
L 175.122991 203.722096 
L 135.265848 203.722096 
z
" clip-path="url(#p974e2e05c4)" style="fill: #5481a6; opacity: 0.2"/>
   </g>
   <g id="patch_34">
    <path d="M 175.122991 168.103721 
L 214.980134 168.103721 
L 214.980134 209.658492 
L 175.122991 209.658492 
z
" clip-path="url(#p974e2e05c4)" style="fill: #5481a6; opacity: 0.2"/>
   </g>
   <g id="patch_35">
    <path d="M 214.980134 168.103721 
L 254.837277 168.103721 
L 254.837277 209.658492 
L 214.980134 209.658492 
z
" clip-path="url(#p974e2e05c4)" style="fill: #5481a6; opacity: 0.2"/>
   </g>
   <g id="patch_36">
    <path d="M 254.837277 168.103721 
L 294.69442 168.103721 
L 294.69442 209.658492 
L 254.837277 209.658492 
z
" clip-path="url(#p974e2e05c4)" style="fill: #5481a6; opacity: 0.2"/>
   </g>
   <g id="patch_37">
    <path d="M 294.69442 168.103721 
L 334.551562 168.103721 
L 334.551562 209.658492 
L 294.69442 209.658492 
z
" clip-path="url(#p974e2e05c4)" style="fill: #5481a6; opacity: 0.2"/>
   </g>
   <g id="patch_38">
    <path d="M 334.551562 168.103721 
L 374.408705 168.103721 
L 374.408705 221.531283 
L 334.551562 221.531283 
z
" clip-path="url(#p974e2e05c4)" style="fill: #5481a6; opacity: 0.2"/>
   </g>
   <g id="patch_39">
    <path d="M 374.408705 168.103721 
L 414.265848 168.103721 
L 414.265848 227.467679 
L 374.408705 227.467679 
z
" clip-path="url(#p974e2e05c4)" style="fill: #5481a6; opacity: 0.2"/>
   </g>
   <g id="patch_40">
    <path d="M 414.265848 168.103721 
L 454.122991 168.103721 
L 454.122991 233.404075 
L 414.265848 233.404075 
z
" clip-path="url(#p974e2e05c4)" style="fill: #5481a6; opacity: 0.2"/>
   </g>
   <g id="patch_41">
    <path d="M 454.122991 168.103721 
L 493.980134 168.103721 
L 493.980134 245.276866 
L 454.122991 245.276866 
z
" clip-path="url(#p974e2e05c4)" style="fill: #5481a6; opacity: 0.2"/>
   </g>
   <g id="patch_42">
    <path d="M 493.980134 168.103721 
L 533.837277 168.103721 
L 533.837277 227.467679 
L 493.980134 227.467679 
z
" clip-path="url(#p974e2e05c4)" style="fill: #5481a6; opacity: 0.2"/>
   </g>
   <g id="patch_43">
    <path d="M 533.837277 168.103721 
L 573.69442 168.103721 
L 573.69442 257.149658 
L 533.837277 257.149658 
z
" clip-path="url(#p974e2e05c4)" style="fill: #5481a6; opacity: 0.2"/>
   </g>
   <g id="patch_44">
    <path d="M 573.69442 168.103721 
L 613.551563 168.103721 
L 613.551563 188.881106 
L 573.69442 188.881106 
z
" clip-path="url(#p974e2e05c4)" style="fill: #5481a6; opacity: 0.2"/>
   </g>
   <g id="line2d_1">
    <path clip-path="url(#p974e2e05c4)" style="fill: none; stroke: #424242; stroke-width: 2.7; stroke-linecap: round"/>
   </g>
   <g id="line2d_2">
    <path clip-path="url(#p974e2e05c4)" style="fill: none; stroke: #424242; stroke-width: 2.7; stroke-linecap: round"/>
   </g>
   <g id="line2d_3">
    <path clip-path="url(#p974e2e05c4)" style="fill: none; stroke: #424242; stroke-width: 2.7; stroke-linecap: round"/>
   </g>
   <g id="line2d_4">
    <path clip-path="url(#p974e2e05c4)" style="fill: none; stroke: #424242; stroke-width: 2.7; stroke-linecap: round"/>
   </g>
   <g id="line2d_5">
    <path clip-path="url(#p974e2e05c4)" style="fill: none; stroke: #424242; stroke-width: 2.7; stroke-linecap: round"/>
   </g>
   <g id="line2d_6">
    <path clip-path="url(#p974e2e05c4)" style="fill: none; stroke: #424242; stroke-width: 2.7; stroke-linecap: round"/>
   </g>
   <g id="line2d_7">
    <path clip-path="url(#p974e2e05c4)" style="fill: none; stroke: #424242; stroke-width: 2.7; stroke-linecap: round"/>
   </g>
   <g id="line2d_8">
    <path clip-path="url(#p974e2e05c4)" style="fill: none; stroke: #424242; stroke-width: 2.7; stroke-linecap: round"/>
   </g>
   <g id="line2d_9">
    <path clip-path="url(#p974e2e05c4)" style="fill: none; stroke: #424242; stroke-width: 2.7; stroke-linecap: round"/>
   </g>
   <g id="line2d_10">
    <path clip-path="url(#p974e2e05c4)" style="fill: none; stroke: #424242; stroke-width: 2.7; stroke-linecap: round"/>
   </g>
   <g id="line2d_11">
    <path clip-path="url(#p974e2e05c4)" style="fill: none; stroke: #424242; stroke-width: 2.7; stroke-linecap: round"/>
   </g>
   <g id="line2d_12">
    <path clip-path="url(#p974e2e05c4)" style="fill: none; stroke: #424242; stroke-width: 2.7; stroke-linecap: round"/>
   </g>
   <g id="line2d_13">
    <path clip-path="url(#p974e2e05c4)" style="fill: none; stroke: #424242; stroke-width: 2.7; stroke-linecap: round"/>
   </g>
   <g id="line2d_14">
    <path clip-path="url(#p974e2e05c4)" style="fill: none; stroke: #424242; stroke-width: 2.7; stroke-linecap: round"/>
   </g>
   <g id="line2d_15">
    <path clip-path="url(#p974e2e05c4)" style="fill: none; stroke: #424242; stroke-width: 2.7; stroke-linecap: round"/>
   </g>
   <g id="line2d_16">
    <path clip-path="url(#p974e2e05c4)" style="fill: none; stroke: #424242; stroke-width: 2.7; stroke-linecap: round"/>
   </g>
   <g id="line2d_17">
    <path clip-path="url(#p974e2e05c4)" style="fill: none; stroke: #424242; stroke-width: 2.7; stroke-linecap: round"/>
   </g>
   <g id="line2d_18">
    <path clip-path="url(#p974e2e05c4)" style="fill: none; stroke: #424242; stroke-width: 2.7; stroke-linecap: round"/>
   </g>
   <g id="line2d_19">
    <path clip-path="url(#p974e2e05c4)" style="fill: none; stroke: #424242; stroke-width: 2.7; stroke-linecap: round"/>
   </g>
   <g id="line2d_20">
    <path clip-path="url(#p974e2e05c4)" style="fill: none; stroke: #424242; stroke-width: 2.7; stroke-linecap: round"/>
   </g>
   <g id="line2d_21">
    <path clip-path="url(#p974e2e05c4)" style="fill: none; stroke: #424242; stroke-width: 2.7; stroke-linecap: round"/>
   </g>
   <g id="line2d_22">
    <path clip-path="url(#p974e2e05c4)" style="fill: none; stroke: #424242; stroke-width: 2.7; stroke-linecap: round"/>
   </g>
   <g id="line2d_23">
    <path clip-path="url(#p974e2e05c4)" style="fill: none; stroke: #424242; stroke-width: 2.7; stroke-linecap: round"/>
   </g>
   <g id="line2d_24">
    <path clip-path="url(#p974e2e05c4)" style="fill: none; stroke: #424242; stroke-width: 2.7; stroke-linecap: round"/>
   </g>
   <g id="line2d_25">
    <path clip-path="url(#p974e2e05c4)" style="fill: none; stroke: #424242; stroke-width: 2.7; stroke-linecap: round"/>
   </g>
   <g id="line2d_26">
    <path clip-path="url(#p974e2e05c4)" style="fill: none; stroke: #424242; stroke-width: 2.7; stroke-linecap: round"/>
   </g>
   <g id="line2d_27">
    <path clip-path="url(#p974e2e05c4)" style="fill: none; stroke: #424242; stroke-width: 2.7; stroke-linecap: round"/>
   </g>
   <g id="line2d_28">
    <path clip-path="url(#p974e2e05c4)" style="fill: none; stroke: #424242; stroke-width: 2.7; stroke-linecap: round"/>
   </g>
   <g id="line2d_29">
    <path clip-path="url(#p974e2e05c4)" style="fill: none; stroke: #424242; stroke-width: 2.7; stroke-linecap: round"/>
   </g>
   <g id="line2d_30">
    <path clip-path="url(#p974e2e05c4)" style="fill: none; stroke: #424242; stroke-width: 2.7; stroke-linecap: round"/>
   </g>
   <g id="line2d_31">
    <path clip-path="url(#p974e2e05c4)" style="fill: none; stroke: #424242; stroke-width: 2.7; stroke-linecap: round"/>
   </g>
   <g id="line2d_32">
    <path clip-path="url(#p974e2e05c4)" style="fill: none; stroke: #424242; stroke-width: 2.7; stroke-linecap: round"/>
   </g>
   <g id="line2d_33">
    <path clip-path="url(#p974e2e05c4)" style="fill: none; stroke: #424242; stroke-width: 2.7; stroke-linecap: round"/>
   </g>
   <g id="line2d_34">
    <path clip-path="url(#p974e2e05c4)" style="fill: none; stroke: #424242; stroke-width: 2.7; stroke-linecap: round"/>
   </g>
   <g id="line2d_35">
    <path clip-path="url(#p974e2e05c4)" style="fill: none; stroke: #424242; stroke-width: 2.7; stroke-linecap: round"/>
   </g>
   <g id="line2d_36">
    <path clip-path="url(#p974e2e05c4)" style="fill: none; stroke: #424242; stroke-width: 2.7; stroke-linecap: round"/>
   </g>
   <g id="line2d_37">
    <path clip-path="url(#p974e2e05c4)" style="fill: none; stroke: #424242; stroke-width: 2.7; stroke-linecap: round"/>
   </g>
   <g id="line2d_38">
    <path clip-path="url(#p974e2e05c4)" style="fill: none; stroke: #424242; stroke-width: 2.7; stroke-linecap: round"/>
   </g>
   <g id="line2d_39">
    <path clip-path="url(#p974e2e05c4)" style="fill: none; stroke: #424242; stroke-width: 2.7; stroke-linecap: round"/>
   </g>
   <g id="line2d_40">
    <path clip-path="url(#p974e2e05c4)" style="fill: none; stroke: #424242; stroke-width: 2.7; stroke-linecap: round"/>
   </g>
   <g id="line2d_41">
    <path clip-path="url(#p974e2e05c4)" style="fill: none; stroke: #424242; stroke-width: 2.7; stroke-linecap: round"/>
   </g>
   <g id="line2d_42">
    <path clip-path="url(#p974e2e05c4)" style="fill: none; stroke: #424242; stroke-width: 2.7; stroke-linecap: round"/>
   </g>
   <g id="patch_45">
    <path d="M 55.551563 354.429375 
L 55.551563 21.789375 
" style="fill: none; stroke: #ffffff; stroke-width: 0.8; stroke-linejoin: miter; stroke-linecap: square"/>
   </g>
   <g id="patch_46">
    <path d="M 613.551563 354.429375 
L 613.551563 21.789375 
" style="fill: none; stroke: #ffffff; stroke-width: 0.8; stroke-linejoin: miter; stroke-linecap: square"/>
   </g>
   <g id="patch_47">
    <path d="M 55.551563 354.429375 
L 613.551563 354.429375 
" style="fill: none; stroke: #ffffff; stroke-width: 0.8; stroke-linejoin: miter; stroke-linecap: square"/>
   </g>
   <g id="patch_48">
    <path d="M 55.551563 21.789375 
L 613.551563 21.789375 
" style="fill: none; stroke: #ffffff; stroke-width: 0.8; stroke-linejoin: miter; stroke-linecap: square"/>
   </g>
   <g id="text_23">
    <!-- BPV Profile 28-02-2023 -->
    <g style="fill: #262626" transform="translate(271.516875 15.789375)scale(0.12 -0.12)">
     <defs>
      <path id="ArialMT-2d" d="M 203 1375 
L 203 1941 
L 1931 1941 
L 1931 1375 
L 203 1375 
z
" transform="scale(0.015625)"/>
     </defs>
     <use xlink:href="#ArialMT-42"/>
     <use xlink:href="#ArialMT-50" x="66.699219"/>
     <use xlink:href="#ArialMT-56" x="133.398438"/>
     <use xlink:href="#ArialMT-20" x="200.097656"/>
     <use xlink:href="#ArialMT-50" x="227.880859"/>
     <use xlink:href="#ArialMT-72" x="294.580078"/>
     <use xlink:href="#ArialMT-6f" x="327.880859"/>
     <use xlink:href="#ArialMT-66" x="383.496094"/>
     <use xlink:href="#ArialMT-69" x="411.279297"/>
     <use xlink:href="#ArialMT-6c" x="433.496094"/>
     <use xlink:href="#ArialMT-65" x="455.712891"/>
     <use xlink:href="#ArialMT-20" x="511.328125"/>
     <use xlink:href="#ArialMT-32" x="539.111328"/>
     <use xlink:href="#ArialMT-38" x="594.726562"/>
     <use xlink:href="#ArialMT-2d" x="650.341797"/>
     <use xlink:href="#ArialMT-30" x="683.642578"/>
     <use xlink:href="#ArialMT-32" x="739.257812"/>
     <use xlink:href="#ArialMT-2d" x="794.873047"/>
     <use xlink:href="#ArialMT-32" x="828.173828"/>
     <use xlink:href="#ArialMT-30" x="883.789062"/>
     <use xlink:href="#ArialMT-32" x="939.404297"/>
     <use xlink:href="#ArialMT-33" x="995.019531"/>
    </g>
   </g>
  </g>
 </g>
 <defs>
  <clipPath id="p974e2e05c4">
   <rect x="55.551563" y="21.789375" width="558" height="332.64"/>
  </clipPath>
 </defs>
</svg>
