<?xml version="1.0" encoding="utf-8" standalone="no"?>
<!DOCTYPE svg PUBLIC "-//W3C//DTD SVG 1.1//EN"
  "http://www.w3.org/Graphics/SVG/1.1/DTD/svg11.dtd">
<svg xmlns:xlink="http://www.w3.org/1999/xlink" width="612.164375pt" height="396.309844pt" viewBox="0 0 612.164375 396.309844" xmlns="http://www.w3.org/2000/svg" version="1.1">
 <metadata>
  <rdf:RDF xmlns:dc="http://purl.org/dc/elements/1.1/" xmlns:cc="http://creativecommons.org/ns#" xmlns:rdf="http://www.w3.org/1999/02/22-rdf-syntax-ns#">
   <cc:Work>
    <dc:type rdf:resource="http://purl.org/dc/dcmitype/StillImage"/>
    <dc:date>2023-11-13T12:30:00.750060</dc:date>
    <dc:format>image/svg+xml</dc:format>
    <dc:creator>
     <cc:Agent>
      <dc:title>Matplotlib v3.8.0, https://matplotlib.org/</dc:title>
     </cc:Agent>
    </dc:creator>
   </cc:Work>
  </rdf:RDF>
 </metadata>
 <defs>
  <style type="text/css">*{stroke-linejoin: round; stroke-linecap: butt}</style>
 </defs>
 <g id="figure_1">
  <g id="patch_1">
   <path d="M 0 396.309844 
L 612.164375 396.309844 
L 612.164375 0 
L 0 0 
z
" style="fill: #ffffff"/>
  </g>
  <g id="axes_1">
   <g id="patch_2">
    <path d="M 46.964375 354.575625 
L 604.964375 354.575625 
L 604.964375 21.935625 
L 46.964375 21.935625 
z
" style="fill: #eaeaf2"/>
   </g>
   <g id="matplotlib.axis_1">
    <g id="xtick_1">
     <g id="line2d_1">
      <path d="M 56.501941 354.575625 
L 56.501941 21.935625 
" clip-path="url(#p161620809c)" style="fill: none; stroke: #ffffff; stroke-linecap: round"/>
     </g>
     <g id="text_1">
      <!-- 2010 -->
      <g style="fill: #262626" transform="translate(44.267878 371.949219) scale(0.11 -0.11)">
       <defs>
        <path id="ArialMT-32" d="M 3222 541 
L 3222 0 
L 194 0 
Q 188 203 259 391 
Q 375 700 629 1000 
Q 884 1300 1366 1694 
Q 2113 2306 2375 2664 
Q 2638 3022 2638 3341 
Q 2638 3675 2398 3904 
Q 2159 4134 1775 4134 
Q 1369 4134 1125 3890 
Q 881 3647 878 3216 
L 300 3275 
Q 359 3922 746 4261 
Q 1134 4600 1788 4600 
Q 2447 4600 2831 4234 
Q 3216 3869 3216 3328 
Q 3216 3053 3103 2787 
Q 2991 2522 2730 2228 
Q 2469 1934 1863 1422 
Q 1356 997 1212 845 
Q 1069 694 975 541 
L 3222 541 
z
" transform="scale(0.015625)"/>
        <path id="ArialMT-30" d="M 266 2259 
Q 266 3072 433 3567 
Q 600 4063 929 4331 
Q 1259 4600 1759 4600 
Q 2128 4600 2406 4451 
Q 2684 4303 2865 4023 
Q 3047 3744 3150 3342 
Q 3253 2941 3253 2259 
Q 3253 1453 3087 958 
Q 2922 463 2592 192 
Q 2263 -78 1759 -78 
Q 1097 -78 719 397 
Q 266 969 266 2259 
z
M 844 2259 
Q 844 1131 1108 757 
Q 1372 384 1759 384 
Q 2147 384 2411 759 
Q 2675 1134 2675 2259 
Q 2675 3391 2411 3762 
Q 2147 4134 1753 4134 
Q 1366 4134 1134 3806 
Q 844 3388 844 2259 
z
" transform="scale(0.015625)"/>
        <path id="ArialMT-31" d="M 2384 0 
L 1822 0 
L 1822 3584 
Q 1619 3391 1289 3197 
Q 959 3003 697 2906 
L 697 3450 
Q 1169 3672 1522 3987 
Q 1875 4303 2022 4600 
L 2384 4600 
L 2384 0 
z
" transform="scale(0.015625)"/>
       </defs>
       <use xlink:href="#ArialMT-32"/>
       <use xlink:href="#ArialMT-30" x="55.615234"/>
       <use xlink:href="#ArialMT-31" x="111.230469"/>
       <use xlink:href="#ArialMT-30" x="166.845703"/>
      </g>
     </g>
    </g>
    <g id="xtick_2">
     <g id="line2d_2">
      <path d="M 94.757012 354.575625 
L 94.757012 21.935625 
" clip-path="url(#p161620809c)" style="fill: none; stroke: #ffffff; stroke-linecap: round"/>
     </g>
     <g id="text_2">
      <!-- 2011 -->
      <g style="fill: #262626" transform="translate(82.928575 371.949219) scale(0.11 -0.11)">
       <use xlink:href="#ArialMT-32"/>
       <use xlink:href="#ArialMT-30" x="55.615234"/>
       <use xlink:href="#ArialMT-31" x="111.230469"/>
       <use xlink:href="#ArialMT-31" x="159.470703"/>
      </g>
     </g>
    </g>
    <g id="xtick_3">
     <g id="line2d_3">
      <path d="M 133.012083 354.575625 
L 133.012083 21.935625 
" clip-path="url(#p161620809c)" style="fill: none; stroke: #ffffff; stroke-linecap: round"/>
     </g>
     <g id="text_3">
      <!-- 2012 -->
      <g style="fill: #262626" transform="translate(120.778021 371.949219) scale(0.11 -0.11)">
       <use xlink:href="#ArialMT-32"/>
       <use xlink:href="#ArialMT-30" x="55.615234"/>
       <use xlink:href="#ArialMT-31" x="111.230469"/>
       <use xlink:href="#ArialMT-32" x="166.845703"/>
      </g>
     </g>
    </g>
    <g id="xtick_4">
     <g id="line2d_4">
      <path d="M 171.371963 354.575625 
L 171.371963 21.935625 
" clip-path="url(#p161620809c)" style="fill: none; stroke: #ffffff; stroke-linecap: round"/>
     </g>
     <g id="text_4">
      <!-- 2013 -->
      <g style="fill: #262626" transform="translate(159.137901 371.949219) scale(0.11 -0.11)">
       <defs>
        <path id="ArialMT-33" d="M 269 1209 
L 831 1284 
Q 928 806 1161 595 
Q 1394 384 1728 384 
Q 2125 384 2398 659 
Q 2672 934 2672 1341 
Q 2672 1728 2419 1979 
Q 2166 2231 1775 2231 
Q 1616 2231 1378 2169 
L 1441 2663 
Q 1497 2656 1531 2656 
Q 1891 2656 2178 2843 
Q 2466 3031 2466 3422 
Q 2466 3731 2256 3934 
Q 2047 4138 1716 4138 
Q 1388 4138 1169 3931 
Q 950 3725 888 3313 
L 325 3413 
Q 428 3978 793 4289 
Q 1159 4600 1703 4600 
Q 2078 4600 2393 4439 
Q 2709 4278 2876 4000 
Q 3044 3722 3044 3409 
Q 3044 3113 2884 2869 
Q 2725 2625 2413 2481 
Q 2819 2388 3044 2092 
Q 3269 1797 3269 1353 
Q 3269 753 2831 336 
Q 2394 -81 1725 -81 
Q 1122 -81 723 278 
Q 325 638 269 1209 
z
" transform="scale(0.015625)"/>
       </defs>
       <use xlink:href="#ArialMT-32"/>
       <use xlink:href="#ArialMT-30" x="55.615234"/>
       <use xlink:href="#ArialMT-31" x="111.230469"/>
       <use xlink:href="#ArialMT-33" x="166.845703"/>
      </g>
     </g>
    </g>
    <g id="xtick_5">
     <g id="line2d_5">
      <path d="M 209.627035 354.575625 
L 209.627035 21.935625 
" clip-path="url(#p161620809c)" style="fill: none; stroke: #ffffff; stroke-linecap: round"/>
     </g>
     <g id="text_5">
      <!-- 2014 -->
      <g style="fill: #262626" transform="translate(197.392972 371.949219) scale(0.11 -0.11)">
       <defs>
        <path id="ArialMT-34" d="M 2069 0 
L 2069 1097 
L 81 1097 
L 81 1613 
L 2172 4581 
L 2631 4581 
L 2631 1613 
L 3250 1613 
L 3250 1097 
L 2631 1097 
L 2631 0 
L 2069 0 
z
M 2069 1613 
L 2069 3678 
L 634 1613 
L 2069 1613 
z
" transform="scale(0.015625)"/>
       </defs>
       <use xlink:href="#ArialMT-32"/>
       <use xlink:href="#ArialMT-30" x="55.615234"/>
       <use xlink:href="#ArialMT-31" x="111.230469"/>
       <use xlink:href="#ArialMT-34" x="166.845703"/>
      </g>
     </g>
    </g>
    <g id="xtick_6">
     <g id="line2d_6">
      <path d="M 247.882106 354.575625 
L 247.882106 21.935625 
" clip-path="url(#p161620809c)" style="fill: none; stroke: #ffffff; stroke-linecap: round"/>
     </g>
     <g id="text_6">
      <!-- 2015 -->
      <g style="fill: #262626" transform="translate(235.648044 371.949219) scale(0.11 -0.11)">
       <defs>
        <path id="ArialMT-35" d="M 266 1200 
L 856 1250 
Q 922 819 1161 601 
Q 1400 384 1738 384 
Q 2144 384 2425 690 
Q 2706 997 2706 1503 
Q 2706 1984 2436 2262 
Q 2166 2541 1728 2541 
Q 1456 2541 1237 2417 
Q 1019 2294 894 2097 
L 366 2166 
L 809 4519 
L 3088 4519 
L 3088 3981 
L 1259 3981 
L 1013 2750 
Q 1425 3038 1878 3038 
Q 2478 3038 2890 2622 
Q 3303 2206 3303 1553 
Q 3303 931 2941 478 
Q 2500 -78 1738 -78 
Q 1113 -78 717 272 
Q 322 622 266 1200 
z
" transform="scale(0.015625)"/>
       </defs>
       <use xlink:href="#ArialMT-32"/>
       <use xlink:href="#ArialMT-30" x="55.615234"/>
       <use xlink:href="#ArialMT-31" x="111.230469"/>
       <use xlink:href="#ArialMT-35" x="166.845703"/>
      </g>
     </g>
    </g>
    <g id="xtick_7">
     <g id="line2d_7">
      <path d="M 286.137177 354.575625 
L 286.137177 21.935625 
" clip-path="url(#p161620809c)" style="fill: none; stroke: #ffffff; stroke-linecap: round"/>
     </g>
     <g id="text_7">
      <!-- 2016 -->
      <g style="fill: #262626" transform="translate(273.903115 371.949219) scale(0.11 -0.11)">
       <defs>
        <path id="ArialMT-36" d="M 3184 3459 
L 2625 3416 
Q 2550 3747 2413 3897 
Q 2184 4138 1850 4138 
Q 1581 4138 1378 3988 
Q 1113 3794 959 3422 
Q 806 3050 800 2363 
Q 1003 2672 1297 2822 
Q 1591 2972 1913 2972 
Q 2475 2972 2870 2558 
Q 3266 2144 3266 1488 
Q 3266 1056 3080 686 
Q 2894 316 2569 119 
Q 2244 -78 1831 -78 
Q 1128 -78 684 439 
Q 241 956 241 2144 
Q 241 3472 731 4075 
Q 1159 4600 1884 4600 
Q 2425 4600 2770 4297 
Q 3116 3994 3184 3459 
z
M 888 1484 
Q 888 1194 1011 928 
Q 1134 663 1356 523 
Q 1578 384 1822 384 
Q 2178 384 2434 671 
Q 2691 959 2691 1453 
Q 2691 1928 2437 2201 
Q 2184 2475 1800 2475 
Q 1419 2475 1153 2201 
Q 888 1928 888 1484 
z
" transform="scale(0.015625)"/>
       </defs>
       <use xlink:href="#ArialMT-32"/>
       <use xlink:href="#ArialMT-30" x="55.615234"/>
       <use xlink:href="#ArialMT-31" x="111.230469"/>
       <use xlink:href="#ArialMT-36" x="166.845703"/>
      </g>
     </g>
    </g>
    <g id="xtick_8">
     <g id="line2d_8">
      <path d="M 324.497057 354.575625 
L 324.497057 21.935625 
" clip-path="url(#p161620809c)" style="fill: none; stroke: #ffffff; stroke-linecap: round"/>
     </g>
     <g id="text_8">
      <!-- 2017 -->
      <g style="fill: #262626" transform="translate(312.262995 371.949219) scale(0.11 -0.11)">
       <defs>
        <path id="ArialMT-37" d="M 303 3981 
L 303 4522 
L 3269 4522 
L 3269 4084 
Q 2831 3619 2401 2847 
Q 1972 2075 1738 1259 
Q 1569 684 1522 0 
L 944 0 
Q 953 541 1156 1306 
Q 1359 2072 1739 2783 
Q 2119 3494 2547 3981 
L 303 3981 
z
" transform="scale(0.015625)"/>
       </defs>
       <use xlink:href="#ArialMT-32"/>
       <use xlink:href="#ArialMT-30" x="55.615234"/>
       <use xlink:href="#ArialMT-31" x="111.230469"/>
       <use xlink:href="#ArialMT-37" x="166.845703"/>
      </g>
     </g>
    </g>
    <g id="xtick_9">
     <g id="line2d_9">
      <path d="M 362.752129 354.575625 
L 362.752129 21.935625 
" clip-path="url(#p161620809c)" style="fill: none; stroke: #ffffff; stroke-linecap: round"/>
     </g>
     <g id="text_9">
      <!-- 2018 -->
      <g style="fill: #262626" transform="translate(350.518066 371.949219) scale(0.11 -0.11)">
       <defs>
        <path id="ArialMT-38" d="M 1131 2484 
Q 781 2613 612 2850 
Q 444 3088 444 3419 
Q 444 3919 803 4259 
Q 1163 4600 1759 4600 
Q 2359 4600 2725 4251 
Q 3091 3903 3091 3403 
Q 3091 3084 2923 2848 
Q 2756 2613 2416 2484 
Q 2838 2347 3058 2040 
Q 3278 1734 3278 1309 
Q 3278 722 2862 322 
Q 2447 -78 1769 -78 
Q 1091 -78 675 323 
Q 259 725 259 1325 
Q 259 1772 486 2073 
Q 713 2375 1131 2484 
z
M 1019 3438 
Q 1019 3113 1228 2906 
Q 1438 2700 1772 2700 
Q 2097 2700 2305 2904 
Q 2513 3109 2513 3406 
Q 2513 3716 2298 3927 
Q 2084 4138 1766 4138 
Q 1444 4138 1231 3931 
Q 1019 3725 1019 3438 
z
M 838 1322 
Q 838 1081 952 856 
Q 1066 631 1291 507 
Q 1516 384 1775 384 
Q 2178 384 2440 643 
Q 2703 903 2703 1303 
Q 2703 1709 2433 1975 
Q 2163 2241 1756 2241 
Q 1359 2241 1098 1978 
Q 838 1716 838 1322 
z
" transform="scale(0.015625)"/>
       </defs>
       <use xlink:href="#ArialMT-32"/>
       <use xlink:href="#ArialMT-30" x="55.615234"/>
       <use xlink:href="#ArialMT-31" x="111.230469"/>
       <use xlink:href="#ArialMT-38" x="166.845703"/>
      </g>
     </g>
    </g>
    <g id="xtick_10">
     <g id="line2d_10">
      <path d="M 401.0072 354.575625 
L 401.0072 21.935625 
" clip-path="url(#p161620809c)" style="fill: none; stroke: #ffffff; stroke-linecap: round"/>
     </g>
     <g id="text_10">
      <!-- 2019 -->
      <g style="fill: #262626" transform="translate(388.773137 371.949219) scale(0.11 -0.11)">
       <defs>
        <path id="ArialMT-39" d="M 350 1059 
L 891 1109 
Q 959 728 1153 556 
Q 1347 384 1650 384 
Q 1909 384 2104 503 
Q 2300 622 2425 820 
Q 2550 1019 2634 1356 
Q 2719 1694 2719 2044 
Q 2719 2081 2716 2156 
Q 2547 1888 2255 1720 
Q 1963 1553 1622 1553 
Q 1053 1553 659 1965 
Q 266 2378 266 3053 
Q 266 3750 677 4175 
Q 1088 4600 1706 4600 
Q 2153 4600 2523 4359 
Q 2894 4119 3086 3673 
Q 3278 3228 3278 2384 
Q 3278 1506 3087 986 
Q 2897 466 2520 194 
Q 2144 -78 1638 -78 
Q 1100 -78 759 220 
Q 419 519 350 1059 
z
M 2653 3081 
Q 2653 3566 2395 3850 
Q 2138 4134 1775 4134 
Q 1400 4134 1122 3828 
Q 844 3522 844 3034 
Q 844 2597 1108 2323 
Q 1372 2050 1759 2050 
Q 2150 2050 2401 2323 
Q 2653 2597 2653 3081 
z
" transform="scale(0.015625)"/>
       </defs>
       <use xlink:href="#ArialMT-32"/>
       <use xlink:href="#ArialMT-30" x="55.615234"/>
       <use xlink:href="#ArialMT-31" x="111.230469"/>
       <use xlink:href="#ArialMT-39" x="166.845703"/>
      </g>
     </g>
    </g>
    <g id="xtick_11">
     <g id="line2d_11">
      <path d="M 439.262271 354.575625 
L 439.262271 21.935625 
" clip-path="url(#p161620809c)" style="fill: none; stroke: #ffffff; stroke-linecap: round"/>
     </g>
     <g id="text_11">
      <!-- 2020 -->
      <g style="fill: #262626" transform="translate(427.028209 371.949219) scale(0.11 -0.11)">
       <use xlink:href="#ArialMT-32"/>
       <use xlink:href="#ArialMT-30" x="55.615234"/>
       <use xlink:href="#ArialMT-32" x="111.230469"/>
       <use xlink:href="#ArialMT-30" x="166.845703"/>
      </g>
     </g>
    </g>
    <g id="xtick_12">
     <g id="line2d_12">
      <path d="M 477.622151 354.575625 
L 477.622151 21.935625 
" clip-path="url(#p161620809c)" style="fill: none; stroke: #ffffff; stroke-linecap: round"/>
     </g>
     <g id="text_12">
      <!-- 2021 -->
      <g style="fill: #262626" transform="translate(465.388089 371.949219) scale(0.11 -0.11)">
       <use xlink:href="#ArialMT-32"/>
       <use xlink:href="#ArialMT-30" x="55.615234"/>
       <use xlink:href="#ArialMT-32" x="111.230469"/>
       <use xlink:href="#ArialMT-31" x="166.845703"/>
      </g>
     </g>
    </g>
    <g id="xtick_13">
     <g id="line2d_13">
      <path d="M 515.877222 354.575625 
L 515.877222 21.935625 
" clip-path="url(#p161620809c)" style="fill: none; stroke: #ffffff; stroke-linecap: round"/>
     </g>
     <g id="text_13">
      <!-- 2022 -->
      <g style="fill: #262626" transform="translate(503.64316 371.949219) scale(0.11 -0.11)">
       <use xlink:href="#ArialMT-32"/>
       <use xlink:href="#ArialMT-30" x="55.615234"/>
       <use xlink:href="#ArialMT-32" x="111.230469"/>
       <use xlink:href="#ArialMT-32" x="166.845703"/>
      </g>
     </g>
    </g>
    <g id="xtick_14">
     <g id="line2d_14">
      <path d="M 554.132294 354.575625 
L 554.132294 21.935625 
" clip-path="url(#p161620809c)" style="fill: none; stroke: #ffffff; stroke-linecap: round"/>
     </g>
     <g id="text_14">
      <!-- 2023 -->
      <g style="fill: #262626" transform="translate(541.898231 371.949219) scale(0.11 -0.11)">
       <use xlink:href="#ArialMT-32"/>
       <use xlink:href="#ArialMT-30" x="55.615234"/>
       <use xlink:href="#ArialMT-32" x="111.230469"/>
       <use xlink:href="#ArialMT-33" x="166.845703"/>
      </g>
     </g>
    </g>
    <g id="xtick_15">
     <g id="line2d_15">
      <path d="M 592.387365 354.575625 
L 592.387365 21.935625 
" clip-path="url(#p161620809c)" style="fill: none; stroke: #ffffff; stroke-linecap: round"/>
     </g>
     <g id="text_15">
      <!-- 2024 -->
      <g style="fill: #262626" transform="translate(580.153303 371.949219) scale(0.11 -0.11)">
       <use xlink:href="#ArialMT-32"/>
       <use xlink:href="#ArialMT-30" x="55.615234"/>
       <use xlink:href="#ArialMT-32" x="111.230469"/>
       <use xlink:href="#ArialMT-34" x="166.845703"/>
      </g>
     </g>
    </g>
    <g id="text_16">
     <!-- Period -->
     <g style="fill: #262626" transform="translate(308.621563 386.724844) scale(0.12 -0.12)">
      <defs>
       <path id="ArialMT-50" d="M 494 0 
L 494 4581 
L 2222 4581 
Q 2678 4581 2919 4538 
Q 3256 4481 3484 4323 
Q 3713 4166 3852 3881 
Q 3991 3597 3991 3256 
Q 3991 2672 3619 2267 
Q 3247 1863 2275 1863 
L 1100 1863 
L 1100 0 
L 494 0 
z
M 1100 2403 
L 2284 2403 
Q 2872 2403 3119 2622 
Q 3366 2841 3366 3238 
Q 3366 3525 3220 3729 
Q 3075 3934 2838 4000 
Q 2684 4041 2272 4041 
L 1100 4041 
L 1100 2403 
z
" transform="scale(0.015625)"/>
       <path id="ArialMT-65" d="M 2694 1069 
L 3275 997 
Q 3138 488 2766 206 
Q 2394 -75 1816 -75 
Q 1088 -75 661 373 
Q 234 822 234 1631 
Q 234 2469 665 2931 
Q 1097 3394 1784 3394 
Q 2450 3394 2872 2941 
Q 3294 2488 3294 1666 
Q 3294 1616 3291 1516 
L 816 1516 
Q 847 969 1125 678 
Q 1403 388 1819 388 
Q 2128 388 2347 550 
Q 2566 713 2694 1069 
z
M 847 1978 
L 2700 1978 
Q 2663 2397 2488 2606 
Q 2219 2931 1791 2931 
Q 1403 2931 1139 2672 
Q 875 2413 847 1978 
z
" transform="scale(0.015625)"/>
       <path id="ArialMT-72" d="M 416 0 
L 416 3319 
L 922 3319 
L 922 2816 
Q 1116 3169 1280 3281 
Q 1444 3394 1641 3394 
Q 1925 3394 2219 3213 
L 2025 2691 
Q 1819 2813 1613 2813 
Q 1428 2813 1281 2702 
Q 1134 2591 1072 2394 
Q 978 2094 978 1738 
L 978 0 
L 416 0 
z
" transform="scale(0.015625)"/>
       <path id="ArialMT-69" d="M 425 3934 
L 425 4581 
L 988 4581 
L 988 3934 
L 425 3934 
z
M 425 0 
L 425 3319 
L 988 3319 
L 988 0 
L 425 0 
z
" transform="scale(0.015625)"/>
       <path id="ArialMT-6f" d="M 213 1659 
Q 213 2581 725 3025 
Q 1153 3394 1769 3394 
Q 2453 3394 2887 2945 
Q 3322 2497 3322 1706 
Q 3322 1066 3130 698 
Q 2938 331 2570 128 
Q 2203 -75 1769 -75 
Q 1072 -75 642 372 
Q 213 819 213 1659 
z
M 791 1659 
Q 791 1022 1069 705 
Q 1347 388 1769 388 
Q 2188 388 2466 706 
Q 2744 1025 2744 1678 
Q 2744 2294 2464 2611 
Q 2184 2928 1769 2928 
Q 1347 2928 1069 2612 
Q 791 2297 791 1659 
z
" transform="scale(0.015625)"/>
       <path id="ArialMT-64" d="M 2575 0 
L 2575 419 
Q 2259 -75 1647 -75 
Q 1250 -75 917 144 
Q 584 363 401 755 
Q 219 1147 219 1656 
Q 219 2153 384 2558 
Q 550 2963 881 3178 
Q 1213 3394 1622 3394 
Q 1922 3394 2156 3267 
Q 2391 3141 2538 2938 
L 2538 4581 
L 3097 4581 
L 3097 0 
L 2575 0 
z
M 797 1656 
Q 797 1019 1065 703 
Q 1334 388 1700 388 
Q 2069 388 2326 689 
Q 2584 991 2584 1609 
Q 2584 2291 2321 2609 
Q 2059 2928 1675 2928 
Q 1300 2928 1048 2622 
Q 797 2316 797 1656 
z
" transform="scale(0.015625)"/>
      </defs>
      <use xlink:href="#ArialMT-50"/>
      <use xlink:href="#ArialMT-65" x="66.699219"/>
      <use xlink:href="#ArialMT-72" x="122.314453"/>
      <use xlink:href="#ArialMT-69" x="155.615234"/>
      <use xlink:href="#ArialMT-6f" x="177.832031"/>
      <use xlink:href="#ArialMT-64" x="233.447266"/>
     </g>
    </g>
   </g>
   <g id="matplotlib.axis_2">
    <g id="ytick_1">
     <g id="line2d_16">
      <path d="M 46.964375 337.847114 
L 604.964375 337.847114 
" clip-path="url(#p161620809c)" style="fill: none; stroke: #ffffff; stroke-linecap: round"/>
     </g>
     <g id="text_17">
      <!-- 1.5 -->
      <g style="fill: #262626" transform="translate(22.174375 341.783911) scale(0.11 -0.11)">
       <defs>
        <path id="ArialMT-2e" d="M 581 0 
L 581 641 
L 1222 641 
L 1222 0 
L 581 0 
z
" transform="scale(0.015625)"/>
       </defs>
       <use xlink:href="#ArialMT-31"/>
       <use xlink:href="#ArialMT-2e" x="55.615234"/>
       <use xlink:href="#ArialMT-35" x="83.398438"/>
      </g>
     </g>
    </g>
    <g id="ytick_2">
     <g id="line2d_17">
      <path d="M 46.964375 297.634348 
L 604.964375 297.634348 
" clip-path="url(#p161620809c)" style="fill: none; stroke: #ffffff; stroke-linecap: round"/>
     </g>
     <g id="text_18">
      <!-- 2.0 -->
      <g style="fill: #262626" transform="translate(22.174375 301.571145) scale(0.11 -0.11)">
       <use xlink:href="#ArialMT-32"/>
       <use xlink:href="#ArialMT-2e" x="55.615234"/>
       <use xlink:href="#ArialMT-30" x="83.398438"/>
      </g>
     </g>
    </g>
    <g id="ytick_3">
     <g id="line2d_18">
      <path d="M 46.964375 257.421582 
L 604.964375 257.421582 
" clip-path="url(#p161620809c)" style="fill: none; stroke: #ffffff; stroke-linecap: round"/>
     </g>
     <g id="text_19">
      <!-- 2.5 -->
      <g style="fill: #262626" transform="translate(22.174375 261.358379) scale(0.11 -0.11)">
       <use xlink:href="#ArialMT-32"/>
       <use xlink:href="#ArialMT-2e" x="55.615234"/>
       <use xlink:href="#ArialMT-35" x="83.398438"/>
      </g>
     </g>
    </g>
    <g id="ytick_4">
     <g id="line2d_19">
      <path d="M 46.964375 217.208816 
L 604.964375 217.208816 
" clip-path="url(#p161620809c)" style="fill: none; stroke: #ffffff; stroke-linecap: round"/>
     </g>
     <g id="text_20">
      <!-- 3.0 -->
      <g style="fill: #262626" transform="translate(22.174375 221.145613) scale(0.11 -0.11)">
       <use xlink:href="#ArialMT-33"/>
       <use xlink:href="#ArialMT-2e" x="55.615234"/>
       <use xlink:href="#ArialMT-30" x="83.398438"/>
      </g>
     </g>
    </g>
    <g id="ytick_5">
     <g id="line2d_20">
      <path d="M 46.964375 176.996051 
L 604.964375 176.996051 
" clip-path="url(#p161620809c)" style="fill: none; stroke: #ffffff; stroke-linecap: round"/>
     </g>
     <g id="text_21">
      <!-- 3.5 -->
      <g style="fill: #262626" transform="translate(22.174375 180.932847) scale(0.11 -0.11)">
       <use xlink:href="#ArialMT-33"/>
       <use xlink:href="#ArialMT-2e" x="55.615234"/>
       <use xlink:href="#ArialMT-35" x="83.398438"/>
      </g>
     </g>
    </g>
    <g id="ytick_6">
     <g id="line2d_21">
      <path d="M 46.964375 136.783285 
L 604.964375 136.783285 
" clip-path="url(#p161620809c)" style="fill: none; stroke: #ffffff; stroke-linecap: round"/>
     </g>
     <g id="text_22">
      <!-- 4.0 -->
      <g style="fill: #262626" transform="translate(22.174375 140.720081) scale(0.11 -0.11)">
       <use xlink:href="#ArialMT-34"/>
       <use xlink:href="#ArialMT-2e" x="55.615234"/>
       <use xlink:href="#ArialMT-30" x="83.398438"/>
      </g>
     </g>
    </g>
    <g id="ytick_7">
     <g id="line2d_22">
      <path d="M 46.964375 96.570519 
L 604.964375 96.570519 
" clip-path="url(#p161620809c)" style="fill: none; stroke: #ffffff; stroke-linecap: round"/>
     </g>
     <g id="text_23">
      <!-- 4.5 -->
      <g style="fill: #262626" transform="translate(22.174375 100.507315) scale(0.11 -0.11)">
       <use xlink:href="#ArialMT-34"/>
       <use xlink:href="#ArialMT-2e" x="55.615234"/>
       <use xlink:href="#ArialMT-35" x="83.398438"/>
      </g>
     </g>
    </g>
    <g id="ytick_8">
     <g id="line2d_23">
      <path d="M 46.964375 56.357753 
L 604.964375 56.357753 
" clip-path="url(#p161620809c)" style="fill: none; stroke: #ffffff; stroke-linecap: round"/>
     </g>
     <g id="text_24">
      <!-- 5.0 -->
      <g style="fill: #262626" transform="translate(22.174375 60.29455) scale(0.11 -0.11)">
       <use xlink:href="#ArialMT-35"/>
       <use xlink:href="#ArialMT-2e" x="55.615234"/>
       <use xlink:href="#ArialMT-30" x="83.398438"/>
      </g>
     </g>
    </g>
    <g id="text_25">
     <!-- Interest % -->
     <g style="fill: #262626" transform="translate(15.789375 215.265938) rotate(-90) scale(0.12 -0.12)">
      <defs>
       <path id="ArialMT-49" d="M 597 0 
L 597 4581 
L 1203 4581 
L 1203 0 
L 597 0 
z
" transform="scale(0.015625)"/>
       <path id="ArialMT-6e" d="M 422 0 
L 422 3319 
L 928 3319 
L 928 2847 
Q 1294 3394 1984 3394 
Q 2284 3394 2536 3286 
Q 2788 3178 2913 3003 
Q 3038 2828 3088 2588 
Q 3119 2431 3119 2041 
L 3119 0 
L 2556 0 
L 2556 2019 
Q 2556 2363 2490 2533 
Q 2425 2703 2258 2804 
Q 2091 2906 1866 2906 
Q 1506 2906 1245 2678 
Q 984 2450 984 1813 
L 984 0 
L 422 0 
z
" transform="scale(0.015625)"/>
       <path id="ArialMT-74" d="M 1650 503 
L 1731 6 
Q 1494 -44 1306 -44 
Q 1000 -44 831 53 
Q 663 150 594 308 
Q 525 466 525 972 
L 525 2881 
L 113 2881 
L 113 3319 
L 525 3319 
L 525 4141 
L 1084 4478 
L 1084 3319 
L 1650 3319 
L 1650 2881 
L 1084 2881 
L 1084 941 
Q 1084 700 1114 631 
Q 1144 563 1211 522 
Q 1278 481 1403 481 
Q 1497 481 1650 503 
z
" transform="scale(0.015625)"/>
       <path id="ArialMT-73" d="M 197 991 
L 753 1078 
Q 800 744 1014 566 
Q 1228 388 1613 388 
Q 2000 388 2187 545 
Q 2375 703 2375 916 
Q 2375 1106 2209 1216 
Q 2094 1291 1634 1406 
Q 1016 1563 777 1677 
Q 538 1791 414 1992 
Q 291 2194 291 2438 
Q 291 2659 392 2848 
Q 494 3038 669 3163 
Q 800 3259 1026 3326 
Q 1253 3394 1513 3394 
Q 1903 3394 2198 3281 
Q 2494 3169 2634 2976 
Q 2775 2784 2828 2463 
L 2278 2388 
Q 2241 2644 2061 2787 
Q 1881 2931 1553 2931 
Q 1166 2931 1000 2803 
Q 834 2675 834 2503 
Q 834 2394 903 2306 
Q 972 2216 1119 2156 
Q 1203 2125 1616 2013 
Q 2213 1853 2448 1751 
Q 2684 1650 2818 1456 
Q 2953 1263 2953 975 
Q 2953 694 2789 445 
Q 2625 197 2315 61 
Q 2006 -75 1616 -75 
Q 969 -75 630 194 
Q 291 463 197 991 
z
" transform="scale(0.015625)"/>
       <path id="ArialMT-20" transform="scale(0.015625)"/>
       <path id="ArialMT-25" d="M 372 3481 
Q 372 3972 619 4315 
Q 866 4659 1334 4659 
Q 1766 4659 2048 4351 
Q 2331 4044 2331 3447 
Q 2331 2866 2045 2552 
Q 1759 2238 1341 2238 
Q 925 2238 648 2547 
Q 372 2856 372 3481 
z
M 1350 4272 
Q 1141 4272 1002 4090 
Q 863 3909 863 3425 
Q 863 2984 1003 2804 
Q 1144 2625 1350 2625 
Q 1563 2625 1702 2806 
Q 1841 2988 1841 3469 
Q 1841 3913 1700 4092 
Q 1559 4272 1350 4272 
z
M 1353 -169 
L 3859 4659 
L 4316 4659 
L 1819 -169 
L 1353 -169 
z
M 3334 1075 
Q 3334 1569 3581 1911 
Q 3828 2253 4300 2253 
Q 4731 2253 5014 1945 
Q 5297 1638 5297 1041 
Q 5297 459 5011 145 
Q 4725 -169 4303 -169 
Q 3888 -169 3611 142 
Q 3334 453 3334 1075 
z
M 4316 1866 
Q 4103 1866 3964 1684 
Q 3825 1503 3825 1019 
Q 3825 581 3965 400 
Q 4106 219 4313 219 
Q 4528 219 4667 400 
Q 4806 581 4806 1063 
Q 4806 1506 4665 1686 
Q 4525 1866 4316 1866 
z
" transform="scale(0.015625)"/>
      </defs>
      <use xlink:href="#ArialMT-49"/>
      <use xlink:href="#ArialMT-6e" x="27.783203"/>
      <use xlink:href="#ArialMT-74" x="83.398438"/>
      <use xlink:href="#ArialMT-65" x="111.181641"/>
      <use xlink:href="#ArialMT-72" x="166.796875"/>
      <use xlink:href="#ArialMT-65" x="200.097656"/>
      <use xlink:href="#ArialMT-73" x="255.712891"/>
      <use xlink:href="#ArialMT-74" x="305.712891"/>
      <use xlink:href="#ArialMT-20" x="333.496094"/>
      <use xlink:href="#ArialMT-25" x="361.279297"/>
     </g>
    </g>
   </g>
   <g id="PolyCollection_1"/>
   <g id="PolyCollection_2"/>
   <g id="PolyCollection_3"/>
   <g id="PolyCollection_4"/>
   <g id="line2d_24">
    <path d="M 72.328011 100.591795 
L 75.472264 103.808816 
L 78.721325 107.830093 
L 81.970386 113.45988 
L 85.114638 116.676902 
L 88.363699 121.502434 
L 91.507951 123.915199 
L 94.757012 119.089668 
L 98.006073 119.089668 
L 100.940709 110.242859 
L 104.189769 96.570519 
L 107.334022 94.157753 
L 110.583083 93.353497 
L 113.727335 93.353497 
L 116.976396 94.962008 
L 120.225457 107.025838 
L 123.369709 111.047114 
L 129.763023 109.438604 
L 133.012083 110.242859 
L 136.261144 116.676902 
L 139.300588 122.306689 
L 142.549649 123.110944 
L 145.693902 133.566263 
L 148.942963 137.58754 
L 152.087215 147.238604 
L 155.336276 146.434348 
L 158.585337 152.064136 
L 161.729589 156.889668 
L 164.97865 159.302434 
L 168.122902 160.106689 
L 171.371963 152.868391 
L 174.621024 156.889668 
L 177.55566 162.519455 
L 180.804721 165.736476 
L 183.948973 176.191795 
L 187.198034 177.800306 
L 193.591347 187.45137 
L 196.840408 185.038604 
L 199.98466 190.668391 
L 203.233721 193.081157 
L 206.377974 191.472646 
L 209.627035 193.081157 
L 212.876096 202.732221 
L 215.810731 202.732221 
L 219.059792 203.536476 
L 222.204044 213.18754 
L 225.453105 219.621582 
L 228.597358 222.838604 
L 231.846419 221.230093 
L 235.095479 225.25137 
L 238.239732 227.664136 
L 241.488793 236.510944 
L 244.633045 243.749242 
L 247.882106 242.944987 
L 251.131167 240.532221 
L 254.065802 252.596051 
L 257.314863 254.204561 
L 260.459116 251.791795 
L 263.708177 255.008816 
L 266.852429 255.813072 
L 270.10149 255.813072 
L 273.350551 254.204561 
L 276.494803 259.030093 
L 279.743864 257.421582 
L 286.137177 260.638604 
L 289.386238 266.268391 
L 292.425682 273.506689 
L 295.674743 275.115199 
L 298.818996 279.136476 
L 302.068056 282.353497 
L 305.212309 290.396051 
L 308.46137 296.025838 
L 311.710431 294.417327 
L 314.854683 301.655625 
L 318.103744 292.808816 
L 321.247996 297.634348 
L 324.497057 296.025838 
L 327.746118 292.004561 
L 330.680754 289.591795 
L 333.929815 290.396051 
L 337.074067 290.396051 
L 340.323128 287.179029 
L 343.46738 284.766263 
L 346.716441 287.179029 
L 349.965502 287.983285 
L 353.109754 287.983285 
L 356.358815 287.179029 
L 359.503068 287.179029 
L 362.752129 291.200306 
L 366.001189 292.004561 
L 368.935825 290.396051 
L 372.184886 291.200306 
L 378.578199 291.200306 
L 384.971512 296.025838 
L 388.220573 293.613072 
L 391.364826 293.613072 
L 394.613887 291.200306 
L 397.758139 292.808816 
L 401.0072 293.613072 
L 404.256261 289.591795 
L 407.190896 291.200306 
L 410.439957 293.613072 
L 413.58421 292.808816 
L 416.833271 291.200306 
L 419.977523 295.221582 
L 423.226584 294.417327 
L 426.475645 302.45988 
L 429.619897 309.698178 
L 432.868958 304.872646 
L 436.01321 314.52371 
L 439.262271 314.52371 
L 442.511332 321.762008 
L 445.550776 321.762008 
L 448.799837 320.957753 
L 451.94409 320.957753 
L 455.19315 321.762008 
L 458.337403 319.349242 
L 461.586464 315.327965 
L 464.835525 315.327965 
L 467.979777 319.349242 
L 471.228838 319.349242 
L 474.37309 321.762008 
L 477.622151 325.783285 
L 480.871212 328.196051 
L 483.805848 332.217327 
L 490.199161 335.434348 
L 493.448222 334.630093 
L 496.592474 331.413072 
L 499.841535 332.217327 
L 503.090596 334.630093 
L 506.234848 328.196051 
L 509.483909 330.608816 
L 512.628162 328.196051 
L 515.877222 329.000306 
L 519.126283 327.391795 
L 522.060919 324.174774 
L 525.30998 317.740731 
L 528.454232 302.45988 
L 531.703293 281.549242 
L 534.847546 255.813072 
L 538.096606 232.489668 
L 541.345667 207.557753 
L 544.48992 177.800306 
L 547.738981 169.757753 
L 550.883233 160.106689 
L 554.132294 137.58754 
L 557.381355 111.047114 
L 560.31599 109.438604 
L 563.565051 103.808816 
L 566.709304 99.78754 
L 569.958364 105.417327 
L 573.102617 98.179029 
L 576.351678 91.744987 
L 579.600739 94.157753 
L 579.600739 94.157753 
" clip-path="url(#p161620809c)" style="fill: none; stroke: #4c72b0; stroke-width: 1.5; stroke-linecap: round"/>
   </g>
   <g id="line2d_25">
    <path d="M 72.328011 70.030093 
L 75.472264 74.855625 
L 78.721325 80.485412 
L 81.970386 87.72371 
L 85.114638 90.940731 
L 88.363699 95.766263 
L 94.757012 89.332221 
L 98.006073 83.702434 
L 100.940709 74.05137 
L 104.189769 57.966263 
L 107.334022 49.92371 
L 110.583083 45.902434 
L 113.727335 43.489668 
L 116.976396 49.119455 
L 120.225457 57.162008 
L 123.369709 67.617327 
L 126.61877 75.65988 
L 129.763023 78.876902 
L 133.012083 75.65988 
L 136.261144 70.030093 
L 139.300588 74.05137 
L 142.549649 74.05137 
L 145.693902 78.072646 
L 148.942963 80.485412 
L 152.087215 83.702434 
L 155.336276 84.506689 
L 158.585337 84.506689 
L 161.729589 86.919455 
L 164.97865 91.744987 
L 168.122902 86.919455 
L 171.371963 86.115199 
L 174.621024 87.72371 
L 177.55566 86.919455 
L 180.804721 91.744987 
L 183.948973 108.634348 
L 187.198034 112.655625 
L 190.342286 117.481157 
L 193.591347 123.915199 
L 196.840408 123.110944 
L 199.98466 125.52371 
L 203.233721 129.544987 
L 206.377974 134.370519 
L 209.627035 140.804561 
L 212.876096 144.825838 
L 215.810731 150.455625 
L 219.059792 149.65137 
L 222.204044 154.476902 
L 225.453105 156.889668 
L 228.597358 160.910944 
L 231.846419 166.540731 
L 235.095479 175.38754 
L 238.239732 183.430093 
L 241.488793 195.493923 
L 244.633045 202.732221 
L 247.882106 203.536476 
L 251.131167 208.362008 
L 254.065802 213.18754 
L 257.314863 221.230093 
L 260.459116 235.706689 
L 263.708177 234.098178 
L 266.852429 235.706689 
L 270.10149 233.293923 
L 273.350551 234.902434 
L 276.494803 238.92371 
L 279.743864 238.92371 
L 282.888117 246.162008 
L 286.137177 242.140731 
L 289.386238 243.749242 
L 292.425682 249.379029 
L 295.674743 248.574774 
L 302.068056 256.617327 
L 305.212309 253.400306 
L 308.46137 259.834348 
L 311.710431 265.464136 
L 314.854683 272.702434 
L 318.103744 275.919455 
L 321.247996 277.527965 
L 324.497057 280.744987 
L 327.746118 275.115199 
L 330.680754 273.506689 
L 333.929815 270.289668 
L 337.074067 271.093923 
L 340.323128 273.506689 
L 343.46738 274.310944 
L 346.716441 275.919455 
L 349.965502 274.310944 
L 353.109754 275.115199 
L 356.358815 271.093923 
L 362.752129 274.310944 
L 366.001189 270.289668 
L 368.935825 271.093923 
L 372.184886 271.093923 
L 375.329138 269.485412 
L 378.578199 263.855625 
L 381.722452 266.268391 
L 384.971512 267.876902 
L 388.220573 268.681157 
L 391.364826 267.876902 
L 394.613887 266.268391 
L 397.758139 267.876902 
L 401.0072 267.876902 
L 404.256261 265.464136 
L 407.190896 265.464136 
L 413.58421 275.115199 
L 419.977523 286.374774 
L 423.226584 287.983285 
L 426.475645 288.78754 
L 429.619897 293.613072 
L 432.868958 267.876902 
L 436.01321 301.655625 
L 439.262271 300.85137 
L 442.511332 305.676902 
L 445.550776 306.481157 
L 448.799837 314.52371 
L 451.94409 315.327965 
L 455.19315 316.936476 
L 458.337403 316.936476 
L 461.586464 315.327965 
L 464.835525 316.936476 
L 467.979777 317.740731 
L 471.228838 316.936476 
L 474.37309 317.740731 
L 477.622151 320.957753 
L 480.871212 323.370519 
L 483.805848 323.370519 
L 487.054908 327.391795 
L 490.199161 326.58754 
L 493.448222 329.804561 
L 496.592474 329.804561 
L 499.841535 331.413072 
L 503.090596 333.825838 
L 506.234848 331.413072 
L 509.483909 332.217327 
L 512.628162 333.825838 
L 515.877222 333.021582 
L 519.126283 331.413072 
L 522.060919 323.370519 
L 528.454232 299.242859 
L 531.703293 285.570519 
L 534.847546 264.65988 
L 538.096606 241.336476 
L 541.345667 223.642859 
L 547.738981 194.689668 
L 550.883233 183.430093 
L 554.132294 178.604561 
L 557.381355 175.38754 
L 560.31599 185.842859 
L 566.709304 163.32371 
L 569.958364 160.910944 
L 573.102617 156.085412 
L 576.351678 156.889668 
L 579.600739 152.064136 
L 579.600739 152.064136 
" clip-path="url(#p161620809c)" style="fill: none; stroke: #dd8452; stroke-width: 1.5; stroke-linecap: round"/>
   </g>
   <g id="line2d_26">
    <path d="M 72.328011 168.953497 
L 78.721325 167.344987 
L 81.970386 172.170519 
L 85.114638 176.191795 
L 88.363699 173.779029 
L 91.507951 170.562008 
L 94.757012 165.736476 
L 98.006073 168.953497 
L 100.940709 159.302434 
L 104.189769 154.476902 
L 107.334022 145.630093 
L 110.583083 144.021582 
L 113.727335 137.58754 
L 116.976396 138.391795 
L 120.225457 135.174774 
L 123.369709 137.58754 
L 126.61877 137.58754 
L 129.763023 135.174774 
L 133.012083 141.608816 
L 136.261144 140.804561 
L 139.300588 150.455625 
L 142.549649 155.281157 
L 145.693902 161.715199 
L 148.942963 162.519455 
L 152.087215 165.736476 
L 155.336276 164.932221 
L 158.585337 171.366263 
L 161.729589 176.996051 
L 164.97865 190.668391 
L 168.122902 195.493923 
L 171.371963 194.689668 
L 174.621024 200.319455 
L 177.55566 207.557753 
L 180.804721 209.970519 
L 183.948973 214.796051 
L 187.198034 218.817327 
L 190.342286 215.600306 
L 193.591347 222.034348 
L 196.840408 230.076902 
L 199.98466 234.098178 
L 203.233721 230.076902 
L 206.377974 228.468391 
L 209.627035 229.272646 
L 212.876096 238.92371 
L 215.810731 234.902434 
L 219.059792 237.315199 
L 222.204044 234.098178 
L 225.453105 241.336476 
L 228.597358 246.966263 
L 231.846419 243.749242 
L 235.095479 243.749242 
L 238.239732 250.98754 
L 241.488793 252.596051 
L 244.633045 259.834348 
L 247.882106 261.442859 
L 251.131167 259.030093 
L 254.065802 267.072646 
L 257.314863 268.681157 
L 260.459116 267.072646 
L 263.708177 270.289668 
L 266.852429 275.919455 
L 270.10149 275.115199 
L 273.350551 275.919455 
L 276.494803 283.157753 
L 279.743864 278.332221 
L 282.888117 279.940731 
L 286.137177 280.744987 
L 289.386238 289.591795 
L 292.425682 292.004561 
L 295.674743 295.221582 
L 298.818996 295.221582 
L 302.068056 297.634348 
L 305.212309 304.872646 
L 308.46137 301.655625 
L 311.710431 308.893923 
L 314.854683 314.52371 
L 321.247996 312.915199 
L 324.497057 314.52371 
L 327.746118 315.327965 
L 333.929815 315.327965 
L 337.074067 313.719455 
L 340.323128 314.52371 
L 343.46738 310.502434 
L 346.716441 307.285412 
L 349.965502 308.893923 
L 353.109754 312.110944 
L 356.358815 307.285412 
L 359.503068 310.502434 
L 362.752129 312.110944 
L 366.001189 311.306689 
L 368.935825 311.306689 
L 372.184886 312.915199 
L 375.329138 312.110944 
L 381.722452 313.719455 
L 384.971512 312.915199 
L 388.220573 314.52371 
L 391.364826 315.327965 
L 394.613887 313.719455 
L 401.0072 313.719455 
L 407.190896 312.110944 
L 410.439957 312.915199 
L 413.58421 311.306689 
L 416.833271 313.719455 
L 419.977523 312.915199 
L 423.226584 314.52371 
L 429.619897 322.566263 
L 432.868958 324.174774 
L 436.01321 324.979029 
L 439.262271 324.979029 
L 442.511332 329.804561 
L 445.550776 329.804561 
L 451.94409 328.196051 
L 455.19315 331.413072 
L 458.337403 330.608816 
L 461.586464 325.783285 
L 464.835525 327.391795 
L 467.979777 327.391795 
L 471.228838 328.196051 
L 474.37309 329.804561 
L 480.871212 336.238604 
L 483.805848 337.847114 
L 487.054908 337.847114 
L 490.199161 336.238604 
L 493.448222 335.434348 
L 496.592474 336.238604 
L 499.841535 336.238604 
L 503.090596 338.65137 
L 506.234848 339.455625 
L 509.483909 337.847114 
L 512.628162 337.042859 
L 515.877222 337.847114 
L 519.126283 337.847114 
L 522.060919 329.804561 
L 525.30998 328.196051 
L 531.703293 292.004561 
L 534.847546 273.506689 
L 541.345667 246.162008 
L 544.48992 213.18754 
L 547.738981 195.493923 
L 554.132294 153.672646 
L 557.381355 139.196051 
L 560.31599 125.52371 
L 563.565051 117.481157 
L 566.709304 113.45988 
L 569.958364 103.808816 
L 573.102617 91.744987 
L 576.351678 86.115199 
L 579.600739 77.268391 
L 579.600739 77.268391 
" clip-path="url(#p161620809c)" style="fill: none; stroke: #55a868; stroke-width: 1.5; stroke-linecap: round"/>
   </g>
   <g id="line2d_27">
    <path d="M 72.328011 46.706689 
L 75.472264 51.532221 
L 81.970386 62.791795 
L 85.114638 65.204561 
L 88.363699 68.421582 
L 91.507951 64.400306 
L 94.757012 69.225838 
L 98.006073 63.596051 
L 100.940709 53.944987 
L 104.189769 45.098178 
L 107.334022 37.85988 
L 110.583083 37.055625 
L 113.727335 37.055625 
L 116.976396 39.468391 
L 120.225457 44.293923 
L 123.369709 49.92371 
L 126.61877 47.510944 
L 129.763023 51.532221 
L 133.012083 49.92371 
L 136.261144 47.510944 
L 139.300588 46.706689 
L 142.549649 49.92371 
L 145.693902 49.119455 
L 148.942963 49.92371 
L 152.087215 54.749242 
L 158.585337 51.532221 
L 161.729589 49.119455 
L 164.97865 52.336476 
L 168.122902 54.749242 
L 171.371963 52.336476 
L 174.621024 53.140731 
L 177.55566 60.379029 
L 180.804721 65.204561 
L 183.948973 62.791795 
L 187.198034 61.183285 
L 190.342286 64.400306 
L 193.591347 65.204561 
L 196.840408 70.834348 
L 199.98466 66.813072 
L 203.233721 78.072646 
L 206.377974 81.289668 
L 209.627035 78.072646 
L 212.876096 86.115199 
L 215.810731 90.136476 
L 219.059792 82.898178 
L 222.204044 91.744987 
L 225.453105 98.179029 
L 228.597358 91.744987 
L 231.846419 126.327965 
L 235.095479 138.391795 
L 238.239732 142.413072 
L 241.488793 149.65137 
L 244.633045 154.476902 
L 247.882106 147.238604 
L 251.131167 157.693923 
L 254.065802 168.149242 
L 257.314863 181.017327 
L 260.459116 189.05988 
L 263.708177 190.668391 
L 266.852429 200.319455 
L 273.350551 197.102434 
L 276.494803 192.276902 
L 279.743864 192.276902 
L 282.888117 199.515199 
L 286.137177 194.689668 
L 289.386238 201.927965 
L 292.425682 205.144987 
L 295.674743 209.166263 
L 298.818996 206.753497 
L 302.068056 209.970519 
L 305.212309 201.12371 
L 308.46137 206.753497 
L 311.710431 213.18754 
L 314.854683 218.817327 
L 318.103744 217.208816 
L 321.247996 221.230093 
L 324.497057 229.272646 
L 327.746118 224.447114 
L 330.680754 223.642859 
L 333.929815 226.055625 
L 337.074067 225.25137 
L 340.323128 221.230093 
L 343.46738 219.621582 
L 349.965502 219.621582 
L 353.109754 216.404561 
L 356.358815 218.013072 
L 359.503068 222.838604 
L 362.752129 226.85988 
L 366.001189 224.447114 
L 368.935825 226.055625 
L 372.184886 226.85988 
L 375.329138 230.076902 
L 378.578199 231.685412 
L 381.722452 236.510944 
L 384.971512 238.119455 
L 388.220573 237.315199 
L 391.364826 234.098178 
L 394.613887 233.293923 
L 397.758139 235.706689 
L 401.0072 235.706689 
L 404.256261 233.293923 
L 407.190896 229.272646 
L 410.439957 234.902434 
L 413.58421 237.315199 
L 416.833271 236.510944 
L 419.977523 242.944987 
L 423.226584 246.162008 
L 426.475645 250.183285 
L 429.619897 259.834348 
L 432.868958 209.970519 
L 436.01321 271.093923 
L 439.262271 278.332221 
L 442.511332 283.962008 
L 445.550776 283.962008 
L 448.799837 289.591795 
L 451.94409 288.78754 
L 455.19315 292.004561 
L 458.337403 293.613072 
L 461.586464 293.613072 
L 464.835525 295.221582 
L 467.979777 296.025838 
L 471.228838 298.438604 
L 474.37309 299.242859 
L 477.622151 303.264136 
L 480.871212 306.481157 
L 483.805848 305.676902 
L 487.054908 312.110944 
L 490.199161 312.110944 
L 493.448222 315.327965 
L 496.592474 316.936476 
L 499.841535 317.740731 
L 503.090596 316.936476 
L 506.234848 316.936476 
L 512.628162 318.544987 
L 515.877222 315.327965 
L 519.126283 315.327965 
L 522.060919 306.481157 
L 525.30998 295.221582 
L 528.454232 287.179029 
L 531.703293 275.115199 
L 534.847546 259.834348 
L 538.096606 245.357753 
L 541.345667 232.489668 
L 544.48992 221.230093 
L 547.738981 213.18754 
L 550.883233 204.340731 
L 554.132294 205.144987 
L 557.381355 207.557753 
L 560.31599 216.404561 
L 563.565051 202.732221 
L 566.709304 193.081157 
L 569.958364 188.255625 
L 573.102617 193.885412 
L 576.351678 195.493923 
L 579.600739 192.276902 
L 579.600739 192.276902 
" clip-path="url(#p161620809c)" style="fill: none; stroke: #c44e52; stroke-width: 1.5; stroke-linecap: round"/>
   </g>
   <g id="line2d_28"/>
   <g id="line2d_29"/>
   <g id="line2d_30"/>
   <g id="line2d_31"/>
   <g id="patch_3">
    <path d="M 46.964375 354.575625 
L 46.964375 21.935625 
" style="fill: none; stroke: #ffffff; stroke-width: 1.25; stroke-linejoin: miter; stroke-linecap: square"/>
   </g>
   <g id="patch_4">
    <path d="M 604.964375 354.575625 
L 604.964375 21.935625 
" style="fill: none; stroke: #ffffff; stroke-width: 1.25; stroke-linejoin: miter; stroke-linecap: square"/>
   </g>
   <g id="patch_5">
    <path d="M 46.964375 354.575625 
L 604.964375 354.575625 
" style="fill: none; stroke: #ffffff; stroke-width: 1.25; stroke-linejoin: miter; stroke-linecap: square"/>
   </g>
   <g id="patch_6">
    <path d="M 46.964375 21.935625 
L 604.964375 21.935625 
" style="fill: none; stroke: #ffffff; stroke-width: 1.25; stroke-linejoin: miter; stroke-linecap: square"/>
   </g>
   <g id="text_26">
    <!-- Loans to households for house purchase with collateral (new business) - Netherlands -->
    <g style="fill: #262626" transform="translate(99.8525 15.935625) scale(0.12 -0.12)">
     <defs>
      <path id="ArialMT-4c" d="M 469 0 
L 469 4581 
L 1075 4581 
L 1075 541 
L 3331 541 
L 3331 0 
L 469 0 
z
" transform="scale(0.015625)"/>
      <path id="ArialMT-61" d="M 2588 409 
Q 2275 144 1986 34 
Q 1697 -75 1366 -75 
Q 819 -75 525 192 
Q 231 459 231 875 
Q 231 1119 342 1320 
Q 453 1522 633 1644 
Q 813 1766 1038 1828 
Q 1203 1872 1538 1913 
Q 2219 1994 2541 2106 
Q 2544 2222 2544 2253 
Q 2544 2597 2384 2738 
Q 2169 2928 1744 2928 
Q 1347 2928 1158 2789 
Q 969 2650 878 2297 
L 328 2372 
Q 403 2725 575 2942 
Q 747 3159 1072 3276 
Q 1397 3394 1825 3394 
Q 2250 3394 2515 3294 
Q 2781 3194 2906 3042 
Q 3031 2891 3081 2659 
Q 3109 2516 3109 2141 
L 3109 1391 
Q 3109 606 3145 398 
Q 3181 191 3288 0 
L 2700 0 
Q 2613 175 2588 409 
z
M 2541 1666 
Q 2234 1541 1622 1453 
Q 1275 1403 1131 1340 
Q 988 1278 909 1158 
Q 831 1038 831 891 
Q 831 666 1001 516 
Q 1172 366 1500 366 
Q 1825 366 2078 508 
Q 2331 650 2450 897 
Q 2541 1088 2541 1459 
L 2541 1666 
z
" transform="scale(0.015625)"/>
      <path id="ArialMT-68" d="M 422 0 
L 422 4581 
L 984 4581 
L 984 2938 
Q 1378 3394 1978 3394 
Q 2347 3394 2619 3248 
Q 2891 3103 3008 2847 
Q 3125 2591 3125 2103 
L 3125 0 
L 2563 0 
L 2563 2103 
Q 2563 2525 2380 2717 
Q 2197 2909 1863 2909 
Q 1613 2909 1392 2779 
Q 1172 2650 1078 2428 
Q 984 2206 984 1816 
L 984 0 
L 422 0 
z
" transform="scale(0.015625)"/>
      <path id="ArialMT-75" d="M 2597 0 
L 2597 488 
Q 2209 -75 1544 -75 
Q 1250 -75 995 37 
Q 741 150 617 320 
Q 494 491 444 738 
Q 409 903 409 1263 
L 409 3319 
L 972 3319 
L 972 1478 
Q 972 1038 1006 884 
Q 1059 663 1231 536 
Q 1403 409 1656 409 
Q 1909 409 2131 539 
Q 2353 669 2445 892 
Q 2538 1116 2538 1541 
L 2538 3319 
L 3100 3319 
L 3100 0 
L 2597 0 
z
" transform="scale(0.015625)"/>
      <path id="ArialMT-6c" d="M 409 0 
L 409 4581 
L 972 4581 
L 972 0 
L 409 0 
z
" transform="scale(0.015625)"/>
      <path id="ArialMT-66" d="M 556 0 
L 556 2881 
L 59 2881 
L 59 3319 
L 556 3319 
L 556 3672 
Q 556 4006 616 4169 
Q 697 4388 901 4523 
Q 1106 4659 1475 4659 
Q 1713 4659 2000 4603 
L 1916 4113 
Q 1741 4144 1584 4144 
Q 1328 4144 1222 4034 
Q 1116 3925 1116 3625 
L 1116 3319 
L 1763 3319 
L 1763 2881 
L 1116 2881 
L 1116 0 
L 556 0 
z
" transform="scale(0.015625)"/>
      <path id="ArialMT-70" d="M 422 -1272 
L 422 3319 
L 934 3319 
L 934 2888 
Q 1116 3141 1344 3267 
Q 1572 3394 1897 3394 
Q 2322 3394 2647 3175 
Q 2972 2956 3137 2557 
Q 3303 2159 3303 1684 
Q 3303 1175 3120 767 
Q 2938 359 2589 142 
Q 2241 -75 1856 -75 
Q 1575 -75 1351 44 
Q 1128 163 984 344 
L 984 -1272 
L 422 -1272 
z
M 931 1641 
Q 931 1000 1190 694 
Q 1450 388 1819 388 
Q 2194 388 2461 705 
Q 2728 1022 2728 1688 
Q 2728 2322 2467 2637 
Q 2206 2953 1844 2953 
Q 1484 2953 1207 2617 
Q 931 2281 931 1641 
z
" transform="scale(0.015625)"/>
      <path id="ArialMT-63" d="M 2588 1216 
L 3141 1144 
Q 3050 572 2676 248 
Q 2303 -75 1759 -75 
Q 1078 -75 664 370 
Q 250 816 250 1647 
Q 250 2184 428 2587 
Q 606 2991 970 3192 
Q 1334 3394 1763 3394 
Q 2303 3394 2647 3120 
Q 2991 2847 3088 2344 
L 2541 2259 
Q 2463 2594 2264 2762 
Q 2066 2931 1784 2931 
Q 1359 2931 1093 2626 
Q 828 2322 828 1663 
Q 828 994 1084 691 
Q 1341 388 1753 388 
Q 2084 388 2306 591 
Q 2528 794 2588 1216 
z
" transform="scale(0.015625)"/>
      <path id="ArialMT-77" d="M 1034 0 
L 19 3319 
L 600 3319 
L 1128 1403 
L 1325 691 
Q 1338 744 1497 1375 
L 2025 3319 
L 2603 3319 
L 3100 1394 
L 3266 759 
L 3456 1400 
L 4025 3319 
L 4572 3319 
L 3534 0 
L 2950 0 
L 2422 1988 
L 2294 2553 
L 1622 0 
L 1034 0 
z
" transform="scale(0.015625)"/>
      <path id="ArialMT-28" d="M 1497 -1347 
Q 1031 -759 709 28 
Q 388 816 388 1659 
Q 388 2403 628 3084 
Q 909 3875 1497 4659 
L 1900 4659 
Q 1522 4009 1400 3731 
Q 1209 3300 1100 2831 
Q 966 2247 966 1656 
Q 966 153 1900 -1347 
L 1497 -1347 
z
" transform="scale(0.015625)"/>
      <path id="ArialMT-62" d="M 941 0 
L 419 0 
L 419 4581 
L 981 4581 
L 981 2947 
Q 1338 3394 1891 3394 
Q 2197 3394 2470 3270 
Q 2744 3147 2920 2923 
Q 3097 2700 3197 2384 
Q 3297 2069 3297 1709 
Q 3297 856 2875 390 
Q 2453 -75 1863 -75 
Q 1275 -75 941 416 
L 941 0 
z
M 934 1684 
Q 934 1088 1097 822 
Q 1363 388 1816 388 
Q 2184 388 2453 708 
Q 2722 1028 2722 1663 
Q 2722 2313 2464 2622 
Q 2206 2931 1841 2931 
Q 1472 2931 1203 2611 
Q 934 2291 934 1684 
z
" transform="scale(0.015625)"/>
      <path id="ArialMT-29" d="M 791 -1347 
L 388 -1347 
Q 1322 153 1322 1656 
Q 1322 2244 1188 2822 
Q 1081 3291 891 3722 
Q 769 4003 388 4659 
L 791 4659 
Q 1378 3875 1659 3084 
Q 1900 2403 1900 1659 
Q 1900 816 1576 28 
Q 1253 -759 791 -1347 
z
" transform="scale(0.015625)"/>
      <path id="ArialMT-2d" d="M 203 1375 
L 203 1941 
L 1931 1941 
L 1931 1375 
L 203 1375 
z
" transform="scale(0.015625)"/>
      <path id="ArialMT-4e" d="M 488 0 
L 488 4581 
L 1109 4581 
L 3516 984 
L 3516 4581 
L 4097 4581 
L 4097 0 
L 3475 0 
L 1069 3600 
L 1069 0 
L 488 0 
z
" transform="scale(0.015625)"/>
     </defs>
     <use xlink:href="#ArialMT-4c"/>
     <use xlink:href="#ArialMT-6f" x="55.615234"/>
     <use xlink:href="#ArialMT-61" x="111.230469"/>
     <use xlink:href="#ArialMT-6e" x="166.845703"/>
     <use xlink:href="#ArialMT-73" x="222.460938"/>
     <use xlink:href="#ArialMT-20" x="272.460938"/>
     <use xlink:href="#ArialMT-74" x="300.244141"/>
     <use xlink:href="#ArialMT-6f" x="328.027344"/>
     <use xlink:href="#ArialMT-20" x="383.642578"/>
     <use xlink:href="#ArialMT-68" x="411.425781"/>
     <use xlink:href="#ArialMT-6f" x="467.041016"/>
     <use xlink:href="#ArialMT-75" x="522.65625"/>
     <use xlink:href="#ArialMT-73" x="578.271484"/>
     <use xlink:href="#ArialMT-65" x="628.271484"/>
     <use xlink:href="#ArialMT-68" x="683.886719"/>
     <use xlink:href="#ArialMT-6f" x="739.501953"/>
     <use xlink:href="#ArialMT-6c" x="795.117188"/>
     <use xlink:href="#ArialMT-64" x="817.333984"/>
     <use xlink:href="#ArialMT-73" x="872.949219"/>
     <use xlink:href="#ArialMT-20" x="922.949219"/>
     <use xlink:href="#ArialMT-66" x="950.732422"/>
     <use xlink:href="#ArialMT-6f" x="978.515625"/>
     <use xlink:href="#ArialMT-72" x="1034.130859"/>
     <use xlink:href="#ArialMT-20" x="1067.431641"/>
     <use xlink:href="#ArialMT-68" x="1095.214844"/>
     <use xlink:href="#ArialMT-6f" x="1150.830078"/>
     <use xlink:href="#ArialMT-75" x="1206.445312"/>
     <use xlink:href="#ArialMT-73" x="1262.060547"/>
     <use xlink:href="#ArialMT-65" x="1312.060547"/>
     <use xlink:href="#ArialMT-20" x="1367.675781"/>
     <use xlink:href="#ArialMT-70" x="1395.458984"/>
     <use xlink:href="#ArialMT-75" x="1451.074219"/>
     <use xlink:href="#ArialMT-72" x="1506.689453"/>
     <use xlink:href="#ArialMT-63" x="1539.990234"/>
     <use xlink:href="#ArialMT-68" x="1589.990234"/>
     <use xlink:href="#ArialMT-61" x="1645.605469"/>
     <use xlink:href="#ArialMT-73" x="1701.220703"/>
     <use xlink:href="#ArialMT-65" x="1751.220703"/>
     <use xlink:href="#ArialMT-20" x="1806.835938"/>
     <use xlink:href="#ArialMT-77" x="1834.619141"/>
     <use xlink:href="#ArialMT-69" x="1906.835938"/>
     <use xlink:href="#ArialMT-74" x="1929.052734"/>
     <use xlink:href="#ArialMT-68" x="1956.835938"/>
     <use xlink:href="#ArialMT-20" x="2012.451172"/>
     <use xlink:href="#ArialMT-63" x="2040.234375"/>
     <use xlink:href="#ArialMT-6f" x="2090.234375"/>
     <use xlink:href="#ArialMT-6c" x="2145.849609"/>
     <use xlink:href="#ArialMT-6c" x="2168.066406"/>
     <use xlink:href="#ArialMT-61" x="2190.283203"/>
     <use xlink:href="#ArialMT-74" x="2245.898438"/>
     <use xlink:href="#ArialMT-65" x="2273.681641"/>
     <use xlink:href="#ArialMT-72" x="2329.296875"/>
     <use xlink:href="#ArialMT-61" x="2362.597656"/>
     <use xlink:href="#ArialMT-6c" x="2418.212891"/>
     <use xlink:href="#ArialMT-20" x="2440.429688"/>
     <use xlink:href="#ArialMT-28" x="2468.212891"/>
     <use xlink:href="#ArialMT-6e" x="2501.513672"/>
     <use xlink:href="#ArialMT-65" x="2557.128906"/>
     <use xlink:href="#ArialMT-77" x="2612.744141"/>
     <use xlink:href="#ArialMT-20" x="2684.960938"/>
     <use xlink:href="#ArialMT-62" x="2712.744141"/>
     <use xlink:href="#ArialMT-75" x="2768.359375"/>
     <use xlink:href="#ArialMT-73" x="2823.974609"/>
     <use xlink:href="#ArialMT-69" x="2873.974609"/>
     <use xlink:href="#ArialMT-6e" x="2896.191406"/>
     <use xlink:href="#ArialMT-65" x="2951.806641"/>
     <use xlink:href="#ArialMT-73" x="3007.421875"/>
     <use xlink:href="#ArialMT-73" x="3057.421875"/>
     <use xlink:href="#ArialMT-29" x="3107.421875"/>
     <use xlink:href="#ArialMT-20" x="3140.722656"/>
     <use xlink:href="#ArialMT-2d" x="3168.505859"/>
     <use xlink:href="#ArialMT-20" x="3201.806641"/>
     <use xlink:href="#ArialMT-4e" x="3229.589844"/>
     <use xlink:href="#ArialMT-65" x="3301.806641"/>
     <use xlink:href="#ArialMT-74" x="3357.421875"/>
     <use xlink:href="#ArialMT-68" x="3385.205078"/>
     <use xlink:href="#ArialMT-65" x="3440.820312"/>
     <use xlink:href="#ArialMT-72" x="3496.435547"/>
     <use xlink:href="#ArialMT-6c" x="3529.736328"/>
     <use xlink:href="#ArialMT-61" x="3551.953125"/>
     <use xlink:href="#ArialMT-6e" x="3607.568359"/>
     <use xlink:href="#ArialMT-64" x="3663.183594"/>
     <use xlink:href="#ArialMT-73" x="3718.798828"/>
    </g>
   </g>
   <g id="legend_1">
    <g id="patch_7">
     <path d="M 54.664375 349.075625 
L 144.592813 349.075625 
Q 146.792813 349.075625 146.792813 346.875625 
L 146.792813 268.469375 
Q 146.792813 266.269375 144.592813 266.269375 
L 54.664375 266.269375 
Q 52.464375 266.269375 52.464375 268.469375 
L 52.464375 346.875625 
Q 52.464375 349.075625 54.664375 349.075625 
z
" style="fill: #eaeaf2; opacity: 0.8; stroke: #cccccc; stroke-linejoin: miter"/>
    </g>
    <g id="text_27">
     <!-- fixed_period -->
     <g style="fill: #262626" transform="translate(66.941719 279.405) scale(0.12 -0.12)">
      <defs>
       <path id="ArialMT-78" d="M 47 0 
L 1259 1725 
L 138 3319 
L 841 3319 
L 1350 2541 
Q 1494 2319 1581 2169 
Q 1719 2375 1834 2534 
L 2394 3319 
L 3066 3319 
L 1919 1756 
L 3153 0 
L 2463 0 
L 1781 1031 
L 1600 1309 
L 728 0 
L 47 0 
z
" transform="scale(0.015625)"/>
       <path id="ArialMT-5f" d="M -97 -1272 
L -97 -866 
L 3631 -866 
L 3631 -1272 
L -97 -1272 
z
" transform="scale(0.015625)"/>
      </defs>
      <use xlink:href="#ArialMT-66"/>
      <use xlink:href="#ArialMT-69" x="27.783203"/>
      <use xlink:href="#ArialMT-78" x="50"/>
      <use xlink:href="#ArialMT-65" x="100"/>
      <use xlink:href="#ArialMT-64" x="155.615234"/>
      <use xlink:href="#ArialMT-5f" x="211.230469"/>
      <use xlink:href="#ArialMT-70" x="266.845703"/>
      <use xlink:href="#ArialMT-65" x="322.460938"/>
      <use xlink:href="#ArialMT-72" x="378.076172"/>
      <use xlink:href="#ArialMT-69" x="411.376953"/>
      <use xlink:href="#ArialMT-6f" x="433.59375"/>
      <use xlink:href="#ArialMT-64" x="489.208984"/>
     </g>
    </g>
    <g id="line2d_32">
     <path d="M 56.864375 291.34625 
L 67.864375 291.34625 
L 78.864375 291.34625 
" style="fill: none; stroke: #4c72b0; stroke-width: 1.5; stroke-linecap: round"/>
    </g>
    <g id="text_28">
     <!-- 1&gt;5 years -->
     <g style="fill: #262626" transform="translate(87.664375 295.19625) scale(0.11 -0.11)">
      <defs>
       <path id="ArialMT-3e" d="M 3384 2003 
L 350 706 
L 350 1266 
L 2753 2263 
L 350 3250 
L 350 3809 
L 3384 2528 
L 3384 2003 
z
" transform="scale(0.015625)"/>
       <path id="ArialMT-79" d="M 397 -1278 
L 334 -750 
Q 519 -800 656 -800 
Q 844 -800 956 -737 
Q 1069 -675 1141 -563 
Q 1194 -478 1313 -144 
Q 1328 -97 1363 -6 
L 103 3319 
L 709 3319 
L 1400 1397 
Q 1534 1031 1641 628 
Q 1738 1016 1872 1384 
L 2581 3319 
L 3144 3319 
L 1881 -56 
Q 1678 -603 1566 -809 
Q 1416 -1088 1222 -1217 
Q 1028 -1347 759 -1347 
Q 597 -1347 397 -1278 
z
" transform="scale(0.015625)"/>
      </defs>
      <use xlink:href="#ArialMT-31"/>
      <use xlink:href="#ArialMT-3e" x="55.615234"/>
      <use xlink:href="#ArialMT-35" x="114.013672"/>
      <use xlink:href="#ArialMT-20" x="169.628906"/>
      <use xlink:href="#ArialMT-79" x="197.412109"/>
      <use xlink:href="#ArialMT-65" x="247.412109"/>
      <use xlink:href="#ArialMT-61" x="303.027344"/>
      <use xlink:href="#ArialMT-72" x="358.642578"/>
      <use xlink:href="#ArialMT-73" x="391.943359"/>
     </g>
    </g>
    <g id="line2d_33">
     <path d="M 56.864375 307.067656 
L 67.864375 307.067656 
L 78.864375 307.067656 
" style="fill: none; stroke: #dd8452; stroke-width: 1.5; stroke-linecap: round"/>
    </g>
    <g id="text_29">
     <!-- 5&gt;10 years -->
     <g style="fill: #262626" transform="translate(87.664375 310.917656) scale(0.11 -0.11)">
      <use xlink:href="#ArialMT-35"/>
      <use xlink:href="#ArialMT-3e" x="55.615234"/>
      <use xlink:href="#ArialMT-31" x="114.013672"/>
      <use xlink:href="#ArialMT-30" x="169.628906"/>
      <use xlink:href="#ArialMT-20" x="225.244141"/>
      <use xlink:href="#ArialMT-79" x="253.027344"/>
      <use xlink:href="#ArialMT-65" x="303.027344"/>
      <use xlink:href="#ArialMT-61" x="358.642578"/>
      <use xlink:href="#ArialMT-72" x="414.257812"/>
      <use xlink:href="#ArialMT-73" x="447.558594"/>
     </g>
    </g>
    <g id="line2d_34">
     <path d="M 56.864375 322.789062 
L 67.864375 322.789062 
L 78.864375 322.789062 
" style="fill: none; stroke: #55a868; stroke-width: 1.5; stroke-linecap: round"/>
    </g>
    <g id="text_30">
     <!-- &lt;= 1 year -->
     <g style="fill: #262626" transform="translate(87.664375 326.639063) scale(0.11 -0.11)">
      <defs>
       <path id="ArialMT-3c" d="M 350 2003 
L 350 2528 
L 3384 3809 
L 3384 3250 
L 978 2263 
L 3384 1266 
L 3384 706 
L 350 2003 
z
" transform="scale(0.015625)"/>
       <path id="ArialMT-3d" d="M 3381 2694 
L 356 2694 
L 356 3219 
L 3381 3219 
L 3381 2694 
z
M 3381 1303 
L 356 1303 
L 356 1828 
L 3381 1828 
L 3381 1303 
z
" transform="scale(0.015625)"/>
      </defs>
      <use xlink:href="#ArialMT-3c"/>
      <use xlink:href="#ArialMT-3d" x="58.398438"/>
      <use xlink:href="#ArialMT-20" x="116.796875"/>
      <use xlink:href="#ArialMT-31" x="144.580078"/>
      <use xlink:href="#ArialMT-20" x="200.195312"/>
      <use xlink:href="#ArialMT-79" x="227.978516"/>
      <use xlink:href="#ArialMT-65" x="277.978516"/>
      <use xlink:href="#ArialMT-61" x="333.59375"/>
      <use xlink:href="#ArialMT-72" x="389.208984"/>
     </g>
    </g>
    <g id="line2d_35">
     <path d="M 56.864375 338.510469 
L 67.864375 338.510469 
L 78.864375 338.510469 
" style="fill: none; stroke: #c44e52; stroke-width: 1.5; stroke-linecap: round"/>
    </g>
    <g id="text_31">
     <!-- &gt;10 years -->
     <g style="fill: #262626" transform="translate(87.664375 342.360469) scale(0.11 -0.11)">
      <use xlink:href="#ArialMT-3e"/>
      <use xlink:href="#ArialMT-31" x="58.398438"/>
      <use xlink:href="#ArialMT-30" x="114.013672"/>
      <use xlink:href="#ArialMT-20" x="169.628906"/>
      <use xlink:href="#ArialMT-79" x="197.412109"/>
      <use xlink:href="#ArialMT-65" x="247.412109"/>
      <use xlink:href="#ArialMT-61" x="303.027344"/>
      <use xlink:href="#ArialMT-72" x="358.642578"/>
      <use xlink:href="#ArialMT-73" x="391.943359"/>
     </g>
    </g>
   </g>
  </g>
 </g>
 <defs>
  <clipPath id="p161620809c">
   <rect x="46.964375" y="21.935625" width="558" height="332.64"/>
  </clipPath>
 </defs>
</svg>
