<?xml version="1.0" encoding="utf-8" standalone="no"?>
<!DOCTYPE svg PUBLIC "-//W3C//DTD SVG 1.1//EN"
  "http://www.w3.org/Graphics/SVG/1.1/DTD/svg11.dtd">
<svg xmlns:xlink="http://www.w3.org/1999/xlink" width="606.445312pt" height="391.06625pt" viewBox="0 0 606.445312 391.06625" xmlns="http://www.w3.org/2000/svg" version="1.1">
 <metadata>
  <rdf:RDF xmlns:dc="http://purl.org/dc/elements/1.1/" xmlns:cc="http://creativecommons.org/ns#" xmlns:rdf="http://www.w3.org/1999/02/22-rdf-syntax-ns#">
   <cc:Work>
    <dc:type rdf:resource="http://purl.org/dc/dcmitype/StillImage"/>
    <dc:date>2023-03-16T17:09:40.118901</dc:date>
    <dc:format>image/svg+xml</dc:format>
    <dc:creator>
     <cc:Agent>
      <dc:title>Matplotlib v3.5.3, https://matplotlib.org/</dc:title>
     </cc:Agent>
    </dc:creator>
   </cc:Work>
  </rdf:RDF>
 </metadata>
 <defs>
  <style type="text/css">*{stroke-linejoin: round; stroke-linecap: butt}</style>
 </defs>
 <g id="figure_1">
  <g id="patch_1">
   <path d="M 0 391.06625 
L 606.445312 391.06625 
L 606.445312 0 
L 0 0 
z
" style="fill: #ffffff"/>
  </g>
  <g id="axes_1">
   <g id="patch_2">
    <path d="M 41.245313 354.575625 
L 599.245312 354.575625 
L 599.245312 21.935625 
L 41.245313 21.935625 
z
" style="fill: #eaeaf2"/>
   </g>
   <g id="matplotlib.axis_1">
    <g id="xtick_1">
     <g id="line2d_1">
      <path d="M 49.946303 354.575625 
L 49.946303 21.935625 
" clip-path="url(#p7eb33735d8)" style="fill: none; stroke: #ffffff; stroke-width: 0.8; stroke-linecap: round"/>
     </g>
     <g id="text_1">
      <!-- 2010 -->
      <g style="fill: #262626" transform="translate(38.824428 368.733438)scale(0.1 -0.1)">
       <defs>
        <path id="ArialMT-32" d="M 3222 541 
L 3222 0 
L 194 0 
Q 188 203 259 391 
Q 375 700 629 1000 
Q 884 1300 1366 1694 
Q 2113 2306 2375 2664 
Q 2638 3022 2638 3341 
Q 2638 3675 2398 3904 
Q 2159 4134 1775 4134 
Q 1369 4134 1125 3890 
Q 881 3647 878 3216 
L 300 3275 
Q 359 3922 746 4261 
Q 1134 4600 1788 4600 
Q 2447 4600 2831 4234 
Q 3216 3869 3216 3328 
Q 3216 3053 3103 2787 
Q 2991 2522 2730 2228 
Q 2469 1934 1863 1422 
Q 1356 997 1212 845 
Q 1069 694 975 541 
L 3222 541 
z
" transform="scale(0.015625)"/>
        <path id="ArialMT-30" d="M 266 2259 
Q 266 3072 433 3567 
Q 600 4063 929 4331 
Q 1259 4600 1759 4600 
Q 2128 4600 2406 4451 
Q 2684 4303 2865 4023 
Q 3047 3744 3150 3342 
Q 3253 2941 3253 2259 
Q 3253 1453 3087 958 
Q 2922 463 2592 192 
Q 2263 -78 1759 -78 
Q 1097 -78 719 397 
Q 266 969 266 2259 
z
M 844 2259 
Q 844 1131 1108 757 
Q 1372 384 1759 384 
Q 2147 384 2411 759 
Q 2675 1134 2675 2259 
Q 2675 3391 2411 3762 
Q 2147 4134 1753 4134 
Q 1366 4134 1134 3806 
Q 844 3388 844 2259 
z
" transform="scale(0.015625)"/>
        <path id="ArialMT-31" d="M 2384 0 
L 1822 0 
L 1822 3584 
Q 1619 3391 1289 3197 
Q 959 3003 697 2906 
L 697 3450 
Q 1169 3672 1522 3987 
Q 1875 4303 2022 4600 
L 2384 4600 
L 2384 0 
z
" transform="scale(0.015625)"/>
       </defs>
       <use xlink:href="#ArialMT-32"/>
       <use xlink:href="#ArialMT-30" x="55.615234"/>
       <use xlink:href="#ArialMT-31" x="111.230469"/>
       <use xlink:href="#ArialMT-30" x="166.845703"/>
      </g>
     </g>
    </g>
    <g id="xtick_2">
     <g id="line2d_2">
      <path d="M 130.500815 354.575625 
L 130.500815 21.935625 
" clip-path="url(#p7eb33735d8)" style="fill: none; stroke: #ffffff; stroke-width: 0.8; stroke-linecap: round"/>
     </g>
     <g id="text_2">
      <!-- 2012 -->
      <g style="fill: #262626" transform="translate(119.37894 368.733438)scale(0.1 -0.1)">
       <use xlink:href="#ArialMT-32"/>
       <use xlink:href="#ArialMT-30" x="55.615234"/>
       <use xlink:href="#ArialMT-31" x="111.230469"/>
       <use xlink:href="#ArialMT-32" x="166.845703"/>
      </g>
     </g>
    </g>
    <g id="xtick_3">
     <g id="line2d_3">
      <path d="M 211.165676 354.575625 
L 211.165676 21.935625 
" clip-path="url(#p7eb33735d8)" style="fill: none; stroke: #ffffff; stroke-width: 0.8; stroke-linecap: round"/>
     </g>
     <g id="text_3">
      <!-- 2014 -->
      <g style="fill: #262626" transform="translate(200.043801 368.733438)scale(0.1 -0.1)">
       <defs>
        <path id="ArialMT-34" d="M 2069 0 
L 2069 1097 
L 81 1097 
L 81 1613 
L 2172 4581 
L 2631 4581 
L 2631 1613 
L 3250 1613 
L 3250 1097 
L 2631 1097 
L 2631 0 
L 2069 0 
z
M 2069 1613 
L 2069 3678 
L 634 1613 
L 2069 1613 
z
" transform="scale(0.015625)"/>
       </defs>
       <use xlink:href="#ArialMT-32"/>
       <use xlink:href="#ArialMT-30" x="55.615234"/>
       <use xlink:href="#ArialMT-31" x="111.230469"/>
       <use xlink:href="#ArialMT-34" x="166.845703"/>
      </g>
     </g>
    </g>
    <g id="xtick_4">
     <g id="line2d_4">
      <path d="M 291.720187 354.575625 
L 291.720187 21.935625 
" clip-path="url(#p7eb33735d8)" style="fill: none; stroke: #ffffff; stroke-width: 0.8; stroke-linecap: round"/>
     </g>
     <g id="text_4">
      <!-- 2016 -->
      <g style="fill: #262626" transform="translate(280.598312 368.733438)scale(0.1 -0.1)">
       <defs>
        <path id="ArialMT-36" d="M 3184 3459 
L 2625 3416 
Q 2550 3747 2413 3897 
Q 2184 4138 1850 4138 
Q 1581 4138 1378 3988 
Q 1113 3794 959 3422 
Q 806 3050 800 2363 
Q 1003 2672 1297 2822 
Q 1591 2972 1913 2972 
Q 2475 2972 2870 2558 
Q 3266 2144 3266 1488 
Q 3266 1056 3080 686 
Q 2894 316 2569 119 
Q 2244 -78 1831 -78 
Q 1128 -78 684 439 
Q 241 956 241 2144 
Q 241 3472 731 4075 
Q 1159 4600 1884 4600 
Q 2425 4600 2770 4297 
Q 3116 3994 3184 3459 
z
M 888 1484 
Q 888 1194 1011 928 
Q 1134 663 1356 523 
Q 1578 384 1822 384 
Q 2178 384 2434 671 
Q 2691 959 2691 1453 
Q 2691 1928 2437 2201 
Q 2184 2475 1800 2475 
Q 1419 2475 1153 2201 
Q 888 1928 888 1484 
z
" transform="scale(0.015625)"/>
       </defs>
       <use xlink:href="#ArialMT-32"/>
       <use xlink:href="#ArialMT-30" x="55.615234"/>
       <use xlink:href="#ArialMT-31" x="111.230469"/>
       <use xlink:href="#ArialMT-36" x="166.845703"/>
      </g>
     </g>
    </g>
    <g id="xtick_5">
     <g id="line2d_5">
      <path d="M 372.385048 354.575625 
L 372.385048 21.935625 
" clip-path="url(#p7eb33735d8)" style="fill: none; stroke: #ffffff; stroke-width: 0.8; stroke-linecap: round"/>
     </g>
     <g id="text_5">
      <!-- 2018 -->
      <g style="fill: #262626" transform="translate(361.263173 368.733438)scale(0.1 -0.1)">
       <defs>
        <path id="ArialMT-38" d="M 1131 2484 
Q 781 2613 612 2850 
Q 444 3088 444 3419 
Q 444 3919 803 4259 
Q 1163 4600 1759 4600 
Q 2359 4600 2725 4251 
Q 3091 3903 3091 3403 
Q 3091 3084 2923 2848 
Q 2756 2613 2416 2484 
Q 2838 2347 3058 2040 
Q 3278 1734 3278 1309 
Q 3278 722 2862 322 
Q 2447 -78 1769 -78 
Q 1091 -78 675 323 
Q 259 725 259 1325 
Q 259 1772 486 2073 
Q 713 2375 1131 2484 
z
M 1019 3438 
Q 1019 3113 1228 2906 
Q 1438 2700 1772 2700 
Q 2097 2700 2305 2904 
Q 2513 3109 2513 3406 
Q 2513 3716 2298 3927 
Q 2084 4138 1766 4138 
Q 1444 4138 1231 3931 
Q 1019 3725 1019 3438 
z
M 838 1322 
Q 838 1081 952 856 
Q 1066 631 1291 507 
Q 1516 384 1775 384 
Q 2178 384 2440 643 
Q 2703 903 2703 1303 
Q 2703 1709 2433 1975 
Q 2163 2241 1756 2241 
Q 1359 2241 1098 1978 
Q 838 1716 838 1322 
z
" transform="scale(0.015625)"/>
       </defs>
       <use xlink:href="#ArialMT-32"/>
       <use xlink:href="#ArialMT-30" x="55.615234"/>
       <use xlink:href="#ArialMT-31" x="111.230469"/>
       <use xlink:href="#ArialMT-38" x="166.845703"/>
      </g>
     </g>
    </g>
    <g id="xtick_6">
     <g id="line2d_6">
      <path d="M 452.93956 354.575625 
L 452.93956 21.935625 
" clip-path="url(#p7eb33735d8)" style="fill: none; stroke: #ffffff; stroke-width: 0.8; stroke-linecap: round"/>
     </g>
     <g id="text_6">
      <!-- 2020 -->
      <g style="fill: #262626" transform="translate(441.817685 368.733438)scale(0.1 -0.1)">
       <use xlink:href="#ArialMT-32"/>
       <use xlink:href="#ArialMT-30" x="55.615234"/>
       <use xlink:href="#ArialMT-32" x="111.230469"/>
       <use xlink:href="#ArialMT-30" x="166.845703"/>
      </g>
     </g>
    </g>
    <g id="xtick_7">
     <g id="line2d_7">
      <path d="M 533.60442 354.575625 
L 533.60442 21.935625 
" clip-path="url(#p7eb33735d8)" style="fill: none; stroke: #ffffff; stroke-width: 0.8; stroke-linecap: round"/>
     </g>
     <g id="text_7">
      <!-- 2022 -->
      <g style="fill: #262626" transform="translate(522.482545 368.733438)scale(0.1 -0.1)">
       <use xlink:href="#ArialMT-32"/>
       <use xlink:href="#ArialMT-30" x="55.615234"/>
       <use xlink:href="#ArialMT-32" x="111.230469"/>
       <use xlink:href="#ArialMT-32" x="166.845703"/>
      </g>
     </g>
    </g>
    <g id="text_8">
     <!-- Period -->
     <g style="fill: #262626" transform="translate(305.792969 381.87875)scale(0.1 -0.1)">
      <defs>
       <path id="ArialMT-50" d="M 494 0 
L 494 4581 
L 2222 4581 
Q 2678 4581 2919 4538 
Q 3256 4481 3484 4323 
Q 3713 4166 3852 3881 
Q 3991 3597 3991 3256 
Q 3991 2672 3619 2267 
Q 3247 1863 2275 1863 
L 1100 1863 
L 1100 0 
L 494 0 
z
M 1100 2403 
L 2284 2403 
Q 2872 2403 3119 2622 
Q 3366 2841 3366 3238 
Q 3366 3525 3220 3729 
Q 3075 3934 2838 4000 
Q 2684 4041 2272 4041 
L 1100 4041 
L 1100 2403 
z
" transform="scale(0.015625)"/>
       <path id="ArialMT-65" d="M 2694 1069 
L 3275 997 
Q 3138 488 2766 206 
Q 2394 -75 1816 -75 
Q 1088 -75 661 373 
Q 234 822 234 1631 
Q 234 2469 665 2931 
Q 1097 3394 1784 3394 
Q 2450 3394 2872 2941 
Q 3294 2488 3294 1666 
Q 3294 1616 3291 1516 
L 816 1516 
Q 847 969 1125 678 
Q 1403 388 1819 388 
Q 2128 388 2347 550 
Q 2566 713 2694 1069 
z
M 847 1978 
L 2700 1978 
Q 2663 2397 2488 2606 
Q 2219 2931 1791 2931 
Q 1403 2931 1139 2672 
Q 875 2413 847 1978 
z
" transform="scale(0.015625)"/>
       <path id="ArialMT-72" d="M 416 0 
L 416 3319 
L 922 3319 
L 922 2816 
Q 1116 3169 1280 3281 
Q 1444 3394 1641 3394 
Q 1925 3394 2219 3213 
L 2025 2691 
Q 1819 2813 1613 2813 
Q 1428 2813 1281 2702 
Q 1134 2591 1072 2394 
Q 978 2094 978 1738 
L 978 0 
L 416 0 
z
" transform="scale(0.015625)"/>
       <path id="ArialMT-69" d="M 425 3934 
L 425 4581 
L 988 4581 
L 988 3934 
L 425 3934 
z
M 425 0 
L 425 3319 
L 988 3319 
L 988 0 
L 425 0 
z
" transform="scale(0.015625)"/>
       <path id="ArialMT-6f" d="M 213 1659 
Q 213 2581 725 3025 
Q 1153 3394 1769 3394 
Q 2453 3394 2887 2945 
Q 3322 2497 3322 1706 
Q 3322 1066 3130 698 
Q 2938 331 2570 128 
Q 2203 -75 1769 -75 
Q 1072 -75 642 372 
Q 213 819 213 1659 
z
M 791 1659 
Q 791 1022 1069 705 
Q 1347 388 1769 388 
Q 2188 388 2466 706 
Q 2744 1025 2744 1678 
Q 2744 2294 2464 2611 
Q 2184 2928 1769 2928 
Q 1347 2928 1069 2612 
Q 791 2297 791 1659 
z
" transform="scale(0.015625)"/>
       <path id="ArialMT-64" d="M 2575 0 
L 2575 419 
Q 2259 -75 1647 -75 
Q 1250 -75 917 144 
Q 584 363 401 755 
Q 219 1147 219 1656 
Q 219 2153 384 2558 
Q 550 2963 881 3178 
Q 1213 3394 1622 3394 
Q 1922 3394 2156 3267 
Q 2391 3141 2538 2938 
L 2538 4581 
L 3097 4581 
L 3097 0 
L 2575 0 
z
M 797 1656 
Q 797 1019 1065 703 
Q 1334 388 1700 388 
Q 2069 388 2326 689 
Q 2584 991 2584 1609 
Q 2584 2291 2321 2609 
Q 2059 2928 1675 2928 
Q 1300 2928 1048 2622 
Q 797 2316 797 1656 
z
" transform="scale(0.015625)"/>
      </defs>
      <use xlink:href="#ArialMT-50"/>
      <use xlink:href="#ArialMT-65" x="66.699219"/>
      <use xlink:href="#ArialMT-72" x="122.314453"/>
      <use xlink:href="#ArialMT-69" x="155.615234"/>
      <use xlink:href="#ArialMT-6f" x="177.832031"/>
      <use xlink:href="#ArialMT-64" x="233.447266"/>
     </g>
    </g>
   </g>
   <g id="matplotlib.axis_2">
    <g id="ytick_1">
     <g id="line2d_8">
      <path d="M 41.245313 337.847114 
L 599.245312 337.847114 
" clip-path="url(#p7eb33735d8)" style="fill: none; stroke: #ffffff; stroke-width: 0.8; stroke-linecap: round"/>
     </g>
     <g id="text_9">
      <!-- 1.5 -->
      <g style="fill: #262626" transform="translate(20.345313 341.426021)scale(0.1 -0.1)">
       <defs>
        <path id="ArialMT-2e" d="M 581 0 
L 581 641 
L 1222 641 
L 1222 0 
L 581 0 
z
" transform="scale(0.015625)"/>
        <path id="ArialMT-35" d="M 266 1200 
L 856 1250 
Q 922 819 1161 601 
Q 1400 384 1738 384 
Q 2144 384 2425 690 
Q 2706 997 2706 1503 
Q 2706 1984 2436 2262 
Q 2166 2541 1728 2541 
Q 1456 2541 1237 2417 
Q 1019 2294 894 2097 
L 366 2166 
L 809 4519 
L 3088 4519 
L 3088 3981 
L 1259 3981 
L 1013 2750 
Q 1425 3038 1878 3038 
Q 2478 3038 2890 2622 
Q 3303 2206 3303 1553 
Q 3303 931 2941 478 
Q 2500 -78 1738 -78 
Q 1113 -78 717 272 
Q 322 622 266 1200 
z
" transform="scale(0.015625)"/>
       </defs>
       <use xlink:href="#ArialMT-31"/>
       <use xlink:href="#ArialMT-2e" x="55.615234"/>
       <use xlink:href="#ArialMT-35" x="83.398438"/>
      </g>
     </g>
    </g>
    <g id="ytick_2">
     <g id="line2d_9">
      <path d="M 41.245313 297.634348 
L 599.245312 297.634348 
" clip-path="url(#p7eb33735d8)" style="fill: none; stroke: #ffffff; stroke-width: 0.8; stroke-linecap: round"/>
     </g>
     <g id="text_10">
      <!-- 2.0 -->
      <g style="fill: #262626" transform="translate(20.345313 301.213255)scale(0.1 -0.1)">
       <use xlink:href="#ArialMT-32"/>
       <use xlink:href="#ArialMT-2e" x="55.615234"/>
       <use xlink:href="#ArialMT-30" x="83.398438"/>
      </g>
     </g>
    </g>
    <g id="ytick_3">
     <g id="line2d_10">
      <path d="M 41.245313 257.421582 
L 599.245312 257.421582 
" clip-path="url(#p7eb33735d8)" style="fill: none; stroke: #ffffff; stroke-width: 0.8; stroke-linecap: round"/>
     </g>
     <g id="text_11">
      <!-- 2.5 -->
      <g style="fill: #262626" transform="translate(20.345313 261.000489)scale(0.1 -0.1)">
       <use xlink:href="#ArialMT-32"/>
       <use xlink:href="#ArialMT-2e" x="55.615234"/>
       <use xlink:href="#ArialMT-35" x="83.398438"/>
      </g>
     </g>
    </g>
    <g id="ytick_4">
     <g id="line2d_11">
      <path d="M 41.245313 217.208816 
L 599.245312 217.208816 
" clip-path="url(#p7eb33735d8)" style="fill: none; stroke: #ffffff; stroke-width: 0.8; stroke-linecap: round"/>
     </g>
     <g id="text_12">
      <!-- 3.0 -->
      <g style="fill: #262626" transform="translate(20.345313 220.787723)scale(0.1 -0.1)">
       <defs>
        <path id="ArialMT-33" d="M 269 1209 
L 831 1284 
Q 928 806 1161 595 
Q 1394 384 1728 384 
Q 2125 384 2398 659 
Q 2672 934 2672 1341 
Q 2672 1728 2419 1979 
Q 2166 2231 1775 2231 
Q 1616 2231 1378 2169 
L 1441 2663 
Q 1497 2656 1531 2656 
Q 1891 2656 2178 2843 
Q 2466 3031 2466 3422 
Q 2466 3731 2256 3934 
Q 2047 4138 1716 4138 
Q 1388 4138 1169 3931 
Q 950 3725 888 3313 
L 325 3413 
Q 428 3978 793 4289 
Q 1159 4600 1703 4600 
Q 2078 4600 2393 4439 
Q 2709 4278 2876 4000 
Q 3044 3722 3044 3409 
Q 3044 3113 2884 2869 
Q 2725 2625 2413 2481 
Q 2819 2388 3044 2092 
Q 3269 1797 3269 1353 
Q 3269 753 2831 336 
Q 2394 -81 1725 -81 
Q 1122 -81 723 278 
Q 325 638 269 1209 
z
" transform="scale(0.015625)"/>
       </defs>
       <use xlink:href="#ArialMT-33"/>
       <use xlink:href="#ArialMT-2e" x="55.615234"/>
       <use xlink:href="#ArialMT-30" x="83.398438"/>
      </g>
     </g>
    </g>
    <g id="ytick_5">
     <g id="line2d_12">
      <path d="M 41.245313 176.996051 
L 599.245312 176.996051 
" clip-path="url(#p7eb33735d8)" style="fill: none; stroke: #ffffff; stroke-width: 0.8; stroke-linecap: round"/>
     </g>
     <g id="text_13">
      <!-- 3.5 -->
      <g style="fill: #262626" transform="translate(20.345313 180.574957)scale(0.1 -0.1)">
       <use xlink:href="#ArialMT-33"/>
       <use xlink:href="#ArialMT-2e" x="55.615234"/>
       <use xlink:href="#ArialMT-35" x="83.398438"/>
      </g>
     </g>
    </g>
    <g id="ytick_6">
     <g id="line2d_13">
      <path d="M 41.245313 136.783285 
L 599.245312 136.783285 
" clip-path="url(#p7eb33735d8)" style="fill: none; stroke: #ffffff; stroke-width: 0.8; stroke-linecap: round"/>
     </g>
     <g id="text_14">
      <!-- 4.0 -->
      <g style="fill: #262626" transform="translate(20.345313 140.362191)scale(0.1 -0.1)">
       <use xlink:href="#ArialMT-34"/>
       <use xlink:href="#ArialMT-2e" x="55.615234"/>
       <use xlink:href="#ArialMT-30" x="83.398438"/>
      </g>
     </g>
    </g>
    <g id="ytick_7">
     <g id="line2d_14">
      <path d="M 41.245313 96.570519 
L 599.245312 96.570519 
" clip-path="url(#p7eb33735d8)" style="fill: none; stroke: #ffffff; stroke-width: 0.8; stroke-linecap: round"/>
     </g>
     <g id="text_15">
      <!-- 4.5 -->
      <g style="fill: #262626" transform="translate(20.345313 100.149425)scale(0.1 -0.1)">
       <use xlink:href="#ArialMT-34"/>
       <use xlink:href="#ArialMT-2e" x="55.615234"/>
       <use xlink:href="#ArialMT-35" x="83.398438"/>
      </g>
     </g>
    </g>
    <g id="ytick_8">
     <g id="line2d_15">
      <path d="M 41.245313 56.357753 
L 599.245312 56.357753 
" clip-path="url(#p7eb33735d8)" style="fill: none; stroke: #ffffff; stroke-width: 0.8; stroke-linecap: round"/>
     </g>
     <g id="text_16">
      <!-- 5.0 -->
      <g style="fill: #262626" transform="translate(20.345313 59.936659)scale(0.1 -0.1)">
       <use xlink:href="#ArialMT-35"/>
       <use xlink:href="#ArialMT-2e" x="55.615234"/>
       <use xlink:href="#ArialMT-30" x="83.398438"/>
      </g>
     </g>
    </g>
    <g id="text_17">
     <!-- Interest % -->
     <g style="fill: #262626" transform="translate(14.357813 210.764219)rotate(-90)scale(0.1 -0.1)">
      <defs>
       <path id="ArialMT-49" d="M 597 0 
L 597 4581 
L 1203 4581 
L 1203 0 
L 597 0 
z
" transform="scale(0.015625)"/>
       <path id="ArialMT-6e" d="M 422 0 
L 422 3319 
L 928 3319 
L 928 2847 
Q 1294 3394 1984 3394 
Q 2284 3394 2536 3286 
Q 2788 3178 2913 3003 
Q 3038 2828 3088 2588 
Q 3119 2431 3119 2041 
L 3119 0 
L 2556 0 
L 2556 2019 
Q 2556 2363 2490 2533 
Q 2425 2703 2258 2804 
Q 2091 2906 1866 2906 
Q 1506 2906 1245 2678 
Q 984 2450 984 1813 
L 984 0 
L 422 0 
z
" transform="scale(0.015625)"/>
       <path id="ArialMT-74" d="M 1650 503 
L 1731 6 
Q 1494 -44 1306 -44 
Q 1000 -44 831 53 
Q 663 150 594 308 
Q 525 466 525 972 
L 525 2881 
L 113 2881 
L 113 3319 
L 525 3319 
L 525 4141 
L 1084 4478 
L 1084 3319 
L 1650 3319 
L 1650 2881 
L 1084 2881 
L 1084 941 
Q 1084 700 1114 631 
Q 1144 563 1211 522 
Q 1278 481 1403 481 
Q 1497 481 1650 503 
z
" transform="scale(0.015625)"/>
       <path id="ArialMT-73" d="M 197 991 
L 753 1078 
Q 800 744 1014 566 
Q 1228 388 1613 388 
Q 2000 388 2187 545 
Q 2375 703 2375 916 
Q 2375 1106 2209 1216 
Q 2094 1291 1634 1406 
Q 1016 1563 777 1677 
Q 538 1791 414 1992 
Q 291 2194 291 2438 
Q 291 2659 392 2848 
Q 494 3038 669 3163 
Q 800 3259 1026 3326 
Q 1253 3394 1513 3394 
Q 1903 3394 2198 3281 
Q 2494 3169 2634 2976 
Q 2775 2784 2828 2463 
L 2278 2388 
Q 2241 2644 2061 2787 
Q 1881 2931 1553 2931 
Q 1166 2931 1000 2803 
Q 834 2675 834 2503 
Q 834 2394 903 2306 
Q 972 2216 1119 2156 
Q 1203 2125 1616 2013 
Q 2213 1853 2448 1751 
Q 2684 1650 2818 1456 
Q 2953 1263 2953 975 
Q 2953 694 2789 445 
Q 2625 197 2315 61 
Q 2006 -75 1616 -75 
Q 969 -75 630 194 
Q 291 463 197 991 
z
" transform="scale(0.015625)"/>
       <path id="ArialMT-20" transform="scale(0.015625)"/>
       <path id="ArialMT-25" d="M 372 3481 
Q 372 3972 619 4315 
Q 866 4659 1334 4659 
Q 1766 4659 2048 4351 
Q 2331 4044 2331 3447 
Q 2331 2866 2045 2552 
Q 1759 2238 1341 2238 
Q 925 2238 648 2547 
Q 372 2856 372 3481 
z
M 1350 4272 
Q 1141 4272 1002 4090 
Q 863 3909 863 3425 
Q 863 2984 1003 2804 
Q 1144 2625 1350 2625 
Q 1563 2625 1702 2806 
Q 1841 2988 1841 3469 
Q 1841 3913 1700 4092 
Q 1559 4272 1350 4272 
z
M 1353 -169 
L 3859 4659 
L 4316 4659 
L 1819 -169 
L 1353 -169 
z
M 3334 1075 
Q 3334 1569 3581 1911 
Q 3828 2253 4300 2253 
Q 4731 2253 5014 1945 
Q 5297 1638 5297 1041 
Q 5297 459 5011 145 
Q 4725 -169 4303 -169 
Q 3888 -169 3611 142 
Q 3334 453 3334 1075 
z
M 4316 1866 
Q 4103 1866 3964 1684 
Q 3825 1503 3825 1019 
Q 3825 581 3965 400 
Q 4106 219 4313 219 
Q 4528 219 4667 400 
Q 4806 581 4806 1063 
Q 4806 1506 4665 1686 
Q 4525 1866 4316 1866 
z
" transform="scale(0.015625)"/>
      </defs>
      <use xlink:href="#ArialMT-49"/>
      <use xlink:href="#ArialMT-6e" x="27.783203"/>
      <use xlink:href="#ArialMT-74" x="83.398438"/>
      <use xlink:href="#ArialMT-65" x="111.181641"/>
      <use xlink:href="#ArialMT-72" x="166.796875"/>
      <use xlink:href="#ArialMT-65" x="200.097656"/>
      <use xlink:href="#ArialMT-73" x="255.712891"/>
      <use xlink:href="#ArialMT-74" x="305.712891"/>
      <use xlink:href="#ArialMT-20" x="333.496094"/>
      <use xlink:href="#ArialMT-25" x="361.279297"/>
     </g>
    </g>
   </g>
   <g id="PolyCollection_1"/>
   <g id="PolyCollection_2"/>
   <g id="PolyCollection_3"/>
   <g id="PolyCollection_4"/>
   <g id="line2d_16">
    <path d="M 66.608949 168.953497 
L 73.340216 167.344987 
L 76.761024 172.170519 
L 80.071484 176.191795 
L 83.492292 173.779029 
L 86.802751 170.562008 
L 90.223559 165.736476 
L 93.644367 168.953497 
L 96.734129 159.302434 
L 100.154937 154.476902 
L 103.465397 145.630093 
L 106.886205 144.021582 
L 110.196664 137.58754 
L 113.617472 138.391795 
L 117.03828 135.174774 
L 120.34874 137.58754 
L 123.769548 137.58754 
L 127.080007 135.174774 
L 130.500815 141.608816 
L 133.921623 140.804561 
L 137.121734 150.455625 
L 140.542542 155.281157 
L 143.853001 161.715199 
L 147.273809 162.519455 
L 150.584269 165.736476 
L 154.005077 164.932221 
L 157.425885 171.366263 
L 160.736344 176.996051 
L 164.157152 190.668391 
L 167.467612 195.493923 
L 170.88842 194.689668 
L 174.309228 200.319455 
L 177.39899 207.557753 
L 180.819798 209.970519 
L 184.130257 214.796051 
L 187.551065 218.817327 
L 190.861525 215.600306 
L 194.282333 222.034348 
L 197.703141 230.076902 
L 201.0136 234.098178 
L 204.434408 230.076902 
L 207.744868 228.468391 
L 211.165676 229.272646 
L 214.586484 238.92371 
L 217.676246 234.902434 
L 221.097054 237.315199 
L 224.407513 234.098178 
L 227.828321 241.336476 
L 231.138781 246.966263 
L 234.559589 243.749242 
L 237.980397 243.749242 
L 241.290856 250.98754 
L 244.711664 252.596051 
L 248.022123 259.834348 
L 251.442932 261.442859 
L 254.86374 259.030093 
L 257.953502 267.072646 
L 261.37431 268.681157 
L 264.684769 267.072646 
L 268.105577 270.289668 
L 271.416036 275.919455 
L 274.836845 275.115199 
L 278.257653 275.919455 
L 281.568112 283.157753 
L 284.98892 278.332221 
L 288.299379 279.940731 
L 291.720187 280.744987 
L 295.140995 289.591795 
L 298.341106 292.004561 
L 301.761914 295.221582 
L 305.072374 295.221582 
L 308.493182 297.634348 
L 311.803641 304.872646 
L 315.224449 301.655625 
L 318.645257 308.893923 
L 321.955717 314.52371 
L 328.686984 312.915199 
L 332.107792 314.52371 
L 335.5286 315.327965 
L 342.03917 315.327965 
L 345.34963 313.719455 
L 348.770438 314.52371 
L 352.080897 310.502434 
L 355.501705 307.285412 
L 358.922513 308.893923 
L 362.232972 312.110944 
L 365.65378 307.285412 
L 368.96424 310.502434 
L 372.385048 312.110944 
L 375.805856 311.306689 
L 378.895618 311.306689 
L 382.316426 312.915199 
L 385.626885 312.110944 
L 392.358153 313.719455 
L 395.778961 312.915199 
L 399.199769 314.52371 
L 402.510228 315.327965 
L 405.931036 313.719455 
L 412.662304 313.719455 
L 419.172874 312.110944 
L 422.593682 312.915199 
L 425.904141 311.306689 
L 429.324949 313.719455 
L 432.635409 312.915199 
L 436.056217 314.52371 
L 442.787484 322.566263 
L 446.208292 324.174774 
L 449.518752 324.979029 
L 452.93956 324.979029 
L 456.360368 329.804561 
L 459.560479 329.804561 
L 466.291746 328.196051 
L 469.712554 331.413072 
L 473.023013 330.608816 
L 476.443821 325.783285 
L 479.864629 327.391795 
L 483.175089 327.391795 
L 486.595897 328.196051 
L 489.906356 329.804561 
L 496.747972 336.238604 
L 499.837734 337.847114 
L 503.258542 337.847114 
L 506.569002 336.238604 
L 509.98981 335.434348 
L 513.300269 336.238604 
L 516.721077 336.238604 
L 520.141885 338.65137 
L 523.452345 339.455625 
L 526.873153 337.847114 
L 530.183612 337.042859 
L 533.60442 337.847114 
L 537.025228 337.847114 
L 540.11499 329.804561 
L 543.535798 328.196051 
L 550.267066 292.004561 
L 553.577525 273.506689 
L 560.419141 246.162008 
L 563.729601 213.18754 
L 567.150409 195.493923 
L 573.881676 153.672646 
L 573.881676 153.672646 
" clip-path="url(#p7eb33735d8)" style="fill: none; stroke: #1f77b4; stroke-width: 1.5; stroke-linecap: round"/>
   </g>
   <g id="line2d_17">
    <path d="M 66.608949 100.591795 
L 69.919408 103.808816 
L 73.340216 107.830093 
L 76.761024 113.45988 
L 80.071484 116.676902 
L 83.492292 121.502434 
L 86.802751 123.915199 
L 90.223559 119.089668 
L 93.644367 119.089668 
L 96.734129 110.242859 
L 100.154937 96.570519 
L 103.465397 94.157753 
L 106.886205 93.353497 
L 110.196664 93.353497 
L 113.617472 94.962008 
L 117.03828 107.025838 
L 120.34874 111.047114 
L 127.080007 109.438604 
L 130.500815 110.242859 
L 133.921623 116.676902 
L 137.121734 122.306689 
L 140.542542 123.110944 
L 143.853001 133.566263 
L 147.273809 137.58754 
L 150.584269 147.238604 
L 154.005077 146.434348 
L 157.425885 152.064136 
L 160.736344 156.889668 
L 164.157152 159.302434 
L 167.467612 160.106689 
L 170.88842 152.868391 
L 174.309228 156.889668 
L 177.39899 162.519455 
L 180.819798 165.736476 
L 184.130257 176.191795 
L 187.551065 177.800306 
L 194.282333 187.45137 
L 197.703141 185.038604 
L 201.0136 190.668391 
L 204.434408 193.081157 
L 207.744868 191.472646 
L 211.165676 193.081157 
L 214.586484 202.732221 
L 217.676246 202.732221 
L 221.097054 203.536476 
L 224.407513 213.18754 
L 227.828321 219.621582 
L 231.138781 222.838604 
L 234.559589 221.230093 
L 237.980397 225.25137 
L 241.290856 227.664136 
L 244.711664 236.510944 
L 248.022123 243.749242 
L 251.442932 242.944987 
L 254.86374 240.532221 
L 257.953502 252.596051 
L 261.37431 254.204561 
L 264.684769 251.791795 
L 268.105577 255.008816 
L 271.416036 255.813072 
L 274.836845 255.813072 
L 278.257653 254.204561 
L 281.568112 259.030093 
L 284.98892 257.421582 
L 291.720187 260.638604 
L 295.140995 266.268391 
L 298.341106 273.506689 
L 301.761914 275.115199 
L 305.072374 279.136476 
L 308.493182 282.353497 
L 311.803641 290.396051 
L 315.224449 296.025838 
L 318.645257 294.417327 
L 321.955717 301.655625 
L 325.376525 292.808816 
L 328.686984 297.634348 
L 332.107792 296.025838 
L 335.5286 292.004561 
L 338.618362 289.591795 
L 342.03917 290.396051 
L 345.34963 290.396051 
L 348.770438 287.179029 
L 352.080897 284.766263 
L 355.501705 287.179029 
L 358.922513 287.983285 
L 362.232972 287.983285 
L 365.65378 287.179029 
L 368.96424 287.179029 
L 372.385048 291.200306 
L 375.805856 292.004561 
L 378.895618 290.396051 
L 382.316426 291.200306 
L 389.047693 291.200306 
L 395.778961 296.025838 
L 399.199769 293.613072 
L 402.510228 293.613072 
L 405.931036 291.200306 
L 409.241496 292.808816 
L 412.662304 293.613072 
L 416.083112 289.591795 
L 419.172874 291.200306 
L 422.593682 293.613072 
L 425.904141 292.808816 
L 429.324949 291.200306 
L 432.635409 295.221582 
L 436.056217 294.417327 
L 439.477025 302.45988 
L 442.787484 309.698178 
L 446.208292 304.872646 
L 449.518752 314.52371 
L 452.93956 314.52371 
L 456.360368 321.762008 
L 459.560479 321.762008 
L 462.981287 320.957753 
L 466.291746 320.957753 
L 469.712554 321.762008 
L 473.023013 319.349242 
L 476.443821 315.327965 
L 479.864629 315.327965 
L 483.175089 319.349242 
L 486.595897 319.349242 
L 489.906356 321.762008 
L 493.327164 325.783285 
L 496.747972 328.196051 
L 499.837734 332.217327 
L 506.569002 335.434348 
L 509.98981 334.630093 
L 513.300269 331.413072 
L 516.721077 332.217327 
L 520.141885 334.630093 
L 523.452345 328.196051 
L 526.873153 330.608816 
L 530.183612 328.196051 
L 533.60442 329.000306 
L 537.025228 327.391795 
L 540.11499 324.174774 
L 543.535798 317.740731 
L 546.846258 302.45988 
L 550.267066 281.549242 
L 553.577525 255.813072 
L 556.998333 232.489668 
L 560.419141 207.557753 
L 563.729601 177.800306 
L 567.150409 169.757753 
L 570.460868 160.106689 
L 573.881676 137.58754 
L 573.881676 137.58754 
" clip-path="url(#p7eb33735d8)" style="fill: none; stroke: #ff7f0e; stroke-width: 1.5; stroke-linecap: round"/>
   </g>
   <g id="line2d_18">
    <path d="M 66.608949 70.030093 
L 69.919408 74.855625 
L 73.340216 80.485412 
L 76.761024 87.72371 
L 80.071484 90.940731 
L 83.492292 95.766263 
L 90.223559 89.332221 
L 93.644367 83.702434 
L 96.734129 74.05137 
L 100.154937 57.966263 
L 103.465397 49.92371 
L 106.886205 45.902434 
L 110.196664 43.489668 
L 113.617472 49.119455 
L 117.03828 57.162008 
L 120.34874 67.617327 
L 123.769548 75.65988 
L 127.080007 78.876902 
L 130.500815 75.65988 
L 133.921623 70.030093 
L 137.121734 74.05137 
L 140.542542 74.05137 
L 143.853001 78.072646 
L 147.273809 80.485412 
L 150.584269 83.702434 
L 154.005077 84.506689 
L 157.425885 84.506689 
L 160.736344 86.919455 
L 164.157152 91.744987 
L 167.467612 86.919455 
L 170.88842 86.115199 
L 174.309228 87.72371 
L 177.39899 86.919455 
L 180.819798 91.744987 
L 184.130257 108.634348 
L 187.551065 112.655625 
L 190.861525 117.481157 
L 194.282333 123.915199 
L 197.703141 123.110944 
L 201.0136 125.52371 
L 204.434408 129.544987 
L 207.744868 134.370519 
L 211.165676 140.804561 
L 214.586484 144.825838 
L 217.676246 150.455625 
L 221.097054 149.65137 
L 224.407513 154.476902 
L 227.828321 156.889668 
L 231.138781 160.910944 
L 234.559589 166.540731 
L 237.980397 175.38754 
L 241.290856 183.430093 
L 244.711664 195.493923 
L 248.022123 202.732221 
L 251.442932 203.536476 
L 254.86374 208.362008 
L 257.953502 213.18754 
L 261.37431 221.230093 
L 264.684769 235.706689 
L 268.105577 234.098178 
L 271.416036 235.706689 
L 274.836845 233.293923 
L 278.257653 234.902434 
L 281.568112 238.92371 
L 284.98892 238.92371 
L 288.299379 246.162008 
L 291.720187 242.140731 
L 295.140995 243.749242 
L 298.341106 249.379029 
L 301.761914 248.574774 
L 308.493182 256.617327 
L 311.803641 253.400306 
L 315.224449 259.834348 
L 318.645257 265.464136 
L 321.955717 272.702434 
L 325.376525 275.919455 
L 328.686984 277.527965 
L 332.107792 280.744987 
L 335.5286 275.115199 
L 338.618362 273.506689 
L 342.03917 270.289668 
L 345.34963 271.093923 
L 348.770438 273.506689 
L 352.080897 274.310944 
L 355.501705 275.919455 
L 358.922513 274.310944 
L 362.232972 275.115199 
L 365.65378 271.093923 
L 372.385048 274.310944 
L 375.805856 270.289668 
L 378.895618 271.093923 
L 382.316426 271.093923 
L 385.626885 269.485412 
L 389.047693 263.855625 
L 392.358153 266.268391 
L 395.778961 267.876902 
L 399.199769 268.681157 
L 402.510228 267.876902 
L 405.931036 266.268391 
L 409.241496 267.876902 
L 412.662304 267.876902 
L 416.083112 265.464136 
L 419.172874 265.464136 
L 425.904141 275.115199 
L 432.635409 286.374774 
L 436.056217 287.983285 
L 439.477025 288.78754 
L 442.787484 293.613072 
L 446.208292 267.876902 
L 449.518752 301.655625 
L 452.93956 300.85137 
L 456.360368 305.676902 
L 459.560479 306.481157 
L 462.981287 314.52371 
L 466.291746 315.327965 
L 469.712554 316.936476 
L 473.023013 316.936476 
L 476.443821 315.327965 
L 479.864629 316.936476 
L 483.175089 317.740731 
L 486.595897 316.936476 
L 489.906356 317.740731 
L 493.327164 320.957753 
L 496.747972 323.370519 
L 499.837734 323.370519 
L 503.258542 327.391795 
L 506.569002 326.58754 
L 509.98981 329.804561 
L 513.300269 329.804561 
L 516.721077 331.413072 
L 520.141885 333.825838 
L 523.452345 331.413072 
L 526.873153 332.217327 
L 530.183612 333.825838 
L 533.60442 333.021582 
L 537.025228 331.413072 
L 540.11499 323.370519 
L 546.846258 299.242859 
L 550.267066 285.570519 
L 553.577525 264.65988 
L 556.998333 241.336476 
L 560.419141 223.642859 
L 567.150409 194.689668 
L 570.460868 183.430093 
L 573.881676 178.604561 
L 573.881676 178.604561 
" clip-path="url(#p7eb33735d8)" style="fill: none; stroke: #2ca02c; stroke-width: 1.5; stroke-linecap: round"/>
   </g>
   <g id="line2d_19">
    <path d="M 66.608949 46.706689 
L 69.919408 51.532221 
L 76.761024 62.791795 
L 80.071484 65.204561 
L 83.492292 68.421582 
L 86.802751 64.400306 
L 90.223559 69.225838 
L 93.644367 63.596051 
L 96.734129 53.944987 
L 100.154937 45.098178 
L 103.465397 37.85988 
L 106.886205 37.055625 
L 110.196664 37.055625 
L 113.617472 39.468391 
L 117.03828 44.293923 
L 120.34874 49.92371 
L 123.769548 47.510944 
L 127.080007 51.532221 
L 130.500815 49.92371 
L 133.921623 47.510944 
L 137.121734 46.706689 
L 140.542542 49.92371 
L 143.853001 49.119455 
L 147.273809 49.92371 
L 150.584269 54.749242 
L 157.425885 51.532221 
L 160.736344 49.119455 
L 164.157152 52.336476 
L 167.467612 54.749242 
L 170.88842 52.336476 
L 174.309228 53.140731 
L 177.39899 60.379029 
L 180.819798 65.204561 
L 184.130257 62.791795 
L 187.551065 61.183285 
L 190.861525 64.400306 
L 194.282333 65.204561 
L 197.703141 70.834348 
L 201.0136 66.813072 
L 204.434408 78.072646 
L 207.744868 81.289668 
L 211.165676 78.072646 
L 214.586484 86.115199 
L 217.676246 90.136476 
L 221.097054 82.898178 
L 224.407513 91.744987 
L 227.828321 98.179029 
L 231.138781 91.744987 
L 234.559589 126.327965 
L 237.980397 138.391795 
L 241.290856 142.413072 
L 244.711664 149.65137 
L 248.022123 154.476902 
L 251.442932 147.238604 
L 254.86374 157.693923 
L 257.953502 168.149242 
L 261.37431 181.017327 
L 264.684769 189.05988 
L 268.105577 190.668391 
L 271.416036 200.319455 
L 278.257653 197.102434 
L 281.568112 192.276902 
L 284.98892 192.276902 
L 288.299379 199.515199 
L 291.720187 194.689668 
L 295.140995 201.927965 
L 298.341106 205.144987 
L 301.761914 209.166263 
L 305.072374 206.753497 
L 308.493182 209.970519 
L 311.803641 201.12371 
L 315.224449 206.753497 
L 318.645257 213.18754 
L 321.955717 218.817327 
L 325.376525 217.208816 
L 328.686984 221.230093 
L 332.107792 229.272646 
L 335.5286 224.447114 
L 338.618362 223.642859 
L 342.03917 226.055625 
L 345.34963 225.25137 
L 348.770438 221.230093 
L 352.080897 219.621582 
L 358.922513 219.621582 
L 362.232972 216.404561 
L 365.65378 218.013072 
L 368.96424 222.838604 
L 372.385048 226.85988 
L 375.805856 224.447114 
L 378.895618 226.055625 
L 382.316426 226.85988 
L 385.626885 230.076902 
L 389.047693 231.685412 
L 392.358153 236.510944 
L 395.778961 238.119455 
L 399.199769 237.315199 
L 402.510228 234.098178 
L 405.931036 233.293923 
L 409.241496 235.706689 
L 412.662304 235.706689 
L 416.083112 233.293923 
L 419.172874 229.272646 
L 422.593682 234.902434 
L 425.904141 237.315199 
L 429.324949 236.510944 
L 432.635409 242.944987 
L 436.056217 246.162008 
L 439.477025 250.183285 
L 442.787484 259.834348 
L 446.208292 209.970519 
L 449.518752 271.093923 
L 452.93956 278.332221 
L 456.360368 283.962008 
L 459.560479 283.962008 
L 462.981287 289.591795 
L 466.291746 288.78754 
L 469.712554 292.004561 
L 473.023013 293.613072 
L 476.443821 293.613072 
L 479.864629 295.221582 
L 483.175089 296.025838 
L 486.595897 298.438604 
L 489.906356 299.242859 
L 493.327164 303.264136 
L 496.747972 306.481157 
L 499.837734 305.676902 
L 503.258542 312.110944 
L 506.569002 312.110944 
L 509.98981 315.327965 
L 513.300269 316.936476 
L 516.721077 317.740731 
L 520.141885 316.936476 
L 523.452345 316.936476 
L 530.183612 318.544987 
L 533.60442 315.327965 
L 537.025228 315.327965 
L 540.11499 306.481157 
L 543.535798 295.221582 
L 546.846258 287.179029 
L 550.267066 275.115199 
L 553.577525 259.834348 
L 556.998333 245.357753 
L 560.419141 232.489668 
L 563.729601 221.230093 
L 567.150409 213.18754 
L 570.460868 204.340731 
L 573.881676 205.144987 
L 573.881676 205.144987 
" clip-path="url(#p7eb33735d8)" style="fill: none; stroke: #d62728; stroke-width: 1.5; stroke-linecap: round"/>
   </g>
   <g id="line2d_20"/>
   <g id="line2d_21"/>
   <g id="line2d_22"/>
   <g id="line2d_23"/>
   <g id="patch_3">
    <path d="M 41.245313 354.575625 
L 41.245313 21.935625 
" style="fill: none; stroke: #ffffff; stroke-width: 0.8; stroke-linejoin: miter; stroke-linecap: square"/>
   </g>
   <g id="patch_4">
    <path d="M 599.245312 354.575625 
L 599.245312 21.935625 
" style="fill: none; stroke: #ffffff; stroke-width: 0.8; stroke-linejoin: miter; stroke-linecap: square"/>
   </g>
   <g id="patch_5">
    <path d="M 41.245312 354.575625 
L 599.245312 354.575625 
" style="fill: none; stroke: #ffffff; stroke-width: 0.8; stroke-linejoin: miter; stroke-linecap: square"/>
   </g>
   <g id="patch_6">
    <path d="M 41.245312 21.935625 
L 599.245312 21.935625 
" style="fill: none; stroke: #ffffff; stroke-width: 0.8; stroke-linejoin: miter; stroke-linecap: square"/>
   </g>
   <g id="text_18">
    <!-- Loans to households for house purchase with collateral (new business) - Netherlands -->
    <g style="fill: #262626" transform="translate(94.133438 15.935625)scale(0.12 -0.12)">
     <defs>
      <path id="ArialMT-4c" d="M 469 0 
L 469 4581 
L 1075 4581 
L 1075 541 
L 3331 541 
L 3331 0 
L 469 0 
z
" transform="scale(0.015625)"/>
      <path id="ArialMT-61" d="M 2588 409 
Q 2275 144 1986 34 
Q 1697 -75 1366 -75 
Q 819 -75 525 192 
Q 231 459 231 875 
Q 231 1119 342 1320 
Q 453 1522 633 1644 
Q 813 1766 1038 1828 
Q 1203 1872 1538 1913 
Q 2219 1994 2541 2106 
Q 2544 2222 2544 2253 
Q 2544 2597 2384 2738 
Q 2169 2928 1744 2928 
Q 1347 2928 1158 2789 
Q 969 2650 878 2297 
L 328 2372 
Q 403 2725 575 2942 
Q 747 3159 1072 3276 
Q 1397 3394 1825 3394 
Q 2250 3394 2515 3294 
Q 2781 3194 2906 3042 
Q 3031 2891 3081 2659 
Q 3109 2516 3109 2141 
L 3109 1391 
Q 3109 606 3145 398 
Q 3181 191 3288 0 
L 2700 0 
Q 2613 175 2588 409 
z
M 2541 1666 
Q 2234 1541 1622 1453 
Q 1275 1403 1131 1340 
Q 988 1278 909 1158 
Q 831 1038 831 891 
Q 831 666 1001 516 
Q 1172 366 1500 366 
Q 1825 366 2078 508 
Q 2331 650 2450 897 
Q 2541 1088 2541 1459 
L 2541 1666 
z
" transform="scale(0.015625)"/>
      <path id="ArialMT-68" d="M 422 0 
L 422 4581 
L 984 4581 
L 984 2938 
Q 1378 3394 1978 3394 
Q 2347 3394 2619 3248 
Q 2891 3103 3008 2847 
Q 3125 2591 3125 2103 
L 3125 0 
L 2563 0 
L 2563 2103 
Q 2563 2525 2380 2717 
Q 2197 2909 1863 2909 
Q 1613 2909 1392 2779 
Q 1172 2650 1078 2428 
Q 984 2206 984 1816 
L 984 0 
L 422 0 
z
" transform="scale(0.015625)"/>
      <path id="ArialMT-75" d="M 2597 0 
L 2597 488 
Q 2209 -75 1544 -75 
Q 1250 -75 995 37 
Q 741 150 617 320 
Q 494 491 444 738 
Q 409 903 409 1263 
L 409 3319 
L 972 3319 
L 972 1478 
Q 972 1038 1006 884 
Q 1059 663 1231 536 
Q 1403 409 1656 409 
Q 1909 409 2131 539 
Q 2353 669 2445 892 
Q 2538 1116 2538 1541 
L 2538 3319 
L 3100 3319 
L 3100 0 
L 2597 0 
z
" transform="scale(0.015625)"/>
      <path id="ArialMT-6c" d="M 409 0 
L 409 4581 
L 972 4581 
L 972 0 
L 409 0 
z
" transform="scale(0.015625)"/>
      <path id="ArialMT-66" d="M 556 0 
L 556 2881 
L 59 2881 
L 59 3319 
L 556 3319 
L 556 3672 
Q 556 4006 616 4169 
Q 697 4388 901 4523 
Q 1106 4659 1475 4659 
Q 1713 4659 2000 4603 
L 1916 4113 
Q 1741 4144 1584 4144 
Q 1328 4144 1222 4034 
Q 1116 3925 1116 3625 
L 1116 3319 
L 1763 3319 
L 1763 2881 
L 1116 2881 
L 1116 0 
L 556 0 
z
" transform="scale(0.015625)"/>
      <path id="ArialMT-70" d="M 422 -1272 
L 422 3319 
L 934 3319 
L 934 2888 
Q 1116 3141 1344 3267 
Q 1572 3394 1897 3394 
Q 2322 3394 2647 3175 
Q 2972 2956 3137 2557 
Q 3303 2159 3303 1684 
Q 3303 1175 3120 767 
Q 2938 359 2589 142 
Q 2241 -75 1856 -75 
Q 1575 -75 1351 44 
Q 1128 163 984 344 
L 984 -1272 
L 422 -1272 
z
M 931 1641 
Q 931 1000 1190 694 
Q 1450 388 1819 388 
Q 2194 388 2461 705 
Q 2728 1022 2728 1688 
Q 2728 2322 2467 2637 
Q 2206 2953 1844 2953 
Q 1484 2953 1207 2617 
Q 931 2281 931 1641 
z
" transform="scale(0.015625)"/>
      <path id="ArialMT-63" d="M 2588 1216 
L 3141 1144 
Q 3050 572 2676 248 
Q 2303 -75 1759 -75 
Q 1078 -75 664 370 
Q 250 816 250 1647 
Q 250 2184 428 2587 
Q 606 2991 970 3192 
Q 1334 3394 1763 3394 
Q 2303 3394 2647 3120 
Q 2991 2847 3088 2344 
L 2541 2259 
Q 2463 2594 2264 2762 
Q 2066 2931 1784 2931 
Q 1359 2931 1093 2626 
Q 828 2322 828 1663 
Q 828 994 1084 691 
Q 1341 388 1753 388 
Q 2084 388 2306 591 
Q 2528 794 2588 1216 
z
" transform="scale(0.015625)"/>
      <path id="ArialMT-77" d="M 1034 0 
L 19 3319 
L 600 3319 
L 1128 1403 
L 1325 691 
Q 1338 744 1497 1375 
L 2025 3319 
L 2603 3319 
L 3100 1394 
L 3266 759 
L 3456 1400 
L 4025 3319 
L 4572 3319 
L 3534 0 
L 2950 0 
L 2422 1988 
L 2294 2553 
L 1622 0 
L 1034 0 
z
" transform="scale(0.015625)"/>
      <path id="ArialMT-28" d="M 1497 -1347 
Q 1031 -759 709 28 
Q 388 816 388 1659 
Q 388 2403 628 3084 
Q 909 3875 1497 4659 
L 1900 4659 
Q 1522 4009 1400 3731 
Q 1209 3300 1100 2831 
Q 966 2247 966 1656 
Q 966 153 1900 -1347 
L 1497 -1347 
z
" transform="scale(0.015625)"/>
      <path id="ArialMT-62" d="M 941 0 
L 419 0 
L 419 4581 
L 981 4581 
L 981 2947 
Q 1338 3394 1891 3394 
Q 2197 3394 2470 3270 
Q 2744 3147 2920 2923 
Q 3097 2700 3197 2384 
Q 3297 2069 3297 1709 
Q 3297 856 2875 390 
Q 2453 -75 1863 -75 
Q 1275 -75 941 416 
L 941 0 
z
M 934 1684 
Q 934 1088 1097 822 
Q 1363 388 1816 388 
Q 2184 388 2453 708 
Q 2722 1028 2722 1663 
Q 2722 2313 2464 2622 
Q 2206 2931 1841 2931 
Q 1472 2931 1203 2611 
Q 934 2291 934 1684 
z
" transform="scale(0.015625)"/>
      <path id="ArialMT-29" d="M 791 -1347 
L 388 -1347 
Q 1322 153 1322 1656 
Q 1322 2244 1188 2822 
Q 1081 3291 891 3722 
Q 769 4003 388 4659 
L 791 4659 
Q 1378 3875 1659 3084 
Q 1900 2403 1900 1659 
Q 1900 816 1576 28 
Q 1253 -759 791 -1347 
z
" transform="scale(0.015625)"/>
      <path id="ArialMT-2d" d="M 203 1375 
L 203 1941 
L 1931 1941 
L 1931 1375 
L 203 1375 
z
" transform="scale(0.015625)"/>
      <path id="ArialMT-4e" d="M 488 0 
L 488 4581 
L 1109 4581 
L 3516 984 
L 3516 4581 
L 4097 4581 
L 4097 0 
L 3475 0 
L 1069 3600 
L 1069 0 
L 488 0 
z
" transform="scale(0.015625)"/>
     </defs>
     <use xlink:href="#ArialMT-4c"/>
     <use xlink:href="#ArialMT-6f" x="55.615234"/>
     <use xlink:href="#ArialMT-61" x="111.230469"/>
     <use xlink:href="#ArialMT-6e" x="166.845703"/>
     <use xlink:href="#ArialMT-73" x="222.460938"/>
     <use xlink:href="#ArialMT-20" x="272.460938"/>
     <use xlink:href="#ArialMT-74" x="300.244141"/>
     <use xlink:href="#ArialMT-6f" x="328.027344"/>
     <use xlink:href="#ArialMT-20" x="383.642578"/>
     <use xlink:href="#ArialMT-68" x="411.425781"/>
     <use xlink:href="#ArialMT-6f" x="467.041016"/>
     <use xlink:href="#ArialMT-75" x="522.65625"/>
     <use xlink:href="#ArialMT-73" x="578.271484"/>
     <use xlink:href="#ArialMT-65" x="628.271484"/>
     <use xlink:href="#ArialMT-68" x="683.886719"/>
     <use xlink:href="#ArialMT-6f" x="739.501953"/>
     <use xlink:href="#ArialMT-6c" x="795.117188"/>
     <use xlink:href="#ArialMT-64" x="817.333984"/>
     <use xlink:href="#ArialMT-73" x="872.949219"/>
     <use xlink:href="#ArialMT-20" x="922.949219"/>
     <use xlink:href="#ArialMT-66" x="950.732422"/>
     <use xlink:href="#ArialMT-6f" x="978.515625"/>
     <use xlink:href="#ArialMT-72" x="1034.130859"/>
     <use xlink:href="#ArialMT-20" x="1067.431641"/>
     <use xlink:href="#ArialMT-68" x="1095.214844"/>
     <use xlink:href="#ArialMT-6f" x="1150.830078"/>
     <use xlink:href="#ArialMT-75" x="1206.445312"/>
     <use xlink:href="#ArialMT-73" x="1262.060547"/>
     <use xlink:href="#ArialMT-65" x="1312.060547"/>
     <use xlink:href="#ArialMT-20" x="1367.675781"/>
     <use xlink:href="#ArialMT-70" x="1395.458984"/>
     <use xlink:href="#ArialMT-75" x="1451.074219"/>
     <use xlink:href="#ArialMT-72" x="1506.689453"/>
     <use xlink:href="#ArialMT-63" x="1539.990234"/>
     <use xlink:href="#ArialMT-68" x="1589.990234"/>
     <use xlink:href="#ArialMT-61" x="1645.605469"/>
     <use xlink:href="#ArialMT-73" x="1701.220703"/>
     <use xlink:href="#ArialMT-65" x="1751.220703"/>
     <use xlink:href="#ArialMT-20" x="1806.835938"/>
     <use xlink:href="#ArialMT-77" x="1834.619141"/>
     <use xlink:href="#ArialMT-69" x="1906.835938"/>
     <use xlink:href="#ArialMT-74" x="1929.052734"/>
     <use xlink:href="#ArialMT-68" x="1956.835938"/>
     <use xlink:href="#ArialMT-20" x="2012.451172"/>
     <use xlink:href="#ArialMT-63" x="2040.234375"/>
     <use xlink:href="#ArialMT-6f" x="2090.234375"/>
     <use xlink:href="#ArialMT-6c" x="2145.849609"/>
     <use xlink:href="#ArialMT-6c" x="2168.066406"/>
     <use xlink:href="#ArialMT-61" x="2190.283203"/>
     <use xlink:href="#ArialMT-74" x="2245.898438"/>
     <use xlink:href="#ArialMT-65" x="2273.681641"/>
     <use xlink:href="#ArialMT-72" x="2329.296875"/>
     <use xlink:href="#ArialMT-61" x="2362.597656"/>
     <use xlink:href="#ArialMT-6c" x="2418.212891"/>
     <use xlink:href="#ArialMT-20" x="2440.429688"/>
     <use xlink:href="#ArialMT-28" x="2468.212891"/>
     <use xlink:href="#ArialMT-6e" x="2501.513672"/>
     <use xlink:href="#ArialMT-65" x="2557.128906"/>
     <use xlink:href="#ArialMT-77" x="2612.744141"/>
     <use xlink:href="#ArialMT-20" x="2684.960938"/>
     <use xlink:href="#ArialMT-62" x="2712.744141"/>
     <use xlink:href="#ArialMT-75" x="2768.359375"/>
     <use xlink:href="#ArialMT-73" x="2823.974609"/>
     <use xlink:href="#ArialMT-69" x="2873.974609"/>
     <use xlink:href="#ArialMT-6e" x="2896.191406"/>
     <use xlink:href="#ArialMT-65" x="2951.806641"/>
     <use xlink:href="#ArialMT-73" x="3007.421875"/>
     <use xlink:href="#ArialMT-73" x="3057.421875"/>
     <use xlink:href="#ArialMT-29" x="3107.421875"/>
     <use xlink:href="#ArialMT-20" x="3140.722656"/>
     <use xlink:href="#ArialMT-2d" x="3168.505859"/>
     <use xlink:href="#ArialMT-20" x="3201.806641"/>
     <use xlink:href="#ArialMT-4e" x="3229.589844"/>
     <use xlink:href="#ArialMT-65" x="3301.806641"/>
     <use xlink:href="#ArialMT-74" x="3357.421875"/>
     <use xlink:href="#ArialMT-68" x="3385.205078"/>
     <use xlink:href="#ArialMT-65" x="3440.820312"/>
     <use xlink:href="#ArialMT-72" x="3496.435547"/>
     <use xlink:href="#ArialMT-6c" x="3529.736328"/>
     <use xlink:href="#ArialMT-61" x="3551.953125"/>
     <use xlink:href="#ArialMT-6e" x="3607.568359"/>
     <use xlink:href="#ArialMT-64" x="3663.183594"/>
     <use xlink:href="#ArialMT-73" x="3718.798828"/>
    </g>
   </g>
   <g id="legend_1">
    <g id="patch_7">
     <path d="M 510.492188 101.371563 
L 592.245312 101.371563 
Q 594.245312 101.371563 594.245312 99.371563 
L 594.245312 28.935625 
Q 594.245312 26.935625 592.245312 26.935625 
L 510.492188 26.935625 
Q 508.492188 26.935625 508.492188 28.935625 
L 508.492188 99.371563 
Q 508.492188 101.371563 510.492188 101.371563 
z
" style="fill: #eaeaf2; opacity: 0.8; stroke: #cccccc; stroke-linejoin: miter"/>
    </g>
    <g id="text_19">
     <!-- fixed_period -->
     <g style="fill: #262626" transform="translate(524.129688 38.215313)scale(0.1 -0.1)">
      <defs>
       <path id="ArialMT-78" d="M 47 0 
L 1259 1725 
L 138 3319 
L 841 3319 
L 1350 2541 
Q 1494 2319 1581 2169 
Q 1719 2375 1834 2534 
L 2394 3319 
L 3066 3319 
L 1919 1756 
L 3153 0 
L 2463 0 
L 1781 1031 
L 1600 1309 
L 728 0 
L 47 0 
z
" transform="scale(0.015625)"/>
       <path id="ArialMT-5f" d="M -97 -1272 
L -97 -866 
L 3631 -866 
L 3631 -1272 
L -97 -1272 
z
" transform="scale(0.015625)"/>
      </defs>
      <use xlink:href="#ArialMT-66"/>
      <use xlink:href="#ArialMT-69" x="27.783203"/>
      <use xlink:href="#ArialMT-78" x="50"/>
      <use xlink:href="#ArialMT-65" x="100"/>
      <use xlink:href="#ArialMT-64" x="155.615234"/>
      <use xlink:href="#ArialMT-5f" x="211.230469"/>
      <use xlink:href="#ArialMT-70" x="266.845703"/>
      <use xlink:href="#ArialMT-65" x="322.460938"/>
      <use xlink:href="#ArialMT-72" x="378.076172"/>
      <use xlink:href="#ArialMT-69" x="411.376953"/>
      <use xlink:href="#ArialMT-6f" x="433.59375"/>
      <use xlink:href="#ArialMT-64" x="489.208984"/>
     </g>
    </g>
    <g id="line2d_24">
     <path d="M 512.492188 48.890313 
L 522.492188 48.890313 
L 532.492188 48.890313 
" style="fill: none; stroke: #1f77b4; stroke-width: 1.5; stroke-linecap: round"/>
    </g>
    <g id="text_20">
     <!-- &lt;= 1 year -->
     <g style="fill: #262626" transform="translate(540.492188 52.390313)scale(0.1 -0.1)">
      <defs>
       <path id="ArialMT-3c" d="M 350 2003 
L 350 2528 
L 3384 3809 
L 3384 3250 
L 978 2263 
L 3384 1266 
L 3384 706 
L 350 2003 
z
" transform="scale(0.015625)"/>
       <path id="ArialMT-3d" d="M 3381 2694 
L 356 2694 
L 356 3219 
L 3381 3219 
L 3381 2694 
z
M 3381 1303 
L 356 1303 
L 356 1828 
L 3381 1828 
L 3381 1303 
z
" transform="scale(0.015625)"/>
       <path id="ArialMT-79" d="M 397 -1278 
L 334 -750 
Q 519 -800 656 -800 
Q 844 -800 956 -737 
Q 1069 -675 1141 -563 
Q 1194 -478 1313 -144 
Q 1328 -97 1363 -6 
L 103 3319 
L 709 3319 
L 1400 1397 
Q 1534 1031 1641 628 
Q 1738 1016 1872 1384 
L 2581 3319 
L 3144 3319 
L 1881 -56 
Q 1678 -603 1566 -809 
Q 1416 -1088 1222 -1217 
Q 1028 -1347 759 -1347 
Q 597 -1347 397 -1278 
z
" transform="scale(0.015625)"/>
      </defs>
      <use xlink:href="#ArialMT-3c"/>
      <use xlink:href="#ArialMT-3d" x="58.398438"/>
      <use xlink:href="#ArialMT-20" x="116.796875"/>
      <use xlink:href="#ArialMT-31" x="144.580078"/>
      <use xlink:href="#ArialMT-20" x="200.195312"/>
      <use xlink:href="#ArialMT-79" x="227.978516"/>
      <use xlink:href="#ArialMT-65" x="277.978516"/>
      <use xlink:href="#ArialMT-61" x="333.59375"/>
      <use xlink:href="#ArialMT-72" x="389.208984"/>
     </g>
    </g>
    <g id="line2d_25">
     <path d="M 512.492188 63.1825 
L 522.492188 63.1825 
L 532.492188 63.1825 
" style="fill: none; stroke: #ff7f0e; stroke-width: 1.5; stroke-linecap: round"/>
    </g>
    <g id="text_21">
     <!-- 1&gt;5 years -->
     <g style="fill: #262626" transform="translate(540.492188 66.6825)scale(0.1 -0.1)">
      <defs>
       <path id="ArialMT-3e" d="M 3384 2003 
L 350 706 
L 350 1266 
L 2753 2263 
L 350 3250 
L 350 3809 
L 3384 2528 
L 3384 2003 
z
" transform="scale(0.015625)"/>
      </defs>
      <use xlink:href="#ArialMT-31"/>
      <use xlink:href="#ArialMT-3e" x="55.615234"/>
      <use xlink:href="#ArialMT-35" x="114.013672"/>
      <use xlink:href="#ArialMT-20" x="169.628906"/>
      <use xlink:href="#ArialMT-79" x="197.412109"/>
      <use xlink:href="#ArialMT-65" x="247.412109"/>
      <use xlink:href="#ArialMT-61" x="303.027344"/>
      <use xlink:href="#ArialMT-72" x="358.642578"/>
      <use xlink:href="#ArialMT-73" x="391.943359"/>
     </g>
    </g>
    <g id="line2d_26">
     <path d="M 512.492188 77.474688 
L 522.492188 77.474688 
L 532.492188 77.474688 
" style="fill: none; stroke: #2ca02c; stroke-width: 1.5; stroke-linecap: round"/>
    </g>
    <g id="text_22">
     <!-- 5&gt;10 years -->
     <g style="fill: #262626" transform="translate(540.492188 80.974688)scale(0.1 -0.1)">
      <use xlink:href="#ArialMT-35"/>
      <use xlink:href="#ArialMT-3e" x="55.615234"/>
      <use xlink:href="#ArialMT-31" x="114.013672"/>
      <use xlink:href="#ArialMT-30" x="169.628906"/>
      <use xlink:href="#ArialMT-20" x="225.244141"/>
      <use xlink:href="#ArialMT-79" x="253.027344"/>
      <use xlink:href="#ArialMT-65" x="303.027344"/>
      <use xlink:href="#ArialMT-61" x="358.642578"/>
      <use xlink:href="#ArialMT-72" x="414.257812"/>
      <use xlink:href="#ArialMT-73" x="447.558594"/>
     </g>
    </g>
    <g id="line2d_27">
     <path d="M 512.492188 91.766875 
L 522.492188 91.766875 
L 532.492188 91.766875 
" style="fill: none; stroke: #d62728; stroke-width: 1.5; stroke-linecap: round"/>
    </g>
    <g id="text_23">
     <!-- &gt;10 years -->
     <g style="fill: #262626" transform="translate(540.492188 95.266875)scale(0.1 -0.1)">
      <use xlink:href="#ArialMT-3e"/>
      <use xlink:href="#ArialMT-31" x="58.398438"/>
      <use xlink:href="#ArialMT-30" x="114.013672"/>
      <use xlink:href="#ArialMT-20" x="169.628906"/>
      <use xlink:href="#ArialMT-79" x="197.412109"/>
      <use xlink:href="#ArialMT-65" x="247.412109"/>
      <use xlink:href="#ArialMT-61" x="303.027344"/>
      <use xlink:href="#ArialMT-72" x="358.642578"/>
      <use xlink:href="#ArialMT-73" x="391.943359"/>
     </g>
    </g>
   </g>
  </g>
 </g>
 <defs>
  <clipPath id="p7eb33735d8">
   <rect x="41.245313" y="21.935625" width="558" height="332.64"/>
  </clipPath>
 </defs>
</svg>
