<?xml version="1.0" encoding="utf-8" standalone="no"?>
<!DOCTYPE svg PUBLIC "-//W3C//DTD SVG 1.1//EN"
  "http://www.w3.org/Graphics/SVG/1.1/DTD/svg11.dtd">
<svg xmlns:xlink="http://www.w3.org/1999/xlink" width="615.067149pt" height="391.06625pt" viewBox="0 0 615.067149 391.06625" xmlns="http://www.w3.org/2000/svg" version="1.1">
 <metadata>
  <rdf:RDF xmlns:dc="http://purl.org/dc/elements/1.1/" xmlns:cc="http://creativecommons.org/ns#" xmlns:rdf="http://www.w3.org/1999/02/22-rdf-syntax-ns#">
   <cc:Work>
    <dc:type rdf:resource="http://purl.org/dc/dcmitype/StillImage"/>
    <dc:date>2023-08-05T13:42:08.694527</dc:date>
    <dc:format>image/svg+xml</dc:format>
    <dc:creator>
     <cc:Agent>
      <dc:title>Matplotlib v3.5.3, https://matplotlib.org/</dc:title>
     </cc:Agent>
    </dc:creator>
   </cc:Work>
  </rdf:RDF>
 </metadata>
 <defs>
  <style type="text/css">*{stroke-linejoin: round; stroke-linecap: butt}</style>
 </defs>
 <g id="figure_1">
  <g id="patch_1">
   <path d="M 0 391.06625 
L 615.067149 391.06625 
L 615.067149 0 
L 0 0 
z
" style="fill: #ffffff"/>
  </g>
  <g id="axes_1">
   <g id="patch_2">
    <path d="M 41.245313 354.575625 
L 599.245312 354.575625 
L 599.245312 21.935625 
L 41.245313 21.935625 
z
" style="fill: #eaeaf2"/>
   </g>
   <g id="matplotlib.axis_1">
    <g id="xtick_1">
     <g id="line2d_1">
      <path d="M 50.476223 354.575625 
L 50.476223 21.935625 
" clip-path="url(#p580c57cedc)" style="fill: none; stroke: #ffffff; stroke-width: 0.8; stroke-linecap: round"/>
     </g>
     <g id="text_1">
      <!-- 2010 -->
      <g style="fill: #262626" transform="translate(39.354348 368.733438)scale(0.1 -0.1)">
       <defs>
        <path id="ArialMT-32" d="M 3222 541 
L 3222 0 
L 194 0 
Q 188 203 259 391 
Q 375 700 629 1000 
Q 884 1300 1366 1694 
Q 2113 2306 2375 2664 
Q 2638 3022 2638 3341 
Q 2638 3675 2398 3904 
Q 2159 4134 1775 4134 
Q 1369 4134 1125 3890 
Q 881 3647 878 3216 
L 300 3275 
Q 359 3922 746 4261 
Q 1134 4600 1788 4600 
Q 2447 4600 2831 4234 
Q 3216 3869 3216 3328 
Q 3216 3053 3103 2787 
Q 2991 2522 2730 2228 
Q 2469 1934 1863 1422 
Q 1356 997 1212 845 
Q 1069 694 975 541 
L 3222 541 
z
" transform="scale(0.015625)"/>
        <path id="ArialMT-30" d="M 266 2259 
Q 266 3072 433 3567 
Q 600 4063 929 4331 
Q 1259 4600 1759 4600 
Q 2128 4600 2406 4451 
Q 2684 4303 2865 4023 
Q 3047 3744 3150 3342 
Q 3253 2941 3253 2259 
Q 3253 1453 3087 958 
Q 2922 463 2592 192 
Q 2263 -78 1759 -78 
Q 1097 -78 719 397 
Q 266 969 266 2259 
z
M 844 2259 
Q 844 1131 1108 757 
Q 1372 384 1759 384 
Q 2147 384 2411 759 
Q 2675 1134 2675 2259 
Q 2675 3391 2411 3762 
Q 2147 4134 1753 4134 
Q 1366 4134 1134 3806 
Q 844 3388 844 2259 
z
" transform="scale(0.015625)"/>
        <path id="ArialMT-31" d="M 2384 0 
L 1822 0 
L 1822 3584 
Q 1619 3391 1289 3197 
Q 959 3003 697 2906 
L 697 3450 
Q 1169 3672 1522 3987 
Q 1875 4303 2022 4600 
L 2384 4600 
L 2384 0 
z
" transform="scale(0.015625)"/>
       </defs>
       <use xlink:href="#ArialMT-32"/>
       <use xlink:href="#ArialMT-30" x="55.615234"/>
       <use xlink:href="#ArialMT-31" x="111.230469"/>
       <use xlink:href="#ArialMT-30" x="166.845703"/>
      </g>
     </g>
    </g>
    <g id="xtick_2">
     <g id="line2d_2">
      <path d="M 89.472547 354.575625 
L 89.472547 21.935625 
" clip-path="url(#p580c57cedc)" style="fill: none; stroke: #ffffff; stroke-width: 0.8; stroke-linecap: round"/>
     </g>
     <g id="text_2">
      <!-- 2011 -->
      <g style="fill: #262626" transform="translate(78.719422 368.733438)scale(0.1 -0.1)">
       <use xlink:href="#ArialMT-32"/>
       <use xlink:href="#ArialMT-30" x="55.615234"/>
       <use xlink:href="#ArialMT-31" x="111.230469"/>
       <use xlink:href="#ArialMT-31" x="159.470703"/>
      </g>
     </g>
    </g>
    <g id="xtick_3">
     <g id="line2d_3">
      <path d="M 128.468871 354.575625 
L 128.468871 21.935625 
" clip-path="url(#p580c57cedc)" style="fill: none; stroke: #ffffff; stroke-width: 0.8; stroke-linecap: round"/>
     </g>
     <g id="text_3">
      <!-- 2012 -->
      <g style="fill: #262626" transform="translate(117.346996 368.733438)scale(0.1 -0.1)">
       <use xlink:href="#ArialMT-32"/>
       <use xlink:href="#ArialMT-30" x="55.615234"/>
       <use xlink:href="#ArialMT-31" x="111.230469"/>
       <use xlink:href="#ArialMT-32" x="166.845703"/>
      </g>
     </g>
    </g>
    <g id="xtick_4">
     <g id="line2d_4">
      <path d="M 167.572034 354.575625 
L 167.572034 21.935625 
" clip-path="url(#p580c57cedc)" style="fill: none; stroke: #ffffff; stroke-width: 0.8; stroke-linecap: round"/>
     </g>
     <g id="text_4">
      <!-- 2013 -->
      <g style="fill: #262626" transform="translate(156.450159 368.733438)scale(0.1 -0.1)">
       <defs>
        <path id="ArialMT-33" d="M 269 1209 
L 831 1284 
Q 928 806 1161 595 
Q 1394 384 1728 384 
Q 2125 384 2398 659 
Q 2672 934 2672 1341 
Q 2672 1728 2419 1979 
Q 2166 2231 1775 2231 
Q 1616 2231 1378 2169 
L 1441 2663 
Q 1497 2656 1531 2656 
Q 1891 2656 2178 2843 
Q 2466 3031 2466 3422 
Q 2466 3731 2256 3934 
Q 2047 4138 1716 4138 
Q 1388 4138 1169 3931 
Q 950 3725 888 3313 
L 325 3413 
Q 428 3978 793 4289 
Q 1159 4600 1703 4600 
Q 2078 4600 2393 4439 
Q 2709 4278 2876 4000 
Q 3044 3722 3044 3409 
Q 3044 3113 2884 2869 
Q 2725 2625 2413 2481 
Q 2819 2388 3044 2092 
Q 3269 1797 3269 1353 
Q 3269 753 2831 336 
Q 2394 -81 1725 -81 
Q 1122 -81 723 278 
Q 325 638 269 1209 
z
" transform="scale(0.015625)"/>
       </defs>
       <use xlink:href="#ArialMT-32"/>
       <use xlink:href="#ArialMT-30" x="55.615234"/>
       <use xlink:href="#ArialMT-31" x="111.230469"/>
       <use xlink:href="#ArialMT-33" x="166.845703"/>
      </g>
     </g>
    </g>
    <g id="xtick_5">
     <g id="line2d_5">
      <path d="M 206.568358 354.575625 
L 206.568358 21.935625 
" clip-path="url(#p580c57cedc)" style="fill: none; stroke: #ffffff; stroke-width: 0.8; stroke-linecap: round"/>
     </g>
     <g id="text_5">
      <!-- 2014 -->
      <g style="fill: #262626" transform="translate(195.446483 368.733438)scale(0.1 -0.1)">
       <defs>
        <path id="ArialMT-34" d="M 2069 0 
L 2069 1097 
L 81 1097 
L 81 1613 
L 2172 4581 
L 2631 4581 
L 2631 1613 
L 3250 1613 
L 3250 1097 
L 2631 1097 
L 2631 0 
L 2069 0 
z
M 2069 1613 
L 2069 3678 
L 634 1613 
L 2069 1613 
z
" transform="scale(0.015625)"/>
       </defs>
       <use xlink:href="#ArialMT-32"/>
       <use xlink:href="#ArialMT-30" x="55.615234"/>
       <use xlink:href="#ArialMT-31" x="111.230469"/>
       <use xlink:href="#ArialMT-34" x="166.845703"/>
      </g>
     </g>
    </g>
    <g id="xtick_6">
     <g id="line2d_6">
      <path d="M 245.564681 354.575625 
L 245.564681 21.935625 
" clip-path="url(#p580c57cedc)" style="fill: none; stroke: #ffffff; stroke-width: 0.8; stroke-linecap: round"/>
     </g>
     <g id="text_6">
      <!-- 2015 -->
      <g style="fill: #262626" transform="translate(234.442806 368.733438)scale(0.1 -0.1)">
       <defs>
        <path id="ArialMT-35" d="M 266 1200 
L 856 1250 
Q 922 819 1161 601 
Q 1400 384 1738 384 
Q 2144 384 2425 690 
Q 2706 997 2706 1503 
Q 2706 1984 2436 2262 
Q 2166 2541 1728 2541 
Q 1456 2541 1237 2417 
Q 1019 2294 894 2097 
L 366 2166 
L 809 4519 
L 3088 4519 
L 3088 3981 
L 1259 3981 
L 1013 2750 
Q 1425 3038 1878 3038 
Q 2478 3038 2890 2622 
Q 3303 2206 3303 1553 
Q 3303 931 2941 478 
Q 2500 -78 1738 -78 
Q 1113 -78 717 272 
Q 322 622 266 1200 
z
" transform="scale(0.015625)"/>
       </defs>
       <use xlink:href="#ArialMT-32"/>
       <use xlink:href="#ArialMT-30" x="55.615234"/>
       <use xlink:href="#ArialMT-31" x="111.230469"/>
       <use xlink:href="#ArialMT-35" x="166.845703"/>
      </g>
     </g>
    </g>
    <g id="xtick_7">
     <g id="line2d_7">
      <path d="M 284.561005 354.575625 
L 284.561005 21.935625 
" clip-path="url(#p580c57cedc)" style="fill: none; stroke: #ffffff; stroke-width: 0.8; stroke-linecap: round"/>
     </g>
     <g id="text_7">
      <!-- 2016 -->
      <g style="fill: #262626" transform="translate(273.43913 368.733438)scale(0.1 -0.1)">
       <defs>
        <path id="ArialMT-36" d="M 3184 3459 
L 2625 3416 
Q 2550 3747 2413 3897 
Q 2184 4138 1850 4138 
Q 1581 4138 1378 3988 
Q 1113 3794 959 3422 
Q 806 3050 800 2363 
Q 1003 2672 1297 2822 
Q 1591 2972 1913 2972 
Q 2475 2972 2870 2558 
Q 3266 2144 3266 1488 
Q 3266 1056 3080 686 
Q 2894 316 2569 119 
Q 2244 -78 1831 -78 
Q 1128 -78 684 439 
Q 241 956 241 2144 
Q 241 3472 731 4075 
Q 1159 4600 1884 4600 
Q 2425 4600 2770 4297 
Q 3116 3994 3184 3459 
z
M 888 1484 
Q 888 1194 1011 928 
Q 1134 663 1356 523 
Q 1578 384 1822 384 
Q 2178 384 2434 671 
Q 2691 959 2691 1453 
Q 2691 1928 2437 2201 
Q 2184 2475 1800 2475 
Q 1419 2475 1153 2201 
Q 888 1928 888 1484 
z
" transform="scale(0.015625)"/>
       </defs>
       <use xlink:href="#ArialMT-32"/>
       <use xlink:href="#ArialMT-30" x="55.615234"/>
       <use xlink:href="#ArialMT-31" x="111.230469"/>
       <use xlink:href="#ArialMT-36" x="166.845703"/>
      </g>
     </g>
    </g>
    <g id="xtick_8">
     <g id="line2d_8">
      <path d="M 323.664168 354.575625 
L 323.664168 21.935625 
" clip-path="url(#p580c57cedc)" style="fill: none; stroke: #ffffff; stroke-width: 0.8; stroke-linecap: round"/>
     </g>
     <g id="text_8">
      <!-- 2017 -->
      <g style="fill: #262626" transform="translate(312.542293 368.733438)scale(0.1 -0.1)">
       <defs>
        <path id="ArialMT-37" d="M 303 3981 
L 303 4522 
L 3269 4522 
L 3269 4084 
Q 2831 3619 2401 2847 
Q 1972 2075 1738 1259 
Q 1569 684 1522 0 
L 944 0 
Q 953 541 1156 1306 
Q 1359 2072 1739 2783 
Q 2119 3494 2547 3981 
L 303 3981 
z
" transform="scale(0.015625)"/>
       </defs>
       <use xlink:href="#ArialMT-32"/>
       <use xlink:href="#ArialMT-30" x="55.615234"/>
       <use xlink:href="#ArialMT-31" x="111.230469"/>
       <use xlink:href="#ArialMT-37" x="166.845703"/>
      </g>
     </g>
    </g>
    <g id="xtick_9">
     <g id="line2d_9">
      <path d="M 362.660492 354.575625 
L 362.660492 21.935625 
" clip-path="url(#p580c57cedc)" style="fill: none; stroke: #ffffff; stroke-width: 0.8; stroke-linecap: round"/>
     </g>
     <g id="text_9">
      <!-- 2018 -->
      <g style="fill: #262626" transform="translate(351.538617 368.733438)scale(0.1 -0.1)">
       <defs>
        <path id="ArialMT-38" d="M 1131 2484 
Q 781 2613 612 2850 
Q 444 3088 444 3419 
Q 444 3919 803 4259 
Q 1163 4600 1759 4600 
Q 2359 4600 2725 4251 
Q 3091 3903 3091 3403 
Q 3091 3084 2923 2848 
Q 2756 2613 2416 2484 
Q 2838 2347 3058 2040 
Q 3278 1734 3278 1309 
Q 3278 722 2862 322 
Q 2447 -78 1769 -78 
Q 1091 -78 675 323 
Q 259 725 259 1325 
Q 259 1772 486 2073 
Q 713 2375 1131 2484 
z
M 1019 3438 
Q 1019 3113 1228 2906 
Q 1438 2700 1772 2700 
Q 2097 2700 2305 2904 
Q 2513 3109 2513 3406 
Q 2513 3716 2298 3927 
Q 2084 4138 1766 4138 
Q 1444 4138 1231 3931 
Q 1019 3725 1019 3438 
z
M 838 1322 
Q 838 1081 952 856 
Q 1066 631 1291 507 
Q 1516 384 1775 384 
Q 2178 384 2440 643 
Q 2703 903 2703 1303 
Q 2703 1709 2433 1975 
Q 2163 2241 1756 2241 
Q 1359 2241 1098 1978 
Q 838 1716 838 1322 
z
" transform="scale(0.015625)"/>
       </defs>
       <use xlink:href="#ArialMT-32"/>
       <use xlink:href="#ArialMT-30" x="55.615234"/>
       <use xlink:href="#ArialMT-31" x="111.230469"/>
       <use xlink:href="#ArialMT-38" x="166.845703"/>
      </g>
     </g>
    </g>
    <g id="xtick_10">
     <g id="line2d_10">
      <path d="M 401.656816 354.575625 
L 401.656816 21.935625 
" clip-path="url(#p580c57cedc)" style="fill: none; stroke: #ffffff; stroke-width: 0.8; stroke-linecap: round"/>
     </g>
     <g id="text_10">
      <!-- 2019 -->
      <g style="fill: #262626" transform="translate(390.534941 368.733438)scale(0.1 -0.1)">
       <defs>
        <path id="ArialMT-39" d="M 350 1059 
L 891 1109 
Q 959 728 1153 556 
Q 1347 384 1650 384 
Q 1909 384 2104 503 
Q 2300 622 2425 820 
Q 2550 1019 2634 1356 
Q 2719 1694 2719 2044 
Q 2719 2081 2716 2156 
Q 2547 1888 2255 1720 
Q 1963 1553 1622 1553 
Q 1053 1553 659 1965 
Q 266 2378 266 3053 
Q 266 3750 677 4175 
Q 1088 4600 1706 4600 
Q 2153 4600 2523 4359 
Q 2894 4119 3086 3673 
Q 3278 3228 3278 2384 
Q 3278 1506 3087 986 
Q 2897 466 2520 194 
Q 2144 -78 1638 -78 
Q 1100 -78 759 220 
Q 419 519 350 1059 
z
M 2653 3081 
Q 2653 3566 2395 3850 
Q 2138 4134 1775 4134 
Q 1400 4134 1122 3828 
Q 844 3522 844 3034 
Q 844 2597 1108 2323 
Q 1372 2050 1759 2050 
Q 2150 2050 2401 2323 
Q 2653 2597 2653 3081 
z
" transform="scale(0.015625)"/>
       </defs>
       <use xlink:href="#ArialMT-32"/>
       <use xlink:href="#ArialMT-30" x="55.615234"/>
       <use xlink:href="#ArialMT-31" x="111.230469"/>
       <use xlink:href="#ArialMT-39" x="166.845703"/>
      </g>
     </g>
    </g>
    <g id="xtick_11">
     <g id="line2d_11">
      <path d="M 440.65314 354.575625 
L 440.65314 21.935625 
" clip-path="url(#p580c57cedc)" style="fill: none; stroke: #ffffff; stroke-width: 0.8; stroke-linecap: round"/>
     </g>
     <g id="text_11">
      <!-- 2020 -->
      <g style="fill: #262626" transform="translate(429.531265 368.733438)scale(0.1 -0.1)">
       <use xlink:href="#ArialMT-32"/>
       <use xlink:href="#ArialMT-30" x="55.615234"/>
       <use xlink:href="#ArialMT-32" x="111.230469"/>
       <use xlink:href="#ArialMT-30" x="166.845703"/>
      </g>
     </g>
    </g>
    <g id="xtick_12">
     <g id="line2d_12">
      <path d="M 479.756303 354.575625 
L 479.756303 21.935625 
" clip-path="url(#p580c57cedc)" style="fill: none; stroke: #ffffff; stroke-width: 0.8; stroke-linecap: round"/>
     </g>
     <g id="text_12">
      <!-- 2021 -->
      <g style="fill: #262626" transform="translate(468.634428 368.733438)scale(0.1 -0.1)">
       <use xlink:href="#ArialMT-32"/>
       <use xlink:href="#ArialMT-30" x="55.615234"/>
       <use xlink:href="#ArialMT-32" x="111.230469"/>
       <use xlink:href="#ArialMT-31" x="166.845703"/>
      </g>
     </g>
    </g>
    <g id="xtick_13">
     <g id="line2d_13">
      <path d="M 518.752627 354.575625 
L 518.752627 21.935625 
" clip-path="url(#p580c57cedc)" style="fill: none; stroke: #ffffff; stroke-width: 0.8; stroke-linecap: round"/>
     </g>
     <g id="text_13">
      <!-- 2022 -->
      <g style="fill: #262626" transform="translate(507.630752 368.733438)scale(0.1 -0.1)">
       <use xlink:href="#ArialMT-32"/>
       <use xlink:href="#ArialMT-30" x="55.615234"/>
       <use xlink:href="#ArialMT-32" x="111.230469"/>
       <use xlink:href="#ArialMT-32" x="166.845703"/>
      </g>
     </g>
    </g>
    <g id="xtick_14">
     <g id="line2d_14">
      <path d="M 557.74895 354.575625 
L 557.74895 21.935625 
" clip-path="url(#p580c57cedc)" style="fill: none; stroke: #ffffff; stroke-width: 0.8; stroke-linecap: round"/>
     </g>
     <g id="text_14">
      <!-- 2023 -->
      <g style="fill: #262626" transform="translate(546.627075 368.733438)scale(0.1 -0.1)">
       <use xlink:href="#ArialMT-32"/>
       <use xlink:href="#ArialMT-30" x="55.615234"/>
       <use xlink:href="#ArialMT-32" x="111.230469"/>
       <use xlink:href="#ArialMT-33" x="166.845703"/>
      </g>
     </g>
    </g>
    <g id="xtick_15">
     <g id="line2d_15">
      <path d="M 596.745274 354.575625 
L 596.745274 21.935625 
" clip-path="url(#p580c57cedc)" style="fill: none; stroke: #ffffff; stroke-width: 0.8; stroke-linecap: round"/>
     </g>
     <g id="text_15">
      <!-- 2024 -->
      <g style="fill: #262626" transform="translate(585.623399 368.733438)scale(0.1 -0.1)">
       <use xlink:href="#ArialMT-32"/>
       <use xlink:href="#ArialMT-30" x="55.615234"/>
       <use xlink:href="#ArialMT-32" x="111.230469"/>
       <use xlink:href="#ArialMT-34" x="166.845703"/>
      </g>
     </g>
    </g>
    <g id="text_16">
     <!-- Period -->
     <g style="fill: #262626" transform="translate(305.792969 381.87875)scale(0.1 -0.1)">
      <defs>
       <path id="ArialMT-50" d="M 494 0 
L 494 4581 
L 2222 4581 
Q 2678 4581 2919 4538 
Q 3256 4481 3484 4323 
Q 3713 4166 3852 3881 
Q 3991 3597 3991 3256 
Q 3991 2672 3619 2267 
Q 3247 1863 2275 1863 
L 1100 1863 
L 1100 0 
L 494 0 
z
M 1100 2403 
L 2284 2403 
Q 2872 2403 3119 2622 
Q 3366 2841 3366 3238 
Q 3366 3525 3220 3729 
Q 3075 3934 2838 4000 
Q 2684 4041 2272 4041 
L 1100 4041 
L 1100 2403 
z
" transform="scale(0.015625)"/>
       <path id="ArialMT-65" d="M 2694 1069 
L 3275 997 
Q 3138 488 2766 206 
Q 2394 -75 1816 -75 
Q 1088 -75 661 373 
Q 234 822 234 1631 
Q 234 2469 665 2931 
Q 1097 3394 1784 3394 
Q 2450 3394 2872 2941 
Q 3294 2488 3294 1666 
Q 3294 1616 3291 1516 
L 816 1516 
Q 847 969 1125 678 
Q 1403 388 1819 388 
Q 2128 388 2347 550 
Q 2566 713 2694 1069 
z
M 847 1978 
L 2700 1978 
Q 2663 2397 2488 2606 
Q 2219 2931 1791 2931 
Q 1403 2931 1139 2672 
Q 875 2413 847 1978 
z
" transform="scale(0.015625)"/>
       <path id="ArialMT-72" d="M 416 0 
L 416 3319 
L 922 3319 
L 922 2816 
Q 1116 3169 1280 3281 
Q 1444 3394 1641 3394 
Q 1925 3394 2219 3213 
L 2025 2691 
Q 1819 2813 1613 2813 
Q 1428 2813 1281 2702 
Q 1134 2591 1072 2394 
Q 978 2094 978 1738 
L 978 0 
L 416 0 
z
" transform="scale(0.015625)"/>
       <path id="ArialMT-69" d="M 425 3934 
L 425 4581 
L 988 4581 
L 988 3934 
L 425 3934 
z
M 425 0 
L 425 3319 
L 988 3319 
L 988 0 
L 425 0 
z
" transform="scale(0.015625)"/>
       <path id="ArialMT-6f" d="M 213 1659 
Q 213 2581 725 3025 
Q 1153 3394 1769 3394 
Q 2453 3394 2887 2945 
Q 3322 2497 3322 1706 
Q 3322 1066 3130 698 
Q 2938 331 2570 128 
Q 2203 -75 1769 -75 
Q 1072 -75 642 372 
Q 213 819 213 1659 
z
M 791 1659 
Q 791 1022 1069 705 
Q 1347 388 1769 388 
Q 2188 388 2466 706 
Q 2744 1025 2744 1678 
Q 2744 2294 2464 2611 
Q 2184 2928 1769 2928 
Q 1347 2928 1069 2612 
Q 791 2297 791 1659 
z
" transform="scale(0.015625)"/>
       <path id="ArialMT-64" d="M 2575 0 
L 2575 419 
Q 2259 -75 1647 -75 
Q 1250 -75 917 144 
Q 584 363 401 755 
Q 219 1147 219 1656 
Q 219 2153 384 2558 
Q 550 2963 881 3178 
Q 1213 3394 1622 3394 
Q 1922 3394 2156 3267 
Q 2391 3141 2538 2938 
L 2538 4581 
L 3097 4581 
L 3097 0 
L 2575 0 
z
M 797 1656 
Q 797 1019 1065 703 
Q 1334 388 1700 388 
Q 2069 388 2326 689 
Q 2584 991 2584 1609 
Q 2584 2291 2321 2609 
Q 2059 2928 1675 2928 
Q 1300 2928 1048 2622 
Q 797 2316 797 1656 
z
" transform="scale(0.015625)"/>
      </defs>
      <use xlink:href="#ArialMT-50"/>
      <use xlink:href="#ArialMT-65" x="66.699219"/>
      <use xlink:href="#ArialMT-72" x="122.314453"/>
      <use xlink:href="#ArialMT-69" x="155.615234"/>
      <use xlink:href="#ArialMT-6f" x="177.832031"/>
      <use xlink:href="#ArialMT-64" x="233.447266"/>
     </g>
    </g>
   </g>
   <g id="matplotlib.axis_2">
    <g id="ytick_1">
     <g id="line2d_16">
      <path d="M 41.245313 337.847114 
L 599.245312 337.847114 
" clip-path="url(#p580c57cedc)" style="fill: none; stroke: #ffffff; stroke-width: 0.8; stroke-linecap: round"/>
     </g>
     <g id="text_17">
      <!-- 1.5 -->
      <g style="fill: #262626" transform="translate(20.345313 341.426021)scale(0.1 -0.1)">
       <defs>
        <path id="ArialMT-2e" d="M 581 0 
L 581 641 
L 1222 641 
L 1222 0 
L 581 0 
z
" transform="scale(0.015625)"/>
       </defs>
       <use xlink:href="#ArialMT-31"/>
       <use xlink:href="#ArialMT-2e" x="55.615234"/>
       <use xlink:href="#ArialMT-35" x="83.398438"/>
      </g>
     </g>
    </g>
    <g id="ytick_2">
     <g id="line2d_17">
      <path d="M 41.245313 297.634348 
L 599.245312 297.634348 
" clip-path="url(#p580c57cedc)" style="fill: none; stroke: #ffffff; stroke-width: 0.8; stroke-linecap: round"/>
     </g>
     <g id="text_18">
      <!-- 2.0 -->
      <g style="fill: #262626" transform="translate(20.345313 301.213255)scale(0.1 -0.1)">
       <use xlink:href="#ArialMT-32"/>
       <use xlink:href="#ArialMT-2e" x="55.615234"/>
       <use xlink:href="#ArialMT-30" x="83.398438"/>
      </g>
     </g>
    </g>
    <g id="ytick_3">
     <g id="line2d_18">
      <path d="M 41.245313 257.421582 
L 599.245312 257.421582 
" clip-path="url(#p580c57cedc)" style="fill: none; stroke: #ffffff; stroke-width: 0.8; stroke-linecap: round"/>
     </g>
     <g id="text_19">
      <!-- 2.5 -->
      <g style="fill: #262626" transform="translate(20.345313 261.000489)scale(0.1 -0.1)">
       <use xlink:href="#ArialMT-32"/>
       <use xlink:href="#ArialMT-2e" x="55.615234"/>
       <use xlink:href="#ArialMT-35" x="83.398438"/>
      </g>
     </g>
    </g>
    <g id="ytick_4">
     <g id="line2d_19">
      <path d="M 41.245313 217.208816 
L 599.245312 217.208816 
" clip-path="url(#p580c57cedc)" style="fill: none; stroke: #ffffff; stroke-width: 0.8; stroke-linecap: round"/>
     </g>
     <g id="text_20">
      <!-- 3.0 -->
      <g style="fill: #262626" transform="translate(20.345313 220.787723)scale(0.1 -0.1)">
       <use xlink:href="#ArialMT-33"/>
       <use xlink:href="#ArialMT-2e" x="55.615234"/>
       <use xlink:href="#ArialMT-30" x="83.398438"/>
      </g>
     </g>
    </g>
    <g id="ytick_5">
     <g id="line2d_20">
      <path d="M 41.245313 176.996051 
L 599.245312 176.996051 
" clip-path="url(#p580c57cedc)" style="fill: none; stroke: #ffffff; stroke-width: 0.8; stroke-linecap: round"/>
     </g>
     <g id="text_21">
      <!-- 3.5 -->
      <g style="fill: #262626" transform="translate(20.345313 180.574957)scale(0.1 -0.1)">
       <use xlink:href="#ArialMT-33"/>
       <use xlink:href="#ArialMT-2e" x="55.615234"/>
       <use xlink:href="#ArialMT-35" x="83.398438"/>
      </g>
     </g>
    </g>
    <g id="ytick_6">
     <g id="line2d_21">
      <path d="M 41.245313 136.783285 
L 599.245312 136.783285 
" clip-path="url(#p580c57cedc)" style="fill: none; stroke: #ffffff; stroke-width: 0.8; stroke-linecap: round"/>
     </g>
     <g id="text_22">
      <!-- 4.0 -->
      <g style="fill: #262626" transform="translate(20.345313 140.362191)scale(0.1 -0.1)">
       <use xlink:href="#ArialMT-34"/>
       <use xlink:href="#ArialMT-2e" x="55.615234"/>
       <use xlink:href="#ArialMT-30" x="83.398438"/>
      </g>
     </g>
    </g>
    <g id="ytick_7">
     <g id="line2d_22">
      <path d="M 41.245313 96.570519 
L 599.245312 96.570519 
" clip-path="url(#p580c57cedc)" style="fill: none; stroke: #ffffff; stroke-width: 0.8; stroke-linecap: round"/>
     </g>
     <g id="text_23">
      <!-- 4.5 -->
      <g style="fill: #262626" transform="translate(20.345313 100.149425)scale(0.1 -0.1)">
       <use xlink:href="#ArialMT-34"/>
       <use xlink:href="#ArialMT-2e" x="55.615234"/>
       <use xlink:href="#ArialMT-35" x="83.398438"/>
      </g>
     </g>
    </g>
    <g id="ytick_8">
     <g id="line2d_23">
      <path d="M 41.245313 56.357753 
L 599.245312 56.357753 
" clip-path="url(#p580c57cedc)" style="fill: none; stroke: #ffffff; stroke-width: 0.8; stroke-linecap: round"/>
     </g>
     <g id="text_24">
      <!-- 5.0 -->
      <g style="fill: #262626" transform="translate(20.345313 59.936659)scale(0.1 -0.1)">
       <use xlink:href="#ArialMT-35"/>
       <use xlink:href="#ArialMT-2e" x="55.615234"/>
       <use xlink:href="#ArialMT-30" x="83.398438"/>
      </g>
     </g>
    </g>
    <g id="text_25">
     <!-- Interest % -->
     <g style="fill: #262626" transform="translate(14.357813 210.764219)rotate(-90)scale(0.1 -0.1)">
      <defs>
       <path id="ArialMT-49" d="M 597 0 
L 597 4581 
L 1203 4581 
L 1203 0 
L 597 0 
z
" transform="scale(0.015625)"/>
       <path id="ArialMT-6e" d="M 422 0 
L 422 3319 
L 928 3319 
L 928 2847 
Q 1294 3394 1984 3394 
Q 2284 3394 2536 3286 
Q 2788 3178 2913 3003 
Q 3038 2828 3088 2588 
Q 3119 2431 3119 2041 
L 3119 0 
L 2556 0 
L 2556 2019 
Q 2556 2363 2490 2533 
Q 2425 2703 2258 2804 
Q 2091 2906 1866 2906 
Q 1506 2906 1245 2678 
Q 984 2450 984 1813 
L 984 0 
L 422 0 
z
" transform="scale(0.015625)"/>
       <path id="ArialMT-74" d="M 1650 503 
L 1731 6 
Q 1494 -44 1306 -44 
Q 1000 -44 831 53 
Q 663 150 594 308 
Q 525 466 525 972 
L 525 2881 
L 113 2881 
L 113 3319 
L 525 3319 
L 525 4141 
L 1084 4478 
L 1084 3319 
L 1650 3319 
L 1650 2881 
L 1084 2881 
L 1084 941 
Q 1084 700 1114 631 
Q 1144 563 1211 522 
Q 1278 481 1403 481 
Q 1497 481 1650 503 
z
" transform="scale(0.015625)"/>
       <path id="ArialMT-73" d="M 197 991 
L 753 1078 
Q 800 744 1014 566 
Q 1228 388 1613 388 
Q 2000 388 2187 545 
Q 2375 703 2375 916 
Q 2375 1106 2209 1216 
Q 2094 1291 1634 1406 
Q 1016 1563 777 1677 
Q 538 1791 414 1992 
Q 291 2194 291 2438 
Q 291 2659 392 2848 
Q 494 3038 669 3163 
Q 800 3259 1026 3326 
Q 1253 3394 1513 3394 
Q 1903 3394 2198 3281 
Q 2494 3169 2634 2976 
Q 2775 2784 2828 2463 
L 2278 2388 
Q 2241 2644 2061 2787 
Q 1881 2931 1553 2931 
Q 1166 2931 1000 2803 
Q 834 2675 834 2503 
Q 834 2394 903 2306 
Q 972 2216 1119 2156 
Q 1203 2125 1616 2013 
Q 2213 1853 2448 1751 
Q 2684 1650 2818 1456 
Q 2953 1263 2953 975 
Q 2953 694 2789 445 
Q 2625 197 2315 61 
Q 2006 -75 1616 -75 
Q 969 -75 630 194 
Q 291 463 197 991 
z
" transform="scale(0.015625)"/>
       <path id="ArialMT-20" transform="scale(0.015625)"/>
       <path id="ArialMT-25" d="M 372 3481 
Q 372 3972 619 4315 
Q 866 4659 1334 4659 
Q 1766 4659 2048 4351 
Q 2331 4044 2331 3447 
Q 2331 2866 2045 2552 
Q 1759 2238 1341 2238 
Q 925 2238 648 2547 
Q 372 2856 372 3481 
z
M 1350 4272 
Q 1141 4272 1002 4090 
Q 863 3909 863 3425 
Q 863 2984 1003 2804 
Q 1144 2625 1350 2625 
Q 1563 2625 1702 2806 
Q 1841 2988 1841 3469 
Q 1841 3913 1700 4092 
Q 1559 4272 1350 4272 
z
M 1353 -169 
L 3859 4659 
L 4316 4659 
L 1819 -169 
L 1353 -169 
z
M 3334 1075 
Q 3334 1569 3581 1911 
Q 3828 2253 4300 2253 
Q 4731 2253 5014 1945 
Q 5297 1638 5297 1041 
Q 5297 459 5011 145 
Q 4725 -169 4303 -169 
Q 3888 -169 3611 142 
Q 3334 453 3334 1075 
z
M 4316 1866 
Q 4103 1866 3964 1684 
Q 3825 1503 3825 1019 
Q 3825 581 3965 400 
Q 4106 219 4313 219 
Q 4528 219 4667 400 
Q 4806 581 4806 1063 
Q 4806 1506 4665 1686 
Q 4525 1866 4316 1866 
z
" transform="scale(0.015625)"/>
      </defs>
      <use xlink:href="#ArialMT-49"/>
      <use xlink:href="#ArialMT-6e" x="27.783203"/>
      <use xlink:href="#ArialMT-74" x="83.398438"/>
      <use xlink:href="#ArialMT-65" x="111.181641"/>
      <use xlink:href="#ArialMT-72" x="166.796875"/>
      <use xlink:href="#ArialMT-65" x="200.097656"/>
      <use xlink:href="#ArialMT-73" x="255.712891"/>
      <use xlink:href="#ArialMT-74" x="305.712891"/>
      <use xlink:href="#ArialMT-20" x="333.496094"/>
      <use xlink:href="#ArialMT-25" x="361.279297"/>
     </g>
    </g>
   </g>
   <g id="PolyCollection_1"/>
   <g id="PolyCollection_2"/>
   <g id="PolyCollection_3"/>
   <g id="PolyCollection_4"/>
   <g id="line2d_24">
    <path d="M 66.608949 100.591795 
L 69.814126 103.808816 
L 73.126143 107.830093 
L 76.438159 113.45988 
L 79.643337 116.676902 
L 82.955353 121.502434 
L 86.16053 123.915199 
L 89.472547 119.089668 
L 92.784563 119.089668 
L 95.776062 110.242859 
L 99.088079 96.570519 
L 102.293256 94.157753 
L 105.605273 93.353497 
L 108.81045 93.353497 
L 112.122467 94.962008 
L 115.434483 107.025838 
L 118.63966 111.047114 
L 125.156854 109.438604 
L 128.468871 110.242859 
L 131.780887 116.676902 
L 134.879225 122.306689 
L 138.191242 123.110944 
L 141.396419 133.566263 
L 144.708436 137.58754 
L 147.913613 147.238604 
L 151.22563 146.434348 
L 154.537646 152.064136 
L 157.742823 156.889668 
L 161.05484 159.302434 
L 164.260017 160.106689 
L 167.572034 152.868391 
L 170.88405 156.889668 
L 173.875549 162.519455 
L 177.187566 165.736476 
L 180.392743 176.191795 
L 183.70476 177.800306 
L 190.221953 187.45137 
L 193.53397 185.038604 
L 196.739147 190.668391 
L 200.051164 193.081157 
L 203.256341 191.472646 
L 206.568358 193.081157 
L 209.880374 202.732221 
L 212.871873 202.732221 
L 216.18389 203.536476 
L 219.389067 213.18754 
L 222.701083 219.621582 
L 225.906261 222.838604 
L 229.218277 221.230093 
L 232.530294 225.25137 
L 235.735471 227.664136 
L 239.047488 236.510944 
L 242.252665 243.749242 
L 245.564681 242.944987 
L 248.876698 240.532221 
L 251.868197 252.596051 
L 255.180213 254.204561 
L 258.385391 251.791795 
L 261.697407 255.008816 
L 264.902584 255.813072 
L 268.214601 255.813072 
L 271.526618 254.204561 
L 274.731795 259.030093 
L 278.043811 257.421582 
L 284.561005 260.638604 
L 287.873022 266.268391 
L 290.97136 273.506689 
L 294.283376 275.115199 
L 297.488554 279.136476 
L 300.80057 282.353497 
L 304.005748 290.396051 
L 307.317764 296.025838 
L 310.629781 294.417327 
L 313.834958 301.655625 
L 317.146974 292.808816 
L 320.352152 297.634348 
L 323.664168 296.025838 
L 326.976185 292.004561 
L 329.967684 289.591795 
L 333.2797 290.396051 
L 336.484877 290.396051 
L 339.796894 287.179029 
L 343.002071 284.766263 
L 346.314088 287.179029 
L 349.626104 287.983285 
L 352.831282 287.983285 
L 356.143298 287.179029 
L 359.348476 287.179029 
L 362.660492 291.200306 
L 365.972509 292.004561 
L 368.964007 290.396051 
L 372.276024 291.200306 
L 378.793218 291.200306 
L 385.310412 296.025838 
L 388.622428 293.613072 
L 391.827606 293.613072 
L 395.139622 291.200306 
L 398.344799 292.808816 
L 401.656816 293.613072 
L 404.968832 289.591795 
L 407.960331 291.200306 
L 411.272348 293.613072 
L 414.477525 292.808816 
L 417.789542 291.200306 
L 420.994719 295.221582 
L 424.306735 294.417327 
L 427.618752 302.45988 
L 430.823929 309.698178 
L 434.135946 304.872646 
L 437.341123 314.52371 
L 440.65314 314.52371 
L 443.965156 321.762008 
L 447.063494 321.762008 
L 450.375511 320.957753 
L 453.580688 320.957753 
L 456.892705 321.762008 
L 460.097882 319.349242 
L 463.409899 315.327965 
L 466.721915 315.327965 
L 469.927092 319.349242 
L 473.239109 319.349242 
L 476.444286 321.762008 
L 479.756303 325.783285 
L 483.068319 328.196051 
L 486.059818 332.217327 
L 492.577012 335.434348 
L 495.889029 334.630093 
L 499.094206 331.413072 
L 502.406222 332.217327 
L 505.718239 334.630093 
L 508.923416 328.196051 
L 512.235433 330.608816 
L 515.44061 328.196051 
L 518.752627 329.000306 
L 522.064643 327.391795 
L 525.056142 324.174774 
L 528.368158 317.740731 
L 531.573336 302.45988 
L 534.885352 281.549242 
L 538.09053 255.813072 
L 541.402546 232.489668 
L 544.714563 207.557753 
L 547.91974 177.800306 
L 551.231757 169.757753 
L 554.436934 160.106689 
L 557.74895 137.58754 
L 561.060967 111.047114 
L 564.052466 109.438604 
L 567.364482 103.808816 
L 570.56966 99.78754 
L 573.881676 105.417327 
L 573.881676 105.417327 
" clip-path="url(#p580c57cedc)" style="fill: none; stroke: #1f77b4; stroke-width: 1.5; stroke-linecap: round"/>
   </g>
   <g id="line2d_25">
    <path d="M 66.608949 70.030093 
L 69.814126 74.855625 
L 73.126143 80.485412 
L 76.438159 87.72371 
L 79.643337 90.940731 
L 82.955353 95.766263 
L 89.472547 89.332221 
L 92.784563 83.702434 
L 95.776062 74.05137 
L 99.088079 57.966263 
L 102.293256 49.92371 
L 105.605273 45.902434 
L 108.81045 43.489668 
L 112.122467 49.119455 
L 115.434483 57.162008 
L 118.63966 67.617327 
L 121.951677 75.65988 
L 125.156854 78.876902 
L 128.468871 75.65988 
L 131.780887 70.030093 
L 134.879225 74.05137 
L 138.191242 74.05137 
L 141.396419 78.072646 
L 144.708436 80.485412 
L 147.913613 83.702434 
L 151.22563 84.506689 
L 154.537646 84.506689 
L 157.742823 86.919455 
L 161.05484 91.744987 
L 164.260017 86.919455 
L 167.572034 86.115199 
L 170.88405 87.72371 
L 173.875549 86.919455 
L 177.187566 91.744987 
L 180.392743 108.634348 
L 183.70476 112.655625 
L 186.909937 117.481157 
L 190.221953 123.915199 
L 193.53397 123.110944 
L 196.739147 125.52371 
L 200.051164 129.544987 
L 203.256341 134.370519 
L 206.568358 140.804561 
L 209.880374 144.825838 
L 212.871873 150.455625 
L 216.18389 149.65137 
L 219.389067 154.476902 
L 222.701083 156.889668 
L 225.906261 160.910944 
L 229.218277 166.540731 
L 232.530294 175.38754 
L 235.735471 183.430093 
L 239.047488 195.493923 
L 242.252665 202.732221 
L 245.564681 203.536476 
L 248.876698 208.362008 
L 251.868197 213.18754 
L 255.180213 221.230093 
L 258.385391 235.706689 
L 261.697407 234.098178 
L 264.902584 235.706689 
L 268.214601 233.293923 
L 271.526618 234.902434 
L 274.731795 238.92371 
L 278.043811 238.92371 
L 281.248989 246.162008 
L 284.561005 242.140731 
L 287.873022 243.749242 
L 290.97136 249.379029 
L 294.283376 248.574774 
L 300.80057 256.617327 
L 304.005748 253.400306 
L 307.317764 259.834348 
L 310.629781 265.464136 
L 313.834958 272.702434 
L 317.146974 275.919455 
L 320.352152 277.527965 
L 323.664168 280.744987 
L 326.976185 275.115199 
L 329.967684 273.506689 
L 333.2797 270.289668 
L 336.484877 271.093923 
L 339.796894 273.506689 
L 343.002071 274.310944 
L 346.314088 275.919455 
L 349.626104 274.310944 
L 352.831282 275.115199 
L 356.143298 271.093923 
L 362.660492 274.310944 
L 365.972509 270.289668 
L 368.964007 271.093923 
L 372.276024 271.093923 
L 375.481201 269.485412 
L 378.793218 263.855625 
L 381.998395 266.268391 
L 385.310412 267.876902 
L 388.622428 268.681157 
L 391.827606 267.876902 
L 395.139622 266.268391 
L 398.344799 267.876902 
L 401.656816 267.876902 
L 404.968832 265.464136 
L 407.960331 265.464136 
L 414.477525 275.115199 
L 420.994719 286.374774 
L 424.306735 287.983285 
L 427.618752 288.78754 
L 430.823929 293.613072 
L 434.135946 267.876902 
L 437.341123 301.655625 
L 440.65314 300.85137 
L 443.965156 305.676902 
L 447.063494 306.481157 
L 450.375511 314.52371 
L 453.580688 315.327965 
L 456.892705 316.936476 
L 460.097882 316.936476 
L 463.409899 315.327965 
L 466.721915 316.936476 
L 469.927092 317.740731 
L 473.239109 316.936476 
L 476.444286 317.740731 
L 479.756303 320.957753 
L 483.068319 323.370519 
L 486.059818 323.370519 
L 489.371835 327.391795 
L 492.577012 326.58754 
L 495.889029 329.804561 
L 499.094206 329.804561 
L 502.406222 331.413072 
L 505.718239 333.825838 
L 508.923416 331.413072 
L 512.235433 332.217327 
L 515.44061 333.825838 
L 518.752627 333.021582 
L 522.064643 331.413072 
L 525.056142 323.370519 
L 531.573336 299.242859 
L 534.885352 285.570519 
L 538.09053 264.65988 
L 541.402546 241.336476 
L 544.714563 223.642859 
L 551.231757 194.689668 
L 554.436934 183.430093 
L 557.74895 178.604561 
L 561.060967 175.38754 
L 564.052466 185.842859 
L 570.56966 163.32371 
L 573.881676 160.910944 
L 573.881676 160.910944 
" clip-path="url(#p580c57cedc)" style="fill: none; stroke: #ff7f0e; stroke-width: 1.5; stroke-linecap: round"/>
   </g>
   <g id="line2d_26">
    <path d="M 66.608949 168.953497 
L 73.126143 167.344987 
L 76.438159 172.170519 
L 79.643337 176.191795 
L 82.955353 173.779029 
L 86.16053 170.562008 
L 89.472547 165.736476 
L 92.784563 168.953497 
L 95.776062 159.302434 
L 99.088079 154.476902 
L 102.293256 145.630093 
L 105.605273 144.021582 
L 108.81045 137.58754 
L 112.122467 138.391795 
L 115.434483 135.174774 
L 118.63966 137.58754 
L 121.951677 137.58754 
L 125.156854 135.174774 
L 128.468871 141.608816 
L 131.780887 140.804561 
L 134.879225 150.455625 
L 138.191242 155.281157 
L 141.396419 161.715199 
L 144.708436 162.519455 
L 147.913613 165.736476 
L 151.22563 164.932221 
L 154.537646 171.366263 
L 157.742823 176.996051 
L 161.05484 190.668391 
L 164.260017 195.493923 
L 167.572034 194.689668 
L 170.88405 200.319455 
L 173.875549 207.557753 
L 177.187566 209.970519 
L 180.392743 214.796051 
L 183.70476 218.817327 
L 186.909937 215.600306 
L 190.221953 222.034348 
L 193.53397 230.076902 
L 196.739147 234.098178 
L 200.051164 230.076902 
L 203.256341 228.468391 
L 206.568358 229.272646 
L 209.880374 238.92371 
L 212.871873 234.902434 
L 216.18389 237.315199 
L 219.389067 234.098178 
L 222.701083 241.336476 
L 225.906261 246.966263 
L 229.218277 243.749242 
L 232.530294 243.749242 
L 235.735471 250.98754 
L 239.047488 252.596051 
L 242.252665 259.834348 
L 245.564681 261.442859 
L 248.876698 259.030093 
L 251.868197 267.072646 
L 255.180213 268.681157 
L 258.385391 267.072646 
L 261.697407 270.289668 
L 264.902584 275.919455 
L 268.214601 275.115199 
L 271.526618 275.919455 
L 274.731795 283.157753 
L 278.043811 278.332221 
L 281.248989 279.940731 
L 284.561005 280.744987 
L 287.873022 289.591795 
L 290.97136 292.004561 
L 294.283376 295.221582 
L 297.488554 295.221582 
L 300.80057 297.634348 
L 304.005748 304.872646 
L 307.317764 301.655625 
L 310.629781 308.893923 
L 313.834958 314.52371 
L 320.352152 312.915199 
L 323.664168 314.52371 
L 326.976185 315.327965 
L 333.2797 315.327965 
L 336.484877 313.719455 
L 339.796894 314.52371 
L 343.002071 310.502434 
L 346.314088 307.285412 
L 349.626104 308.893923 
L 352.831282 312.110944 
L 356.143298 307.285412 
L 359.348476 310.502434 
L 362.660492 312.110944 
L 365.972509 311.306689 
L 368.964007 311.306689 
L 372.276024 312.915199 
L 375.481201 312.110944 
L 381.998395 313.719455 
L 385.310412 312.915199 
L 388.622428 314.52371 
L 391.827606 315.327965 
L 395.139622 313.719455 
L 401.656816 313.719455 
L 407.960331 312.110944 
L 411.272348 312.915199 
L 414.477525 311.306689 
L 417.789542 313.719455 
L 420.994719 312.915199 
L 424.306735 314.52371 
L 430.823929 322.566263 
L 434.135946 324.174774 
L 437.341123 324.979029 
L 440.65314 324.979029 
L 443.965156 329.804561 
L 447.063494 329.804561 
L 453.580688 328.196051 
L 456.892705 331.413072 
L 460.097882 330.608816 
L 463.409899 325.783285 
L 466.721915 327.391795 
L 469.927092 327.391795 
L 473.239109 328.196051 
L 476.444286 329.804561 
L 483.068319 336.238604 
L 486.059818 337.847114 
L 489.371835 337.847114 
L 492.577012 336.238604 
L 495.889029 335.434348 
L 499.094206 336.238604 
L 502.406222 336.238604 
L 505.718239 338.65137 
L 508.923416 339.455625 
L 512.235433 337.847114 
L 515.44061 337.042859 
L 518.752627 337.847114 
L 522.064643 337.847114 
L 525.056142 329.804561 
L 528.368158 328.196051 
L 534.885352 292.004561 
L 538.09053 273.506689 
L 544.714563 246.162008 
L 547.91974 213.18754 
L 551.231757 195.493923 
L 557.74895 153.672646 
L 561.060967 139.196051 
L 564.052466 125.52371 
L 567.364482 117.481157 
L 570.56966 113.45988 
L 573.881676 103.808816 
L 573.881676 103.808816 
" clip-path="url(#p580c57cedc)" style="fill: none; stroke: #2ca02c; stroke-width: 1.5; stroke-linecap: round"/>
   </g>
   <g id="line2d_27">
    <path d="M 66.608949 46.706689 
L 69.814126 51.532221 
L 76.438159 62.791795 
L 79.643337 65.204561 
L 82.955353 68.421582 
L 86.16053 64.400306 
L 89.472547 69.225838 
L 92.784563 63.596051 
L 95.776062 53.944987 
L 99.088079 45.098178 
L 102.293256 37.85988 
L 105.605273 37.055625 
L 108.81045 37.055625 
L 112.122467 39.468391 
L 115.434483 44.293923 
L 118.63966 49.92371 
L 121.951677 47.510944 
L 125.156854 51.532221 
L 128.468871 49.92371 
L 131.780887 47.510944 
L 134.879225 46.706689 
L 138.191242 49.92371 
L 141.396419 49.119455 
L 144.708436 49.92371 
L 147.913613 54.749242 
L 154.537646 51.532221 
L 157.742823 49.119455 
L 161.05484 52.336476 
L 164.260017 54.749242 
L 167.572034 52.336476 
L 170.88405 53.140731 
L 173.875549 60.379029 
L 177.187566 65.204561 
L 180.392743 62.791795 
L 183.70476 61.183285 
L 186.909937 64.400306 
L 190.221953 65.204561 
L 193.53397 70.834348 
L 196.739147 66.813072 
L 200.051164 78.072646 
L 203.256341 81.289668 
L 206.568358 78.072646 
L 209.880374 86.115199 
L 212.871873 90.136476 
L 216.18389 82.898178 
L 219.389067 91.744987 
L 222.701083 98.179029 
L 225.906261 91.744987 
L 229.218277 126.327965 
L 232.530294 138.391795 
L 235.735471 142.413072 
L 239.047488 149.65137 
L 242.252665 154.476902 
L 245.564681 147.238604 
L 248.876698 157.693923 
L 251.868197 168.149242 
L 255.180213 181.017327 
L 258.385391 189.05988 
L 261.697407 190.668391 
L 264.902584 200.319455 
L 271.526618 197.102434 
L 274.731795 192.276902 
L 278.043811 192.276902 
L 281.248989 199.515199 
L 284.561005 194.689668 
L 287.873022 201.927965 
L 290.97136 205.144987 
L 294.283376 209.166263 
L 297.488554 206.753497 
L 300.80057 209.970519 
L 304.005748 201.12371 
L 307.317764 206.753497 
L 310.629781 213.18754 
L 313.834958 218.817327 
L 317.146974 217.208816 
L 320.352152 221.230093 
L 323.664168 229.272646 
L 326.976185 224.447114 
L 329.967684 223.642859 
L 333.2797 226.055625 
L 336.484877 225.25137 
L 339.796894 221.230093 
L 343.002071 219.621582 
L 349.626104 219.621582 
L 352.831282 216.404561 
L 356.143298 218.013072 
L 359.348476 222.838604 
L 362.660492 226.85988 
L 365.972509 224.447114 
L 368.964007 226.055625 
L 372.276024 226.85988 
L 375.481201 230.076902 
L 378.793218 231.685412 
L 381.998395 236.510944 
L 385.310412 238.119455 
L 388.622428 237.315199 
L 391.827606 234.098178 
L 395.139622 233.293923 
L 398.344799 235.706689 
L 401.656816 235.706689 
L 404.968832 233.293923 
L 407.960331 229.272646 
L 411.272348 234.902434 
L 414.477525 237.315199 
L 417.789542 236.510944 
L 420.994719 242.944987 
L 424.306735 246.162008 
L 427.618752 250.183285 
L 430.823929 259.834348 
L 434.135946 209.970519 
L 437.341123 271.093923 
L 440.65314 278.332221 
L 443.965156 283.962008 
L 447.063494 283.962008 
L 450.375511 289.591795 
L 453.580688 288.78754 
L 456.892705 292.004561 
L 460.097882 293.613072 
L 463.409899 293.613072 
L 466.721915 295.221582 
L 469.927092 296.025838 
L 473.239109 298.438604 
L 476.444286 299.242859 
L 479.756303 303.264136 
L 483.068319 306.481157 
L 486.059818 305.676902 
L 489.371835 312.110944 
L 492.577012 312.110944 
L 495.889029 315.327965 
L 499.094206 316.936476 
L 502.406222 317.740731 
L 505.718239 316.936476 
L 508.923416 316.936476 
L 515.44061 318.544987 
L 518.752627 315.327965 
L 522.064643 315.327965 
L 525.056142 306.481157 
L 528.368158 295.221582 
L 531.573336 287.179029 
L 534.885352 275.115199 
L 538.09053 259.834348 
L 541.402546 245.357753 
L 544.714563 232.489668 
L 547.91974 221.230093 
L 551.231757 213.18754 
L 554.436934 204.340731 
L 557.74895 205.144987 
L 561.060967 207.557753 
L 564.052466 216.404561 
L 567.364482 202.732221 
L 570.56966 193.081157 
L 573.881676 188.255625 
L 573.881676 188.255625 
" clip-path="url(#p580c57cedc)" style="fill: none; stroke: #d62728; stroke-width: 1.5; stroke-linecap: round"/>
   </g>
   <g id="line2d_28"/>
   <g id="line2d_29"/>
   <g id="line2d_30"/>
   <g id="line2d_31"/>
   <g id="patch_3">
    <path d="M 41.245313 354.575625 
L 41.245313 21.935625 
" style="fill: none; stroke: #ffffff; stroke-width: 0.8; stroke-linejoin: miter; stroke-linecap: square"/>
   </g>
   <g id="patch_4">
    <path d="M 599.245312 354.575625 
L 599.245312 21.935625 
" style="fill: none; stroke: #ffffff; stroke-width: 0.8; stroke-linejoin: miter; stroke-linecap: square"/>
   </g>
   <g id="patch_5">
    <path d="M 41.245312 354.575625 
L 599.245312 354.575625 
" style="fill: none; stroke: #ffffff; stroke-width: 0.8; stroke-linejoin: miter; stroke-linecap: square"/>
   </g>
   <g id="patch_6">
    <path d="M 41.245312 21.935625 
L 599.245312 21.935625 
" style="fill: none; stroke: #ffffff; stroke-width: 0.8; stroke-linejoin: miter; stroke-linecap: square"/>
   </g>
   <g id="text_26">
    <!-- Loans to households for house purchase with collateral (new business) - Netherlands -->
    <g style="fill: #262626" transform="translate(94.133438 15.935625)scale(0.12 -0.12)">
     <defs>
      <path id="ArialMT-4c" d="M 469 0 
L 469 4581 
L 1075 4581 
L 1075 541 
L 3331 541 
L 3331 0 
L 469 0 
z
" transform="scale(0.015625)"/>
      <path id="ArialMT-61" d="M 2588 409 
Q 2275 144 1986 34 
Q 1697 -75 1366 -75 
Q 819 -75 525 192 
Q 231 459 231 875 
Q 231 1119 342 1320 
Q 453 1522 633 1644 
Q 813 1766 1038 1828 
Q 1203 1872 1538 1913 
Q 2219 1994 2541 2106 
Q 2544 2222 2544 2253 
Q 2544 2597 2384 2738 
Q 2169 2928 1744 2928 
Q 1347 2928 1158 2789 
Q 969 2650 878 2297 
L 328 2372 
Q 403 2725 575 2942 
Q 747 3159 1072 3276 
Q 1397 3394 1825 3394 
Q 2250 3394 2515 3294 
Q 2781 3194 2906 3042 
Q 3031 2891 3081 2659 
Q 3109 2516 3109 2141 
L 3109 1391 
Q 3109 606 3145 398 
Q 3181 191 3288 0 
L 2700 0 
Q 2613 175 2588 409 
z
M 2541 1666 
Q 2234 1541 1622 1453 
Q 1275 1403 1131 1340 
Q 988 1278 909 1158 
Q 831 1038 831 891 
Q 831 666 1001 516 
Q 1172 366 1500 366 
Q 1825 366 2078 508 
Q 2331 650 2450 897 
Q 2541 1088 2541 1459 
L 2541 1666 
z
" transform="scale(0.015625)"/>
      <path id="ArialMT-68" d="M 422 0 
L 422 4581 
L 984 4581 
L 984 2938 
Q 1378 3394 1978 3394 
Q 2347 3394 2619 3248 
Q 2891 3103 3008 2847 
Q 3125 2591 3125 2103 
L 3125 0 
L 2563 0 
L 2563 2103 
Q 2563 2525 2380 2717 
Q 2197 2909 1863 2909 
Q 1613 2909 1392 2779 
Q 1172 2650 1078 2428 
Q 984 2206 984 1816 
L 984 0 
L 422 0 
z
" transform="scale(0.015625)"/>
      <path id="ArialMT-75" d="M 2597 0 
L 2597 488 
Q 2209 -75 1544 -75 
Q 1250 -75 995 37 
Q 741 150 617 320 
Q 494 491 444 738 
Q 409 903 409 1263 
L 409 3319 
L 972 3319 
L 972 1478 
Q 972 1038 1006 884 
Q 1059 663 1231 536 
Q 1403 409 1656 409 
Q 1909 409 2131 539 
Q 2353 669 2445 892 
Q 2538 1116 2538 1541 
L 2538 3319 
L 3100 3319 
L 3100 0 
L 2597 0 
z
" transform="scale(0.015625)"/>
      <path id="ArialMT-6c" d="M 409 0 
L 409 4581 
L 972 4581 
L 972 0 
L 409 0 
z
" transform="scale(0.015625)"/>
      <path id="ArialMT-66" d="M 556 0 
L 556 2881 
L 59 2881 
L 59 3319 
L 556 3319 
L 556 3672 
Q 556 4006 616 4169 
Q 697 4388 901 4523 
Q 1106 4659 1475 4659 
Q 1713 4659 2000 4603 
L 1916 4113 
Q 1741 4144 1584 4144 
Q 1328 4144 1222 4034 
Q 1116 3925 1116 3625 
L 1116 3319 
L 1763 3319 
L 1763 2881 
L 1116 2881 
L 1116 0 
L 556 0 
z
" transform="scale(0.015625)"/>
      <path id="ArialMT-70" d="M 422 -1272 
L 422 3319 
L 934 3319 
L 934 2888 
Q 1116 3141 1344 3267 
Q 1572 3394 1897 3394 
Q 2322 3394 2647 3175 
Q 2972 2956 3137 2557 
Q 3303 2159 3303 1684 
Q 3303 1175 3120 767 
Q 2938 359 2589 142 
Q 2241 -75 1856 -75 
Q 1575 -75 1351 44 
Q 1128 163 984 344 
L 984 -1272 
L 422 -1272 
z
M 931 1641 
Q 931 1000 1190 694 
Q 1450 388 1819 388 
Q 2194 388 2461 705 
Q 2728 1022 2728 1688 
Q 2728 2322 2467 2637 
Q 2206 2953 1844 2953 
Q 1484 2953 1207 2617 
Q 931 2281 931 1641 
z
" transform="scale(0.015625)"/>
      <path id="ArialMT-63" d="M 2588 1216 
L 3141 1144 
Q 3050 572 2676 248 
Q 2303 -75 1759 -75 
Q 1078 -75 664 370 
Q 250 816 250 1647 
Q 250 2184 428 2587 
Q 606 2991 970 3192 
Q 1334 3394 1763 3394 
Q 2303 3394 2647 3120 
Q 2991 2847 3088 2344 
L 2541 2259 
Q 2463 2594 2264 2762 
Q 2066 2931 1784 2931 
Q 1359 2931 1093 2626 
Q 828 2322 828 1663 
Q 828 994 1084 691 
Q 1341 388 1753 388 
Q 2084 388 2306 591 
Q 2528 794 2588 1216 
z
" transform="scale(0.015625)"/>
      <path id="ArialMT-77" d="M 1034 0 
L 19 3319 
L 600 3319 
L 1128 1403 
L 1325 691 
Q 1338 744 1497 1375 
L 2025 3319 
L 2603 3319 
L 3100 1394 
L 3266 759 
L 3456 1400 
L 4025 3319 
L 4572 3319 
L 3534 0 
L 2950 0 
L 2422 1988 
L 2294 2553 
L 1622 0 
L 1034 0 
z
" transform="scale(0.015625)"/>
      <path id="ArialMT-28" d="M 1497 -1347 
Q 1031 -759 709 28 
Q 388 816 388 1659 
Q 388 2403 628 3084 
Q 909 3875 1497 4659 
L 1900 4659 
Q 1522 4009 1400 3731 
Q 1209 3300 1100 2831 
Q 966 2247 966 1656 
Q 966 153 1900 -1347 
L 1497 -1347 
z
" transform="scale(0.015625)"/>
      <path id="ArialMT-62" d="M 941 0 
L 419 0 
L 419 4581 
L 981 4581 
L 981 2947 
Q 1338 3394 1891 3394 
Q 2197 3394 2470 3270 
Q 2744 3147 2920 2923 
Q 3097 2700 3197 2384 
Q 3297 2069 3297 1709 
Q 3297 856 2875 390 
Q 2453 -75 1863 -75 
Q 1275 -75 941 416 
L 941 0 
z
M 934 1684 
Q 934 1088 1097 822 
Q 1363 388 1816 388 
Q 2184 388 2453 708 
Q 2722 1028 2722 1663 
Q 2722 2313 2464 2622 
Q 2206 2931 1841 2931 
Q 1472 2931 1203 2611 
Q 934 2291 934 1684 
z
" transform="scale(0.015625)"/>
      <path id="ArialMT-29" d="M 791 -1347 
L 388 -1347 
Q 1322 153 1322 1656 
Q 1322 2244 1188 2822 
Q 1081 3291 891 3722 
Q 769 4003 388 4659 
L 791 4659 
Q 1378 3875 1659 3084 
Q 1900 2403 1900 1659 
Q 1900 816 1576 28 
Q 1253 -759 791 -1347 
z
" transform="scale(0.015625)"/>
      <path id="ArialMT-2d" d="M 203 1375 
L 203 1941 
L 1931 1941 
L 1931 1375 
L 203 1375 
z
" transform="scale(0.015625)"/>
      <path id="ArialMT-4e" d="M 488 0 
L 488 4581 
L 1109 4581 
L 3516 984 
L 3516 4581 
L 4097 4581 
L 4097 0 
L 3475 0 
L 1069 3600 
L 1069 0 
L 488 0 
z
" transform="scale(0.015625)"/>
     </defs>
     <use xlink:href="#ArialMT-4c"/>
     <use xlink:href="#ArialMT-6f" x="55.615234"/>
     <use xlink:href="#ArialMT-61" x="111.230469"/>
     <use xlink:href="#ArialMT-6e" x="166.845703"/>
     <use xlink:href="#ArialMT-73" x="222.460938"/>
     <use xlink:href="#ArialMT-20" x="272.460938"/>
     <use xlink:href="#ArialMT-74" x="300.244141"/>
     <use xlink:href="#ArialMT-6f" x="328.027344"/>
     <use xlink:href="#ArialMT-20" x="383.642578"/>
     <use xlink:href="#ArialMT-68" x="411.425781"/>
     <use xlink:href="#ArialMT-6f" x="467.041016"/>
     <use xlink:href="#ArialMT-75" x="522.65625"/>
     <use xlink:href="#ArialMT-73" x="578.271484"/>
     <use xlink:href="#ArialMT-65" x="628.271484"/>
     <use xlink:href="#ArialMT-68" x="683.886719"/>
     <use xlink:href="#ArialMT-6f" x="739.501953"/>
     <use xlink:href="#ArialMT-6c" x="795.117188"/>
     <use xlink:href="#ArialMT-64" x="817.333984"/>
     <use xlink:href="#ArialMT-73" x="872.949219"/>
     <use xlink:href="#ArialMT-20" x="922.949219"/>
     <use xlink:href="#ArialMT-66" x="950.732422"/>
     <use xlink:href="#ArialMT-6f" x="978.515625"/>
     <use xlink:href="#ArialMT-72" x="1034.130859"/>
     <use xlink:href="#ArialMT-20" x="1067.431641"/>
     <use xlink:href="#ArialMT-68" x="1095.214844"/>
     <use xlink:href="#ArialMT-6f" x="1150.830078"/>
     <use xlink:href="#ArialMT-75" x="1206.445312"/>
     <use xlink:href="#ArialMT-73" x="1262.060547"/>
     <use xlink:href="#ArialMT-65" x="1312.060547"/>
     <use xlink:href="#ArialMT-20" x="1367.675781"/>
     <use xlink:href="#ArialMT-70" x="1395.458984"/>
     <use xlink:href="#ArialMT-75" x="1451.074219"/>
     <use xlink:href="#ArialMT-72" x="1506.689453"/>
     <use xlink:href="#ArialMT-63" x="1539.990234"/>
     <use xlink:href="#ArialMT-68" x="1589.990234"/>
     <use xlink:href="#ArialMT-61" x="1645.605469"/>
     <use xlink:href="#ArialMT-73" x="1701.220703"/>
     <use xlink:href="#ArialMT-65" x="1751.220703"/>
     <use xlink:href="#ArialMT-20" x="1806.835938"/>
     <use xlink:href="#ArialMT-77" x="1834.619141"/>
     <use xlink:href="#ArialMT-69" x="1906.835938"/>
     <use xlink:href="#ArialMT-74" x="1929.052734"/>
     <use xlink:href="#ArialMT-68" x="1956.835938"/>
     <use xlink:href="#ArialMT-20" x="2012.451172"/>
     <use xlink:href="#ArialMT-63" x="2040.234375"/>
     <use xlink:href="#ArialMT-6f" x="2090.234375"/>
     <use xlink:href="#ArialMT-6c" x="2145.849609"/>
     <use xlink:href="#ArialMT-6c" x="2168.066406"/>
     <use xlink:href="#ArialMT-61" x="2190.283203"/>
     <use xlink:href="#ArialMT-74" x="2245.898438"/>
     <use xlink:href="#ArialMT-65" x="2273.681641"/>
     <use xlink:href="#ArialMT-72" x="2329.296875"/>
     <use xlink:href="#ArialMT-61" x="2362.597656"/>
     <use xlink:href="#ArialMT-6c" x="2418.212891"/>
     <use xlink:href="#ArialMT-20" x="2440.429688"/>
     <use xlink:href="#ArialMT-28" x="2468.212891"/>
     <use xlink:href="#ArialMT-6e" x="2501.513672"/>
     <use xlink:href="#ArialMT-65" x="2557.128906"/>
     <use xlink:href="#ArialMT-77" x="2612.744141"/>
     <use xlink:href="#ArialMT-20" x="2684.960938"/>
     <use xlink:href="#ArialMT-62" x="2712.744141"/>
     <use xlink:href="#ArialMT-75" x="2768.359375"/>
     <use xlink:href="#ArialMT-73" x="2823.974609"/>
     <use xlink:href="#ArialMT-69" x="2873.974609"/>
     <use xlink:href="#ArialMT-6e" x="2896.191406"/>
     <use xlink:href="#ArialMT-65" x="2951.806641"/>
     <use xlink:href="#ArialMT-73" x="3007.421875"/>
     <use xlink:href="#ArialMT-73" x="3057.421875"/>
     <use xlink:href="#ArialMT-29" x="3107.421875"/>
     <use xlink:href="#ArialMT-20" x="3140.722656"/>
     <use xlink:href="#ArialMT-2d" x="3168.505859"/>
     <use xlink:href="#ArialMT-20" x="3201.806641"/>
     <use xlink:href="#ArialMT-4e" x="3229.589844"/>
     <use xlink:href="#ArialMT-65" x="3301.806641"/>
     <use xlink:href="#ArialMT-74" x="3357.421875"/>
     <use xlink:href="#ArialMT-68" x="3385.205078"/>
     <use xlink:href="#ArialMT-65" x="3440.820312"/>
     <use xlink:href="#ArialMT-72" x="3496.435547"/>
     <use xlink:href="#ArialMT-6c" x="3529.736328"/>
     <use xlink:href="#ArialMT-61" x="3551.953125"/>
     <use xlink:href="#ArialMT-6e" x="3607.568359"/>
     <use xlink:href="#ArialMT-64" x="3663.183594"/>
     <use xlink:href="#ArialMT-73" x="3718.798828"/>
    </g>
   </g>
   <g id="legend_1">
    <g id="patch_7">
     <path d="M 48.245313 349.575625 
L 129.998438 349.575625 
Q 131.998438 349.575625 131.998438 347.575625 
L 131.998438 277.139688 
Q 131.998438 275.139688 129.998438 275.139688 
L 48.245313 275.139688 
Q 46.245313 275.139688 46.245313 277.139688 
L 46.245313 347.575625 
Q 46.245313 349.575625 48.245313 349.575625 
z
" style="fill: #eaeaf2; opacity: 0.8; stroke: #cccccc; stroke-linejoin: miter"/>
    </g>
    <g id="text_27">
     <!-- fixed_period -->
     <g style="fill: #262626" transform="translate(61.882813 286.419375)scale(0.1 -0.1)">
      <defs>
       <path id="ArialMT-78" d="M 47 0 
L 1259 1725 
L 138 3319 
L 841 3319 
L 1350 2541 
Q 1494 2319 1581 2169 
Q 1719 2375 1834 2534 
L 2394 3319 
L 3066 3319 
L 1919 1756 
L 3153 0 
L 2463 0 
L 1781 1031 
L 1600 1309 
L 728 0 
L 47 0 
z
" transform="scale(0.015625)"/>
       <path id="ArialMT-5f" d="M -97 -1272 
L -97 -866 
L 3631 -866 
L 3631 -1272 
L -97 -1272 
z
" transform="scale(0.015625)"/>
      </defs>
      <use xlink:href="#ArialMT-66"/>
      <use xlink:href="#ArialMT-69" x="27.783203"/>
      <use xlink:href="#ArialMT-78" x="50"/>
      <use xlink:href="#ArialMT-65" x="100"/>
      <use xlink:href="#ArialMT-64" x="155.615234"/>
      <use xlink:href="#ArialMT-5f" x="211.230469"/>
      <use xlink:href="#ArialMT-70" x="266.845703"/>
      <use xlink:href="#ArialMT-65" x="322.460938"/>
      <use xlink:href="#ArialMT-72" x="378.076172"/>
      <use xlink:href="#ArialMT-69" x="411.376953"/>
      <use xlink:href="#ArialMT-6f" x="433.59375"/>
      <use xlink:href="#ArialMT-64" x="489.208984"/>
     </g>
    </g>
    <g id="line2d_32">
     <path d="M 50.245313 297.094375 
L 60.245313 297.094375 
L 70.245313 297.094375 
" style="fill: none; stroke: #1f77b4; stroke-width: 1.5; stroke-linecap: round"/>
    </g>
    <g id="text_28">
     <!-- 1&gt;5 years -->
     <g style="fill: #262626" transform="translate(78.245313 300.594375)scale(0.1 -0.1)">
      <defs>
       <path id="ArialMT-3e" d="M 3384 2003 
L 350 706 
L 350 1266 
L 2753 2263 
L 350 3250 
L 350 3809 
L 3384 2528 
L 3384 2003 
z
" transform="scale(0.015625)"/>
       <path id="ArialMT-79" d="M 397 -1278 
L 334 -750 
Q 519 -800 656 -800 
Q 844 -800 956 -737 
Q 1069 -675 1141 -563 
Q 1194 -478 1313 -144 
Q 1328 -97 1363 -6 
L 103 3319 
L 709 3319 
L 1400 1397 
Q 1534 1031 1641 628 
Q 1738 1016 1872 1384 
L 2581 3319 
L 3144 3319 
L 1881 -56 
Q 1678 -603 1566 -809 
Q 1416 -1088 1222 -1217 
Q 1028 -1347 759 -1347 
Q 597 -1347 397 -1278 
z
" transform="scale(0.015625)"/>
      </defs>
      <use xlink:href="#ArialMT-31"/>
      <use xlink:href="#ArialMT-3e" x="55.615234"/>
      <use xlink:href="#ArialMT-35" x="114.013672"/>
      <use xlink:href="#ArialMT-20" x="169.628906"/>
      <use xlink:href="#ArialMT-79" x="197.412109"/>
      <use xlink:href="#ArialMT-65" x="247.412109"/>
      <use xlink:href="#ArialMT-61" x="303.027344"/>
      <use xlink:href="#ArialMT-72" x="358.642578"/>
      <use xlink:href="#ArialMT-73" x="391.943359"/>
     </g>
    </g>
    <g id="line2d_33">
     <path d="M 50.245313 311.386562 
L 60.245313 311.386562 
L 70.245313 311.386562 
" style="fill: none; stroke: #ff7f0e; stroke-width: 1.5; stroke-linecap: round"/>
    </g>
    <g id="text_29">
     <!-- 5&gt;10 years -->
     <g style="fill: #262626" transform="translate(78.245313 314.886562)scale(0.1 -0.1)">
      <use xlink:href="#ArialMT-35"/>
      <use xlink:href="#ArialMT-3e" x="55.615234"/>
      <use xlink:href="#ArialMT-31" x="114.013672"/>
      <use xlink:href="#ArialMT-30" x="169.628906"/>
      <use xlink:href="#ArialMT-20" x="225.244141"/>
      <use xlink:href="#ArialMT-79" x="253.027344"/>
      <use xlink:href="#ArialMT-65" x="303.027344"/>
      <use xlink:href="#ArialMT-61" x="358.642578"/>
      <use xlink:href="#ArialMT-72" x="414.257812"/>
      <use xlink:href="#ArialMT-73" x="447.558594"/>
     </g>
    </g>
    <g id="line2d_34">
     <path d="M 50.245313 325.67875 
L 60.245313 325.67875 
L 70.245313 325.67875 
" style="fill: none; stroke: #2ca02c; stroke-width: 1.5; stroke-linecap: round"/>
    </g>
    <g id="text_30">
     <!-- &lt;= 1 year -->
     <g style="fill: #262626" transform="translate(78.245313 329.17875)scale(0.1 -0.1)">
      <defs>
       <path id="ArialMT-3c" d="M 350 2003 
L 350 2528 
L 3384 3809 
L 3384 3250 
L 978 2263 
L 3384 1266 
L 3384 706 
L 350 2003 
z
" transform="scale(0.015625)"/>
       <path id="ArialMT-3d" d="M 3381 2694 
L 356 2694 
L 356 3219 
L 3381 3219 
L 3381 2694 
z
M 3381 1303 
L 356 1303 
L 356 1828 
L 3381 1828 
L 3381 1303 
z
" transform="scale(0.015625)"/>
      </defs>
      <use xlink:href="#ArialMT-3c"/>
      <use xlink:href="#ArialMT-3d" x="58.398438"/>
      <use xlink:href="#ArialMT-20" x="116.796875"/>
      <use xlink:href="#ArialMT-31" x="144.580078"/>
      <use xlink:href="#ArialMT-20" x="200.195312"/>
      <use xlink:href="#ArialMT-79" x="227.978516"/>
      <use xlink:href="#ArialMT-65" x="277.978516"/>
      <use xlink:href="#ArialMT-61" x="333.59375"/>
      <use xlink:href="#ArialMT-72" x="389.208984"/>
     </g>
    </g>
    <g id="line2d_35">
     <path d="M 50.245313 339.970937 
L 60.245313 339.970937 
L 70.245313 339.970937 
" style="fill: none; stroke: #d62728; stroke-width: 1.5; stroke-linecap: round"/>
    </g>
    <g id="text_31">
     <!-- &gt;10 years -->
     <g style="fill: #262626" transform="translate(78.245313 343.470937)scale(0.1 -0.1)">
      <use xlink:href="#ArialMT-3e"/>
      <use xlink:href="#ArialMT-31" x="58.398438"/>
      <use xlink:href="#ArialMT-30" x="114.013672"/>
      <use xlink:href="#ArialMT-20" x="169.628906"/>
      <use xlink:href="#ArialMT-79" x="197.412109"/>
      <use xlink:href="#ArialMT-65" x="247.412109"/>
      <use xlink:href="#ArialMT-61" x="303.027344"/>
      <use xlink:href="#ArialMT-72" x="358.642578"/>
      <use xlink:href="#ArialMT-73" x="391.943359"/>
     </g>
    </g>
   </g>
  </g>
 </g>
 <defs>
  <clipPath id="p580c57cedc">
   <rect x="41.245313" y="21.935625" width="558" height="332.64"/>
  </clipPath>
 </defs>
</svg>
