<?xml version="1.0" encoding="utf-8" standalone="no"?>
<!DOCTYPE svg PUBLIC "-//W3C//DTD SVG 1.1//EN"
  "http://www.w3.org/Graphics/SVG/1.1/DTD/svg11.dtd">
<svg xmlns:xlink="http://www.w3.org/1999/xlink" width="636.942734pt" height="396.309844pt" viewBox="0 0 636.942734 396.309844" xmlns="http://www.w3.org/2000/svg" version="1.1">
 <metadata>
  <rdf:RDF xmlns:dc="http://purl.org/dc/elements/1.1/" xmlns:cc="http://creativecommons.org/ns#" xmlns:rdf="http://www.w3.org/1999/02/22-rdf-syntax-ns#">
   <cc:Work>
    <dc:type rdf:resource="http://purl.org/dc/dcmitype/StillImage"/>
    <dc:date>2023-11-18T17:59:44.003545</dc:date>
    <dc:format>image/svg+xml</dc:format>
    <dc:creator>
     <cc:Agent>
      <dc:title>Matplotlib v3.8.0, https://matplotlib.org/</dc:title>
     </cc:Agent>
    </dc:creator>
   </cc:Work>
  </rdf:RDF>
 </metadata>
 <defs>
  <style type="text/css">*{stroke-linejoin: round; stroke-linecap: butt}</style>
 </defs>
 <g id="figure_1">
  <g id="patch_1">
   <path d="M -0 396.309844 
L 636.942734 396.309844 
L 636.942734 0 
L -0 0 
z
" style="fill: #ffffff"/>
  </g>
  <g id="axes_1">
   <g id="patch_2">
    <path d="M 62.567188 354.575625 
L 620.567188 354.575625 
L 620.567188 21.935625 
L 62.567188 21.935625 
z
" style="fill: #eaeaf2"/>
   </g>
   <g id="matplotlib.axis_1">
    <g id="xtick_1">
     <g id="line2d_1">
      <path d="M 62.567188 354.575625 
L 62.567188 21.935625 
" clip-path="url(#p1f2133808c)" style="fill: none; stroke: #ffffff; stroke-linecap: round"/>
     </g>
     <g id="text_1">
      <!-- 0 -->
      <g style="fill: #262626" transform="translate(59.508672 371.949219) scale(0.11 -0.11)">
       <defs>
        <path id="ArialMT-30" d="M 266 2259 
Q 266 3072 433 3567 
Q 600 4063 929 4331 
Q 1259 4600 1759 4600 
Q 2128 4600 2406 4451 
Q 2684 4303 2865 4023 
Q 3047 3744 3150 3342 
Q 3253 2941 3253 2259 
Q 3253 1453 3087 958 
Q 2922 463 2592 192 
Q 2263 -78 1759 -78 
Q 1097 -78 719 397 
Q 266 969 266 2259 
z
M 844 2259 
Q 844 1131 1108 757 
Q 1372 384 1759 384 
Q 2147 384 2411 759 
Q 2675 1134 2675 2259 
Q 2675 3391 2411 3762 
Q 2147 4134 1753 4134 
Q 1366 4134 1134 3806 
Q 844 3388 844 2259 
z
" transform="scale(0.015625)"/>
       </defs>
       <use xlink:href="#ArialMT-30"/>
      </g>
     </g>
    </g>
    <g id="xtick_2">
     <g id="line2d_2">
      <path d="M 174.167188 354.575625 
L 174.167188 21.935625 
" clip-path="url(#p1f2133808c)" style="fill: none; stroke: #ffffff; stroke-linecap: round"/>
     </g>
     <g id="text_2">
      <!-- 100 -->
      <g style="fill: #262626" transform="translate(164.991641 371.949219) scale(0.11 -0.11)">
       <defs>
        <path id="ArialMT-31" d="M 2384 0 
L 1822 0 
L 1822 3584 
Q 1619 3391 1289 3197 
Q 959 3003 697 2906 
L 697 3450 
Q 1169 3672 1522 3987 
Q 1875 4303 2022 4600 
L 2384 4600 
L 2384 0 
z
" transform="scale(0.015625)"/>
       </defs>
       <use xlink:href="#ArialMT-31"/>
       <use xlink:href="#ArialMT-30" x="55.615234"/>
       <use xlink:href="#ArialMT-30" x="111.230469"/>
      </g>
     </g>
    </g>
    <g id="xtick_3">
     <g id="line2d_3">
      <path d="M 285.767188 354.575625 
L 285.767188 21.935625 
" clip-path="url(#p1f2133808c)" style="fill: none; stroke: #ffffff; stroke-linecap: round"/>
     </g>
     <g id="text_3">
      <!-- 200 -->
      <g style="fill: #262626" transform="translate(276.591641 371.949219) scale(0.11 -0.11)">
       <defs>
        <path id="ArialMT-32" d="M 3222 541 
L 3222 0 
L 194 0 
Q 188 203 259 391 
Q 375 700 629 1000 
Q 884 1300 1366 1694 
Q 2113 2306 2375 2664 
Q 2638 3022 2638 3341 
Q 2638 3675 2398 3904 
Q 2159 4134 1775 4134 
Q 1369 4134 1125 3890 
Q 881 3647 878 3216 
L 300 3275 
Q 359 3922 746 4261 
Q 1134 4600 1788 4600 
Q 2447 4600 2831 4234 
Q 3216 3869 3216 3328 
Q 3216 3053 3103 2787 
Q 2991 2522 2730 2228 
Q 2469 1934 1863 1422 
Q 1356 997 1212 845 
Q 1069 694 975 541 
L 3222 541 
z
" transform="scale(0.015625)"/>
       </defs>
       <use xlink:href="#ArialMT-32"/>
       <use xlink:href="#ArialMT-30" x="55.615234"/>
       <use xlink:href="#ArialMT-30" x="111.230469"/>
      </g>
     </g>
    </g>
    <g id="xtick_4">
     <g id="line2d_4">
      <path d="M 397.367188 354.575625 
L 397.367188 21.935625 
" clip-path="url(#p1f2133808c)" style="fill: none; stroke: #ffffff; stroke-linecap: round"/>
     </g>
     <g id="text_4">
      <!-- 300 -->
      <g style="fill: #262626" transform="translate(388.191641 371.949219) scale(0.11 -0.11)">
       <defs>
        <path id="ArialMT-33" d="M 269 1209 
L 831 1284 
Q 928 806 1161 595 
Q 1394 384 1728 384 
Q 2125 384 2398 659 
Q 2672 934 2672 1341 
Q 2672 1728 2419 1979 
Q 2166 2231 1775 2231 
Q 1616 2231 1378 2169 
L 1441 2663 
Q 1497 2656 1531 2656 
Q 1891 2656 2178 2843 
Q 2466 3031 2466 3422 
Q 2466 3731 2256 3934 
Q 2047 4138 1716 4138 
Q 1388 4138 1169 3931 
Q 950 3725 888 3313 
L 325 3413 
Q 428 3978 793 4289 
Q 1159 4600 1703 4600 
Q 2078 4600 2393 4439 
Q 2709 4278 2876 4000 
Q 3044 3722 3044 3409 
Q 3044 3113 2884 2869 
Q 2725 2625 2413 2481 
Q 2819 2388 3044 2092 
Q 3269 1797 3269 1353 
Q 3269 753 2831 336 
Q 2394 -81 1725 -81 
Q 1122 -81 723 278 
Q 325 638 269 1209 
z
" transform="scale(0.015625)"/>
       </defs>
       <use xlink:href="#ArialMT-33"/>
       <use xlink:href="#ArialMT-30" x="55.615234"/>
       <use xlink:href="#ArialMT-30" x="111.230469"/>
      </g>
     </g>
    </g>
    <g id="xtick_5">
     <g id="line2d_5">
      <path d="M 508.967188 354.575625 
L 508.967188 21.935625 
" clip-path="url(#p1f2133808c)" style="fill: none; stroke: #ffffff; stroke-linecap: round"/>
     </g>
     <g id="text_5">
      <!-- 400 -->
      <g style="fill: #262626" transform="translate(499.791641 371.949219) scale(0.11 -0.11)">
       <defs>
        <path id="ArialMT-34" d="M 2069 0 
L 2069 1097 
L 81 1097 
L 81 1613 
L 2172 4581 
L 2631 4581 
L 2631 1613 
L 3250 1613 
L 3250 1097 
L 2631 1097 
L 2631 0 
L 2069 0 
z
M 2069 1613 
L 2069 3678 
L 634 1613 
L 2069 1613 
z
" transform="scale(0.015625)"/>
       </defs>
       <use xlink:href="#ArialMT-34"/>
       <use xlink:href="#ArialMT-30" x="55.615234"/>
       <use xlink:href="#ArialMT-30" x="111.230469"/>
      </g>
     </g>
    </g>
    <g id="xtick_6">
     <g id="line2d_6">
      <path d="M 620.567188 354.575625 
L 620.567188 21.935625 
" clip-path="url(#p1f2133808c)" style="fill: none; stroke: #ffffff; stroke-linecap: round"/>
     </g>
     <g id="text_6">
      <!-- 500 -->
      <g style="fill: #262626" transform="translate(611.391641 371.949219) scale(0.11 -0.11)">
       <defs>
        <path id="ArialMT-35" d="M 266 1200 
L 856 1250 
Q 922 819 1161 601 
Q 1400 384 1738 384 
Q 2144 384 2425 690 
Q 2706 997 2706 1503 
Q 2706 1984 2436 2262 
Q 2166 2541 1728 2541 
Q 1456 2541 1237 2417 
Q 1019 2294 894 2097 
L 366 2166 
L 809 4519 
L 3088 4519 
L 3088 3981 
L 1259 3981 
L 1013 2750 
Q 1425 3038 1878 3038 
Q 2478 3038 2890 2622 
Q 3303 2206 3303 1553 
Q 3303 931 2941 478 
Q 2500 -78 1738 -78 
Q 1113 -78 717 272 
Q 322 622 266 1200 
z
" transform="scale(0.015625)"/>
       </defs>
       <use xlink:href="#ArialMT-35"/>
       <use xlink:href="#ArialMT-30" x="55.615234"/>
       <use xlink:href="#ArialMT-30" x="111.230469"/>
      </g>
     </g>
    </g>
    <g id="text_7">
     <!-- Episode -->
     <g style="fill: #262626" transform="translate(319.885625 386.724844) scale(0.12 -0.12)">
      <defs>
       <path id="ArialMT-45" d="M 506 0 
L 506 4581 
L 3819 4581 
L 3819 4041 
L 1113 4041 
L 1113 2638 
L 3647 2638 
L 3647 2100 
L 1113 2100 
L 1113 541 
L 3925 541 
L 3925 0 
L 506 0 
z
" transform="scale(0.015625)"/>
       <path id="ArialMT-70" d="M 422 -1272 
L 422 3319 
L 934 3319 
L 934 2888 
Q 1116 3141 1344 3267 
Q 1572 3394 1897 3394 
Q 2322 3394 2647 3175 
Q 2972 2956 3137 2557 
Q 3303 2159 3303 1684 
Q 3303 1175 3120 767 
Q 2938 359 2589 142 
Q 2241 -75 1856 -75 
Q 1575 -75 1351 44 
Q 1128 163 984 344 
L 984 -1272 
L 422 -1272 
z
M 931 1641 
Q 931 1000 1190 694 
Q 1450 388 1819 388 
Q 2194 388 2461 705 
Q 2728 1022 2728 1688 
Q 2728 2322 2467 2637 
Q 2206 2953 1844 2953 
Q 1484 2953 1207 2617 
Q 931 2281 931 1641 
z
" transform="scale(0.015625)"/>
       <path id="ArialMT-69" d="M 425 3934 
L 425 4581 
L 988 4581 
L 988 3934 
L 425 3934 
z
M 425 0 
L 425 3319 
L 988 3319 
L 988 0 
L 425 0 
z
" transform="scale(0.015625)"/>
       <path id="ArialMT-73" d="M 197 991 
L 753 1078 
Q 800 744 1014 566 
Q 1228 388 1613 388 
Q 2000 388 2187 545 
Q 2375 703 2375 916 
Q 2375 1106 2209 1216 
Q 2094 1291 1634 1406 
Q 1016 1563 777 1677 
Q 538 1791 414 1992 
Q 291 2194 291 2438 
Q 291 2659 392 2848 
Q 494 3038 669 3163 
Q 800 3259 1026 3326 
Q 1253 3394 1513 3394 
Q 1903 3394 2198 3281 
Q 2494 3169 2634 2976 
Q 2775 2784 2828 2463 
L 2278 2388 
Q 2241 2644 2061 2787 
Q 1881 2931 1553 2931 
Q 1166 2931 1000 2803 
Q 834 2675 834 2503 
Q 834 2394 903 2306 
Q 972 2216 1119 2156 
Q 1203 2125 1616 2013 
Q 2213 1853 2448 1751 
Q 2684 1650 2818 1456 
Q 2953 1263 2953 975 
Q 2953 694 2789 445 
Q 2625 197 2315 61 
Q 2006 -75 1616 -75 
Q 969 -75 630 194 
Q 291 463 197 991 
z
" transform="scale(0.015625)"/>
       <path id="ArialMT-6f" d="M 213 1659 
Q 213 2581 725 3025 
Q 1153 3394 1769 3394 
Q 2453 3394 2887 2945 
Q 3322 2497 3322 1706 
Q 3322 1066 3130 698 
Q 2938 331 2570 128 
Q 2203 -75 1769 -75 
Q 1072 -75 642 372 
Q 213 819 213 1659 
z
M 791 1659 
Q 791 1022 1069 705 
Q 1347 388 1769 388 
Q 2188 388 2466 706 
Q 2744 1025 2744 1678 
Q 2744 2294 2464 2611 
Q 2184 2928 1769 2928 
Q 1347 2928 1069 2612 
Q 791 2297 791 1659 
z
" transform="scale(0.015625)"/>
       <path id="ArialMT-64" d="M 2575 0 
L 2575 419 
Q 2259 -75 1647 -75 
Q 1250 -75 917 144 
Q 584 363 401 755 
Q 219 1147 219 1656 
Q 219 2153 384 2558 
Q 550 2963 881 3178 
Q 1213 3394 1622 3394 
Q 1922 3394 2156 3267 
Q 2391 3141 2538 2938 
L 2538 4581 
L 3097 4581 
L 3097 0 
L 2575 0 
z
M 797 1656 
Q 797 1019 1065 703 
Q 1334 388 1700 388 
Q 2069 388 2326 689 
Q 2584 991 2584 1609 
Q 2584 2291 2321 2609 
Q 2059 2928 1675 2928 
Q 1300 2928 1048 2622 
Q 797 2316 797 1656 
z
" transform="scale(0.015625)"/>
       <path id="ArialMT-65" d="M 2694 1069 
L 3275 997 
Q 3138 488 2766 206 
Q 2394 -75 1816 -75 
Q 1088 -75 661 373 
Q 234 822 234 1631 
Q 234 2469 665 2931 
Q 1097 3394 1784 3394 
Q 2450 3394 2872 2941 
Q 3294 2488 3294 1666 
Q 3294 1616 3291 1516 
L 816 1516 
Q 847 969 1125 678 
Q 1403 388 1819 388 
Q 2128 388 2347 550 
Q 2566 713 2694 1069 
z
M 847 1978 
L 2700 1978 
Q 2663 2397 2488 2606 
Q 2219 2931 1791 2931 
Q 1403 2931 1139 2672 
Q 875 2413 847 1978 
z
" transform="scale(0.015625)"/>
      </defs>
      <use xlink:href="#ArialMT-45"/>
      <use xlink:href="#ArialMT-70" x="66.699219"/>
      <use xlink:href="#ArialMT-69" x="122.314453"/>
      <use xlink:href="#ArialMT-73" x="144.53125"/>
      <use xlink:href="#ArialMT-6f" x="194.53125"/>
      <use xlink:href="#ArialMT-64" x="250.146484"/>
      <use xlink:href="#ArialMT-65" x="305.761719"/>
     </g>
    </g>
   </g>
   <g id="matplotlib.axis_2">
    <g id="ytick_1">
     <g id="line2d_7">
      <path d="M 62.567188 354.575625 
L 620.567188 354.575625 
" clip-path="url(#p1f2133808c)" style="fill: none; stroke: #ffffff; stroke-linecap: round"/>
     </g>
     <g id="text_8">
      <!-- −2000 -->
      <g style="fill: #262626" transform="translate(22.174375 358.512422) scale(0.11 -0.11)">
       <defs>
        <path id="ArialMT-2212" d="M 3381 1997 
L 356 1997 
L 356 2522 
L 3381 2522 
L 3381 1997 
z
" transform="scale(0.015625)"/>
       </defs>
       <use xlink:href="#ArialMT-2212"/>
       <use xlink:href="#ArialMT-32" x="58.398438"/>
       <use xlink:href="#ArialMT-30" x="114.013672"/>
       <use xlink:href="#ArialMT-30" x="169.628906"/>
       <use xlink:href="#ArialMT-30" x="225.244141"/>
      </g>
     </g>
    </g>
    <g id="ytick_2">
     <g id="line2d_8">
      <path d="M 62.567188 312.995625 
L 620.567188 312.995625 
" clip-path="url(#p1f2133808c)" style="fill: none; stroke: #ffffff; stroke-linecap: round"/>
     </g>
     <g id="text_9">
      <!-- −1500 -->
      <g style="fill: #262626" transform="translate(22.174375 316.932422) scale(0.11 -0.11)">
       <use xlink:href="#ArialMT-2212"/>
       <use xlink:href="#ArialMT-31" x="58.398438"/>
       <use xlink:href="#ArialMT-35" x="114.013672"/>
       <use xlink:href="#ArialMT-30" x="169.628906"/>
       <use xlink:href="#ArialMT-30" x="225.244141"/>
      </g>
     </g>
    </g>
    <g id="ytick_3">
     <g id="line2d_9">
      <path d="M 62.567188 271.415625 
L 620.567188 271.415625 
" clip-path="url(#p1f2133808c)" style="fill: none; stroke: #ffffff; stroke-linecap: round"/>
     </g>
     <g id="text_10">
      <!-- −1000 -->
      <g style="fill: #262626" transform="translate(22.174375 275.352422) scale(0.11 -0.11)">
       <use xlink:href="#ArialMT-2212"/>
       <use xlink:href="#ArialMT-31" x="58.398438"/>
       <use xlink:href="#ArialMT-30" x="114.013672"/>
       <use xlink:href="#ArialMT-30" x="169.628906"/>
       <use xlink:href="#ArialMT-30" x="225.244141"/>
      </g>
     </g>
    </g>
    <g id="ytick_4">
     <g id="line2d_10">
      <path d="M 62.567188 229.835625 
L 620.567188 229.835625 
" clip-path="url(#p1f2133808c)" style="fill: none; stroke: #ffffff; stroke-linecap: round"/>
     </g>
     <g id="text_11">
      <!-- −500 -->
      <g style="fill: #262626" transform="translate(28.291406 233.772422) scale(0.11 -0.11)">
       <use xlink:href="#ArialMT-2212"/>
       <use xlink:href="#ArialMT-35" x="58.398438"/>
       <use xlink:href="#ArialMT-30" x="114.013672"/>
       <use xlink:href="#ArialMT-30" x="169.628906"/>
      </g>
     </g>
    </g>
    <g id="ytick_5">
     <g id="line2d_11">
      <path d="M 62.567188 188.255625 
L 620.567188 188.255625 
" clip-path="url(#p1f2133808c)" style="fill: none; stroke: #ffffff; stroke-linecap: round"/>
     </g>
     <g id="text_12">
      <!-- 0 -->
      <g style="fill: #262626" transform="translate(46.950156 192.192422) scale(0.11 -0.11)">
       <use xlink:href="#ArialMT-30"/>
      </g>
     </g>
    </g>
    <g id="ytick_6">
     <g id="line2d_12">
      <path d="M 62.567188 146.675625 
L 620.567188 146.675625 
" clip-path="url(#p1f2133808c)" style="fill: none; stroke: #ffffff; stroke-linecap: round"/>
     </g>
     <g id="text_13">
      <!-- 500 -->
      <g style="fill: #262626" transform="translate(34.716094 150.612422) scale(0.11 -0.11)">
       <use xlink:href="#ArialMT-35"/>
       <use xlink:href="#ArialMT-30" x="55.615234"/>
       <use xlink:href="#ArialMT-30" x="111.230469"/>
      </g>
     </g>
    </g>
    <g id="ytick_7">
     <g id="line2d_13">
      <path d="M 62.567188 105.095625 
L 620.567188 105.095625 
" clip-path="url(#p1f2133808c)" style="fill: none; stroke: #ffffff; stroke-linecap: round"/>
     </g>
     <g id="text_14">
      <!-- 1000 -->
      <g style="fill: #262626" transform="translate(28.599063 109.032422) scale(0.11 -0.11)">
       <use xlink:href="#ArialMT-31"/>
       <use xlink:href="#ArialMT-30" x="55.615234"/>
       <use xlink:href="#ArialMT-30" x="111.230469"/>
       <use xlink:href="#ArialMT-30" x="166.845703"/>
      </g>
     </g>
    </g>
    <g id="ytick_8">
     <g id="line2d_14">
      <path d="M 62.567188 63.515625 
L 620.567188 63.515625 
" clip-path="url(#p1f2133808c)" style="fill: none; stroke: #ffffff; stroke-linecap: round"/>
     </g>
     <g id="text_15">
      <!-- 1500 -->
      <g style="fill: #262626" transform="translate(28.599063 67.452422) scale(0.11 -0.11)">
       <use xlink:href="#ArialMT-31"/>
       <use xlink:href="#ArialMT-35" x="55.615234"/>
       <use xlink:href="#ArialMT-30" x="111.230469"/>
       <use xlink:href="#ArialMT-30" x="166.845703"/>
      </g>
     </g>
    </g>
    <g id="ytick_9">
     <g id="line2d_15">
      <path d="M 62.567188 21.935625 
L 620.567188 21.935625 
" clip-path="url(#p1f2133808c)" style="fill: none; stroke: #ffffff; stroke-linecap: round"/>
     </g>
     <g id="text_16">
      <!-- 2000 -->
      <g style="fill: #262626" transform="translate(28.599063 25.872422) scale(0.11 -0.11)">
       <use xlink:href="#ArialMT-32"/>
       <use xlink:href="#ArialMT-30" x="55.615234"/>
       <use xlink:href="#ArialMT-30" x="111.230469"/>
       <use xlink:href="#ArialMT-30" x="166.845703"/>
      </g>
     </g>
    </g>
    <g id="text_17">
     <!-- Reward -->
     <g style="fill: #262626" transform="translate(15.789375 208.929375) rotate(-90) scale(0.12 -0.12)">
      <defs>
       <path id="ArialMT-52" d="M 503 0 
L 503 4581 
L 2534 4581 
Q 3147 4581 3465 4457 
Q 3784 4334 3975 4021 
Q 4166 3709 4166 3331 
Q 4166 2844 3850 2509 
Q 3534 2175 2875 2084 
Q 3116 1969 3241 1856 
Q 3506 1613 3744 1247 
L 4541 0 
L 3778 0 
L 3172 953 
Q 2906 1366 2734 1584 
Q 2563 1803 2427 1890 
Q 2291 1978 2150 2013 
Q 2047 2034 1813 2034 
L 1109 2034 
L 1109 0 
L 503 0 
z
M 1109 2559 
L 2413 2559 
Q 2828 2559 3062 2645 
Q 3297 2731 3419 2920 
Q 3541 3109 3541 3331 
Q 3541 3656 3305 3865 
Q 3069 4075 2559 4075 
L 1109 4075 
L 1109 2559 
z
" transform="scale(0.015625)"/>
       <path id="ArialMT-77" d="M 1034 0 
L 19 3319 
L 600 3319 
L 1128 1403 
L 1325 691 
Q 1338 744 1497 1375 
L 2025 3319 
L 2603 3319 
L 3100 1394 
L 3266 759 
L 3456 1400 
L 4025 3319 
L 4572 3319 
L 3534 0 
L 2950 0 
L 2422 1988 
L 2294 2553 
L 1622 0 
L 1034 0 
z
" transform="scale(0.015625)"/>
       <path id="ArialMT-61" d="M 2588 409 
Q 2275 144 1986 34 
Q 1697 -75 1366 -75 
Q 819 -75 525 192 
Q 231 459 231 875 
Q 231 1119 342 1320 
Q 453 1522 633 1644 
Q 813 1766 1038 1828 
Q 1203 1872 1538 1913 
Q 2219 1994 2541 2106 
Q 2544 2222 2544 2253 
Q 2544 2597 2384 2738 
Q 2169 2928 1744 2928 
Q 1347 2928 1158 2789 
Q 969 2650 878 2297 
L 328 2372 
Q 403 2725 575 2942 
Q 747 3159 1072 3276 
Q 1397 3394 1825 3394 
Q 2250 3394 2515 3294 
Q 2781 3194 2906 3042 
Q 3031 2891 3081 2659 
Q 3109 2516 3109 2141 
L 3109 1391 
Q 3109 606 3145 398 
Q 3181 191 3288 0 
L 2700 0 
Q 2613 175 2588 409 
z
M 2541 1666 
Q 2234 1541 1622 1453 
Q 1275 1403 1131 1340 
Q 988 1278 909 1158 
Q 831 1038 831 891 
Q 831 666 1001 516 
Q 1172 366 1500 366 
Q 1825 366 2078 508 
Q 2331 650 2450 897 
Q 2541 1088 2541 1459 
L 2541 1666 
z
" transform="scale(0.015625)"/>
       <path id="ArialMT-72" d="M 416 0 
L 416 3319 
L 922 3319 
L 922 2816 
Q 1116 3169 1280 3281 
Q 1444 3394 1641 3394 
Q 1925 3394 2219 3213 
L 2025 2691 
Q 1819 2813 1613 2813 
Q 1428 2813 1281 2702 
Q 1134 2591 1072 2394 
Q 978 2094 978 1738 
L 978 0 
L 416 0 
z
" transform="scale(0.015625)"/>
      </defs>
      <use xlink:href="#ArialMT-52"/>
      <use xlink:href="#ArialMT-65" x="72.216797"/>
      <use xlink:href="#ArialMT-77" x="127.832031"/>
      <use xlink:href="#ArialMT-61" x="200.048828"/>
      <use xlink:href="#ArialMT-72" x="255.664062"/>
      <use xlink:href="#ArialMT-64" x="288.964844"/>
     </g>
    </g>
   </g>
   <g id="line2d_16">
    <path d="M 62.567188 95.615385 
L 63.683188 51.706905 
L 64.799188 61.686105 
L 65.915188 54.950145 
L 67.031188 90.126825 
L 68.147188 72.247425 
L 69.263188 56.197545 
L 70.379188 82.060305 
L 71.495188 70.750545 
L 72.611187 86.634105 
L 73.727187 52.122705 
L 74.843187 49.045785 
L 75.959187 59.690265 
L 77.075187 56.613345 
L 78.191188 72.829545 
L 79.307187 72.081105 
L 80.423188 71.498985 
L 81.539187 59.108145 
L 82.655188 68.921025 
L 83.771187 60.022905 
L 84.887188 75.407505 
L 86.003188 80.979225 
L 87.119188 65.594625 
L 88.235188 71.665305 
L 89.351188 57.361785 
L 90.467188 73.577985 
L 91.583188 52.787985 
L 92.699188 43.390905 
L 93.815188 81.228705 
L 94.931188 80.896065 
L 96.047188 92.288985 
L 97.163188 76.904385 
L 98.279188 64.014585 
L 99.395188 80.729745 
L 100.511188 86.218305 
L 101.627188 64.929345 
L 102.743188 56.945985 
L 103.859188 73.993785 
L 104.975188 69.669465 
L 106.091188 71.249505 
L 107.207188 58.110225 
L 108.323188 67.507305 
L 109.439188 59.607105 
L 110.555188 55.199625 
L 111.671188 65.261985 
L 112.787188 100.438665 
L 113.903188 71.914785 
L 115.019188 51.124785 
L 116.135188 77.070705 
L 117.251188 79.316025 
L 118.367188 66.509385 
L 120.599187 83.557185 
L 121.715188 71.748465 
L 122.831187 97.444905 
L 123.947188 80.230785 
L 125.063188 92.621625 
L 126.179188 79.898145 
L 127.295188 92.122665 
L 128.411188 61.187145 
L 129.527188 80.064465 
L 130.643188 71.831625 
L 131.759187 76.488585 
L 132.875188 85.553025 
L 133.991188 71.997945 
L 135.107188 66.343065 
L 136.223187 77.153865 
L 137.339188 72.663225 
L 138.455188 61.602945 
L 139.571188 77.403345 
L 140.687187 80.646585 
L 141.803188 58.193385 
L 142.919188 101.769225 
L 144.035188 55.282785 
L 145.151187 86.634105 
L 146.267188 87.548865 
L 147.383188 62.933505 
L 148.499188 49.877385 
L 149.615187 55.033305 
L 150.731188 72.164265 
L 151.847188 76.155945 
L 152.963188 45.303585 
L 154.079188 58.609185 
L 155.195188 62.434545 
L 156.311188 71.415825 
L 157.427188 82.060305 
L 158.543188 54.368025 
L 159.659188 73.162185 
L 160.775188 88.629945 
L 161.891188 63.432465 
L 163.007188 89.295225 
L 164.123188 84.139305 
L 165.239188 51.124785 
L 166.355187 65.844105 
L 167.471188 63.515625 
L 168.587188 58.526025 
L 169.703188 78.401265 
L 170.819187 63.765105 
L 171.935188 64.513545 
L 173.051188 93.370065 
L 174.167188 56.114385 
L 175.283187 73.910625 
L 176.399188 57.444945 
L 177.515188 78.817065 
L 178.631188 55.033305 
L 179.747187 74.326425 
L 180.863188 68.338905 
L 181.979188 69.835785 
L 183.095188 70.168425 
L 184.211187 71.997945 
L 185.327188 79.316025 
L 187.559188 61.436625 
L 188.675188 61.602945 
L 189.791188 78.151785 
L 190.907188 49.128945 
L 192.023188 90.376305 
L 193.139187 73.744305 
L 194.255188 78.900225 
L 195.371188 70.667385 
L 196.487188 72.413745 
L 197.603187 55.532265 
L 198.719188 77.486505 
L 199.835188 58.110225 
L 200.951188 52.871145 
L 202.067187 85.636185 
L 203.183188 67.174665 
L 204.299188 59.523945 
L 205.415188 59.856585 
L 206.531188 88.629945 
L 207.647188 69.835785 
L 208.763188 65.760945 
L 209.879188 55.698585 
L 210.995188 85.054065 
L 212.111188 81.977145 
L 213.227188 51.291105 
L 214.343187 52.455345 
L 215.459188 48.463665 
L 216.575188 63.765105 
L 217.691188 89.045745 
L 218.807187 52.039545 
L 219.923188 100.022865 
L 221.039188 45.885705 
L 222.155188 63.681945 
L 223.271187 55.615425 
L 224.387188 92.787945 
L 225.503188 73.661145 
L 226.619188 97.694385 
L 227.735187 94.035345 
L 228.851188 93.619545 
L 229.967188 62.351385 
L 231.083188 88.380465 
L 232.199187 70.002105 
L 233.315188 70.417905 
L 234.431188 46.717305 
L 235.547188 81.893985 
L 236.663187 88.214145 
L 237.779188 55.449105 
L 238.895188 58.110225 
L 240.011188 66.842025 
L 241.127187 53.702745 
L 242.243188 63.515625 
L 243.359188 69.669465 
L 244.475188 69.669465 
L 245.591188 82.891905 
L 246.707188 84.555105 
L 247.823188 63.515625 
L 248.939188 96.031185 
L 250.055188 93.536385 
L 251.171188 81.311865 
L 252.287188 23.765145 
L 253.403188 57.195465 
L 254.519188 70.750545 
L 255.635188 61.103985 
L 256.751188 45.968865 
L 257.867188 78.817065 
L 258.983188 74.409585 
L 260.099188 58.775505 
L 261.215188 47.881545 
L 262.331187 74.575905 
L 263.447188 107.340945 
L 264.563188 70.916865 
L 265.679188 98.110185 
L 267.911188 54.534345 
L 269.027188 59.773425 
L 270.143188 77.735985 
L 271.259187 48.546825 
L 272.375188 59.357625 
L 273.491188 82.060305 
L 274.607188 76.821225 
L 275.723187 73.827465 
L 276.839188 90.126825 
L 277.955188 53.702745 
L 279.071188 68.172585 
L 280.187188 65.012505 
L 281.303188 41.478225 
L 282.419188 75.324345 
L 283.535188 64.679865 
L 284.651188 81.810825 
L 285.767188 60.106065 
L 286.883188 65.428305 
L 287.999188 63.432465 
L 289.115188 73.328505 
L 290.231188 71.914785 
L 291.347188 59.607105 
L 292.463188 81.478185 
L 293.579188 98.692305 
L 294.695188 71.582145 
L 296.927188 60.438705 
L 298.043188 65.677785 
L 299.159188 58.775505 
L 300.275188 57.694425 
L 301.391188 83.390865 
L 302.507188 83.141385 
L 303.623188 100.521825 
L 304.739188 65.095665 
L 305.855187 73.993785 
L 306.971188 74.160105 
L 308.087188 70.750545 
L 309.203188 57.029145 
L 310.319187 77.320185 
L 311.435188 74.492745 
L 312.551188 58.858665 
L 313.667188 54.035385 
L 314.783188 75.989625 
L 315.899188 66.343065 
L 317.015188 66.925185 
L 318.131188 75.740145 
L 319.247187 69.336825 
L 320.363188 58.858665 
L 321.479188 87.964665 
L 323.711187 53.453265 
L 324.827188 72.995865 
L 325.943188 63.266145 
L 328.175187 90.792105 
L 329.291188 48.131025 
L 330.407188 65.844105 
L 331.523188 71.582145 
L 332.639187 66.010425 
L 333.755188 58.359705 
L 334.871188 56.197545 
L 335.987188 73.577985 
L 337.103187 58.692345 
L 338.219188 46.467825 
L 339.335188 70.501065 
L 340.451188 64.347225 
L 341.567187 80.563425 
L 342.683188 80.646585 
L 343.799188 74.742225 
L 344.915188 79.316025 
L 346.031187 81.062385 
L 347.147188 83.806665 
L 348.263188 61.020825 
L 349.379188 77.569665 
L 350.495188 64.763025 
L 351.611188 75.823305 
L 352.727188 67.507305 
L 353.843187 49.960545 
L 354.959188 66.758865 
L 356.075188 59.357625 
L 357.191188 75.573825 
L 358.307187 85.137225 
L 359.423188 71.914785 
L 360.539188 68.006265 
L 361.655188 84.305625 
L 362.771187 80.812905 
L 363.887188 81.810825 
L 365.003188 79.898145 
L 366.119188 67.174665 
L 367.235187 78.234945 
L 368.351188 74.908545 
L 369.467188 58.526025 
L 370.583188 61.935585 
L 371.699187 51.706905 
L 372.815188 60.438705 
L 373.931188 67.091505 
L 375.047188 68.588385 
L 376.163187 57.777585 
L 377.279188 74.908545 
L 378.395188 53.785905 
L 379.511188 48.962625 
L 380.627187 72.413745 
L 381.743188 65.345145 
L 382.859188 56.031225 
L 383.975188 70.833705 
L 385.091188 70.833705 
L 386.207188 99.856545 
L 387.323188 64.347225 
L 388.439188 100.022865 
L 389.555188 91.540545 
L 390.671188 74.908545 
L 391.787188 80.979225 
L 392.903188 67.424145 
L 394.019188 61.519785 
L 395.135188 86.883585 
L 396.251188 89.212065 
L 397.367188 69.918945 
L 398.483188 63.765105 
L 399.599188 66.259905 
L 400.715188 71.166345 
L 401.831187 60.022905 
L 402.947188 42.476145 
L 404.063188 63.681945 
L 405.179188 102.434505 
L 406.295187 71.831625 
L 407.411188 87.964665 
L 408.527188 60.022905 
L 409.643188 62.185065 
L 410.759187 58.526025 
L 411.875188 58.359705 
L 412.991188 61.103985 
L 414.107188 58.442865 
L 415.223187 62.268225 
L 416.339188 82.476105 
L 417.455188 56.779665 
L 418.571188 79.565505 
L 419.687187 73.744305 
L 420.803188 76.239105 
L 421.919188 77.652825 
L 423.035188 78.234945 
L 424.151188 53.286945 
L 425.267188 58.359705 
L 426.383188 73.328505 
L 427.499188 53.536425 
L 428.615188 92.205825 
L 429.731188 66.592545 
L 430.847188 79.232865 
L 431.963188 71.748465 
L 433.079188 60.272385 
L 435.311188 65.012505 
L 436.427188 64.264065 
L 437.543188 75.074865 
L 438.659188 75.656985 
L 439.775188 91.540545 
L 440.891188 76.239105 
L 442.007188 56.696505 
L 443.123188 41.727705 
L 444.239188 65.760945 
L 445.355187 81.228705 
L 446.471188 68.837865 
L 447.587188 73.245345 
L 448.703188 68.172585 
L 449.819187 68.172585 
L 450.935188 87.049905 
L 452.051188 69.253665 
L 453.167188 81.145545 
L 454.283187 61.935585 
L 455.399188 53.120625 
L 456.515188 60.189225 
L 457.631188 62.933505 
L 458.747188 53.120625 
L 459.863188 39.232905 
L 460.979188 65.677785 
L 462.095188 73.494825 
L 463.211188 69.586305 
L 464.327188 64.014585 
L 465.443188 67.174665 
L 466.559188 66.010425 
L 467.675188 71.498985 
L 468.791188 88.546785 
L 471.023188 62.933505 
L 472.139188 73.661145 
L 473.255188 77.153865 
L 474.371188 53.619585 
L 475.487188 78.484425 
L 476.603188 34.409625 
L 477.719188 85.885665 
L 478.835188 68.422065 
L 479.951188 62.767185 
L 481.067188 49.877385 
L 482.183188 102.018705 
L 483.299188 75.490665 
L 484.415188 77.070705 
L 486.647188 54.866985 
L 487.763188 72.413745 
L 488.879188 82.891905 
L 489.995188 79.149705 
L 491.111188 67.008345 
L 492.227188 69.419985 
L 493.343188 64.097745 
L 494.459188 64.430385 
L 495.575188 75.989625 
L 496.691188 51.873225 
L 497.807188 71.498985 
L 498.923188 50.625825 
L 500.039188 77.902305 
L 501.155188 68.089425 
L 502.271188 72.663225 
L 503.387188 72.496905 
L 504.503188 71.665305 
L 505.619188 67.008345 
L 506.735188 53.785905 
L 507.851188 67.424145 
L 508.967188 40.896105 
L 510.083188 81.395025 
L 511.199188 74.742225 
L 512.315188 78.484425 
L 513.431188 79.066545 
L 514.547188 70.750545 
L 515.663188 72.247425 
L 516.779188 68.255745 
L 517.895188 77.403345 
L 519.011188 85.553025 
L 520.127188 71.582145 
L 521.243188 101.519745 
L 522.359188 61.686105 
L 523.475188 84.638265 
L 524.591188 43.474065 
L 525.707188 53.952225 
L 526.823188 79.232865 
L 527.939188 71.249505 
L 529.055188 71.498985 
L 530.171188 72.829545 
L 531.287188 64.264065 
L 532.403188 58.027065 
L 533.519188 71.166345 
L 534.635188 32.081145 
L 535.751188 56.447025 
L 536.867188 75.241185 
L 537.983188 64.014585 
L 539.099188 69.918945 
L 540.215188 62.185065 
L 541.331188 74.742225 
L 542.447188 74.575905 
L 543.563188 65.095665 
L 544.679188 78.401265 
L 545.795188 79.232865 
L 546.911188 72.496905 
L 548.027188 70.002105 
L 549.143188 70.251585 
L 550.259188 40.313985 
L 551.375188 66.592545 
L 552.491188 68.338905 
L 553.607188 63.349305 
L 554.723188 71.582145 
L 555.839188 75.656985 
L 556.955188 66.592545 
L 558.071188 87.133065 
L 559.187188 64.347225 
L 560.303188 50.210025 
L 561.419188 68.671545 
L 562.535188 53.702745 
L 563.651188 32.663265 
L 564.767188 74.076945 
L 565.883188 86.301465 
L 566.999188 65.345145 
L 568.115188 74.492745 
L 569.231188 97.860705 
L 570.347188 54.783825 
L 571.463188 71.166345 
L 572.579188 94.950105 
L 573.695188 83.474025 
L 574.811188 59.357625 
L 575.927188 73.162185 
L 577.043188 57.112305 
L 578.159188 49.794225 
L 579.275188 79.232865 
L 580.391188 63.016665 
L 581.507188 70.833705 
L 582.623188 76.571745 
L 583.739188 41.644545 
L 584.855188 74.659065 
L 585.971188 86.634105 
L 587.087188 64.679865 
L 588.203188 53.785905 
L 589.319188 54.950145 
L 590.435188 50.958465 
L 591.551188 80.729745 
L 592.667188 65.844105 
L 594.899188 56.945985 
L 596.015188 58.027065 
L 597.131188 89.295225 
L 598.247188 80.480265 
L 599.363188 75.241185 
L 600.479188 77.403345 
L 601.595188 56.031225 
L 602.711188 71.083185 
L 603.827188 67.590465 
L 604.943188 54.118545 
L 606.059188 80.230785 
L 607.175188 64.347225 
L 608.291188 69.586305 
L 609.407188 79.149705 
L 610.523188 77.403345 
L 611.639188 64.846185 
L 612.755188 50.376345 
L 613.871188 58.442865 
L 614.987188 49.378425 
L 616.103188 65.594625 
L 617.219188 74.991705 
L 618.335188 66.176745 
L 619.451188 89.711025 
L 619.451188 89.711025 
" clip-path="url(#p1f2133808c)" style="fill: none; stroke: #008000; stroke-opacity: 0.2; stroke-width: 1.5; stroke-linecap: round"/>
   </g>
   <g id="line2d_17">
    <path d="M 74.843187 68.595315 
L 75.959187 65.601555 
L 77.075187 66.010425 
L 78.191188 66.939045 
L 79.307187 68.366625 
L 80.423188 66.814305 
L 81.539187 65.719365 
L 82.655188 66.779655 
L 83.771187 64.943205 
L 84.887188 65.331285 
L 86.003188 64.860045 
L 87.119188 65.982705 
L 88.235188 67.867665 
L 89.351188 67.673625 
L 90.467188 69.087345 
L 91.583188 67.417215 
L 92.699188 65.026365 
L 93.815188 65.837175 
L 96.047188 69.600165 
L 97.163188 71.006955 
L 98.279188 70.057545 
L 99.395188 70.036755 
L 100.511188 71.755395 
L 101.627188 71.194065 
L 103.859188 71.194065 
L 104.975188 72.600855 
L 106.091188 74.922405 
L 107.207188 72.995865 
L 108.323188 71.880135 
L 109.439188 69.156645 
L 110.555188 67.347915 
L 111.671188 67.451865 
L 112.787188 69.094275 
L 115.019188 66.751935 
L 116.135188 68.428995 
L 117.251188 68.872515 
L 118.367188 68.609175 
L 119.483188 68.934885 
L 120.599187 71.055465 
L 121.715188 71.408895 
L 122.831187 74.562045 
L 125.063188 78.927945 
L 126.179188 77.216235 
L 127.295188 78.900225 
L 128.411188 79.738755 
L 129.527188 79.988235 
L 130.643188 79.364535 
L 132.875188 81.062385 
L 133.991188 80.099115 
L 135.107188 79.648665 
L 136.223187 77.957745 
L 137.339188 77.327115 
L 138.455188 74.742225 
L 139.571188 74.534325 
L 140.687187 73.577985 
L 141.803188 73.328505 
L 142.919188 75.137235 
L 144.035188 73.758165 
L 145.151187 74.603625 
L 146.267188 74.769945 
L 147.383188 74.014575 
L 148.499188 72.642435 
L 149.615187 70.799055 
L 150.731188 70.757475 
L 151.847188 71.970225 
L 152.963188 69.295245 
L 154.079188 67.458795 
L 155.195188 67.812225 
L 156.311188 65.282775 
L 157.427188 67.514235 
L 158.543188 64.825395 
L 159.659188 63.626505 
L 160.775188 65.767875 
L 161.891188 66.897465 
L 163.007188 69.752625 
L 164.123188 70.750545 
L 165.239188 68.664615 
L 166.355187 70.376325 
L 167.471188 70.785195 
L 168.587188 70.459485 
L 169.703188 71.041605 
L 170.819187 69.517005 
L 171.935188 70.362465 
L 173.051188 72.046455 
L 174.167188 69.336825 
L 175.283187 70.210005 
L 176.399188 67.555815 
L 177.515188 67.112295 
L 178.631188 67.438005 
L 179.747187 68.144865 
L 180.863188 68.546805 
L 181.979188 69.489285 
L 183.095188 68.803215 
L 184.211187 69.489285 
L 185.327188 70.722825 
L 186.443188 68.782425 
L 187.559188 69.225945 
L 188.675188 68.200305 
L 189.791188 69.925875 
L 190.907188 67.451865 
L 192.023188 70.397115 
L 193.139187 70.348605 
L 194.255188 71.228715 
L 195.371188 71.298015 
L 196.487188 71.485125 
L 197.603187 70.112985 
L 198.719188 69.960525 
L 199.835188 68.962605 
L 200.951188 68.248815 
L 202.067187 70.251585 
L 203.183188 69.336825 
L 204.299188 70.203075 
L 205.415188 67.659765 
L 206.531188 68.900235 
L 207.647188 68.144865 
L 208.763188 67.735995 
L 209.879188 66.343065 
L 210.995188 68.803215 
L 212.111188 69.177435 
L 213.227188 68.609175 
L 214.343187 68.574525 
L 215.459188 65.476815 
L 216.575188 65.192685 
L 217.691188 67.652835 
L 218.807187 67.001415 
L 219.923188 67.950825 
L 221.039188 65.954985 
L 222.155188 65.781735 
L 223.271187 65.774805 
L 224.387188 66.419295 
L 225.503188 65.726295 
L 226.619188 69.593235 
L 228.851188 76.821225 
L 231.083188 76.647975 
L 232.199187 78.144855 
L 233.315188 75.677775 
L 234.431188 75.747075 
L 235.547188 77.264745 
L 236.663187 79.981305 
L 237.779188 76.869735 
L 238.895188 75.573825 
L 240.011188 73.002795 
L 241.127187 69.641745 
L 242.243188 67.133085 
L 243.359188 67.742925 
L 244.475188 66.183675 
L 246.707188 68.435925 
L 247.823188 69.835785 
L 248.939188 71.013885 
L 250.055188 71.457405 
L 251.171188 73.612635 
L 252.287188 70.750545 
L 253.403188 69.946665 
L 254.519188 71.367315 
L 255.635188 71.166345 
L 256.751188 69.191295 
L 257.867188 69.953595 
L 258.983188 69.246735 
L 260.099188 67.098435 
L 261.215188 65.795595 
L 262.331187 64.007655 
L 263.447188 65.158035 
L 264.563188 64.291785 
L 265.679188 70.487205 
L 266.795187 72.157335 
L 267.911188 70.805985 
L 269.027188 70.695105 
L 270.143188 73.342365 
L 271.259187 70.819845 
L 272.375188 69.565515 
L 273.491188 71.505915 
L 274.607188 73.917555 
L 275.723187 73.855185 
L 277.955188 70.986165 
L 279.071188 68.491365 
L 281.303188 66.384645 
L 282.419188 67.680555 
L 283.535188 66.592545 
L 284.651188 69.364545 
L 285.767188 69.426915 
L 286.883188 68.040915 
L 287.999188 66.925185 
L 289.115188 66.883605 
L 290.231188 65.365935 
L 291.347188 65.857965 
L 292.463188 66.966765 
L 294.695188 72.282075 
L 295.811188 71.505915 
L 296.927188 71.152485 
L 298.043188 69.808065 
L 299.159188 69.697185 
L 300.275188 69.052695 
L 301.391188 70.715895 
L 302.507188 71.533635 
L 303.623188 73.917555 
L 304.739188 74.374935 
L 305.855187 73.751235 
L 306.971188 71.706885 
L 308.087188 71.637585 
L 309.203188 70.889145 
L 310.319187 72.295935 
L 311.435188 73.030515 
L 312.551188 73.037445 
L 313.667188 72.732525 
L 314.783188 72.115755 
L 315.899188 70.715895 
L 317.015188 67.916175 
L 318.131188 68.803215 
L 319.247187 68.415135 
L 320.363188 67.140015 
L 321.479188 68.574525 
L 322.595188 69.683325 
L 323.711187 67.694415 
L 324.827188 67.569675 
L 325.943188 67.936965 
L 327.059188 69.801135 
L 328.175187 71.034675 
L 329.291188 69.517005 
L 330.407188 69.426915 
L 332.639187 68.803215 
L 333.755188 68.761635 
L 334.871188 66.114375 
L 335.987188 66.384645 
L 337.103187 66.821235 
L 338.219188 64.610565 
L 339.335188 65.213475 
L 340.451188 64.208625 
L 341.567187 63.356235 
L 342.683188 66.065865 
L 344.915188 67.451865 
L 346.031187 68.706195 
L 347.147188 70.826775 
L 350.495188 72.067245 
L 351.611188 74.513535 
L 352.727188 74.264055 
L 354.959188 71.914785 
L 356.075188 70.140705 
L 357.191188 70.210005 
L 358.307187 70.695105 
L 359.423188 69.932805 
L 360.539188 68.616105 
L 361.655188 70.556505 
L 362.771187 70.826775 
L 363.887188 72.247425 
L 365.003188 72.586995 
L 366.119188 72.559275 
L 367.235187 74.915475 
L 368.351188 75.594615 
L 369.467188 75.525315 
L 370.583188 74.388795 
L 371.699187 71.602935 
L 372.815188 70.646595 
L 373.931188 70.570365 
L 375.047188 69.260595 
L 376.163187 67.340985 
L 377.279188 66.765795 
L 378.395188 64.589775 
L 379.511188 63.072105 
L 380.627187 62.587005 
L 381.743188 61.790055 
L 382.859188 61.582155 
L 383.975188 62.323665 
L 385.091188 63.917565 
L 386.207188 67.202385 
L 387.323188 66.973695 
L 389.555188 72.406815 
L 390.671188 72.406815 
L 391.787188 74.672925 
L 392.903188 76.211385 
L 394.019188 75.303555 
L 395.135188 77.098425 
L 396.251188 79.863495 
L 397.367188 79.787265 
L 398.483188 79.198215 
L 399.599188 76.398495 
L 400.715188 76.966755 
L 401.831187 73.633425 
L 402.947188 69.544725 
L 404.063188 68.609175 
L 405.179188 70.397115 
L 406.295187 70.764405 
L 407.411188 72.968145 
L 409.643188 68.477505 
L 410.759187 67.528095 
L 412.991188 66.647985 
L 414.107188 65.587695 
L 415.223187 65.774805 
L 416.339188 69.108135 
L 417.455188 68.532945 
L 418.571188 66.627195 
L 419.687187 66.786585 
L 420.803188 65.809455 
L 423.035188 68.616105 
L 424.151188 68.179515 
L 425.267188 68.179515 
L 426.383188 69.198225 
L 427.499188 68.789355 
L 428.615188 71.284155 
L 429.731188 69.960525 
L 430.847188 71.831625 
L 431.963188 71.180205 
L 436.427188 66.696495 
L 437.543188 68.512155 
L 439.775188 71.471265 
L 440.891188 73.363155 
L 442.007188 70.404045 
L 443.123188 68.331975 
L 444.239188 67.209315 
L 447.587188 69.607095 
L 449.819187 70.196145 
L 450.935188 71.194065 
L 452.051188 70.660455 
L 453.167188 69.794205 
L 454.283187 68.602245 
L 455.399188 68.304255 
L 456.515188 69.842715 
L 457.631188 69.607095 
L 459.863188 64.797675 
L 460.979188 64.167045 
L 462.095188 64.610565 
L 463.211188 64.728375 
L 464.327188 62.808765 
L 465.443188 62.635515 
L 466.559188 61.374255 
L 467.675188 62.171205 
L 468.791188 65.123385 
L 469.907188 66.426225 
L 471.023188 66.426225 
L 472.139188 68.137935 
L 473.255188 71.298015 
L 474.371188 70.293165 
L 475.487188 70.708965 
L 476.603188 67.777575 
L 477.719188 69.600165 
L 478.835188 69.704115 
L 479.951188 69.433845 
L 481.067188 67.632045 
L 482.183188 68.754705 
L 483.299188 68.726985 
L 484.415188 69.905085 
L 485.531188 69.260595 
L 486.647188 67.403355 
L 487.763188 68.969535 
L 488.879188 69.336825 
L 489.995188 73.065165 
L 491.111188 71.492055 
L 493.343188 71.686095 
L 494.459188 72.898845 
L 496.691188 68.761635 
L 497.807188 68.297325 
L 498.923188 67.022205 
L 500.039188 68.941815 
L 501.155188 68.581455 
L 502.271188 67.729065 
L 503.387188 67.174665 
L 504.503188 67.562745 
L 505.619188 67.361775 
L 506.735188 66.502455 
L 507.851188 66.751935 
L 508.967188 63.827475 
L 510.083188 66.287625 
L 511.199188 66.557895 
L 512.315188 68.879445 
L 513.431188 68.976465 
L 514.547188 69.198225 
L 515.663188 69.163575 
L 516.779188 68.810145 
L 517.895188 69.288315 
L 520.127188 72.316725 
L 521.243188 75.158025 
L 522.359188 76.890525 
L 523.475188 77.160795 
L 524.591188 74.555115 
L 525.707188 72.510765 
L 529.055188 72.503835 
L 530.171188 72.884985 
L 531.287188 71.790045 
L 532.403188 69.496215 
L 533.519188 69.461565 
L 534.635188 63.675015 
L 535.751188 63.238425 
L 536.867188 62.455335 
L 537.983188 64.167045 
L 539.099188 65.497605 
L 540.215188 64.076955 
L 542.447188 64.624425 
L 543.563188 63.979935 
L 544.679188 65.158035 
L 545.795188 66.925185 
L 546.911188 67.036065 
L 548.027188 70.196145 
L 549.143188 71.346525 
L 550.259188 68.435925 
L 551.375188 68.650755 
L 552.491188 68.519085 
L 553.607188 68.616105 
L 554.723188 68.352765 
L 556.955188 68.567595 
L 558.071188 69.295245 
L 559.187188 68.054775 
L 560.303188 66.197535 
L 561.419188 66.086655 
L 562.535188 64.707585 
L 563.651188 64.070025 
L 564.767188 64.693725 
L 565.883188 66.190605 
L 568.115188 66.599475 
L 569.231188 68.449785 
L 570.347188 67.465725 
L 571.463188 66.135165 
L 573.695188 71.457405 
L 574.811188 70.681245 
L 575.927188 72.302865 
L 577.043188 74.340285 
L 578.159188 72.316725 
L 579.275188 71.727675 
L 581.507188 71.228715 
L 582.623188 69.454635 
L 583.739188 68.359695 
L 584.855188 68.650755 
L 585.971188 67.957755 
L 587.087188 66.391575 
L 588.203188 65.927265 
L 589.319188 64.409595 
L 590.435188 63.896775 
L 591.551188 66.474735 
L 592.667188 65.359005 
L 593.783188 65.220405 
L 594.899188 64.063095 
L 596.015188 62.517705 
L 597.131188 66.488595 
L 598.247188 66.973695 
L 599.363188 66.024285 
L 600.479188 67.084575 
L 601.595188 67.271685 
L 603.827188 70.002105 
L 604.943188 67.784505 
L 606.059188 68.983395 
L 607.175188 69.232875 
L 608.291188 70.286235 
L 609.407188 72.046455 
L 610.523188 71.055465 
L 611.639188 69.752625 
L 612.755188 67.680555 
L 613.871188 66.100515 
L 616.103188 65.088735 
L 617.219188 65.705505 
L 618.335188 66.710355 
L 619.451188 67.500375 
L 619.451188 67.500375 
" clip-path="url(#p1f2133808c)" style="fill: none; stroke: #008000; stroke-width: 1.5; stroke-linecap: round"/>
   </g>
   <g id="patch_3">
    <path d="M 62.567188 354.575625 
L 62.567188 21.935625 
" style="fill: none; stroke: #ffffff; stroke-width: 1.25; stroke-linejoin: miter; stroke-linecap: square"/>
   </g>
   <g id="patch_4">
    <path d="M 620.567188 354.575625 
L 620.567188 21.935625 
" style="fill: none; stroke: #ffffff; stroke-width: 1.25; stroke-linejoin: miter; stroke-linecap: square"/>
   </g>
   <g id="patch_5">
    <path d="M 62.567188 354.575625 
L 620.567188 354.575625 
" style="fill: none; stroke: #ffffff; stroke-width: 1.25; stroke-linejoin: miter; stroke-linecap: square"/>
   </g>
   <g id="patch_6">
    <path d="M 62.567188 21.935625 
L 620.567188 21.935625 
" style="fill: none; stroke: #ffffff; stroke-width: 1.25; stroke-linejoin: miter; stroke-linecap: square"/>
   </g>
   <g id="text_18">
    <!-- Test SAC_Gausian outroll over 50000 Episodes.  -->
    <g style="fill: #262626" transform="translate(211.502187 15.935625) scale(0.12 -0.12)">
     <defs>
      <path id="ArialMT-54" d="M 1659 0 
L 1659 4041 
L 150 4041 
L 150 4581 
L 3781 4581 
L 3781 4041 
L 2266 4041 
L 2266 0 
L 1659 0 
z
" transform="scale(0.015625)"/>
      <path id="ArialMT-74" d="M 1650 503 
L 1731 6 
Q 1494 -44 1306 -44 
Q 1000 -44 831 53 
Q 663 150 594 308 
Q 525 466 525 972 
L 525 2881 
L 113 2881 
L 113 3319 
L 525 3319 
L 525 4141 
L 1084 4478 
L 1084 3319 
L 1650 3319 
L 1650 2881 
L 1084 2881 
L 1084 941 
Q 1084 700 1114 631 
Q 1144 563 1211 522 
Q 1278 481 1403 481 
Q 1497 481 1650 503 
z
" transform="scale(0.015625)"/>
      <path id="ArialMT-20" transform="scale(0.015625)"/>
      <path id="ArialMT-53" d="M 288 1472 
L 859 1522 
Q 900 1178 1048 958 
Q 1197 738 1509 602 
Q 1822 466 2213 466 
Q 2559 466 2825 569 
Q 3091 672 3220 851 
Q 3350 1031 3350 1244 
Q 3350 1459 3225 1620 
Q 3100 1781 2813 1891 
Q 2628 1963 1997 2114 
Q 1366 2266 1113 2400 
Q 784 2572 623 2826 
Q 463 3081 463 3397 
Q 463 3744 659 4045 
Q 856 4347 1234 4503 
Q 1613 4659 2075 4659 
Q 2584 4659 2973 4495 
Q 3363 4331 3572 4012 
Q 3781 3694 3797 3291 
L 3216 3247 
Q 3169 3681 2898 3903 
Q 2628 4125 2100 4125 
Q 1550 4125 1298 3923 
Q 1047 3722 1047 3438 
Q 1047 3191 1225 3031 
Q 1400 2872 2139 2705 
Q 2878 2538 3153 2413 
Q 3553 2228 3743 1945 
Q 3934 1663 3934 1294 
Q 3934 928 3725 604 
Q 3516 281 3123 101 
Q 2731 -78 2241 -78 
Q 1619 -78 1198 103 
Q 778 284 539 648 
Q 300 1013 288 1472 
z
" transform="scale(0.015625)"/>
      <path id="ArialMT-41" d="M -9 0 
L 1750 4581 
L 2403 4581 
L 4278 0 
L 3588 0 
L 3053 1388 
L 1138 1388 
L 634 0 
L -9 0 
z
M 1313 1881 
L 2866 1881 
L 2388 3150 
Q 2169 3728 2063 4100 
Q 1975 3659 1816 3225 
L 1313 1881 
z
" transform="scale(0.015625)"/>
      <path id="ArialMT-43" d="M 3763 1606 
L 4369 1453 
Q 4178 706 3683 314 
Q 3188 -78 2472 -78 
Q 1731 -78 1267 223 
Q 803 525 561 1097 
Q 319 1669 319 2325 
Q 319 3041 592 3573 
Q 866 4106 1370 4382 
Q 1875 4659 2481 4659 
Q 3169 4659 3637 4309 
Q 4106 3959 4291 3325 
L 3694 3184 
Q 3534 3684 3231 3912 
Q 2928 4141 2469 4141 
Q 1941 4141 1586 3887 
Q 1231 3634 1087 3207 
Q 944 2781 944 2328 
Q 944 1744 1114 1308 
Q 1284 872 1643 656 
Q 2003 441 2422 441 
Q 2931 441 3284 734 
Q 3638 1028 3763 1606 
z
" transform="scale(0.015625)"/>
      <path id="ArialMT-5f" d="M -97 -1272 
L -97 -866 
L 3631 -866 
L 3631 -1272 
L -97 -1272 
z
" transform="scale(0.015625)"/>
      <path id="ArialMT-47" d="M 2638 1797 
L 2638 2334 
L 4578 2338 
L 4578 638 
Q 4131 281 3656 101 
Q 3181 -78 2681 -78 
Q 2006 -78 1454 211 
Q 903 500 622 1047 
Q 341 1594 341 2269 
Q 341 2938 620 3517 
Q 900 4097 1425 4378 
Q 1950 4659 2634 4659 
Q 3131 4659 3532 4498 
Q 3934 4338 4162 4050 
Q 4391 3763 4509 3300 
L 3963 3150 
Q 3859 3500 3706 3700 
Q 3553 3900 3268 4020 
Q 2984 4141 2638 4141 
Q 2222 4141 1919 4014 
Q 1616 3888 1430 3681 
Q 1244 3475 1141 3228 
Q 966 2803 966 2306 
Q 966 1694 1177 1281 
Q 1388 869 1791 669 
Q 2194 469 2647 469 
Q 3041 469 3416 620 
Q 3791 772 3984 944 
L 3984 1797 
L 2638 1797 
z
" transform="scale(0.015625)"/>
      <path id="ArialMT-75" d="M 2597 0 
L 2597 488 
Q 2209 -75 1544 -75 
Q 1250 -75 995 37 
Q 741 150 617 320 
Q 494 491 444 738 
Q 409 903 409 1263 
L 409 3319 
L 972 3319 
L 972 1478 
Q 972 1038 1006 884 
Q 1059 663 1231 536 
Q 1403 409 1656 409 
Q 1909 409 2131 539 
Q 2353 669 2445 892 
Q 2538 1116 2538 1541 
L 2538 3319 
L 3100 3319 
L 3100 0 
L 2597 0 
z
" transform="scale(0.015625)"/>
      <path id="ArialMT-6e" d="M 422 0 
L 422 3319 
L 928 3319 
L 928 2847 
Q 1294 3394 1984 3394 
Q 2284 3394 2536 3286 
Q 2788 3178 2913 3003 
Q 3038 2828 3088 2588 
Q 3119 2431 3119 2041 
L 3119 0 
L 2556 0 
L 2556 2019 
Q 2556 2363 2490 2533 
Q 2425 2703 2258 2804 
Q 2091 2906 1866 2906 
Q 1506 2906 1245 2678 
Q 984 2450 984 1813 
L 984 0 
L 422 0 
z
" transform="scale(0.015625)"/>
      <path id="ArialMT-6c" d="M 409 0 
L 409 4581 
L 972 4581 
L 972 0 
L 409 0 
z
" transform="scale(0.015625)"/>
      <path id="ArialMT-76" d="M 1344 0 
L 81 3319 
L 675 3319 
L 1388 1331 
Q 1503 1009 1600 663 
Q 1675 925 1809 1294 
L 2547 3319 
L 3125 3319 
L 1869 0 
L 1344 0 
z
" transform="scale(0.015625)"/>
      <path id="ArialMT-2e" d="M 581 0 
L 581 641 
L 1222 641 
L 1222 0 
L 581 0 
z
" transform="scale(0.015625)"/>
     </defs>
     <use xlink:href="#ArialMT-54"/>
     <use xlink:href="#ArialMT-65" x="49.958984"/>
     <use xlink:href="#ArialMT-73" x="105.574219"/>
     <use xlink:href="#ArialMT-74" x="155.574219"/>
     <use xlink:href="#ArialMT-20" x="183.357422"/>
     <use xlink:href="#ArialMT-53" x="211.140625"/>
     <use xlink:href="#ArialMT-41" x="277.839844"/>
     <use xlink:href="#ArialMT-43" x="344.539062"/>
     <use xlink:href="#ArialMT-5f" x="416.755859"/>
     <use xlink:href="#ArialMT-47" x="472.371094"/>
     <use xlink:href="#ArialMT-61" x="550.154297"/>
     <use xlink:href="#ArialMT-75" x="605.769531"/>
     <use xlink:href="#ArialMT-73" x="661.384766"/>
     <use xlink:href="#ArialMT-69" x="711.384766"/>
     <use xlink:href="#ArialMT-61" x="733.601562"/>
     <use xlink:href="#ArialMT-6e" x="789.216797"/>
     <use xlink:href="#ArialMT-20" x="844.832031"/>
     <use xlink:href="#ArialMT-6f" x="872.615234"/>
     <use xlink:href="#ArialMT-75" x="928.230469"/>
     <use xlink:href="#ArialMT-74" x="983.845703"/>
     <use xlink:href="#ArialMT-72" x="1011.628906"/>
     <use xlink:href="#ArialMT-6f" x="1044.929688"/>
     <use xlink:href="#ArialMT-6c" x="1100.544922"/>
     <use xlink:href="#ArialMT-6c" x="1122.761719"/>
     <use xlink:href="#ArialMT-20" x="1144.978516"/>
     <use xlink:href="#ArialMT-6f" x="1172.761719"/>
     <use xlink:href="#ArialMT-76" x="1228.376953"/>
     <use xlink:href="#ArialMT-65" x="1278.376953"/>
     <use xlink:href="#ArialMT-72" x="1333.992188"/>
     <use xlink:href="#ArialMT-20" x="1367.292969"/>
     <use xlink:href="#ArialMT-35" x="1395.076172"/>
     <use xlink:href="#ArialMT-30" x="1450.691406"/>
     <use xlink:href="#ArialMT-30" x="1506.306641"/>
     <use xlink:href="#ArialMT-30" x="1561.921875"/>
     <use xlink:href="#ArialMT-30" x="1617.537109"/>
     <use xlink:href="#ArialMT-20" x="1673.152344"/>
     <use xlink:href="#ArialMT-45" x="1700.935547"/>
     <use xlink:href="#ArialMT-70" x="1767.634766"/>
     <use xlink:href="#ArialMT-69" x="1823.25"/>
     <use xlink:href="#ArialMT-73" x="1845.466797"/>
     <use xlink:href="#ArialMT-6f" x="1895.466797"/>
     <use xlink:href="#ArialMT-64" x="1951.082031"/>
     <use xlink:href="#ArialMT-65" x="2006.697266"/>
     <use xlink:href="#ArialMT-73" x="2062.3125"/>
     <use xlink:href="#ArialMT-2e" x="2112.3125"/>
     <use xlink:href="#ArialMT-20" x="2140.095703"/>
    </g>
   </g>
   <g id="legend_1">
    <g id="patch_7">
     <path d="M 70.267188 349.075625 
L 175.171094 349.075625 
Q 177.371094 349.075625 177.371094 346.875625 
L 177.371094 332.281719 
Q 177.371094 330.081719 175.171094 330.081719 
L 70.267188 330.081719 
Q 68.067188 330.081719 68.067188 332.281719 
L 68.067188 346.875625 
Q 68.067188 349.075625 70.267188 349.075625 
z
" style="fill: #eaeaf2; opacity: 0.8; stroke: #cccccc; stroke-linejoin: miter"/>
    </g>
    <g id="line2d_18">
     <path d="M 72.467188 338.639375 
L 83.467188 338.639375 
L 94.467188 338.639375 
" style="fill: none; stroke: #008000; stroke-width: 1.5; stroke-linecap: round"/>
    </g>
    <g id="text_19">
     <!-- SAC_Gausian -->
     <g style="fill: #262626" transform="translate(103.267188 342.489375) scale(0.11 -0.11)">
      <use xlink:href="#ArialMT-53"/>
      <use xlink:href="#ArialMT-41" x="66.699219"/>
      <use xlink:href="#ArialMT-43" x="133.398438"/>
      <use xlink:href="#ArialMT-5f" x="205.615234"/>
      <use xlink:href="#ArialMT-47" x="261.230469"/>
      <use xlink:href="#ArialMT-61" x="339.013672"/>
      <use xlink:href="#ArialMT-75" x="394.628906"/>
      <use xlink:href="#ArialMT-73" x="450.244141"/>
      <use xlink:href="#ArialMT-69" x="500.244141"/>
      <use xlink:href="#ArialMT-61" x="522.460938"/>
      <use xlink:href="#ArialMT-6e" x="578.076172"/>
     </g>
    </g>
   </g>
  </g>
 </g>
 <defs>
  <clipPath id="p1f2133808c">
   <rect x="62.567188" y="21.935625" width="558" height="332.64"/>
  </clipPath>
 </defs>
</svg>
