<?xml version="1.0" encoding="utf-8" standalone="no"?>
<!DOCTYPE svg PUBLIC "-//W3C//DTD SVG 1.1//EN"
  "http://www.w3.org/Graphics/SVG/1.1/DTD/svg11.dtd">
<svg xmlns:xlink="http://www.w3.org/1999/xlink" width="630.518047pt" height="396.163594pt" viewBox="0 0 630.518047 396.163594" xmlns="http://www.w3.org/2000/svg" version="1.1">
 <metadata>
  <rdf:RDF xmlns:dc="http://purl.org/dc/elements/1.1/" xmlns:cc="http://creativecommons.org/ns#" xmlns:rdf="http://www.w3.org/1999/02/22-rdf-syntax-ns#">
   <cc:Work>
    <dc:type rdf:resource="http://purl.org/dc/dcmitype/StillImage"/>
    <dc:date>2023-11-13T14:42:39.245676</dc:date>
    <dc:format>image/svg+xml</dc:format>
    <dc:creator>
     <cc:Agent>
      <dc:title>Matplotlib v3.8.0, https://matplotlib.org/</dc:title>
     </cc:Agent>
    </dc:creator>
   </cc:Work>
  </rdf:RDF>
 </metadata>
 <defs>
  <style type="text/css">*{stroke-linejoin: round; stroke-linecap: butt}</style>
 </defs>
 <g id="figure_1">
  <g id="patch_1">
   <path d="M 0 396.163594 
L 630.518047 396.163594 
L 630.518047 0 
L 0 0 
z
" style="fill: #ffffff"/>
  </g>
  <g id="axes_1">
   <g id="patch_2">
    <path d="M 56.1425 354.429375 
L 614.1425 354.429375 
L 614.1425 21.789375 
L 56.1425 21.789375 
z
" style="fill: #eaeaf2"/>
   </g>
   <g id="matplotlib.axis_1">
    <g id="xtick_1">
     <g id="line2d_1">
      <path d="M 56.1425 354.429375 
L 56.1425 21.789375 
" clip-path="url(#p6669e2309a)" style="fill: none; stroke: #ffffff; stroke-linecap: round"/>
     </g>
     <g id="text_1">
      <!-- 0 -->
      <g style="fill: #262626" transform="translate(53.083984 371.802969) scale(0.11 -0.11)">
       <defs>
        <path id="ArialMT-30" d="M 266 2259 
Q 266 3072 433 3567 
Q 600 4063 929 4331 
Q 1259 4600 1759 4600 
Q 2128 4600 2406 4451 
Q 2684 4303 2865 4023 
Q 3047 3744 3150 3342 
Q 3253 2941 3253 2259 
Q 3253 1453 3087 958 
Q 2922 463 2592 192 
Q 2263 -78 1759 -78 
Q 1097 -78 719 397 
Q 266 969 266 2259 
z
M 844 2259 
Q 844 1131 1108 757 
Q 1372 384 1759 384 
Q 2147 384 2411 759 
Q 2675 1134 2675 2259 
Q 2675 3391 2411 3762 
Q 2147 4134 1753 4134 
Q 1366 4134 1134 3806 
Q 844 3388 844 2259 
z
" transform="scale(0.015625)"/>
       </defs>
       <use xlink:href="#ArialMT-30"/>
      </g>
     </g>
    </g>
    <g id="xtick_2">
     <g id="line2d_2">
      <path d="M 167.7425 354.429375 
L 167.7425 21.789375 
" clip-path="url(#p6669e2309a)" style="fill: none; stroke: #ffffff; stroke-linecap: round"/>
     </g>
     <g id="text_2">
      <!-- 100 -->
      <g style="fill: #262626" transform="translate(158.566953 371.802969) scale(0.11 -0.11)">
       <defs>
        <path id="ArialMT-31" d="M 2384 0 
L 1822 0 
L 1822 3584 
Q 1619 3391 1289 3197 
Q 959 3003 697 2906 
L 697 3450 
Q 1169 3672 1522 3987 
Q 1875 4303 2022 4600 
L 2384 4600 
L 2384 0 
z
" transform="scale(0.015625)"/>
       </defs>
       <use xlink:href="#ArialMT-31"/>
       <use xlink:href="#ArialMT-30" x="55.615234"/>
       <use xlink:href="#ArialMT-30" x="111.230469"/>
      </g>
     </g>
    </g>
    <g id="xtick_3">
     <g id="line2d_3">
      <path d="M 279.3425 354.429375 
L 279.3425 21.789375 
" clip-path="url(#p6669e2309a)" style="fill: none; stroke: #ffffff; stroke-linecap: round"/>
     </g>
     <g id="text_3">
      <!-- 200 -->
      <g style="fill: #262626" transform="translate(270.166953 371.802969) scale(0.11 -0.11)">
       <defs>
        <path id="ArialMT-32" d="M 3222 541 
L 3222 0 
L 194 0 
Q 188 203 259 391 
Q 375 700 629 1000 
Q 884 1300 1366 1694 
Q 2113 2306 2375 2664 
Q 2638 3022 2638 3341 
Q 2638 3675 2398 3904 
Q 2159 4134 1775 4134 
Q 1369 4134 1125 3890 
Q 881 3647 878 3216 
L 300 3275 
Q 359 3922 746 4261 
Q 1134 4600 1788 4600 
Q 2447 4600 2831 4234 
Q 3216 3869 3216 3328 
Q 3216 3053 3103 2787 
Q 2991 2522 2730 2228 
Q 2469 1934 1863 1422 
Q 1356 997 1212 845 
Q 1069 694 975 541 
L 3222 541 
z
" transform="scale(0.015625)"/>
       </defs>
       <use xlink:href="#ArialMT-32"/>
       <use xlink:href="#ArialMT-30" x="55.615234"/>
       <use xlink:href="#ArialMT-30" x="111.230469"/>
      </g>
     </g>
    </g>
    <g id="xtick_4">
     <g id="line2d_4">
      <path d="M 390.9425 354.429375 
L 390.9425 21.789375 
" clip-path="url(#p6669e2309a)" style="fill: none; stroke: #ffffff; stroke-linecap: round"/>
     </g>
     <g id="text_4">
      <!-- 300 -->
      <g style="fill: #262626" transform="translate(381.766953 371.802969) scale(0.11 -0.11)">
       <defs>
        <path id="ArialMT-33" d="M 269 1209 
L 831 1284 
Q 928 806 1161 595 
Q 1394 384 1728 384 
Q 2125 384 2398 659 
Q 2672 934 2672 1341 
Q 2672 1728 2419 1979 
Q 2166 2231 1775 2231 
Q 1616 2231 1378 2169 
L 1441 2663 
Q 1497 2656 1531 2656 
Q 1891 2656 2178 2843 
Q 2466 3031 2466 3422 
Q 2466 3731 2256 3934 
Q 2047 4138 1716 4138 
Q 1388 4138 1169 3931 
Q 950 3725 888 3313 
L 325 3413 
Q 428 3978 793 4289 
Q 1159 4600 1703 4600 
Q 2078 4600 2393 4439 
Q 2709 4278 2876 4000 
Q 3044 3722 3044 3409 
Q 3044 3113 2884 2869 
Q 2725 2625 2413 2481 
Q 2819 2388 3044 2092 
Q 3269 1797 3269 1353 
Q 3269 753 2831 336 
Q 2394 -81 1725 -81 
Q 1122 -81 723 278 
Q 325 638 269 1209 
z
" transform="scale(0.015625)"/>
       </defs>
       <use xlink:href="#ArialMT-33"/>
       <use xlink:href="#ArialMT-30" x="55.615234"/>
       <use xlink:href="#ArialMT-30" x="111.230469"/>
      </g>
     </g>
    </g>
    <g id="xtick_5">
     <g id="line2d_5">
      <path d="M 502.5425 354.429375 
L 502.5425 21.789375 
" clip-path="url(#p6669e2309a)" style="fill: none; stroke: #ffffff; stroke-linecap: round"/>
     </g>
     <g id="text_5">
      <!-- 400 -->
      <g style="fill: #262626" transform="translate(493.366953 371.802969) scale(0.11 -0.11)">
       <defs>
        <path id="ArialMT-34" d="M 2069 0 
L 2069 1097 
L 81 1097 
L 81 1613 
L 2172 4581 
L 2631 4581 
L 2631 1613 
L 3250 1613 
L 3250 1097 
L 2631 1097 
L 2631 0 
L 2069 0 
z
M 2069 1613 
L 2069 3678 
L 634 1613 
L 2069 1613 
z
" transform="scale(0.015625)"/>
       </defs>
       <use xlink:href="#ArialMT-34"/>
       <use xlink:href="#ArialMT-30" x="55.615234"/>
       <use xlink:href="#ArialMT-30" x="111.230469"/>
      </g>
     </g>
    </g>
    <g id="xtick_6">
     <g id="line2d_6">
      <path d="M 614.1425 354.429375 
L 614.1425 21.789375 
" clip-path="url(#p6669e2309a)" style="fill: none; stroke: #ffffff; stroke-linecap: round"/>
     </g>
     <g id="text_6">
      <!-- 500 -->
      <g style="fill: #262626" transform="translate(604.966953 371.802969) scale(0.11 -0.11)">
       <defs>
        <path id="ArialMT-35" d="M 266 1200 
L 856 1250 
Q 922 819 1161 601 
Q 1400 384 1738 384 
Q 2144 384 2425 690 
Q 2706 997 2706 1503 
Q 2706 1984 2436 2262 
Q 2166 2541 1728 2541 
Q 1456 2541 1237 2417 
Q 1019 2294 894 2097 
L 366 2166 
L 809 4519 
L 3088 4519 
L 3088 3981 
L 1259 3981 
L 1013 2750 
Q 1425 3038 1878 3038 
Q 2478 3038 2890 2622 
Q 3303 2206 3303 1553 
Q 3303 931 2941 478 
Q 2500 -78 1738 -78 
Q 1113 -78 717 272 
Q 322 622 266 1200 
z
" transform="scale(0.015625)"/>
       </defs>
       <use xlink:href="#ArialMT-35"/>
       <use xlink:href="#ArialMT-30" x="55.615234"/>
       <use xlink:href="#ArialMT-30" x="111.230469"/>
      </g>
     </g>
    </g>
    <g id="text_7">
     <!-- Episode -->
     <g style="fill: #262626" transform="translate(313.460938 386.578594) scale(0.12 -0.12)">
      <defs>
       <path id="ArialMT-45" d="M 506 0 
L 506 4581 
L 3819 4581 
L 3819 4041 
L 1113 4041 
L 1113 2638 
L 3647 2638 
L 3647 2100 
L 1113 2100 
L 1113 541 
L 3925 541 
L 3925 0 
L 506 0 
z
" transform="scale(0.015625)"/>
       <path id="ArialMT-70" d="M 422 -1272 
L 422 3319 
L 934 3319 
L 934 2888 
Q 1116 3141 1344 3267 
Q 1572 3394 1897 3394 
Q 2322 3394 2647 3175 
Q 2972 2956 3137 2557 
Q 3303 2159 3303 1684 
Q 3303 1175 3120 767 
Q 2938 359 2589 142 
Q 2241 -75 1856 -75 
Q 1575 -75 1351 44 
Q 1128 163 984 344 
L 984 -1272 
L 422 -1272 
z
M 931 1641 
Q 931 1000 1190 694 
Q 1450 388 1819 388 
Q 2194 388 2461 705 
Q 2728 1022 2728 1688 
Q 2728 2322 2467 2637 
Q 2206 2953 1844 2953 
Q 1484 2953 1207 2617 
Q 931 2281 931 1641 
z
" transform="scale(0.015625)"/>
       <path id="ArialMT-69" d="M 425 3934 
L 425 4581 
L 988 4581 
L 988 3934 
L 425 3934 
z
M 425 0 
L 425 3319 
L 988 3319 
L 988 0 
L 425 0 
z
" transform="scale(0.015625)"/>
       <path id="ArialMT-73" d="M 197 991 
L 753 1078 
Q 800 744 1014 566 
Q 1228 388 1613 388 
Q 2000 388 2187 545 
Q 2375 703 2375 916 
Q 2375 1106 2209 1216 
Q 2094 1291 1634 1406 
Q 1016 1563 777 1677 
Q 538 1791 414 1992 
Q 291 2194 291 2438 
Q 291 2659 392 2848 
Q 494 3038 669 3163 
Q 800 3259 1026 3326 
Q 1253 3394 1513 3394 
Q 1903 3394 2198 3281 
Q 2494 3169 2634 2976 
Q 2775 2784 2828 2463 
L 2278 2388 
Q 2241 2644 2061 2787 
Q 1881 2931 1553 2931 
Q 1166 2931 1000 2803 
Q 834 2675 834 2503 
Q 834 2394 903 2306 
Q 972 2216 1119 2156 
Q 1203 2125 1616 2013 
Q 2213 1853 2448 1751 
Q 2684 1650 2818 1456 
Q 2953 1263 2953 975 
Q 2953 694 2789 445 
Q 2625 197 2315 61 
Q 2006 -75 1616 -75 
Q 969 -75 630 194 
Q 291 463 197 991 
z
" transform="scale(0.015625)"/>
       <path id="ArialMT-6f" d="M 213 1659 
Q 213 2581 725 3025 
Q 1153 3394 1769 3394 
Q 2453 3394 2887 2945 
Q 3322 2497 3322 1706 
Q 3322 1066 3130 698 
Q 2938 331 2570 128 
Q 2203 -75 1769 -75 
Q 1072 -75 642 372 
Q 213 819 213 1659 
z
M 791 1659 
Q 791 1022 1069 705 
Q 1347 388 1769 388 
Q 2188 388 2466 706 
Q 2744 1025 2744 1678 
Q 2744 2294 2464 2611 
Q 2184 2928 1769 2928 
Q 1347 2928 1069 2612 
Q 791 2297 791 1659 
z
" transform="scale(0.015625)"/>
       <path id="ArialMT-64" d="M 2575 0 
L 2575 419 
Q 2259 -75 1647 -75 
Q 1250 -75 917 144 
Q 584 363 401 755 
Q 219 1147 219 1656 
Q 219 2153 384 2558 
Q 550 2963 881 3178 
Q 1213 3394 1622 3394 
Q 1922 3394 2156 3267 
Q 2391 3141 2538 2938 
L 2538 4581 
L 3097 4581 
L 3097 0 
L 2575 0 
z
M 797 1656 
Q 797 1019 1065 703 
Q 1334 388 1700 388 
Q 2069 388 2326 689 
Q 2584 991 2584 1609 
Q 2584 2291 2321 2609 
Q 2059 2928 1675 2928 
Q 1300 2928 1048 2622 
Q 797 2316 797 1656 
z
" transform="scale(0.015625)"/>
       <path id="ArialMT-65" d="M 2694 1069 
L 3275 997 
Q 3138 488 2766 206 
Q 2394 -75 1816 -75 
Q 1088 -75 661 373 
Q 234 822 234 1631 
Q 234 2469 665 2931 
Q 1097 3394 1784 3394 
Q 2450 3394 2872 2941 
Q 3294 2488 3294 1666 
Q 3294 1616 3291 1516 
L 816 1516 
Q 847 969 1125 678 
Q 1403 388 1819 388 
Q 2128 388 2347 550 
Q 2566 713 2694 1069 
z
M 847 1978 
L 2700 1978 
Q 2663 2397 2488 2606 
Q 2219 2931 1791 2931 
Q 1403 2931 1139 2672 
Q 875 2413 847 1978 
z
" transform="scale(0.015625)"/>
      </defs>
      <use xlink:href="#ArialMT-45"/>
      <use xlink:href="#ArialMT-70" x="66.699219"/>
      <use xlink:href="#ArialMT-69" x="122.314453"/>
      <use xlink:href="#ArialMT-73" x="144.53125"/>
      <use xlink:href="#ArialMT-6f" x="194.53125"/>
      <use xlink:href="#ArialMT-64" x="250.146484"/>
      <use xlink:href="#ArialMT-65" x="305.761719"/>
     </g>
    </g>
   </g>
   <g id="matplotlib.axis_2">
    <g id="ytick_1">
     <g id="line2d_7">
      <path d="M 56.1425 354.429375 
L 614.1425 354.429375 
" clip-path="url(#p6669e2309a)" style="fill: none; stroke: #ffffff; stroke-linecap: round"/>
     </g>
     <g id="text_8">
      <!-- 0 -->
      <g style="fill: #262626" transform="translate(40.525469 358.366172) scale(0.11 -0.11)">
       <use xlink:href="#ArialMT-30"/>
      </g>
     </g>
    </g>
    <g id="ytick_2">
     <g id="line2d_8">
      <path d="M 56.1425 312.849375 
L 614.1425 312.849375 
" clip-path="url(#p6669e2309a)" style="fill: none; stroke: #ffffff; stroke-linecap: round"/>
     </g>
     <g id="text_9">
      <!-- 250 -->
      <g style="fill: #262626" transform="translate(28.291406 316.786172) scale(0.11 -0.11)">
       <use xlink:href="#ArialMT-32"/>
       <use xlink:href="#ArialMT-35" x="55.615234"/>
       <use xlink:href="#ArialMT-30" x="111.230469"/>
      </g>
     </g>
    </g>
    <g id="ytick_3">
     <g id="line2d_9">
      <path d="M 56.1425 271.269375 
L 614.1425 271.269375 
" clip-path="url(#p6669e2309a)" style="fill: none; stroke: #ffffff; stroke-linecap: round"/>
     </g>
     <g id="text_10">
      <!-- 500 -->
      <g style="fill: #262626" transform="translate(28.291406 275.206172) scale(0.11 -0.11)">
       <use xlink:href="#ArialMT-35"/>
       <use xlink:href="#ArialMT-30" x="55.615234"/>
       <use xlink:href="#ArialMT-30" x="111.230469"/>
      </g>
     </g>
    </g>
    <g id="ytick_4">
     <g id="line2d_10">
      <path d="M 56.1425 229.689375 
L 614.1425 229.689375 
" clip-path="url(#p6669e2309a)" style="fill: none; stroke: #ffffff; stroke-linecap: round"/>
     </g>
     <g id="text_11">
      <!-- 750 -->
      <g style="fill: #262626" transform="translate(28.291406 233.626172) scale(0.11 -0.11)">
       <defs>
        <path id="ArialMT-37" d="M 303 3981 
L 303 4522 
L 3269 4522 
L 3269 4084 
Q 2831 3619 2401 2847 
Q 1972 2075 1738 1259 
Q 1569 684 1522 0 
L 944 0 
Q 953 541 1156 1306 
Q 1359 2072 1739 2783 
Q 2119 3494 2547 3981 
L 303 3981 
z
" transform="scale(0.015625)"/>
       </defs>
       <use xlink:href="#ArialMT-37"/>
       <use xlink:href="#ArialMT-35" x="55.615234"/>
       <use xlink:href="#ArialMT-30" x="111.230469"/>
      </g>
     </g>
    </g>
    <g id="ytick_5">
     <g id="line2d_11">
      <path d="M 56.1425 188.109375 
L 614.1425 188.109375 
" clip-path="url(#p6669e2309a)" style="fill: none; stroke: #ffffff; stroke-linecap: round"/>
     </g>
     <g id="text_12">
      <!-- 1000 -->
      <g style="fill: #262626" transform="translate(22.174375 192.046172) scale(0.11 -0.11)">
       <use xlink:href="#ArialMT-31"/>
       <use xlink:href="#ArialMT-30" x="55.615234"/>
       <use xlink:href="#ArialMT-30" x="111.230469"/>
       <use xlink:href="#ArialMT-30" x="166.845703"/>
      </g>
     </g>
    </g>
    <g id="ytick_6">
     <g id="line2d_12">
      <path d="M 56.1425 146.529375 
L 614.1425 146.529375 
" clip-path="url(#p6669e2309a)" style="fill: none; stroke: #ffffff; stroke-linecap: round"/>
     </g>
     <g id="text_13">
      <!-- 1250 -->
      <g style="fill: #262626" transform="translate(22.174375 150.466172) scale(0.11 -0.11)">
       <use xlink:href="#ArialMT-31"/>
       <use xlink:href="#ArialMT-32" x="55.615234"/>
       <use xlink:href="#ArialMT-35" x="111.230469"/>
       <use xlink:href="#ArialMT-30" x="166.845703"/>
      </g>
     </g>
    </g>
    <g id="ytick_7">
     <g id="line2d_13">
      <path d="M 56.1425 104.949375 
L 614.1425 104.949375 
" clip-path="url(#p6669e2309a)" style="fill: none; stroke: #ffffff; stroke-linecap: round"/>
     </g>
     <g id="text_14">
      <!-- 1500 -->
      <g style="fill: #262626" transform="translate(22.174375 108.886172) scale(0.11 -0.11)">
       <use xlink:href="#ArialMT-31"/>
       <use xlink:href="#ArialMT-35" x="55.615234"/>
       <use xlink:href="#ArialMT-30" x="111.230469"/>
       <use xlink:href="#ArialMT-30" x="166.845703"/>
      </g>
     </g>
    </g>
    <g id="ytick_8">
     <g id="line2d_14">
      <path d="M 56.1425 63.369375 
L 614.1425 63.369375 
" clip-path="url(#p6669e2309a)" style="fill: none; stroke: #ffffff; stroke-linecap: round"/>
     </g>
     <g id="text_15">
      <!-- 1750 -->
      <g style="fill: #262626" transform="translate(22.174375 67.306172) scale(0.11 -0.11)">
       <use xlink:href="#ArialMT-31"/>
       <use xlink:href="#ArialMT-37" x="55.615234"/>
       <use xlink:href="#ArialMT-35" x="111.230469"/>
       <use xlink:href="#ArialMT-30" x="166.845703"/>
      </g>
     </g>
    </g>
    <g id="ytick_9">
     <g id="line2d_15">
      <path d="M 56.1425 21.789375 
L 614.1425 21.789375 
" clip-path="url(#p6669e2309a)" style="fill: none; stroke: #ffffff; stroke-linecap: round"/>
     </g>
     <g id="text_16">
      <!-- 2000 -->
      <g style="fill: #262626" transform="translate(22.174375 25.726172) scale(0.11 -0.11)">
       <use xlink:href="#ArialMT-32"/>
       <use xlink:href="#ArialMT-30" x="55.615234"/>
       <use xlink:href="#ArialMT-30" x="111.230469"/>
       <use xlink:href="#ArialMT-30" x="166.845703"/>
      </g>
     </g>
    </g>
    <g id="text_17">
     <!-- Reward -->
     <g style="fill: #262626" transform="translate(15.789375 208.783125) rotate(-90) scale(0.12 -0.12)">
      <defs>
       <path id="ArialMT-52" d="M 503 0 
L 503 4581 
L 2534 4581 
Q 3147 4581 3465 4457 
Q 3784 4334 3975 4021 
Q 4166 3709 4166 3331 
Q 4166 2844 3850 2509 
Q 3534 2175 2875 2084 
Q 3116 1969 3241 1856 
Q 3506 1613 3744 1247 
L 4541 0 
L 3778 0 
L 3172 953 
Q 2906 1366 2734 1584 
Q 2563 1803 2427 1890 
Q 2291 1978 2150 2013 
Q 2047 2034 1813 2034 
L 1109 2034 
L 1109 0 
L 503 0 
z
M 1109 2559 
L 2413 2559 
Q 2828 2559 3062 2645 
Q 3297 2731 3419 2920 
Q 3541 3109 3541 3331 
Q 3541 3656 3305 3865 
Q 3069 4075 2559 4075 
L 1109 4075 
L 1109 2559 
z
" transform="scale(0.015625)"/>
       <path id="ArialMT-77" d="M 1034 0 
L 19 3319 
L 600 3319 
L 1128 1403 
L 1325 691 
Q 1338 744 1497 1375 
L 2025 3319 
L 2603 3319 
L 3100 1394 
L 3266 759 
L 3456 1400 
L 4025 3319 
L 4572 3319 
L 3534 0 
L 2950 0 
L 2422 1988 
L 2294 2553 
L 1622 0 
L 1034 0 
z
" transform="scale(0.015625)"/>
       <path id="ArialMT-61" d="M 2588 409 
Q 2275 144 1986 34 
Q 1697 -75 1366 -75 
Q 819 -75 525 192 
Q 231 459 231 875 
Q 231 1119 342 1320 
Q 453 1522 633 1644 
Q 813 1766 1038 1828 
Q 1203 1872 1538 1913 
Q 2219 1994 2541 2106 
Q 2544 2222 2544 2253 
Q 2544 2597 2384 2738 
Q 2169 2928 1744 2928 
Q 1347 2928 1158 2789 
Q 969 2650 878 2297 
L 328 2372 
Q 403 2725 575 2942 
Q 747 3159 1072 3276 
Q 1397 3394 1825 3394 
Q 2250 3394 2515 3294 
Q 2781 3194 2906 3042 
Q 3031 2891 3081 2659 
Q 3109 2516 3109 2141 
L 3109 1391 
Q 3109 606 3145 398 
Q 3181 191 3288 0 
L 2700 0 
Q 2613 175 2588 409 
z
M 2541 1666 
Q 2234 1541 1622 1453 
Q 1275 1403 1131 1340 
Q 988 1278 909 1158 
Q 831 1038 831 891 
Q 831 666 1001 516 
Q 1172 366 1500 366 
Q 1825 366 2078 508 
Q 2331 650 2450 897 
Q 2541 1088 2541 1459 
L 2541 1666 
z
" transform="scale(0.015625)"/>
       <path id="ArialMT-72" d="M 416 0 
L 416 3319 
L 922 3319 
L 922 2816 
Q 1116 3169 1280 3281 
Q 1444 3394 1641 3394 
Q 1925 3394 2219 3213 
L 2025 2691 
Q 1819 2813 1613 2813 
Q 1428 2813 1281 2702 
Q 1134 2591 1072 2394 
Q 978 2094 978 1738 
L 978 0 
L 416 0 
z
" transform="scale(0.015625)"/>
      </defs>
      <use xlink:href="#ArialMT-52"/>
      <use xlink:href="#ArialMT-65" x="72.216797"/>
      <use xlink:href="#ArialMT-77" x="127.832031"/>
      <use xlink:href="#ArialMT-61" x="200.048828"/>
      <use xlink:href="#ArialMT-72" x="255.664062"/>
      <use xlink:href="#ArialMT-64" x="288.964844"/>
     </g>
    </g>
   </g>
   <g id="line2d_16">
    <path d="M 56.1425 216.383775 
L 57.2585 174.471135 
L 58.3745 181.123935 
L 59.4905 177.797535 
L 60.6065 140.209215 
L 61.7225 147.693615 
L 62.8385 205.905615 
L 63.9545 192.433695 
L 65.0705 147.693615 
L 66.1865 180.292335 
L 67.3025 200.084415 
L 68.4185 163.161375 
L 69.5345 223.535535 
L 70.6505 229.190415 
L 71.7665 152.516895 
L 72.8825 201.913935 
L 73.9985 151.518975 
L 75.1145 153.847455 
L 76.2305 131.061615 
L 77.3465 163.826655 
L 78.4625 154.013775 
L 79.5785 187.776735 
L 80.6945 199.086495 
L 81.8105 145.032495 
L 82.9265 167.984655 
L 84.0425 214.720575 
L 85.1585 183.785055 
L 86.2745 181.789215 
L 87.3905 221.706015 
L 88.5065 237.173775 
L 89.6225 196.425375 
L 90.7385 134.886975 
L 91.8545 152.516895 
L 92.9705 185.115615 
L 94.0865 173.805855 
L 95.2025 143.701935 
L 96.3185 160.167615 
L 97.4345 152.683215 
L 98.5505 205.406655 
L 99.6665 141.207135 
L 100.7825 177.963855 
L 101.8985 207.069855 
L 103.0145 194.263215 
L 104.1305 172.641615 
L 105.2465 158.504415 
L 106.3625 151.186335 
L 107.4785 167.319375 
L 108.5945 178.961775 
L 109.7105 171.311055 
L 110.8265 161.664495 
L 111.9425 174.637455 
L 113.0585 156.841215 
L 114.1745 179.460735 
L 115.2905 176.300655 
L 116.4065 193.930575 
L 117.5225 151.851615 
L 118.6385 164.159295 
L 119.7545 138.047055 
L 120.8705 212.891055 
L 121.9865 150.354735 
L 123.1025 164.990895 
L 124.2185 174.471135 
L 125.3345 171.144735 
L 126.4505 205.074015 
L 127.5665 133.390095 
L 128.6825 183.618735 
L 129.7985 198.920175 
L 130.9145 142.870335 
L 132.0305 135.552255 
L 133.1465 202.745535 
L 134.2625 207.901455 
L 135.3785 163.327695 
L 136.4945 182.953455 
L 137.6105 192.600015 
L 138.7265 188.774655 
L 139.8425 234.845295 
L 140.9585 158.338095 
L 142.0745 168.982575 
L 143.1905 188.109375 
L 144.3065 220.375455 
L 145.4225 206.238255 
L 146.5385 207.735135 
L 147.6545 223.868175 
L 148.7705 178.130175 
L 149.8865 163.161375 
L 151.0025 213.556335 
L 152.1185 156.508575 
L 153.2345 170.812095 
L 154.3505 188.774655 
L 155.4665 204.242415 
L 156.5825 132.558495 
L 157.6985 149.523135 
L 158.8145 168.982575 
L 159.9305 129.564735 
L 161.0465 206.238255 
L 162.1625 172.641615 
L 163.2785 236.342175 
L 164.3945 190.271535 
L 165.5105 153.681135 
L 166.6265 177.631215 
L 167.7425 161.997135 
L 168.8585 207.236175 
L 169.9745 176.134335 
L 171.0905 158.171775 
L 172.2065 171.643695 
L 173.3225 180.957615 
L 174.4385 240.500175 
L 175.5545 177.464895 
L 176.6705 130.728975 
L 177.7865 229.024095 
L 178.9025 181.789215 
L 180.0185 177.797535 
L 181.1345 194.429535 
L 182.2505 215.718495 
L 183.3665 195.427455 
L 184.4825 115.760175 
L 185.5985 203.909775 
L 186.7145 157.839135 
L 187.8305 214.720575 
L 188.9465 173.639535 
L 190.0625 147.693615 
L 191.1785 167.652015 
L 192.2945 219.211215 
L 193.4105 154.346415 
L 194.5265 174.138495 
L 195.6425 161.498175 
L 196.7585 144.533535 
L 197.8745 191.269455 
L 198.9905 120.749775 
L 200.1065 194.096895 
L 201.2225 163.660335 
L 202.3385 170.146815 
L 203.4545 201.082335 
L 204.5705 188.442015 
L 205.6865 196.425375 
L 206.8025 158.171775 
L 207.9185 199.751775 
L 209.0345 196.591695 
L 210.1505 188.940975 
L 211.2665 230.022015 
L 212.3825 168.816255 
L 213.4985 165.988815 
L 214.6145 174.304815 
L 215.7305 189.772575 
L 216.8465 144.367215 
L 217.9625 146.695695 
L 219.0785 191.269455 
L 220.1945 175.302735 
L 221.3105 156.508575 
L 222.4265 210.895215 
L 223.5425 169.481535 
L 224.6585 141.207135 
L 225.7745 233.348415 
L 226.8905 180.292335 
L 228.0065 178.462815 
L 229.1225 179.294415 
L 230.2385 171.311055 
L 231.3545 186.945135 
L 232.4705 138.047055 
L 233.5865 162.329775 
L 234.7025 157.007535 
L 235.8185 222.038655 
L 236.9345 133.556415 
L 238.0505 177.797535 
L 239.1665 188.940975 
L 240.2825 162.662415 
L 241.3985 218.545935 
L 242.5145 208.899375 
L 243.6305 217.215375 
L 244.7465 190.105215 
L 245.8625 169.814175 
L 246.9785 208.899375 
L 248.0945 195.593775 
L 249.2105 180.458655 
L 250.3265 193.597935 
L 251.4425 211.061535 
L 252.5585 184.284015 
L 253.6745 240.167535 
L 254.7905 154.180095 
L 255.9065 228.691455 
L 257.0225 168.649935 
L 258.1385 172.641615 
L 259.2545 187.277775 
L 260.3705 164.159295 
L 261.4865 145.864095 
L 262.6025 216.716415 
L 263.7185 209.065695 
L 264.8345 185.947215 
L 265.9505 167.319375 
L 267.0665 117.423375 
L 268.1825 244.990815 
L 269.2985 175.302735 
L 270.4145 171.976335 
L 271.5305 154.180095 
L 272.6465 201.082335 
L 273.7625 200.916015 
L 274.8785 201.913935 
L 275.9945 208.733055 
L 277.1105 146.363055 
L 278.2265 178.795455 
L 279.3425 175.635375 
L 280.4585 169.315215 
L 281.5745 188.774655 
L 282.6905 203.743455 
L 283.8065 163.494015 
L 284.9225 192.932655 
L 286.0385 160.333935 
L 287.1545 156.841215 
L 288.2705 123.577215 
L 289.3865 255.635295 
L 290.5025 195.094815 
L 291.6185 178.961775 
L 292.7345 168.150975 
L 293.8505 167.319375 
L 294.9665 176.134335 
L 296.0825 201.747615 
L 297.1985 179.294415 
L 298.3145 203.577135 
L 299.4305 147.028335 
L 300.5465 189.938895 
L 301.6625 154.346415 
L 302.7785 154.180095 
L 303.8945 212.225775 
L 305.0105 189.439935 
L 306.1265 134.221695 
L 307.2425 154.346415 
L 308.3585 192.101055 
L 309.4745 206.404575 
L 310.5905 163.161375 
L 311.7065 167.153055 
L 312.8225 258.296415 
L 313.9385 173.805855 
L 315.0545 192.267375 
L 316.1705 168.150975 
L 317.2865 187.610415 
L 318.4025 185.780895 
L 319.5185 185.448255 
L 320.6345 133.889055 
L 321.7505 189.772575 
L 322.8665 190.437855 
L 323.9825 155.843295 
L 325.0985 151.352655 
L 326.2145 178.462815 
L 328.4465 148.691535 
L 329.5625 168.816255 
L 330.6785 171.976335 
L 331.7945 161.664495 
L 332.9105 170.645775 
L 334.0265 196.758015 
L 335.1425 157.340175 
L 336.2585 187.111455 
L 337.3745 213.390015 
L 338.4905 182.454495 
L 339.6065 166.820415 
L 340.7225 179.627055 
L 341.8385 169.481535 
L 342.9545 205.406655 
L 344.0705 177.464895 
L 345.1865 198.753855 
L 346.3025 183.951375 
L 347.4185 150.853695 
L 348.5345 160.999215 
L 349.6505 231.518895 
L 351.8825 145.198815 
L 352.9985 226.362975 
L 354.1145 162.828735 
L 355.2305 161.664495 
L 356.3465 201.082335 
L 357.4625 222.870255 
L 358.5785 139.543935 
L 359.6945 115.593855 
L 360.8105 191.103135 
L 361.9265 176.965935 
L 363.0425 149.523135 
L 364.1585 177.298575 
L 365.2745 177.298575 
L 366.3905 169.647855 
L 367.5065 164.824575 
L 368.6225 152.683215 
L 369.7385 167.485695 
L 370.8545 200.084415 
L 371.9705 171.976335 
L 373.0865 150.853695 
L 374.2025 184.949295 
L 375.3185 171.311055 
L 376.4345 185.281935 
L 377.5505 175.968015 
L 378.6665 216.051135 
L 379.7825 199.585455 
L 382.0145 171.311055 
L 383.1305 180.292335 
L 384.2465 186.612495 
L 385.3625 154.845375 
L 387.5945 215.219535 
L 388.7105 162.496095 
L 389.8265 185.614575 
L 390.9425 184.117695 
L 392.0585 202.412895 
L 393.1745 168.317295 
L 394.2905 155.011695 
L 395.4065 170.645775 
L 396.5225 178.629135 
L 397.6385 159.003375 
L 398.7545 182.787135 
L 399.8705 196.758015 
L 400.9865 172.807935 
L 402.1025 176.799615 
L 403.2185 149.523135 
L 404.3345 186.612495 
L 405.4505 170.479455 
L 406.5665 234.845295 
L 407.6825 132.724815 
L 408.7985 176.799615 
L 409.9145 128.899455 
L 411.0305 152.017935 
L 412.1465 128.400495 
L 413.2625 219.211215 
L 414.3785 175.136415 
L 415.4945 193.597935 
L 416.6105 139.211295 
L 417.7265 152.350575 
L 418.8425 187.610415 
L 419.9585 175.968015 
L 421.0745 184.117695 
L 422.1905 155.178015 
L 423.3065 148.192575 
L 424.4225 146.363055 
L 425.5385 181.789215 
L 426.6545 234.678975 
L 427.7705 201.414975 
L 428.8865 204.907695 
L 430.0025 173.306895 
L 431.1185 148.525215 
L 432.2345 210.063615 
L 433.3505 217.215375 
L 434.4665 137.215455 
L 435.5825 168.982575 
L 436.6985 169.980495 
L 437.8145 177.298575 
L 438.9305 116.924415 
L 440.0465 181.789215 
L 441.1625 182.620815 
L 442.2785 194.096895 
L 443.3945 194.263215 
L 444.5105 148.358895 
L 445.6265 162.662415 
L 446.7425 193.597935 
L 447.8585 186.612495 
L 448.9745 126.404655 
L 450.0905 187.277775 
L 451.2065 193.431615 
L 452.3225 176.633295 
L 453.4385 144.200895 
L 454.5545 198.753855 
L 455.6705 217.548015 
L 456.7865 185.614575 
L 457.9025 158.670735 
L 459.0185 228.026175 
L 460.1345 168.982575 
L 461.2505 134.055375 
L 463.4825 196.924335 
L 464.5985 171.976335 
L 465.7145 179.460735 
L 466.8305 164.159295 
L 467.9465 158.171775 
L 469.0625 147.859935 
L 470.1785 167.485695 
L 471.2945 154.013775 
L 472.4105 147.859935 
L 473.5265 188.940975 
L 474.6425 159.336015 
L 475.7585 225.697695 
L 476.8745 169.980495 
L 477.9905 128.733135 
L 479.1065 185.281935 
L 480.2225 138.712335 
L 481.3385 162.163455 
L 482.4545 197.256975 
L 483.5705 170.645775 
L 484.6865 176.300655 
L 485.8025 183.286095 
L 486.9185 134.221695 
L 488.0345 140.708175 
L 489.1505 183.286095 
L 490.2665 152.184255 
L 491.3825 213.888975 
L 492.4985 152.017935 
L 493.6145 179.959695 
L 494.7305 175.136415 
L 495.8465 150.022095 
L 496.9625 172.807935 
L 498.0785 138.047055 
L 499.1945 216.383775 
L 500.3105 251.809935 
L 501.4265 219.211215 
L 502.5425 172.807935 
L 503.6585 201.248655 
L 504.7745 187.610415 
L 505.8905 179.627055 
L 507.0065 165.822495 
L 508.1225 194.928495 
L 509.2385 166.155135 
L 510.3545 160.500255 
L 511.4705 198.421215 
L 512.5865 169.148895 
L 513.7025 209.065695 
L 514.8185 203.743455 
L 515.9345 207.069855 
L 517.0505 193.930575 
L 518.1665 208.400415 
L 519.2825 198.254895 
L 520.3985 160.666575 
L 521.5145 172.974255 
L 522.6305 135.385935 
L 523.7465 184.949295 
L 524.8625 163.992975 
L 525.9785 214.886895 
L 528.2105 148.857855 
L 529.3265 173.140575 
L 531.5585 185.614575 
L 532.6745 189.772575 
L 533.7905 174.803775 
L 534.9065 179.959695 
L 536.0225 203.078175 
L 537.1385 143.036655 
L 538.2545 166.820415 
L 539.3705 165.988815 
L 540.4865 166.654095 
L 541.6025 199.252815 
L 542.7185 213.722655 
L 543.8345 186.446175 
L 544.9505 145.531455 
L 547.1825 184.782975 
L 548.2985 182.620815 
L 549.4145 168.649935 
L 550.5305 204.242415 
L 551.6465 171.477375 
L 552.7625 205.240335 
L 553.8785 157.839135 
L 554.9945 209.065695 
L 556.1105 144.200895 
L 557.2265 178.130175 
L 558.3425 169.315215 
L 559.4585 204.575055 
L 560.5745 141.706095 
L 561.6905 200.084415 
L 562.8065 225.365055 
L 563.9225 145.697775 
L 565.0385 153.681135 
L 566.1545 155.011695 
L 567.2705 145.032495 
L 568.3865 159.834975 
L 569.5025 139.377615 
L 570.6185 142.704015 
L 571.7345 159.502335 
L 572.8505 170.645775 
L 573.9665 195.094815 
L 575.0825 187.776735 
L 576.1985 209.730975 
L 577.3145 179.793375 
L 578.4305 172.142655 
L 579.5465 160.500255 
L 580.6625 180.957615 
L 581.7785 168.982575 
L 582.8945 142.704015 
L 584.0105 172.308975 
L 585.1265 222.038655 
L 586.2425 150.521055 
L 587.3585 175.302735 
L 588.4745 157.007535 
L 589.5905 213.888975 
L 590.7065 203.410815 
L 591.8225 136.716495 
L 592.9385 130.230015 
L 594.0545 152.849535 
L 595.1705 220.042815 
L 596.2865 168.982575 
L 597.4025 129.398415 
L 598.5185 185.448255 
L 599.6345 158.338095 
L 600.7505 249.481455 
L 601.8665 185.614575 
L 602.9825 143.036655 
L 604.0985 189.606255 
L 605.2145 134.388015 
L 606.3305 126.404655 
L 607.4465 178.462815 
L 608.5625 161.165535 
L 609.6785 165.988815 
L 610.7945 170.313135 
L 611.9105 216.550095 
L 613.0265 169.481535 
L 613.0265 169.481535 
" clip-path="url(#p6669e2309a)" style="fill: none; stroke: #ff0000; stroke-opacity: 0.2; stroke-width: 1.5; stroke-linecap: round"/>
   </g>
   <g id="patch_3">
    <path d="M 56.1425 354.429375 
L 56.1425 21.789375 
" style="fill: none; stroke: #ffffff; stroke-width: 1.25; stroke-linejoin: miter; stroke-linecap: square"/>
   </g>
   <g id="patch_4">
    <path d="M 614.1425 354.429375 
L 614.1425 21.789375 
" style="fill: none; stroke: #ffffff; stroke-width: 1.25; stroke-linejoin: miter; stroke-linecap: square"/>
   </g>
   <g id="patch_5">
    <path d="M 56.1425 354.429375 
L 614.1425 354.429375 
" style="fill: none; stroke: #ffffff; stroke-width: 1.25; stroke-linejoin: miter; stroke-linecap: square"/>
   </g>
   <g id="patch_6">
    <path d="M 56.1425 21.789375 
L 614.1425 21.789375 
" style="fill: none; stroke: #ffffff; stroke-width: 1.25; stroke-linejoin: miter; stroke-linecap: square"/>
   </g>
   <g id="text_18">
    <!-- Rewards per episode -->
    <g style="fill: #262626" transform="translate(278.448125 15.789375) scale(0.12 -0.12)">
     <defs>
      <path id="ArialMT-20" transform="scale(0.015625)"/>
     </defs>
     <use xlink:href="#ArialMT-52"/>
     <use xlink:href="#ArialMT-65" x="72.216797"/>
     <use xlink:href="#ArialMT-77" x="127.832031"/>
     <use xlink:href="#ArialMT-61" x="200.048828"/>
     <use xlink:href="#ArialMT-72" x="255.664062"/>
     <use xlink:href="#ArialMT-64" x="288.964844"/>
     <use xlink:href="#ArialMT-73" x="344.580078"/>
     <use xlink:href="#ArialMT-20" x="394.580078"/>
     <use xlink:href="#ArialMT-70" x="422.363281"/>
     <use xlink:href="#ArialMT-65" x="477.978516"/>
     <use xlink:href="#ArialMT-72" x="533.59375"/>
     <use xlink:href="#ArialMT-20" x="566.894531"/>
     <use xlink:href="#ArialMT-65" x="594.677734"/>
     <use xlink:href="#ArialMT-70" x="650.292969"/>
     <use xlink:href="#ArialMT-69" x="705.908203"/>
     <use xlink:href="#ArialMT-73" x="728.125"/>
     <use xlink:href="#ArialMT-6f" x="778.125"/>
     <use xlink:href="#ArialMT-64" x="833.740234"/>
     <use xlink:href="#ArialMT-65" x="889.355469"/>
    </g>
   </g>
   <g id="legend_1">
    <g id="patch_7">
     <path d="M 602.0425 36.089375 
L 606.4425 36.089375 
Q 608.6425 36.089375 608.6425 33.889375 
L 608.6425 29.489375 
Q 608.6425 27.289375 606.4425 27.289375 
L 602.0425 27.289375 
Q 599.8425 27.289375 599.8425 29.489375 
L 599.8425 33.889375 
Q 599.8425 36.089375 602.0425 36.089375 
z
" style="fill: #eaeaf2; opacity: 0.8; stroke: #cccccc; stroke-linejoin: miter"/>
    </g>
   </g>
  </g>
 </g>
 <defs>
  <clipPath id="p6669e2309a">
   <rect x="56.1425" y="21.789375" width="558" height="332.64"/>
  </clipPath>
 </defs>
</svg>
