<?xml version="1.0" encoding="utf-8" standalone="no"?>
<!DOCTYPE svg PUBLIC "-//W3C//DTD SVG 1.1//EN"
  "http://www.w3.org/Graphics/SVG/1.1/DTD/svg11.dtd">
<svg xmlns:xlink="http://www.w3.org/1999/xlink" width="645.224531pt" height="397.917813pt" viewBox="0 0 645.224531 397.917813" xmlns="http://www.w3.org/2000/svg" version="1.1">
 <metadata>
  <rdf:RDF xmlns:dc="http://purl.org/dc/elements/1.1/" xmlns:cc="http://creativecommons.org/ns#" xmlns:rdf="http://www.w3.org/1999/02/22-rdf-syntax-ns#">
   <cc:Work>
    <dc:type rdf:resource="http://purl.org/dc/dcmitype/StillImage"/>
    <dc:date>2023-11-04T09:41:25.479213</dc:date>
    <dc:format>image/svg+xml</dc:format>
    <dc:creator>
     <cc:Agent>
      <dc:title>Matplotlib v3.7.1, https://matplotlib.org/</dc:title>
     </cc:Agent>
    </dc:creator>
   </cc:Work>
  </rdf:RDF>
 </metadata>
 <defs>
  <style type="text/css">*{stroke-linejoin: round; stroke-linecap: butt}</style>
 </defs>
 <g id="figure_1">
  <g id="patch_1">
   <path d="M 0 397.917813 
L 645.224531 397.917813 
L 645.224531 0 
L 0 0 
z
" style="fill: #ffffff"/>
  </g>
  <g id="axes_1">
   <g id="patch_2">
    <path d="M 69.526406 354.958125 
L 627.526406 354.958125 
L 627.526406 22.318125 
L 69.526406 22.318125 
z
" style="fill: #eaeaf2"/>
   </g>
   <g id="matplotlib.axis_1">
    <g id="xtick_1">
     <g id="line2d_1">
      <path d="M 69.526406 354.958125 
L 69.526406 22.318125 
" clip-path="url(#pd4e59f60de)" style="fill: none; stroke: #ffffff; stroke-linecap: round"/>
     </g>
     <g id="text_1">
      <!-- 0 -->
      <g style="fill: #262626" transform="translate(66.027031 372.816406) scale(0.11 -0.11)">
       <defs>
        <path id="DejaVuSans-30" d="M 2034 4250 
Q 1547 4250 1301 3770 
Q 1056 3291 1056 2328 
Q 1056 1369 1301 889 
Q 1547 409 2034 409 
Q 2525 409 2770 889 
Q 3016 1369 3016 2328 
Q 3016 3291 2770 3770 
Q 2525 4250 2034 4250 
z
M 2034 4750 
Q 2819 4750 3233 4129 
Q 3647 3509 3647 2328 
Q 3647 1150 3233 529 
Q 2819 -91 2034 -91 
Q 1250 -91 836 529 
Q 422 1150 422 2328 
Q 422 3509 836 4129 
Q 1250 4750 2034 4750 
z
" transform="scale(0.015625)"/>
       </defs>
       <use xlink:href="#DejaVuSans-30"/>
      </g>
     </g>
    </g>
    <g id="xtick_2">
     <g id="line2d_2">
      <path d="M 181.126406 354.958125 
L 181.126406 22.318125 
" clip-path="url(#pd4e59f60de)" style="fill: none; stroke: #ffffff; stroke-linecap: round"/>
     </g>
     <g id="text_2">
      <!-- 100 -->
      <g style="fill: #262626" transform="translate(170.628281 372.816406) scale(0.11 -0.11)">
       <defs>
        <path id="DejaVuSans-31" d="M 794 531 
L 1825 531 
L 1825 4091 
L 703 3866 
L 703 4441 
L 1819 4666 
L 2450 4666 
L 2450 531 
L 3481 531 
L 3481 0 
L 794 0 
L 794 531 
z
" transform="scale(0.015625)"/>
       </defs>
       <use xlink:href="#DejaVuSans-31"/>
       <use xlink:href="#DejaVuSans-30" x="63.623047"/>
       <use xlink:href="#DejaVuSans-30" x="127.246094"/>
      </g>
     </g>
    </g>
    <g id="xtick_3">
     <g id="line2d_3">
      <path d="M 292.726406 354.958125 
L 292.726406 22.318125 
" clip-path="url(#pd4e59f60de)" style="fill: none; stroke: #ffffff; stroke-linecap: round"/>
     </g>
     <g id="text_3">
      <!-- 200 -->
      <g style="fill: #262626" transform="translate(282.228281 372.816406) scale(0.11 -0.11)">
       <defs>
        <path id="DejaVuSans-32" d="M 1228 531 
L 3431 531 
L 3431 0 
L 469 0 
L 469 531 
Q 828 903 1448 1529 
Q 2069 2156 2228 2338 
Q 2531 2678 2651 2914 
Q 2772 3150 2772 3378 
Q 2772 3750 2511 3984 
Q 2250 4219 1831 4219 
Q 1534 4219 1204 4116 
Q 875 4013 500 3803 
L 500 4441 
Q 881 4594 1212 4672 
Q 1544 4750 1819 4750 
Q 2544 4750 2975 4387 
Q 3406 4025 3406 3419 
Q 3406 3131 3298 2873 
Q 3191 2616 2906 2266 
Q 2828 2175 2409 1742 
Q 1991 1309 1228 531 
z
" transform="scale(0.015625)"/>
       </defs>
       <use xlink:href="#DejaVuSans-32"/>
       <use xlink:href="#DejaVuSans-30" x="63.623047"/>
       <use xlink:href="#DejaVuSans-30" x="127.246094"/>
      </g>
     </g>
    </g>
    <g id="xtick_4">
     <g id="line2d_4">
      <path d="M 404.326406 354.958125 
L 404.326406 22.318125 
" clip-path="url(#pd4e59f60de)" style="fill: none; stroke: #ffffff; stroke-linecap: round"/>
     </g>
     <g id="text_4">
      <!-- 300 -->
      <g style="fill: #262626" transform="translate(393.828281 372.816406) scale(0.11 -0.11)">
       <defs>
        <path id="DejaVuSans-33" d="M 2597 2516 
Q 3050 2419 3304 2112 
Q 3559 1806 3559 1356 
Q 3559 666 3084 287 
Q 2609 -91 1734 -91 
Q 1441 -91 1130 -33 
Q 819 25 488 141 
L 488 750 
Q 750 597 1062 519 
Q 1375 441 1716 441 
Q 2309 441 2620 675 
Q 2931 909 2931 1356 
Q 2931 1769 2642 2001 
Q 2353 2234 1838 2234 
L 1294 2234 
L 1294 2753 
L 1863 2753 
Q 2328 2753 2575 2939 
Q 2822 3125 2822 3475 
Q 2822 3834 2567 4026 
Q 2313 4219 1838 4219 
Q 1578 4219 1281 4162 
Q 984 4106 628 3988 
L 628 4550 
Q 988 4650 1302 4700 
Q 1616 4750 1894 4750 
Q 2613 4750 3031 4423 
Q 3450 4097 3450 3541 
Q 3450 3153 3228 2886 
Q 3006 2619 2597 2516 
z
" transform="scale(0.015625)"/>
       </defs>
       <use xlink:href="#DejaVuSans-33"/>
       <use xlink:href="#DejaVuSans-30" x="63.623047"/>
       <use xlink:href="#DejaVuSans-30" x="127.246094"/>
      </g>
     </g>
    </g>
    <g id="xtick_5">
     <g id="line2d_5">
      <path d="M 515.926406 354.958125 
L 515.926406 22.318125 
" clip-path="url(#pd4e59f60de)" style="fill: none; stroke: #ffffff; stroke-linecap: round"/>
     </g>
     <g id="text_5">
      <!-- 400 -->
      <g style="fill: #262626" transform="translate(505.428281 372.816406) scale(0.11 -0.11)">
       <defs>
        <path id="DejaVuSans-34" d="M 2419 4116 
L 825 1625 
L 2419 1625 
L 2419 4116 
z
M 2253 4666 
L 3047 4666 
L 3047 1625 
L 3713 1625 
L 3713 1100 
L 3047 1100 
L 3047 0 
L 2419 0 
L 2419 1100 
L 313 1100 
L 313 1709 
L 2253 4666 
z
" transform="scale(0.015625)"/>
       </defs>
       <use xlink:href="#DejaVuSans-34"/>
       <use xlink:href="#DejaVuSans-30" x="63.623047"/>
       <use xlink:href="#DejaVuSans-30" x="127.246094"/>
      </g>
     </g>
    </g>
    <g id="xtick_6">
     <g id="line2d_6">
      <path d="M 627.526406 354.958125 
L 627.526406 22.318125 
" clip-path="url(#pd4e59f60de)" style="fill: none; stroke: #ffffff; stroke-linecap: round"/>
     </g>
     <g id="text_6">
      <!-- 500 -->
      <g style="fill: #262626" transform="translate(617.028281 372.816406) scale(0.11 -0.11)">
       <defs>
        <path id="DejaVuSans-35" d="M 691 4666 
L 3169 4666 
L 3169 4134 
L 1269 4134 
L 1269 2991 
Q 1406 3038 1543 3061 
Q 1681 3084 1819 3084 
Q 2600 3084 3056 2656 
Q 3513 2228 3513 1497 
Q 3513 744 3044 326 
Q 2575 -91 1722 -91 
Q 1428 -91 1123 -41 
Q 819 9 494 109 
L 494 744 
Q 775 591 1075 516 
Q 1375 441 1709 441 
Q 2250 441 2565 725 
Q 2881 1009 2881 1497 
Q 2881 1984 2565 2268 
Q 2250 2553 1709 2553 
Q 1456 2553 1204 2497 
Q 953 2441 691 2322 
L 691 4666 
z
" transform="scale(0.015625)"/>
       </defs>
       <use xlink:href="#DejaVuSans-35"/>
       <use xlink:href="#DejaVuSans-30" x="63.623047"/>
       <use xlink:href="#DejaVuSans-30" x="127.246094"/>
      </g>
     </g>
    </g>
    <g id="text_7">
     <!-- Episode -->
     <g style="fill: #262626" transform="translate(324.961406 388.222188) scale(0.12 -0.12)">
      <defs>
       <path id="DejaVuSans-45" d="M 628 4666 
L 3578 4666 
L 3578 4134 
L 1259 4134 
L 1259 2753 
L 3481 2753 
L 3481 2222 
L 1259 2222 
L 1259 531 
L 3634 531 
L 3634 0 
L 628 0 
L 628 4666 
z
" transform="scale(0.015625)"/>
       <path id="DejaVuSans-70" d="M 1159 525 
L 1159 -1331 
L 581 -1331 
L 581 3500 
L 1159 3500 
L 1159 2969 
Q 1341 3281 1617 3432 
Q 1894 3584 2278 3584 
Q 2916 3584 3314 3078 
Q 3713 2572 3713 1747 
Q 3713 922 3314 415 
Q 2916 -91 2278 -91 
Q 1894 -91 1617 61 
Q 1341 213 1159 525 
z
M 3116 1747 
Q 3116 2381 2855 2742 
Q 2594 3103 2138 3103 
Q 1681 3103 1420 2742 
Q 1159 2381 1159 1747 
Q 1159 1113 1420 752 
Q 1681 391 2138 391 
Q 2594 391 2855 752 
Q 3116 1113 3116 1747 
z
" transform="scale(0.015625)"/>
       <path id="DejaVuSans-69" d="M 603 3500 
L 1178 3500 
L 1178 0 
L 603 0 
L 603 3500 
z
M 603 4863 
L 1178 4863 
L 1178 4134 
L 603 4134 
L 603 4863 
z
" transform="scale(0.015625)"/>
       <path id="DejaVuSans-73" d="M 2834 3397 
L 2834 2853 
Q 2591 2978 2328 3040 
Q 2066 3103 1784 3103 
Q 1356 3103 1142 2972 
Q 928 2841 928 2578 
Q 928 2378 1081 2264 
Q 1234 2150 1697 2047 
L 1894 2003 
Q 2506 1872 2764 1633 
Q 3022 1394 3022 966 
Q 3022 478 2636 193 
Q 2250 -91 1575 -91 
Q 1294 -91 989 -36 
Q 684 19 347 128 
L 347 722 
Q 666 556 975 473 
Q 1284 391 1588 391 
Q 1994 391 2212 530 
Q 2431 669 2431 922 
Q 2431 1156 2273 1281 
Q 2116 1406 1581 1522 
L 1381 1569 
Q 847 1681 609 1914 
Q 372 2147 372 2553 
Q 372 3047 722 3315 
Q 1072 3584 1716 3584 
Q 2034 3584 2315 3537 
Q 2597 3491 2834 3397 
z
" transform="scale(0.015625)"/>
       <path id="DejaVuSans-6f" d="M 1959 3097 
Q 1497 3097 1228 2736 
Q 959 2375 959 1747 
Q 959 1119 1226 758 
Q 1494 397 1959 397 
Q 2419 397 2687 759 
Q 2956 1122 2956 1747 
Q 2956 2369 2687 2733 
Q 2419 3097 1959 3097 
z
M 1959 3584 
Q 2709 3584 3137 3096 
Q 3566 2609 3566 1747 
Q 3566 888 3137 398 
Q 2709 -91 1959 -91 
Q 1206 -91 779 398 
Q 353 888 353 1747 
Q 353 2609 779 3096 
Q 1206 3584 1959 3584 
z
" transform="scale(0.015625)"/>
       <path id="DejaVuSans-64" d="M 2906 2969 
L 2906 4863 
L 3481 4863 
L 3481 0 
L 2906 0 
L 2906 525 
Q 2725 213 2448 61 
Q 2172 -91 1784 -91 
Q 1150 -91 751 415 
Q 353 922 353 1747 
Q 353 2572 751 3078 
Q 1150 3584 1784 3584 
Q 2172 3584 2448 3432 
Q 2725 3281 2906 2969 
z
M 947 1747 
Q 947 1113 1208 752 
Q 1469 391 1925 391 
Q 2381 391 2643 752 
Q 2906 1113 2906 1747 
Q 2906 2381 2643 2742 
Q 2381 3103 1925 3103 
Q 1469 3103 1208 2742 
Q 947 2381 947 1747 
z
" transform="scale(0.015625)"/>
       <path id="DejaVuSans-65" d="M 3597 1894 
L 3597 1613 
L 953 1613 
Q 991 1019 1311 708 
Q 1631 397 2203 397 
Q 2534 397 2845 478 
Q 3156 559 3463 722 
L 3463 178 
Q 3153 47 2828 -22 
Q 2503 -91 2169 -91 
Q 1331 -91 842 396 
Q 353 884 353 1716 
Q 353 2575 817 3079 
Q 1281 3584 2069 3584 
Q 2775 3584 3186 3129 
Q 3597 2675 3597 1894 
z
M 3022 2063 
Q 3016 2534 2758 2815 
Q 2500 3097 2075 3097 
Q 1594 3097 1305 2825 
Q 1016 2553 972 2059 
L 3022 2063 
z
" transform="scale(0.015625)"/>
      </defs>
      <use xlink:href="#DejaVuSans-45"/>
      <use xlink:href="#DejaVuSans-70" x="63.183594"/>
      <use xlink:href="#DejaVuSans-69" x="126.660156"/>
      <use xlink:href="#DejaVuSans-73" x="154.443359"/>
      <use xlink:href="#DejaVuSans-6f" x="206.542969"/>
      <use xlink:href="#DejaVuSans-64" x="267.724609"/>
      <use xlink:href="#DejaVuSans-65" x="331.201172"/>
     </g>
    </g>
   </g>
   <g id="matplotlib.axis_2">
    <g id="ytick_1">
     <g id="line2d_7">
      <path d="M 69.526406 354.958125 
L 627.526406 354.958125 
" clip-path="url(#pd4e59f60de)" style="fill: none; stroke: #ffffff; stroke-linecap: round"/>
     </g>
     <g id="text_8">
      <!-- −2000 -->
      <g style="fill: #262626" transform="translate(22.81375 359.137266) scale(0.11 -0.11)">
       <defs>
        <path id="DejaVuSans-2212" d="M 678 2272 
L 4684 2272 
L 4684 1741 
L 678 1741 
L 678 2272 
z
" transform="scale(0.015625)"/>
       </defs>
       <use xlink:href="#DejaVuSans-2212"/>
       <use xlink:href="#DejaVuSans-32" x="83.789062"/>
       <use xlink:href="#DejaVuSans-30" x="147.412109"/>
       <use xlink:href="#DejaVuSans-30" x="211.035156"/>
       <use xlink:href="#DejaVuSans-30" x="274.658203"/>
      </g>
     </g>
    </g>
    <g id="ytick_2">
     <g id="line2d_8">
      <path d="M 69.526406 313.378125 
L 627.526406 313.378125 
" clip-path="url(#pd4e59f60de)" style="fill: none; stroke: #ffffff; stroke-linecap: round"/>
     </g>
     <g id="text_9">
      <!-- −1500 -->
      <g style="fill: #262626" transform="translate(22.81375 317.557266) scale(0.11 -0.11)">
       <use xlink:href="#DejaVuSans-2212"/>
       <use xlink:href="#DejaVuSans-31" x="83.789062"/>
       <use xlink:href="#DejaVuSans-35" x="147.412109"/>
       <use xlink:href="#DejaVuSans-30" x="211.035156"/>
       <use xlink:href="#DejaVuSans-30" x="274.658203"/>
      </g>
     </g>
    </g>
    <g id="ytick_3">
     <g id="line2d_9">
      <path d="M 69.526406 271.798125 
L 627.526406 271.798125 
" clip-path="url(#pd4e59f60de)" style="fill: none; stroke: #ffffff; stroke-linecap: round"/>
     </g>
     <g id="text_10">
      <!-- −1000 -->
      <g style="fill: #262626" transform="translate(22.81375 275.977266) scale(0.11 -0.11)">
       <use xlink:href="#DejaVuSans-2212"/>
       <use xlink:href="#DejaVuSans-31" x="83.789062"/>
       <use xlink:href="#DejaVuSans-30" x="147.412109"/>
       <use xlink:href="#DejaVuSans-30" x="211.035156"/>
       <use xlink:href="#DejaVuSans-30" x="274.658203"/>
      </g>
     </g>
    </g>
    <g id="ytick_4">
     <g id="line2d_10">
      <path d="M 69.526406 230.218125 
L 627.526406 230.218125 
" clip-path="url(#pd4e59f60de)" style="fill: none; stroke: #ffffff; stroke-linecap: round"/>
     </g>
     <g id="text_11">
      <!-- −500 -->
      <g style="fill: #262626" transform="translate(29.8125 234.397266) scale(0.11 -0.11)">
       <use xlink:href="#DejaVuSans-2212"/>
       <use xlink:href="#DejaVuSans-35" x="83.789062"/>
       <use xlink:href="#DejaVuSans-30" x="147.412109"/>
       <use xlink:href="#DejaVuSans-30" x="211.035156"/>
      </g>
     </g>
    </g>
    <g id="ytick_5">
     <g id="line2d_11">
      <path d="M 69.526406 188.638125 
L 627.526406 188.638125 
" clip-path="url(#pd4e59f60de)" style="fill: none; stroke: #ffffff; stroke-linecap: round"/>
     </g>
     <g id="text_12">
      <!-- 0 -->
      <g style="fill: #262626" transform="translate(53.027656 192.817266) scale(0.11 -0.11)">
       <use xlink:href="#DejaVuSans-30"/>
      </g>
     </g>
    </g>
    <g id="ytick_6">
     <g id="line2d_12">
      <path d="M 69.526406 147.058125 
L 627.526406 147.058125 
" clip-path="url(#pd4e59f60de)" style="fill: none; stroke: #ffffff; stroke-linecap: round"/>
     </g>
     <g id="text_13">
      <!-- 500 -->
      <g style="fill: #262626" transform="translate(39.030156 151.237266) scale(0.11 -0.11)">
       <use xlink:href="#DejaVuSans-35"/>
       <use xlink:href="#DejaVuSans-30" x="63.623047"/>
       <use xlink:href="#DejaVuSans-30" x="127.246094"/>
      </g>
     </g>
    </g>
    <g id="ytick_7">
     <g id="line2d_13">
      <path d="M 69.526406 105.478125 
L 627.526406 105.478125 
" clip-path="url(#pd4e59f60de)" style="fill: none; stroke: #ffffff; stroke-linecap: round"/>
     </g>
     <g id="text_14">
      <!-- 1000 -->
      <g style="fill: #262626" transform="translate(32.031406 109.657266) scale(0.11 -0.11)">
       <use xlink:href="#DejaVuSans-31"/>
       <use xlink:href="#DejaVuSans-30" x="63.623047"/>
       <use xlink:href="#DejaVuSans-30" x="127.246094"/>
       <use xlink:href="#DejaVuSans-30" x="190.869141"/>
      </g>
     </g>
    </g>
    <g id="ytick_8">
     <g id="line2d_14">
      <path d="M 69.526406 63.898125 
L 627.526406 63.898125 
" clip-path="url(#pd4e59f60de)" style="fill: none; stroke: #ffffff; stroke-linecap: round"/>
     </g>
     <g id="text_15">
      <!-- 1500 -->
      <g style="fill: #262626" transform="translate(32.031406 68.077266) scale(0.11 -0.11)">
       <use xlink:href="#DejaVuSans-31"/>
       <use xlink:href="#DejaVuSans-35" x="63.623047"/>
       <use xlink:href="#DejaVuSans-30" x="127.246094"/>
       <use xlink:href="#DejaVuSans-30" x="190.869141"/>
      </g>
     </g>
    </g>
    <g id="ytick_9">
     <g id="line2d_15">
      <path d="M 69.526406 22.318125 
L 627.526406 22.318125 
" clip-path="url(#pd4e59f60de)" style="fill: none; stroke: #ffffff; stroke-linecap: round"/>
     </g>
     <g id="text_16">
      <!-- 2000 -->
      <g style="fill: #262626" transform="translate(32.031406 26.497266) scale(0.11 -0.11)">
       <use xlink:href="#DejaVuSans-32"/>
       <use xlink:href="#DejaVuSans-30" x="63.623047"/>
       <use xlink:href="#DejaVuSans-30" x="127.246094"/>
       <use xlink:href="#DejaVuSans-30" x="190.869141"/>
      </g>
     </g>
    </g>
    <g id="text_17">
     <!-- Reward -->
     <g style="fill: #262626" transform="translate(16.318125 210.983438) rotate(-90) scale(0.12 -0.12)">
      <defs>
       <path id="DejaVuSans-52" d="M 2841 2188 
Q 3044 2119 3236 1894 
Q 3428 1669 3622 1275 
L 4263 0 
L 3584 0 
L 2988 1197 
Q 2756 1666 2539 1819 
Q 2322 1972 1947 1972 
L 1259 1972 
L 1259 0 
L 628 0 
L 628 4666 
L 2053 4666 
Q 2853 4666 3247 4331 
Q 3641 3997 3641 3322 
Q 3641 2881 3436 2590 
Q 3231 2300 2841 2188 
z
M 1259 4147 
L 1259 2491 
L 2053 2491 
Q 2509 2491 2742 2702 
Q 2975 2913 2975 3322 
Q 2975 3731 2742 3939 
Q 2509 4147 2053 4147 
L 1259 4147 
z
" transform="scale(0.015625)"/>
       <path id="DejaVuSans-77" d="M 269 3500 
L 844 3500 
L 1563 769 
L 2278 3500 
L 2956 3500 
L 3675 769 
L 4391 3500 
L 4966 3500 
L 4050 0 
L 3372 0 
L 2619 2869 
L 1863 0 
L 1184 0 
L 269 3500 
z
" transform="scale(0.015625)"/>
       <path id="DejaVuSans-61" d="M 2194 1759 
Q 1497 1759 1228 1600 
Q 959 1441 959 1056 
Q 959 750 1161 570 
Q 1363 391 1709 391 
Q 2188 391 2477 730 
Q 2766 1069 2766 1631 
L 2766 1759 
L 2194 1759 
z
M 3341 1997 
L 3341 0 
L 2766 0 
L 2766 531 
Q 2569 213 2275 61 
Q 1981 -91 1556 -91 
Q 1019 -91 701 211 
Q 384 513 384 1019 
Q 384 1609 779 1909 
Q 1175 2209 1959 2209 
L 2766 2209 
L 2766 2266 
Q 2766 2663 2505 2880 
Q 2244 3097 1772 3097 
Q 1472 3097 1187 3025 
Q 903 2953 641 2809 
L 641 3341 
Q 956 3463 1253 3523 
Q 1550 3584 1831 3584 
Q 2591 3584 2966 3190 
Q 3341 2797 3341 1997 
z
" transform="scale(0.015625)"/>
       <path id="DejaVuSans-72" d="M 2631 2963 
Q 2534 3019 2420 3045 
Q 2306 3072 2169 3072 
Q 1681 3072 1420 2755 
Q 1159 2438 1159 1844 
L 1159 0 
L 581 0 
L 581 3500 
L 1159 3500 
L 1159 2956 
Q 1341 3275 1631 3429 
Q 1922 3584 2338 3584 
Q 2397 3584 2469 3576 
Q 2541 3569 2628 3553 
L 2631 2963 
z
" transform="scale(0.015625)"/>
      </defs>
      <use xlink:href="#DejaVuSans-52"/>
      <use xlink:href="#DejaVuSans-65" x="64.982422"/>
      <use xlink:href="#DejaVuSans-77" x="126.505859"/>
      <use xlink:href="#DejaVuSans-61" x="208.292969"/>
      <use xlink:href="#DejaVuSans-72" x="269.572266"/>
      <use xlink:href="#DejaVuSans-64" x="308.935547"/>
     </g>
    </g>
   </g>
   <g id="line2d_16">
    <path d="M 73.84998 398.917813 
L 73.990406 167.266005 
L 75.106406 157.785765 
L 76.222406 144.729645 
L 77.338406 158.866845 
L 78.454406 153.378285 
L 79.570406 156.787845 
L 80.686406 156.372045 
L 81.802406 173.336685 
L 82.918406 168.263925 
L 84.034406 161.195325 
L 85.150406 176.247285 
L 86.266406 168.762885 
L 87.382406 169.178685 
L 88.498406 169.178685 
L 89.614406 170.259765 
L 90.730406 165.852285 
L 91.846406 174.833565 
L 92.962406 169.594485 
L 94.078406 168.263925 
L 95.194406 168.596565 
L 96.310406 169.261845 
L 97.426406 159.781605 
L 98.542406 166.184925 
L 99.658406 161.694285 
L 100.774406 163.024845 
L 101.890406 168.430245 
L 103.006406 172.172445 
L 104.122406 151.964565 
L 105.238406 170.675565 
L 106.354406 155.540445 
L 107.470406 167.598645 
L 108.586406 171.839805 
L 109.702406 167.099685 
L 110.818406 169.760805 
L 111.934406 164.355405 
L 113.050406 163.191165 
L 114.166406 170.176605 
L 115.282406 158.866845 
L 116.398406 158.451045 
L 117.514406 170.841885 
L 118.630406 154.625685 
L 119.746406 159.947925 
L 120.862406 157.037325 
L 121.978406 169.178685 
L 123.094406 174.584085 
L 124.210406 144.729645 
L 125.326406 178.159965 
L 126.442406 161.611125 
L 127.558406 163.523805 
L 128.674406 153.544605 
L 129.790406 157.536285 
L 130.906406 169.178685 
L 132.022406 168.929205 
L 133.138406 149.386605 
L 134.254406 154.958325 
L 135.370406 148.305525 
L 136.486406 144.480165 
L 137.602406 150.051885 
L 138.718406 162.110085 
L 139.834406 146.725485 
L 140.950406 157.203645 
L 142.066406 152.796165 
L 143.182406 165.602805 
L 144.298406 135.748365 
L 145.414406 154.376205 
L 146.530406 163.440645 
L 147.646406 160.446885 
L 148.762406 146.808645 
L 149.878406 154.542525 
L 150.994406 143.399085 
L 152.110406 139.823205 
L 153.226406 146.060205 
L 154.342406 154.875165 
L 155.458406 150.301365 
L 156.574406 152.047725 
L 157.690406 160.446885 
L 158.806406 153.128805 
L 161.038406 134.500965 
L 162.154406 144.480165 
L 163.270406 161.195325 
L 164.386406 150.800325 
L 165.502406 133.253565 
L 166.618406 143.898045 
L 167.734406 150.301365 
L 168.850406 150.717165 
L 169.966406 145.478085 
L 171.082406 130.675605 
L 172.198406 168.263925 
L 173.314406 134.417805 
L 174.430406 136.663125 
L 175.546406 149.053965 
L 176.662406 139.656885 
L 177.778406 158.950005 
L 178.894406 134.251485 
L 180.010406 134.999925 
L 181.126406 145.893885 
L 182.242406 136.164165 
L 183.358406 129.594525 
L 184.474406 149.220285 
L 185.590406 150.301365 
L 186.706406 157.785765 
L 187.822406 126.268125 
L 188.938406 129.095565 
L 190.054406 156.372045 
L 191.170406 144.480165 
L 192.286406 142.484325 
L 193.402406 127.349205 
L 194.518406 137.078925 
L 195.634406 142.983285 
L 196.750406 134.085165 
L 197.866406 136.247325 
L 198.982406 135.665205 
L 200.098406 140.654805 
L 201.214406 139.989525 
L 202.330406 124.771245 
L 203.446406 130.509285 
L 204.562406 138.326325 
L 205.678406 135.582045 
L 206.794406 140.654805 
L 207.910406 135.166245 
L 209.026406 103.981245 
L 210.142406 133.087245 
L 211.258406 156.205725 
L 212.374406 130.841925 
L 213.490406 138.409485 
L 214.606406 135.748365 
L 215.722406 134.999925 
L 216.838406 140.821125 
L 217.954406 141.735885 
L 219.070406 124.438605 
L 220.186406 135.997845 
L 221.302406 148.887645 
L 222.418406 134.002005 
L 223.534406 151.299285 
L 224.650406 133.669365 
L 225.766406 139.241085 
L 226.882406 128.263965 
L 227.998406 134.251485 
L 229.114406 150.800325 
L 230.230406 133.004085 
L 231.346406 129.095565 
L 232.462406 123.191205 
L 233.578406 141.486405 
L 234.694406 132.006165 
L 235.810406 138.825285 
L 236.926406 136.746285 
L 238.042406 148.970805 
L 239.158406 121.611165 
L 240.274406 156.288885 
L 241.390406 156.871005 
L 242.506406 139.906365 
L 243.622406 147.723405 
L 244.738406 125.686005 
L 246.970406 145.478085 
L 248.086406 130.093485 
L 249.202406 154.625685 
L 250.318406 150.883485 
L 251.434406 143.066445 
L 252.550406 128.014485 
L 253.666406 117.785805 
L 254.782406 147.972885 
L 255.898406 125.852325 
L 257.014406 135.083085 
L 258.130406 113.627805 
L 259.246406 121.611165 
L 260.362406 145.228605 
L 261.478406 122.442765 
L 262.594406 129.012405 
L 263.710406 140.987445 
L 264.826406 120.197445 
L 265.942406 130.176645 
L 267.058406 124.022805 
L 268.174406 142.234845 
L 269.290406 110.883525 
L 270.406406 131.507205 
L 271.522406 124.771245 
L 272.638406 140.904285 
L 273.754406 154.625685 
L 274.870406 141.153765 
L 275.986406 131.340885 
L 277.102406 118.451085 
L 278.218406 135.997845 
L 279.334406 132.588285 
L 280.450406 145.228605 
L 281.566406 128.846085 
L 282.682406 123.690165 
L 283.798406 121.444845 
L 284.914406 147.473925 
L 286.030406 141.236925 
L 287.146406 144.480165 
L 288.262406 135.083085 
L 289.378406 128.014485 
L 290.494406 136.746285 
L 291.610406 126.683925 
L 292.726406 152.297205 
L 293.842406 123.607005 
L 294.958406 141.819045 
L 296.074406 142.401165 
L 297.190406 136.496805 
L 298.306406 131.590365 
L 299.422406 133.253565 
L 300.538406 138.908445 
L 301.654406 135.831525 
L 302.770406 123.108045 
L 303.886406 138.825285 
L 305.002406 125.187045 
L 306.118406 137.078925 
L 307.234406 116.621565 
L 308.350406 128.263965 
L 309.466406 125.602845 
L 310.582406 127.349205 
L 311.698406 111.798285 
L 312.814406 137.827365 
L 313.930406 124.771245 
L 315.046406 126.767085 
L 316.162406 145.810725 
L 317.278406 130.592445 
L 318.394406 130.758765 
L 319.510406 144.397005 
L 320.626406 119.947965 
L 321.742406 137.661045 
L 322.858406 110.883525 
L 323.974406 119.615325 
L 325.090406 136.413645 
L 326.206406 138.825285 
L 327.322406 133.336725 
L 328.438406 125.686005 
L 329.554406 133.752525 
L 330.670406 128.929245 
L 331.786406 127.848165 
L 332.902406 125.436525 
L 334.018406 135.166245 
L 335.134406 147.307605 
L 336.250406 145.228605 
L 337.366406 145.062285 
L 338.482406 140.239005 
L 339.598406 139.407405 
L 340.714406 134.417805 
L 341.830406 139.823205 
L 342.946406 134.916765 
L 344.062406 127.848165 
L 345.178406 113.710965 
L 346.294406 138.076845 
L 347.410406 123.939645 
L 348.526406 130.509285 
L 349.642406 135.249405 
L 350.758406 132.255645 
L 351.874406 141.819045 
L 352.990406 127.931325 
L 354.106406 136.330485 
L 355.222406 126.600765 
L 356.338406 140.571645 
L 357.454406 125.852325 
L 358.570406 120.945885 
L 359.686406 118.866885 
L 360.802406 136.496805 
L 361.918406 137.078925 
L 363.034406 114.459405 
L 364.150406 112.130925 
L 365.266406 135.332565 
L 366.382406 115.124685 
L 367.498406 134.833605 
L 368.614406 130.509285 
L 369.730406 125.686005 
L 370.846406 122.609085 
L 371.962406 135.166245 
L 373.078406 119.033205 
L 374.194406 137.910525 
L 375.310406 131.340885 
L 376.426406 129.095565 
L 377.542406 145.644405 
L 378.658406 130.176645 
L 379.774406 137.328405 
L 380.890406 130.675605 
L 382.006406 118.035285 
L 383.122406 140.072685 
L 384.238406 123.523845 
L 385.354406 121.361685 
L 386.470406 145.810725 
L 387.586406 133.004085 
L 388.702406 118.201605 
L 389.818406 127.848165 
L 390.934406 120.530085 
L 392.050406 134.168325 
L 393.166406 138.742125 
L 394.282406 138.409485 
L 395.398406 137.328405 
L 396.514406 124.105965 
L 397.630406 108.471885 
L 398.746406 96.164205 
L 399.862406 152.047725 
L 400.978406 131.174565 
L 402.094406 140.155845 
L 403.210406 117.453165 
L 404.326406 130.509285 
L 405.442406 119.033205 
L 406.558406 128.929245 
L 407.674406 127.681845 
L 408.790406 125.519685 
L 409.906406 133.087245 
L 411.022406 139.241085 
L 412.138406 150.634005 
L 413.254406 141.070605 
L 414.370406 127.598685 
L 415.486406 117.619485 
L 416.602406 125.270205 
L 417.718406 149.802405 
L 418.834406 134.251485 
L 419.950406 113.794125 
L 421.066406 154.376205 
L 422.182406 131.340885 
L 423.298406 134.584125 
L 424.414406 137.411565 
L 425.530406 135.665205 
L 426.646406 112.047765 
L 427.762406 152.463525 
L 428.878406 130.010325 
L 429.994406 115.291005 
L 431.110406 115.041525 
L 432.226406 122.692245 
L 433.342406 96.995805 
L 434.458406 120.114285 
L 435.574406 133.004085 
L 436.690406 149.802405 
L 437.806406 138.825285 
L 438.922406 104.729685 
L 440.038406 113.212005 
L 441.154406 137.993685 
L 442.270406 134.417805 
L 443.386406 132.338805 
L 444.502406 135.498885 
L 445.618406 140.571645 
L 446.734406 115.457325 
L 447.850406 120.114285 
L 448.966406 129.927165 
L 450.082406 133.004085 
L 451.198406 133.503045 
L 452.314406 127.515525 
L 453.430406 149.053965 
L 454.546406 124.854405 
L 455.662406 130.841925 
L 456.778406 138.908445 
L 457.894406 129.594525 
L 459.010406 121.694325 
L 460.126406 144.480165 
L 461.242406 131.174565 
L 462.358406 130.509285 
L 463.474406 111.465645 
L 464.590406 112.962525 
L 465.706406 135.582045 
L 466.822406 130.509285 
L 467.938406 137.078925 
L 470.170406 117.453165 
L 471.286406 139.740045 
L 472.402406 131.590365 
L 473.518406 141.985365 
L 474.634406 135.582045 
L 475.750406 128.513445 
L 476.866406 132.837765 
L 477.982406 139.989525 
L 479.098406 126.184965 
L 480.214406 133.170405 
L 481.330406 137.494725 
L 482.446406 151.715085 
L 483.562406 125.935485 
L 484.678406 133.503045 
L 485.794406 136.912605 
L 486.910406 127.848165 
L 488.026406 132.505125 
L 489.142406 130.426125 
L 491.374406 114.958365 
L 492.490406 139.823205 
L 493.606406 108.139245 
L 494.722406 108.804525 
L 495.838406 115.956285 
L 496.954406 136.330485 
L 498.070406 128.097645 
L 499.186406 117.370005 
L 500.302406 119.615325 
L 501.418406 120.945885 
L 502.534406 128.014485 
L 503.650406 137.162085 
L 504.766406 147.972885 
L 505.882406 116.372085 
L 506.998406 125.852325 
L 508.114406 111.631965 
L 509.230406 143.898045 
L 510.346406 126.517605 
L 511.462406 120.945885 
L 512.578406 128.014485 
L 513.694406 119.532165 
L 514.810406 119.532165 
L 515.926406 117.702645 
L 517.042406 120.696405 
L 518.158406 138.076845 
L 519.274406 133.503045 
L 520.390406 97.245285 
L 521.506406 133.503045 
L 522.622406 120.114285 
L 523.738406 140.987445 
L 524.854406 130.426125 
L 525.970406 126.600765 
L 527.086406 122.193285 
L 528.202406 114.209925 
L 529.318406 131.424045 
L 530.434406 131.008245 
L 532.666406 117.619485 
L 533.782406 127.848165 
L 534.898406 134.500965 
L 536.014406 150.467685 
L 537.130406 133.669365 
L 538.246406 128.180805 
L 539.362406 145.893885 
L 540.478406 138.076845 
L 541.594406 128.513445 
L 542.710406 124.272285 
L 543.826406 123.607005 
L 544.942406 111.216165 
L 546.058406 121.694325 
L 547.174406 138.658965 
L 548.290406 139.989525 
L 549.406406 131.424045 
L 550.522406 134.750445 
L 551.638406 131.507205 
L 552.754406 142.816965 
L 553.870406 139.740045 
L 554.986406 137.328405 
L 556.102406 113.627805 
L 557.218406 141.236925 
L 558.334406 123.440685 
L 559.450406 125.519685 
L 560.566406 136.164165 
L 561.682406 125.187045 
L 562.798406 98.659005 
L 563.914406 134.999925 
L 565.030406 127.016565 
L 566.146406 137.078925 
L 567.262406 126.933405 
L 568.378406 119.615325 
L 569.494406 122.941725 
L 570.610406 130.925085 
L 571.726406 132.920925 
L 572.842406 132.754605 
L 573.958406 143.648565 
L 575.074406 124.105965 
L 576.190406 119.365845 
L 577.306406 145.062285 
L 578.422406 131.507205 
L 579.538406 131.839845 
L 580.654406 117.536325 
L 581.770406 133.170405 
L 582.886406 119.532165 
L 584.002406 135.249405 
L 585.118406 114.376245 
L 586.234406 133.419885 
L 587.350406 135.997845 
L 588.466406 114.209925 
L 589.582406 114.625725 
L 590.698406 127.765005 
L 591.814406 126.517605 
L 592.930406 123.523845 
L 594.046406 126.850245 
L 595.162406 133.419885 
L 596.278406 133.503045 
L 597.394406 131.174565 
L 598.510406 120.945885 
L 599.626406 121.860645 
L 601.858406 147.640245 
L 602.974406 137.162085 
L 604.090406 132.255645 
L 605.206406 131.257725 
L 606.322406 111.798285 
L 607.438406 137.661045 
L 608.554406 128.347125 
L 609.670406 135.748365 
L 610.786406 139.324245 
L 611.902406 139.989525 
L 613.018406 126.268125 
L 614.134406 128.014485 
L 615.250406 129.095565 
L 616.366406 113.378325 
L 617.482406 116.205765 
L 618.598406 130.426125 
L 619.714406 124.521765 
L 620.830406 130.093485 
L 621.946406 134.750445 
L 623.062406 116.871045 
L 624.178406 130.509285 
L 625.294406 112.047765 
L 626.410406 115.540485 
L 626.410406 115.540485 
" clip-path="url(#pd4e59f60de)" style="fill: none; stroke: #008000; stroke-opacity: 0.2; stroke-width: 1.5; stroke-linecap: round"/>
   </g>
   <g id="line2d_17">
    <path d="M 84.507493 398.917813 
L 86.266406 161.916045 
L 87.382406 162.075435 
L 88.498406 163.024845 
L 89.614406 165.152355 
L 90.730406 165.734475 
L 91.846406 167.522415 
L 94.078406 169.580625 
L 95.194406 169.185615 
L 96.310406 169.268775 
L 97.426406 169.150965 
L 98.542406 168.312435 
L 100.774406 167.210565 
L 101.890406 167.148195 
L 103.006406 167.307585 
L 104.122406 166.150275 
L 105.238406 165.803775 
L 106.354406 164.632605 
L 107.470406 164.577165 
L 108.586406 164.847435 
L 109.702406 164.667255 
L 110.818406 165.498855 
L 111.934406 165.346395 
L 113.050406 165.471135 
L 114.166406 166.067115 
L 115.282406 165.270165 
L 116.398406 164.126715 
L 117.514406 165.699825 
L 118.630406 164.362335 
L 119.746406 164.729625 
L 120.862406 163.849515 
L 121.978406 163.627755 
L 123.094406 164.251455 
L 124.210406 162.165525 
L 125.326406 163.315905 
L 126.442406 163.184235 
L 128.674406 162.186315 
L 130.906406 161.971485 
L 132.022406 163.163445 
L 133.138406 162.283335 
L 134.254406 162.110085 
L 135.370406 160.370655 
L 136.486406 157.861995 
L 137.602406 158.305515 
L 139.834406 155.727555 
L 140.950406 155.200875 
L 142.066406 155.138505 
L 143.182406 155.810715 
L 144.298406 153.024855 
L 145.414406 151.812105 
L 146.530406 152.983275 
L 147.646406 153.440655 
L 148.762406 153.315915 
L 149.878406 154.154445 
L 150.994406 153.600045 
L 152.110406 151.742805 
L 153.226406 151.687365 
L 155.458406 151.285425 
L 156.574406 150.155835 
L 157.690406 152.214045 
L 158.806406 152.110095 
L 159.922406 150.481545 
L 161.038406 148.319385 
L 162.154406 148.125345 
L 164.386406 149.296515 
L 165.502406 148.749045 
L 166.618406 148.568865 
L 167.734406 148.187715 
L 168.850406 148.222365 
L 169.966406 147.674895 
L 171.082406 145.193955 
L 172.198406 146.455215 
L 173.314406 145.665195 
L 174.430406 145.845375 
L 175.546406 146.226525 
L 176.662406 144.431655 
L 177.778406 145.110795 
L 178.894406 145.193955 
L 180.010406 144.452445 
L 181.126406 144.085155 
L 183.358406 141.548775 
L 184.474406 143.094165 
L 185.590406 141.597285 
L 186.706406 143.544615 
L 187.822406 142.678365 
L 188.938406 141.015165 
L 190.054406 142.408095 
L 191.170406 141.202275 
L 192.286406 141.888345 
L 194.518406 140.516205 
L 195.634406 141.084465 
L 196.750406 141.458685 
L 198.982406 139.157925 
L 200.098406 137.730345 
L 201.214406 138.873795 
L 202.330406 138.513435 
L 203.446406 136.358205 
L 205.678406 135.270195 
L 206.794406 136.378995 
L 207.910406 136.219605 
L 209.026406 132.969435 
L 210.142406 132.886275 
L 211.258406 134.549475 
L 212.374406 134.147535 
L 213.490406 133.960425 
L 214.606406 133.606995 
L 216.838406 135.318705 
L 217.954406 135.602835 
L 219.070406 134.674215 
L 220.186406 134.286135 
L 221.302406 135.429585 
L 222.418406 137.931315 
L 223.534406 139.448985 
L 224.650406 137.570955 
L 225.766406 138.270885 
L 226.882406 137.425425 
L 227.998406 137.300685 
L 229.114406 138.617385 
L 230.230406 137.965965 
L 231.346406 136.912605 
L 232.462406 136.808655 
L 233.578406 137.266035 
L 234.694406 135.859245 
L 235.810406 136.261185 
L 236.926406 135.048435 
L 238.042406 136.323555 
L 239.158406 134.854395 
L 240.274406 137.189805 
L 241.390406 139.074765 
L 242.506406 138.166935 
L 243.622406 139.393545 
L 244.738406 139.109415 
L 245.854406 140.162775 
L 246.970406 140.495415 
L 248.086406 140.336025 
L 250.318406 142.830825 
L 251.434406 142.338795 
L 252.550406 142.872405 
L 253.666406 139.663815 
L 254.782406 138.922305 
L 257.014406 136.697775 
L 258.130406 135.692925 
L 259.246406 134.507895 
L 260.362406 134.487105 
L 261.478406 133.849545 
L 262.594406 131.715105 
L 263.710406 130.890435 
L 264.826406 128.984685 
L 265.942406 129.164865 
L 267.058406 129.684615 
L 268.174406 129.206445 
L 269.290406 127.959045 
L 270.406406 127.661055 
L 271.522406 128.589675 
L 272.638406 130.197435 
L 273.754406 130.980525 
L 274.870406 132.539775 
L 275.986406 132.733815 
L 277.102406 130.855785 
L 278.218406 132.172485 
L 279.334406 132.373455 
L 280.450406 134.140605 
L 281.566406 133.024875 
L 282.682406 134.092095 
L 283.798406 133.253565 
L 284.914406 135.145455 
L 286.030406 135.173175 
L 287.146406 134.327715 
L 288.262406 133.821825 
L 289.378406 133.544625 
L 290.494406 135.069225 
L 291.610406 134.293065 
L 292.726406 135.935475 
L 293.842406 134.133675 
L 294.958406 135.214755 
L 296.074406 136.774005 
L 297.190406 138.028335 
L 298.306406 136.704705 
L 299.422406 136.039425 
L 300.538406 135.575115 
L 301.654406 135.637485 
L 302.770406 135.228615 
L 303.886406 135.401865 
L 305.002406 135.277125 
L 306.118406 134.008935 
L 307.234406 133.426815 
L 308.350406 132.297225 
L 309.466406 130.897365 
L 310.582406 130.135065 
L 311.698406 128.485725 
L 312.814406 128.866875 
L 313.930406 127.688775 
L 315.046406 126.933405 
L 316.162406 128.825295 
L 317.278406 128.139225 
L 318.394406 128.603535 
L 319.510406 129.213375 
L 320.626406 129.490575 
L 321.742406 130.273665 
L 322.858406 129.047055 
L 323.974406 128.402565 
L 325.090406 130.453845 
L 326.206406 130.537005 
L 327.322406 131.250795 
L 328.438406 131.160705 
L 329.554406 130.155855 
L 331.786406 129.774705 
L 332.902406 128.194665 
L 334.018406 129.462855 
L 335.134406 130.266735 
L 336.250406 133.128825 
L 337.366406 135.249405 
L 338.482406 135.568185 
L 340.714406 135.706785 
L 341.830406 136.884885 
L 342.946406 136.981905 
L 344.062406 136.891815 
L 345.178406 135.713715 
L 346.294406 136.767075 
L 347.410406 135.831525 
L 348.526406 134.431665 
L 349.642406 133.600065 
L 350.758406 132.532845 
L 351.874406 132.664515 
L 352.990406 131.708175 
L 354.106406 131.867565 
L 355.222406 130.765695 
L 356.338406 131.236935 
L 357.454406 131.070615 
L 358.570406 131.673525 
L 359.686406 130.072695 
L 360.802406 131.119125 
L 361.918406 131.666595 
L 364.150406 128.257035 
L 365.266406 127.716495 
L 366.382406 126.649275 
L 367.498406 126.524535 
L 368.614406 126.850245 
L 369.730406 125.609775 
L 370.846406 125.339505 
L 371.962406 126.524535 
L 374.194406 126.656205 
L 375.310406 126.178035 
L 376.426406 127.397715 
L 377.542406 130.190505 
L 378.658406 129.760845 
L 379.774406 131.611155 
L 380.890406 131.264655 
L 382.006406 130.225155 
L 383.122406 131.424045 
L 384.238406 131.500275 
L 385.354406 130.349895 
L 386.470406 132.581355 
L 387.586406 132.172485 
L 388.702406 131.077545 
L 389.818406 130.973595 
L 390.934406 128.880735 
L 392.050406 129.213375 
L 393.166406 129.331185 
L 394.282406 129.975675 
L 395.398406 131.583435 
L 397.630406 128.998545 
L 398.746406 126.898755 
L 399.862406 127.418505 
L 400.978406 127.266045 
L 402.094406 129.095565 
L 403.210406 128.229315 
L 404.326406 129.060915 
L 405.442406 127.799655 
L 407.674406 126.087945 
L 408.790406 125.103885 
L 409.906406 125.852325 
L 411.022406 128.416425 
L 412.138406 132.955575 
L 413.254406 132.040815 
L 414.370406 131.742825 
L 415.486406 129.864795 
L 416.602406 130.516215 
L 417.718406 132.123975 
L 418.834406 133.392165 
L 419.950406 132.130905 
L 421.066406 134.355435 
L 422.182406 134.840535 
L 423.298406 134.965275 
L 424.414406 134.812815 
L 425.530406 133.565415 
L 426.646406 131.146845 
L 427.762406 133.218915 
L 428.878406 134.251485 
L 429.994406 133.419885 
L 431.110406 130.523145 
L 432.226406 129.559875 
L 433.342406 128.160015 
L 434.458406 125.304855 
L 435.574406 125.443455 
L 436.690406 126.711645 
L 437.806406 126.829455 
L 438.922406 124.251495 
L 440.038406 124.348515 
L 441.154406 123.142695 
L 442.270406 123.509985 
L 443.386406 124.930635 
L 444.502406 126.635415 
L 446.734406 129.663825 
L 447.850406 129.663825 
L 448.966406 129.407415 
L 450.082406 128.007555 
L 451.198406 127.564035 
L 452.314406 129.462855 
L 453.430406 132.449685 
L 454.546406 131.354745 
L 455.662406 131.056755 
L 456.778406 131.604225 
L 457.894406 131.112195 
L 459.010406 129.539085 
L 460.126406 131.957655 
L 461.242406 132.879345 
L 462.358406 132.927855 
L 464.590406 129.421275 
L 465.706406 130.093485 
L 466.822406 128.548095 
L 467.938406 129.566805 
L 469.054406 129.303465 
L 470.170406 127.515525 
L 472.402406 129.185655 
L 473.518406 128.977755 
L 474.634406 129.345045 
L 475.750406 129.178725 
L 476.866406 130.959735 
L 477.982406 133.211985 
L 479.098406 132.428895 
L 480.214406 132.650655 
L 481.330406 132.685305 
L 482.446406 134.688075 
L 483.562406 135.394935 
L 484.678406 134.875185 
L 485.794406 135.318705 
L 486.910406 134.140605 
L 488.026406 133.884195 
L 489.142406 134.043585 
L 490.258406 133.211985 
L 491.374406 131.126055 
L 492.490406 132.262575 
L 493.606406 130.176645 
L 494.722406 127.785795 
L 495.838406 124.805895 
L 496.954406 125.672145 
L 498.070406 125.221695 
L 499.186406 123.593145 
L 500.302406 122.907075 
L 501.418406 121.943805 
L 502.534406 121.742835 
L 503.650406 122.934795 
L 504.766406 125.686005 
L 505.882406 123.731745 
L 506.998406 125.207835 
L 508.114406 125.443455 
L 509.230406 127.771935 
L 510.346406 126.954195 
L 511.462406 126.358215 
L 512.578406 127.245255 
L 514.810406 127.120515 
L 515.926406 126.261195 
L 517.042406 124.889055 
L 518.158406 124.064385 
L 519.274406 125.491965 
L 520.390406 123.108045 
L 521.506406 124.930635 
L 522.622406 122.948655 
L 523.738406 124.154475 
L 524.854406 124.944495 
L 525.970406 124.826685 
L 527.086406 125.048445 
L 528.202406 124.604925 
L 529.318406 125.748375 
L 530.434406 126.607695 
L 532.666406 124.112895 
L 533.782406 126.663135 
L 534.898406 126.746295 
L 536.014406 129.275745 
L 537.130406 128.665905 
L 538.246406 128.478795 
L 539.362406 130.086555 
L 541.594406 132.602145 
L 543.826406 131.389395 
L 544.942406 130.322175 
L 546.058406 130.661745 
L 547.174406 131.562645 
L 548.290406 132.020025 
L 549.406406 130.433055 
L 550.522406 130.523145 
L 551.638406 130.800345 
L 552.754406 130.543935 
L 553.870406 130.682535 
L 554.986406 131.417115 
L 556.102406 130.530075 
L 557.218406 131.999235 
L 558.334406 133.017945 
L 559.450406 133.336725 
L 560.566406 133.128825 
L 561.682406 131.895285 
L 562.798406 129.164865 
L 563.914406 129.185655 
L 566.146406 128.333265 
L 567.262406 127.266045 
L 568.378406 125.789955 
L 569.494406 126.566115 
L 570.610406 125.706795 
L 571.726406 126.496815 
L 573.958406 127.723425 
L 575.074406 127.633335 
L 576.190406 129.358905 
L 577.306406 130.197435 
L 578.422406 130.571655 
L 579.538406 130.135065 
L 580.654406 129.351975 
L 581.770406 130.481565 
L 582.886406 130.197435 
L 584.002406 130.557795 
L 585.118406 129.012405 
L 586.234406 129.067845 
L 587.350406 128.430285 
L 588.466406 127.605615 
L 589.582406 127.210605 
L 590.698406 125.769165 
L 591.814406 125.353365 
L 592.930406 124.660365 
L 594.046406 125.436525 
L 595.162406 125.457315 
L 596.278406 126.621555 
L 597.394406 126.281985 
L 598.510406 126.829455 
L 599.626406 125.866185 
L 600.742406 125.817675 
L 601.858406 128.603535 
L 602.974406 130.481565 
L 605.206406 131.250795 
L 606.322406 130.273665 
L 607.438406 131.174565 
L 608.554406 130.751835 
L 609.670406 130.938945 
L 610.786406 131.618085 
L 611.902406 133.205055 
L 613.018406 133.572345 
L 614.134406 132.955575 
L 615.250406 131.410185 
L 616.366406 129.428205 
L 617.482406 128.090715 
L 618.598406 128.021415 
L 619.714406 129.081705 
L 620.830406 128.451075 
L 621.946406 128.984685 
L 623.062406 127.411575 
L 624.178406 126.676995 
L 625.294406 124.348515 
L 626.410406 123.454545 
L 626.410406 123.454545 
" clip-path="url(#pd4e59f60de)" style="fill: none; stroke: #008000; stroke-width: 1.5; stroke-linecap: round"/>
   </g>
   <g id="patch_3">
    <path d="M 69.526406 354.958125 
L 69.526406 22.318125 
" style="fill: none; stroke: #ffffff; stroke-width: 1.25; stroke-linejoin: miter; stroke-linecap: square"/>
   </g>
   <g id="patch_4">
    <path d="M 627.526406 354.958125 
L 627.526406 22.318125 
" style="fill: none; stroke: #ffffff; stroke-width: 1.25; stroke-linejoin: miter; stroke-linecap: square"/>
   </g>
   <g id="patch_5">
    <path d="M 69.526406 354.958125 
L 627.526406 354.958125 
" style="fill: none; stroke: #ffffff; stroke-width: 1.25; stroke-linejoin: miter; stroke-linecap: square"/>
   </g>
   <g id="patch_6">
    <path d="M 69.526406 22.318125 
L 627.526406 22.318125 
" style="fill: none; stroke: #ffffff; stroke-width: 1.25; stroke-linejoin: miter; stroke-linecap: square"/>
   </g>
   <g id="text_18">
    <!-- Rewards over 500 Episodes.  -->
    <g style="fill: #262626" transform="translate(261.997031 16.318125) scale(0.12 -0.12)">
     <defs>
      <path id="DejaVuSans-20" transform="scale(0.015625)"/>
      <path id="DejaVuSans-76" d="M 191 3500 
L 800 3500 
L 1894 563 
L 2988 3500 
L 3597 3500 
L 2284 0 
L 1503 0 
L 191 3500 
z
" transform="scale(0.015625)"/>
      <path id="DejaVuSans-2e" d="M 684 794 
L 1344 794 
L 1344 0 
L 684 0 
L 684 794 
z
" transform="scale(0.015625)"/>
     </defs>
     <use xlink:href="#DejaVuSans-52"/>
     <use xlink:href="#DejaVuSans-65" x="64.982422"/>
     <use xlink:href="#DejaVuSans-77" x="126.505859"/>
     <use xlink:href="#DejaVuSans-61" x="208.292969"/>
     <use xlink:href="#DejaVuSans-72" x="269.572266"/>
     <use xlink:href="#DejaVuSans-64" x="308.935547"/>
     <use xlink:href="#DejaVuSans-73" x="372.412109"/>
     <use xlink:href="#DejaVuSans-20" x="424.511719"/>
     <use xlink:href="#DejaVuSans-6f" x="456.298828"/>
     <use xlink:href="#DejaVuSans-76" x="517.480469"/>
     <use xlink:href="#DejaVuSans-65" x="576.660156"/>
     <use xlink:href="#DejaVuSans-72" x="638.183594"/>
     <use xlink:href="#DejaVuSans-20" x="679.296875"/>
     <use xlink:href="#DejaVuSans-35" x="711.083984"/>
     <use xlink:href="#DejaVuSans-30" x="774.707031"/>
     <use xlink:href="#DejaVuSans-30" x="838.330078"/>
     <use xlink:href="#DejaVuSans-20" x="901.953125"/>
     <use xlink:href="#DejaVuSans-45" x="933.740234"/>
     <use xlink:href="#DejaVuSans-70" x="996.923828"/>
     <use xlink:href="#DejaVuSans-69" x="1060.400391"/>
     <use xlink:href="#DejaVuSans-73" x="1088.183594"/>
     <use xlink:href="#DejaVuSans-6f" x="1140.283203"/>
     <use xlink:href="#DejaVuSans-64" x="1201.464844"/>
     <use xlink:href="#DejaVuSans-65" x="1264.941406"/>
     <use xlink:href="#DejaVuSans-73" x="1326.464844"/>
     <use xlink:href="#DejaVuSans-2e" x="1378.564453"/>
     <use xlink:href="#DejaVuSans-20" x="1410.351562"/>
    </g>
   </g>
   <g id="legend_1">
    <g id="patch_7">
     <path d="M 562.423594 47.264063 
L 619.826406 47.264063 
Q 622.026406 47.264063 622.026406 45.064063 
L 622.026406 30.018125 
Q 622.026406 27.818125 619.826406 27.818125 
L 562.423594 27.818125 
Q 560.223594 27.818125 560.223594 30.018125 
L 560.223594 45.064063 
Q 560.223594 47.264063 562.423594 47.264063 
z
" style="fill: #eaeaf2; opacity: 0.8; stroke: #cccccc; stroke-linejoin: miter"/>
    </g>
    <g id="line2d_18">
     <path d="M 564.623594 36.726406 
L 575.623594 36.726406 
L 586.623594 36.726406 
" style="fill: none; stroke: #008000; stroke-width: 1.5; stroke-linecap: round"/>
    </g>
    <g id="text_19">
     <!-- SAC -->
     <g style="fill: #262626" transform="translate(595.423594 40.576406) scale(0.11 -0.11)">
      <defs>
       <path id="DejaVuSans-53" d="M 3425 4513 
L 3425 3897 
Q 3066 4069 2747 4153 
Q 2428 4238 2131 4238 
Q 1616 4238 1336 4038 
Q 1056 3838 1056 3469 
Q 1056 3159 1242 3001 
Q 1428 2844 1947 2747 
L 2328 2669 
Q 3034 2534 3370 2195 
Q 3706 1856 3706 1288 
Q 3706 609 3251 259 
Q 2797 -91 1919 -91 
Q 1588 -91 1214 -16 
Q 841 59 441 206 
L 441 856 
Q 825 641 1194 531 
Q 1563 422 1919 422 
Q 2459 422 2753 634 
Q 3047 847 3047 1241 
Q 3047 1584 2836 1778 
Q 2625 1972 2144 2069 
L 1759 2144 
Q 1053 2284 737 2584 
Q 422 2884 422 3419 
Q 422 4038 858 4394 
Q 1294 4750 2059 4750 
Q 2388 4750 2728 4690 
Q 3069 4631 3425 4513 
z
" transform="scale(0.015625)"/>
       <path id="DejaVuSans-41" d="M 2188 4044 
L 1331 1722 
L 3047 1722 
L 2188 4044 
z
M 1831 4666 
L 2547 4666 
L 4325 0 
L 3669 0 
L 3244 1197 
L 1141 1197 
L 716 0 
L 50 0 
L 1831 4666 
z
" transform="scale(0.015625)"/>
       <path id="DejaVuSans-43" d="M 4122 4306 
L 4122 3641 
Q 3803 3938 3442 4084 
Q 3081 4231 2675 4231 
Q 1875 4231 1450 3742 
Q 1025 3253 1025 2328 
Q 1025 1406 1450 917 
Q 1875 428 2675 428 
Q 3081 428 3442 575 
Q 3803 722 4122 1019 
L 4122 359 
Q 3791 134 3420 21 
Q 3050 -91 2638 -91 
Q 1578 -91 968 557 
Q 359 1206 359 2328 
Q 359 3453 968 4101 
Q 1578 4750 2638 4750 
Q 3056 4750 3426 4639 
Q 3797 4528 4122 4306 
z
" transform="scale(0.015625)"/>
      </defs>
      <use xlink:href="#DejaVuSans-53"/>
      <use xlink:href="#DejaVuSans-41" x="65.351562"/>
      <use xlink:href="#DejaVuSans-43" x="132.009766"/>
     </g>
    </g>
   </g>
  </g>
 </g>
 <defs>
  <clipPath id="pd4e59f60de">
   <rect x="69.526406" y="22.318125" width="558" height="332.64"/>
  </clipPath>
 </defs>
</svg>
